999
dxfrw 0.6.3
  0
SECTION
  2
HEADER
  9
$ACADVER
  1
AC1021
  9
$DWGCODEPAGE
  3
ANSI_1252
  9
$INSBASE
 10
0
 20
0
 30
0
  9
$EXTMIN
 10
-107.6699999999967
 20
-190.4599010000001
 30
0
  9
$EXTMAX
 10
240.3872934
 20
3.000000000000012
 30
0
  9
$LIMMIN
 10
0
 20
0
  9
$LIMMAX
 10
420
 20
297
  9
$ORTHOMODE
 70
    0
  9
$REGENMODE
 70
    1
  9
$FILLMODE
 70
    1
  9
$QTEXTMODE
 70
    0
  9
$MIRRTEXT
 70
    0
  9
$LTSCALE
 40
1
  9
$ATTMODE
 70
    0
  9
$TEXTSIZE
 40
2.5
  9
$TRACEWID
 40
15.68
  9
$TEXTSTYLE
  7
STANDARD
  9
$CLAYER
  8
0
  9
$CELTYPE
  6
BYLAYER
  9
$CECOLOR
 62
  256
  9
$CELTSCALE
 40
1
  9
$DISPSILH
 70
    0
  9
$DIMSCALE
 40
2.5
  9
$DIMASZ
 40
2.5
  9
$DIMEXO
 40
0.625
  9
$DIMDLI
 40
3.75
  9
$DIMRND
 40
0
  9
$DIMDLE
 40
0
  9
$DIMEXE
 40
1.25
  9
$DIMTP
 40
0
  9
$DIMTM
 40
0
  9
$DIMTXT
 40
2.5
  9
$DIMCEN
 40
2.5
  9
$DIMTSZ
 40
0
  9
$DIMTOL
 70
    0
  9
$DIMLIM
 70
    0
  9
$DIMTIH
 70
    0
  9
$DIMTOH
 70
    0
  9
$DIMSE1
 70
    0
  9
$DIMSE2
 70
    0
  9
$DIMTAD
 70
    1
  9
$DIMZIN
 70
    8
  9
$DIMBLK
  1

  9
$DIMASO
 70
    1
  9
$DIMSHO
 70
    1
  9
$DIMPOST
  1

  9
$DIMAPOST
  1

  9
$DIMALT
 70
    0
  9
$DIMALTD
 70
    3
  9
$DIMALTF
 40
0.03937
  9
$DIMLFAC
 40
1
  9
$DIMTOFL
 70
    1
  9
$DIMTVP
 40
0
  9
$DIMTIX
 70
    0
  9
$DIMSOXD
 70
    0
  9
$DIMSAH
 70
    0
  9
$DIMBLK1
  1

  9
$DIMBLK2
  1

  9
$DIMSTYLE
  2
Standard
  9
$DIMCLRD
 70
    0
  9
$DIMCLRE
 70
    0
  9
$DIMCLRT
 70
    0
  9
$DIMTFAC
 40
1
  9
$DIMGAP
 40
0.625
  9
$DIMJUST
 70
    0
  9
$DIMSD1
 70
    0
  9
$DIMSD2
 70
    0
  9
$DIMTOLJ
 70
    0
  9
$DIMTZIN
 70
    8
  9
$DIMALTZ
 70
    0
  9
$DIMALTTZ
 70
    0
  9
$DIMUPT
 70
    0
  9
$DIMDEC
 70
    2
  9
$DIMTDEC
 70
    2
  9
$DIMALTU
 70
    2
  9
$DIMALTTD
 70
    3
  9
$DIMTXSTY
  7
STANDARD
  9
$DIMAUNIT
 70
    0
  9
$DIMADEC
 70
    0
  9
$DIMALTRND
 40
0
  9
$DIMAZIN
 70
    0
  9
$DIMDSEP
 70
   44
  9
$DIMATFIT
 70
    3
  9
$DIMFRAC
 70
    0
  9
$DIMLDRBLK
  1
STANDARD
  9
$DIMLUNIT
 70
    2
  9
$DIMLWD
 70
   -2
  9
$DIMLWE
 70
   -2
  9
$DIMTMOVE
 70
    0
  9
$DIMFXL
 40
1
  9
$DIMFXLON
 70
    0
  9
$DIMJOGANG
 40
0.7854
  9
$DIMTFILL
 70
    0
  9
$DIMTFILLCLR
 70
    0
  9
$DIMARCSYM
 70
    0
  9
$DIMLTYPE
  6

  9
$DIMLTEX1
  6

  9
$DIMLTEX2
  6

  9
$LUNITS
 70
    2
  9
$LUPREC
 70
    4
  9
$SKETCHINC
 40
1
  9
$FILLETRAD
 40
0
  9
$AUNITS
 70
    0
  9
$AUPREC
 70
    2
  9
$MENU
  1
.
  9
$ELEVATION
 40
0
  9
$PELEVATION
 40
0
  9
$THICKNESS
 40
0
  9
$LIMCHECK
 70
    0
  9
$CHAMFERA
 40
0
  9
$CHAMFERB
 40
0
  9
$CHAMFERC
 40
0
  9
$CHAMFERD
 40
0
  9
$SKPOLY
 70
    0
  9
$USRTIMER
 70
    1
  9
$ANGBASE
 50
0
  9
$ANGDIR
 70
    0
  9
$PDMODE
 70
   34
  9
$PDSIZE
 40
0
  9
$PLINEWID
 40
0
  9
$SPLFRAME
 70
    0
  9
$SPLINETYPE
 70
    2
  9
$SPLINESEGS
 70
    8
  9
$HANDSEED
  5
20000
  9
$SURFTAB1
 70
    6
  9
$SURFTAB2
 70
    6
  9
$SURFTYPE
 70
    6
  9
$SURFU
 70
    6
  9
$SURFV
 70
    6
  9
$UCSBASE
  2

  9
$UCSNAME
  2

  9
$UCSORG
 10
0
 20
0
 30
0
  9
$UCSXDIR
 10
1
 20
0
 30
0
  9
$UCSYDIR
 10
0
 20
1
 30
0
  9
$UCSORTHOREF
  2

  9
$UCSORTHOVIEW
 70
    0
  9
$UCSORGTOP
 10
0
 20
0
 30
0
  9
$UCSORGBOTTOM
 10
0
 20
0
 30
0
  9
$UCSORGLEFT
 10
0
 20
0
 30
0
  9
$UCSORGRIGHT
 10
0
 20
0
 30
0
  9
$UCSORGFRONT
 10
0
 20
0
 30
0
  9
$UCSORGBACK
 10
0
 20
0
 30
0
  9
$PUCSBASE
  2

  9
$PUCSNAME
  2

  9
$PUCSORG
 10
0
 20
0
 30
0
  9
$PUCSXDIR
 10
1
 20
0
 30
0
  9
$PUCSYDIR
 10
0
 20
1
 30
0
  9
$PUCSORTHOREF
  2

  9
$PUCSORTHOVIEW
 70
    0
  9
$PUCSORGTOP
 10
0
 20
0
 30
0
  9
$PUCSORGBOTTOM
 10
0
 20
0
 30
0
  9
$PUCSORGLEFT
 10
0
 20
0
 30
0
  9
$PUCSORGRIGHT
 10
0
 20
0
 30
0
  9
$PUCSORGFRONT
 10
0
 20
0
 30
0
  9
$PUCSORGBACK
 10
0
 20
0
 30
0
  9
$USERI1
 70
    0
  9
$USERI2
 70
    0
  9
$USERI3
 70
    0
  9
$USERI4
 70
    0
  9
$USERI5
 70
    0
  9
$USERR1
 40
0
  9
$USERR2
 40
0
  9
$USERR3
 40
0
  9
$USERR4
 40
0
  9
$USERR5
 40
0
  9
$WORLDVIEW
 70
    1
  9
$SHADEDGE
 70
    3
  9
$SHADEDIF
 70
   70
  9
$TILEMODE
 70
    1
  9
$MAXACTVP
 70
   64
  9
$PINSBASE
 10
0
 20
0
 30
0
  9
$PLIMCHECK
 70
    0
  9
$PEXTMIN
 10
0
 20
0
 30
0
  9
$PEXTMAX
 10
0
 20
0
 30
0
  9
$GRIDMODE
 70
    1
  9
$SNAPSTYLE
 70
    0
  9
$PLIMMIN
 10
0
 20
0
  9
$PLIMMAX
 10
210
 20
297
  9
$UNITMODE
 70
    0
  9
$VISRETAIN
 70
    1
  9
$PLINEGEN
 70
    0
  9
$PSLTSCALE
 70
    1
  9
$TREEDEPTH
 70
 3020
  9
$CMLSTYLE
  2
Standard
  9
$CMLJUST
 70
    0
  9
$CMLSCALE
 40
20
  9
$PROXYGRAPHICS
 70
    1
  9
$MEASUREMENT
 70
    1
  9
$CELWEIGHT
370
   -1
  9
$ENDCAPS
280
    0
  9
$JOINSTYLE
280
    0
  9
$LWDISPLAY
290
    0
  9
$INSUNITS
 70
    4
  9
$HYPERLINKBASE
  1

  9
$STYLESHEET
  1

  9
$XEDIT
290
    1
  9
$CEPSNTYPE
380
    0
  9
$PSTYLEMODE
290
    1
  9
$EXTNAMES
290
    1
  9
$PSVPSCALE
 40
1
  9
$OLESTARTUP
290
    0
  9
$SORTENTS
280
  127
  9
$INDEXCTL
280
    0
  9
$HIDETEXT
280
    1
  9
$XCLIPFRAME
290
    0
  9
$HALOGAP
280
    0
  9
$OBSCOLOR
 70
  257
  9
$OBSLTYPE
280
    0
  9
$INTERSECTIONDISPLAY
280
    0
  9
$INTERSECTIONCOLOR
 70
  257
  9
$DIMASSOC
280
    1
  9
$PROJECTNAME
  1

  9
$CAMERADISPLAY
290
    0
  9
$LENSLENGTH
 40
50
  9
$CAMERAHEIGHT
 40
0
  9
$STEPSPERSEC
 40
2
  9
$STEPSIZE
 40
50
  9
$3DDWFPREC
 40
2
  9
$PSOLWIDTH
 40
5
  9
$PSOLHEIGHT
 40
80
  9
$LOFTANG1
 40
1.570796326794897
  9
$LOFTANG2
 40
1.570796326794897
  9
$LOFTMAG1
 40
0
  9
$LOFTMAG2
 40
0
  9
$LOFTPARAM
 70
    7
  9
$LOFTNORMALS
280
    1
  9
$LATITUDE
 40
1
  9
$LONGITUDE
 40
1
  9
$NORTHDIRECTION
 40
0
  9
$TIMEZONE
 70
-8000
  9
$LIGHTGLYPHDISPLAY
280
    1
  9
$TILEMODELIGHTSYNCH
280
    1
  9
$SOLIDHIST
280
    1
  9
$SHOWHIST
280
    1
  9
$DWFFRAME
280
    2
  9
$DGNFRAME
280
    0
  9
$REALWORLDSCALE
290
    1
  9
$INTERFERECOLOR
 62
    1
  9
$CSHADOW
280
    0
  9
$SHADOWPLANELOCATION
 40
0
  0
ENDSEC
  0
SECTION
  2
CLASSES
  0
ENDSEC
  0
SECTION
  2
TABLES
  0
TABLE
  2
VPORT
  5
8
330
0
100
AcDbSymbolTable
 70
    1
  0
VPORT
  5
31
330
2
100
AcDbSymbolTableRecord
100
AcDbViewportTableRecord
  2
*ACTIVE
 70
    0
 10
0
 20
0
 11
1
 21
1
 12
145.4687500002599
 22
12.34375000002205
 13
0
 23
0
 14
10
 24
10
 15
10
 25
10
 16
0
 26
0
 36
1
 17
0
 27
0
 37
0
 40
136.2500000002434
 41
2.454128440366973
 42
50
 43
0
 44
0
 50
0
 51
0
 71
    0
 72
  100
 73
    1
 74
    3
 75
    0
 76
    1
 77
    0
 78
    0
281
    0
 65
    1
110
0
120
0
130
0
111
1
121
0
131
0
112
0
122
1
132
0
 79
    0
146
0
348
10020
 60
    7
 61
    5
292
1
282
    1
141
0
142
0
 63
  250
421
3358443
  0
ENDTAB
  0
TABLE
  2
LTYPE
  5
5
330
0
100
AcDbSymbolTable
 70
    4
  0
LTYPE
  5
14
330
5
100
AcDbSymbolTableRecord
100
AcDbLinetypeTableRecord
  2
ByBlock
 70
    0
  3

 72
   65
 73
    0
 40
0
  0
LTYPE
  5
15
330
5
100
AcDbSymbolTableRecord
100
AcDbLinetypeTableRecord
  2
ByLayer
 70
    0
  3

 72
   65
 73
    0
 40
0
  0
LTYPE
  5
16
330
5
100
AcDbSymbolTableRecord
100
AcDbLinetypeTableRecord
  2
Continuous
 70
    0
  3
Solid line
 72
   65
 73
    0
 40
0
  0
LTYPE
  5
32
330
5
100
AcDbSymbolTableRecord
100
AcDbLinetypeTableRecord
  2
DOT
 70
    0
  3
Dot . . . . . . . . . . . . . . . . . . . . . .
 72
   65
 73
    2
 40
6.35
 49
0
 74
    0
 49
-6.35
 74
    0
  0
LTYPE
  5
33
330
5
100
AcDbSymbolTableRecord
100
AcDbLinetypeTableRecord
  2
DOTTINY
 70
    0
  3
Dot (.15x) .....................................
 72
   65
 73
    2
 40
0.9525
 49
0
 74
    0
 49
-0.9525
 74
    0
  0
LTYPE
  5
34
330
5
100
AcDbSymbolTableRecord
100
AcDbLinetypeTableRecord
  2
DOT2
 70
    0
  3
Dot (.5x) .....................................
 72
   65
 73
    2
 40
3.175
 49
0
 74
    0
 49
-3.175
 74
    0
  0
LTYPE
  5
35
330
5
100
AcDbSymbolTableRecord
100
AcDbLinetypeTableRecord
  2
DOTX2
 70
    0
  3
Dot (2x) .  .  .  .  .  .  .  .  .  .  .  .  .
 72
   65
 73
    2
 40
12.7
 49
0
 74
    0
 49
-12.7
 74
    0
  0
LTYPE
  5
36
330
5
100
AcDbSymbolTableRecord
100
AcDbLinetypeTableRecord
  2
DASHED
 70
    0
  3
Dashed _ _ _ _ _ _ _ _ _ _ _ _ _ _ _ _ _
 72
   65
 73
    2
 40
19.05
 49
12.7
 74
    0
 49
-6.35
 74
    0
  0
LTYPE
  5
37
330
5
100
AcDbSymbolTableRecord
100
AcDbLinetypeTableRecord
  2
DASHEDTINY
 70
    0
  3
Dashed (.15x) _ _ _ _ _ _ _ _ _ _ _ _ _ _ _ _ _
 72
   65
 73
    2
 40
2.8575
 49
1.905
 74
    0
 49
-0.9525
 74
    0
  0
LTYPE
  5
38
330
5
100
AcDbSymbolTableRecord
100
AcDbLinetypeTableRecord
  2
DASHED2
 70
    0
  3
Dashed (.5x) _ _ _ _ _ _ _ _ _ _ _ _ _ _ _ _ _
 72
   65
 73
    2
 40
9.524999999999999
 49
6.35
 74
    0
 49
-3.175
 74
    0
  0
LTYPE
  5
39
330
5
100
AcDbSymbolTableRecord
100
AcDbLinetypeTableRecord
  2
DASHEDX2
 70
    0
  3
Dashed (2x) ____  ____  ____  ____  ____  ___
 72
   65
 73
    2
 40
38.09999999999999
 49
25.4
 74
    0
 49
-12.7
 74
    0
  0
LTYPE
  5
3A
330
5
100
AcDbSymbolTableRecord
100
AcDbLinetypeTableRecord
  2
DASHDOT
 70
    0
  3
Dash dot __ . __ . __ . __ . __ . __ . __ . __
 72
   65
 73
    4
 40
25.4
 49
12.7
 74
    0
 49
-6.35
 74
    0
 49
0
 74
    0
 49
-6.35
 74
    0
  0
LTYPE
  5
3B
330
5
100
AcDbSymbolTableRecord
100
AcDbLinetypeTableRecord
  2
DASHDOTTINY
 70
    0
  3
Dash dot (.15x) _._._._._._._._._._._._._._._.
 72
   65
 73
    4
 40
3.81
 49
1.905
 74
    0
 49
-0.9525
 74
    0
 49
0
 74
    0
 49
-0.9525
 74
    0
  0
LTYPE
  5
3C
330
5
100
AcDbSymbolTableRecord
100
AcDbLinetypeTableRecord
  2
DASHDOT2
 70
    0
  3
Dash dot (.5x) _._._._._._._._._._._._._._._.
 72
   65
 73
    4
 40
12.7
 49
6.35
 74
    0
 49
-3.175
 74
    0
 49
0
 74
    0
 49
-3.175
 74
    0
  0
LTYPE
  5
3D
330
5
100
AcDbSymbolTableRecord
100
AcDbLinetypeTableRecord
  2
DASHDOTX2
 70
    0
  3
Dash dot (2x) ____  .  ____  .  ____  .  ___
 72
   65
 73
    4
 40
50.8
 49
25.4
 74
    0
 49
-12.7
 74
    0
 49
0
 74
    0
 49
-12.7
 74
    0
  0
LTYPE
  5
3E
330
5
100
AcDbSymbolTableRecord
100
AcDbLinetypeTableRecord
  2
DIVIDE
 70
    0
  3
Divide ____ . . ____ . . ____ . . ____ . . ____
 72
   65
 73
    6
 40
31.75
 49
12.7
 74
    0
 49
-6.35
 74
    0
 49
0
 74
    0
 49
-6.35
 74
    0
 49
0
 74
    0
 49
-6.35
 74
    0
  0
LTYPE
  5
3F
330
5
100
AcDbSymbolTableRecord
100
AcDbLinetypeTableRecord
  2
DIVIDETINY
 70
    0
  3
Divide (.15x) __..__..__..__..__..__..__..__.._
 72
   65
 73
    6
 40
4.7625
 49
1.905
 74
    0
 49
-0.9525
 74
    0
 49
0
 74
    0
 49
-0.9525
 74
    0
 49
0
 74
    0
 49
-0.9525
 74
    0
  0
LTYPE
  5
40
330
5
100
AcDbSymbolTableRecord
100
AcDbLinetypeTableRecord
  2
DIVIDE2
 70
    0
  3
Divide (.5x) __..__..__..__..__..__..__..__.._
 72
   65
 73
    6
 40
15.875
 49
6.35
 74
    0
 49
-3.175
 74
    0
 49
0
 74
    0
 49
-3.175
 74
    0
 49
0
 74
    0
 49
-3.175
 74
    0
  0
LTYPE
  5
41
330
5
100
AcDbSymbolTableRecord
100
AcDbLinetypeTableRecord
  2
DIVIDEX2
 70
    0
  3
Divide (2x) ________  .  .  ________  .  .  _
 72
   65
 73
    6
 40
63.5
 49
25.4
 74
    0
 49
-12.7
 74
    0
 49
0
 74
    0
 49
-12.7
 74
    0
 49
0
 74
    0
 49
-12.7
 74
    0
  0
LTYPE
  5
42
330
5
100
AcDbSymbolTableRecord
100
AcDbLinetypeTableRecord
  2
BORDER
 70
    0
  3
Border __ __ . __ __ . __ __ . __ __ . __ __ .
 72
   65
 73
    6
 40
44.45
 49
12.7
 74
    0
 49
-6.35
 74
    0
 49
12.7
 74
    0
 49
-6.35
 74
    0
 49
0
 74
    0
 49
-6.35
 74
    0
  0
LTYPE
  5
43
330
5
100
AcDbSymbolTableRecord
100
AcDbLinetypeTableRecord
  2
BORDERTINY
 70
    0
  3
Border (.15x) __.__.__.__.__.__.__.__.__.__.__.
 72
   65
 73
    6
 40
6.6675
 49
1.905
 74
    0
 49
-0.9525
 74
    0
 49
1.905
 74
    0
 49
-0.9525
 74
    0
 49
0
 74
    0
 49
-0.9525
 74
    0
  0
LTYPE
  5
44
330
5
100
AcDbSymbolTableRecord
100
AcDbLinetypeTableRecord
  2
BORDER2
 70
    0
  3
Border (.5x) __.__.__.__.__.__.__.__.__.__.__.
 72
   65
 73
    6
 40
22.225
 49
6.35
 74
    0
 49
-3.175
 74
    0
 49
6.35
 74
    0
 49
-3.175
 74
    0
 49
0
 74
    0
 49
-3.175
 74
    0
  0
LTYPE
  5
45
330
5
100
AcDbSymbolTableRecord
100
AcDbLinetypeTableRecord
  2
BORDERX2
 70
    0
  3
Border (2x) ____  ____  .  ____  ____  .  ___
 72
   65
 73
    6
 40
88.89999999999999
 49
25.4
 74
    0
 49
-12.7
 74
    0
 49
25.4
 74
    0
 49
-12.7
 74
    0
 49
0
 74
    0
 49
-12.7
 74
    0
  0
LTYPE
  5
46
330
5
100
AcDbSymbolTableRecord
100
AcDbLinetypeTableRecord
  2
CENTER
 70
    0
  3
Center ____ _ ____ _ ____ _ ____ _ ____ _ ____
 72
   65
 73
    4
 40
50.8
 49
31.75
 74
    0
 49
-6.35
 74
    0
 49
6.35
 74
    0
 49
-6.35
 74
    0
  0
LTYPE
  5
47
330
5
100
AcDbSymbolTableRecord
100
AcDbLinetypeTableRecord
  2
CENTERTINY
 70
    0
  3
Center (.15x) ___ _ ___ _ ___ _ ___ _ ___ _ ___
 72
   65
 73
    4
 40
7.619999999999999
 49
4.7625
 74
    0
 49
-0.9525
 74
    0
 49
0.9525
 74
    0
 49
-0.9525
 74
    0
  0
LTYPE
  5
48
330
5
100
AcDbSymbolTableRecord
100
AcDbLinetypeTableRecord
  2
CENTER2
 70
    0
  3
Center (.5x) ___ _ ___ _ ___ _ ___ _ ___ _ ___
 72
   65
 73
    4
 40
28.575
 49
19.05
 74
    0
 49
-3.175
 74
    0
 49
3.175
 74
    0
 49
-3.175
 74
    0
  0
LTYPE
  5
49
330
5
100
AcDbSymbolTableRecord
100
AcDbLinetypeTableRecord
  2
CENTERX2
 70
    0
  3
Center (2x) ________  __  ________  __  _____
 72
   65
 73
    4
 40
101.6
 49
63.5
 74
    0
 49
-12.7
 74
    0
 49
12.7
 74
    0
 49
-12.7
 74
    0
  0
ENDTAB
  0
TABLE
  2
LAYER
  5
2
330
0
100
AcDbSymbolTable
 70
    1
  0
LAYER
  5
10
330
2
100
AcDbSymbolTableRecord
100
AcDbLayerTableRecord
  2
0
 70
    0
 62
    7
  6
CONTINUOUS
370
   -3
390
F
  0
LAYER
  5
4A
330
2
100
AcDbSymbolTableRecord
100
AcDbLayerTableRecord
  2
Defpoints
 70
    0
 62
    7
  6
CONTINUOUS
290
0
370
   -3
390
F
1001
LibreCad
1070
    1
  0
LAYER
  5
4B
330
2
100
AcDbSymbolTableRecord
100
AcDbLayerTableRecord
  2
View Port
 70
    0
 62
    7
  6
CONTINUOUS
290
0
370
   -3
390
F
1001
LibreCad
1070
    1
  0
ENDTAB
  0
TABLE
  2
STYLE
  5
3
330
0
100
AcDbSymbolTable
 70
    3
  0
STYLE
  5
4C
330
2
100
AcDbSymbolTableRecord
100
AcDbTextStyleTableRecord
  2
Standard
 70
    0
 40
0
 41
1
 50
0
 71
    0
 42
1
  3
txt
  4

  0
ENDTAB
  0
TABLE
  2
VIEW
  5
6
330
0
100
AcDbSymbolTable
 70
    0
  0
ENDTAB
  0
TABLE
  2
UCS
  5
7
330
0
100
AcDbSymbolTable
 70
    0
  0
ENDTAB
  0
TABLE
  2
APPID
  5
9
330
0
100
AcDbSymbolTable
 70
    1
  0
APPID
  5
12
330
9
100
AcDbSymbolTableRecord
100
AcDbRegAppTableRecord
  2
ACAD
 70
    0
  0
APPID
  5
4D
330
9
100
AcDbSymbolTableRecord
100
AcDbRegAppTableRecord
  2
LibreCad
 70
    0
  0
ENDTAB
  0
TABLE
  2
DIMSTYLE
  5
A
330
0
100
AcDbSymbolTable
 70
    1
100
AcDbDimStyleTable
 71
    1
  0
DIMSTYLE
105
4E
330
A
100
AcDbSymbolTableRecord
100
AcDbDimStyleTableRecord
  2
Standard
 70
    0
 40
2.5
 41
2.5
 42
0.625
 43
0.38
 44
1.25
 45
0
 46
0
 47
0
 48
0
 49
1
140
2.5
141
0.09
142
0
143
25.4
144
1
145
0
146
1
147
0.625
148
0
 71
    0
 72
    0
 73
    0
 74
    1
 75
    0
 76
    0
 77
    0
 78
    8
 79
    0
170
    0
171
    2
172
    0
173
    0
174
    0
175
    0
176
    0
177
    0
178
    0
179
    0
271
    2
272
    4
273
    2
274
    2
275
    0
276
    0
277
    2
278
   44
279
    0
280
    0
281
    0
282
    0
283
    1
284
    0
285
    0
286
    0
288
    0
289
    3
340
STANDARD
341

371
   -2
372
   -2
  0
ENDTAB
  0
TABLE
  2
BLOCK_RECORD
  5
1
330
0
100
AcDbSymbolTable
 70
    2
  0
BLOCK_RECORD
  5
1F
330
1
100
AcDbSymbolTableRecord
100
AcDbBlockTableRecord
  2
*Model_Space
 70
    0
280
    1
281
    0
  0
BLOCK_RECORD
  5
1E
330
1
100
AcDbSymbolTableRecord
100
AcDbBlockTableRecord
  2
*Paper_Space
 70
    0
280
    1
281
    0
  0
BLOCK_RECORD
  5
4F
330
1
100
AcDbSymbolTableRecord
100
AcDbBlockTableRecord
  2
_ArchTick
 70
    0
280
    1
281
    0
  0
BLOCK_RECORD
  5
52
330
1
100
AcDbSymbolTableRecord
100
AcDbBlockTableRecord
  2
_Open30
 70
    0
280
    1
281
    0
  0
BLOCK_RECORD
  5
55
330
1
100
AcDbSymbolTableRecord
100
AcDbBlockTableRecord
  2
plate-20190617-183949
 70
    0
280
    1
281
    0
  0
ENDTAB
  0
ENDSEC
  0
SECTION
  2
BLOCKS
  0
BLOCK
  5
20
330
1F
100
AcDbEntity
  8
0
100
AcDbBlockBegin
  2
*Model_Space
 70
    0
 10
0
 20
0
 30
0
  3
*Model_Space
  1

  0
ENDBLK
  5
21
330
1F
100
AcDbEntity
  8
0
100
AcDbBlockEnd
  0
BLOCK
  5
1C
330
1B
100
AcDbEntity
  8
0
100
AcDbBlockBegin
  2
*Paper_Space
 70
    0
 10
0
 20
0
 30
0
  3
*Paper_Space
  1

  0
ENDBLK
  5
1D
330
1F
100
AcDbEntity
  8
0
100
AcDbBlockEnd
  0
BLOCK
  5
50
330
4F
100
AcDbEntity
  8
0
100
AcDbBlockBegin
  2
_ArchTick
 70
    0
 10
0
 20
0
  3
_ArchTick
  1

  0
LWPOLYLINE
  5
58
100
AcDbEntity
  8
0
  6
ByBlock
 62
    0
370
   -1
100
AcDbPolyline
 90
    2
 70
    0
 43
0
 10
-0.5
 20
-0.5
 10
0.5
 20
0.5
  0
ENDBLK
  5
51
330
4F
100
AcDbEntity
  8
0
100
AcDbBlockEnd
  0
BLOCK
  5
53
330
52
100
AcDbEntity
  8
0
100
AcDbBlockBegin
  2
_Open30
 70
    0
 10
0
 20
0
  3
_Open30
  1

  0
LINE
  5
59
100
AcDbEntity
  8
0
  6
ByBlock
 62
    0
370
   -2
100
AcDbLine
 10
-1
 20
0.26794919
 11
0
 21
0
  0
LINE
  5
5A
100
AcDbEntity
  8
0
  6
ByBlock
 62
    0
370
   -2
100
AcDbLine
 10
0
 20
0
 11
-1
 21
-0.26794919
  0
LINE
  5
5B
100
AcDbEntity
  8
0
  6
ByBlock
 62
    0
370
   -2
100
AcDbLine
 10
0
 20
0
 11
-1
 21
0
  0
ENDBLK
  5
54
330
52
100
AcDbEntity
  8
0
100
AcDbBlockEnd
  0
BLOCK
  5
56
330
55
100
AcDbEntity
  8
0
100
AcDbBlockBegin
  2
plate-20190617-183949
 70
    0
 10
0
 20
0
  3
plate-20190617-183949
  1

  0
LINE
  5
5C
100
AcDbEntity
  8
0
  6
ByLayer
 62
  256
370
   -1
100
AcDbLine
 10
3.525000000000006
 20
-2.525000000000006
 11
15.52500000000001
 21
-2.525000000000006
  0
LINE
  5
5D
100
AcDbEntity
  8
0
  6
ByLayer
 62
  256
370
   -1
100
AcDbLine
 10
3.525000000000006
 20
-16.52500000000001
 11
15.52500000000001
 21
-16.52500000000001
  0
LINE
  5
5E
100
AcDbEntity
  8
0
  6
ByLayer
 62
  256
370
   -1
100
AcDbLine
 10
2.525000000000006
 20
-3.525000000000006
 11
2.525000000000006
 21
-15.52500000000001
  0
LINE
  5
5F
100
AcDbEntity
  8
0
  6
ByLayer
 62
  256
370
   -1
100
AcDbLine
 10
16.52500000000001
 20
-3.525000000000006
 11
16.52500000000001
 21
-15.52500000000001
  0
ARC
  5
60
100
AcDbEntity
  8
0
  6
ByLayer
 62
  256
370
   -1
100
AcDbCircle
 10
3.525000000000006
 20
-3.525000000000006
 40
1
100
AcDbArc
 50
90
 51
180
  0
ARC
  5
61
100
AcDbEntity
  8
0
  6
ByLayer
 62
  256
370
   -1
100
AcDbCircle
 10
15.52500000000001
 20
-3.525000000000006
 40
1
100
AcDbArc
 50
0
 51
90
  0
ARC
  5
62
100
AcDbEntity
  8
0
  6
ByLayer
 62
  256
370
   -1
100
AcDbCircle
 10
3.525000000000006
 20
-15.52500000000001
 40
1
100
AcDbArc
 50
180
 51
270
  0
ARC
  5
63
100
AcDbEntity
  8
0
  6
ByLayer
 62
  256
370
   -1
100
AcDbCircle
 10
15.52500000000001
 20
-15.52500000000001
 40
1
100
AcDbArc
 50
270
 51
360
  0
LINE
  5
64
100
AcDbEntity
  8
0
  6
ByLayer
 62
  256
370
   -1
100
AcDbLine
 10
22.57499999999999
 20
-2.525000000000006
 11
34.57500000000002
 21
-2.525000000000006
  0
LINE
  5
65
100
AcDbEntity
  8
0
  6
ByLayer
 62
  256
370
   -1
100
AcDbLine
 10
22.57499999999999
 20
-16.52500000000001
 11
34.57500000000002
 21
-16.52500000000001
  0
LINE
  5
66
100
AcDbEntity
  8
0
  6
ByLayer
 62
  256
370
   -1
100
AcDbLine
 10
21.57499999999999
 20
-3.525000000000006
 11
21.57499999999999
 21
-15.52500000000001
  0
LINE
  5
67
100
AcDbEntity
  8
0
  6
ByLayer
 62
  256
370
   -1
100
AcDbLine
 10
35.57500000000002
 20
-3.525000000000006
 11
35.57500000000002
 21
-15.52500000000001
  0
ARC
  5
68
100
AcDbEntity
  8
0
  6
ByLayer
 62
  256
370
   -1
100
AcDbCircle
 10
22.57499999999999
 20
-3.525000000000006
 40
1
100
AcDbArc
 50
90
 51
180
  0
ARC
  5
69
100
AcDbEntity
  8
0
  6
ByLayer
 62
  256
370
   -1
100
AcDbCircle
 10
34.57500000000002
 20
-3.525000000000006
 40
1
100
AcDbArc
 50
0
 51
90
  0
ARC
  5
6A
100
AcDbEntity
  8
0
  6
ByLayer
 62
  256
370
   -1
100
AcDbCircle
 10
22.57499999999999
 20
-15.52500000000001
 40
1
100
AcDbArc
 50
180
 51
270
  0
ARC
  5
6B
100
AcDbEntity
  8
0
  6
ByLayer
 62
  256
370
   -1
100
AcDbCircle
 10
34.57500000000002
 20
-15.52500000000001
 40
1
100
AcDbArc
 50
270
 51
360
  0
LINE
  5
6C
100
AcDbEntity
  8
0
  6
ByLayer
 62
  256
370
   -1
100
AcDbLine
 10
41.625
 20
-2.525000000000006
 11
53.625
 21
-2.525000000000006
  0
LINE
  5
6D
100
AcDbEntity
  8
0
  6
ByLayer
 62
  256
370
   -1
100
AcDbLine
 10
41.625
 20
-16.52500000000001
 11
53.625
 21
-16.52500000000001
  0
LINE
  5
6E
100
AcDbEntity
  8
0
  6
ByLayer
 62
  256
370
   -1
100
AcDbLine
 10
40.625
 20
-3.525000000000006
 11
40.625
 21
-15.52500000000001
  0
LINE
  5
6F
100
AcDbEntity
  8
0
  6
ByLayer
 62
  256
370
   -1
100
AcDbLine
 10
54.625
 20
-3.525000000000006
 11
54.625
 21
-15.52500000000001
  0
ARC
  5
70
100
AcDbEntity
  8
0
  6
ByLayer
 62
  256
370
   -1
100
AcDbCircle
 10
41.625
 20
-3.525000000000006
 40
1
100
AcDbArc
 50
90
 51
180
  0
ARC
  5
71
100
AcDbEntity
  8
0
  6
ByLayer
 62
  256
370
   -1
100
AcDbCircle
 10
53.625
 20
-3.525000000000006
 40
1
100
AcDbArc
 50
0
 51
90
  0
ARC
  5
72
100
AcDbEntity
  8
0
  6
ByLayer
 62
  256
370
   -1
100
AcDbCircle
 10
41.625
 20
-15.52500000000001
 40
1
100
AcDbArc
 50
180
 51
270
  0
ARC
  5
73
100
AcDbEntity
  8
0
  6
ByLayer
 62
  256
370
   -1
100
AcDbCircle
 10
53.625
 20
-15.52500000000001
 40
1
100
AcDbArc
 50
270
 51
360
  0
LINE
  5
74
100
AcDbEntity
  8
0
  6
ByLayer
 62
  256
370
   -1
100
AcDbLine
 10
60.67499999999998
 20
-2.525000000000006
 11
72.67499999999998
 21
-2.525000000000006
  0
LINE
  5
75
100
AcDbEntity
  8
0
  6
ByLayer
 62
  256
370
   -1
100
AcDbLine
 10
60.67499999999998
 20
-16.52500000000001
 11
72.67499999999998
 21
-16.52500000000001
  0
LINE
  5
76
100
AcDbEntity
  8
0
  6
ByLayer
 62
  256
370
   -1
100
AcDbLine
 10
59.67499999999998
 20
-3.525000000000006
 11
59.67499999999998
 21
-15.52500000000001
  0
LINE
  5
77
100
AcDbEntity
  8
0
  6
ByLayer
 62
  256
370
   -1
100
AcDbLine
 10
73.67499999999998
 20
-3.525000000000006
 11
73.67499999999998
 21
-15.52500000000001
  0
ARC
  5
78
100
AcDbEntity
  8
0
  6
ByLayer
 62
  256
370
   -1
100
AcDbCircle
 10
60.67499999999998
 20
-3.525000000000006
 40
1
100
AcDbArc
 50
90
 51
180
  0
ARC
  5
79
100
AcDbEntity
  8
0
  6
ByLayer
 62
  256
370
   -1
100
AcDbCircle
 10
72.67499999999998
 20
-3.525000000000006
 40
1
100
AcDbArc
 50
0
 51
90
  0
ARC
  5
7A
100
AcDbEntity
  8
0
  6
ByLayer
 62
  256
370
   -1
100
AcDbCircle
 10
60.67499999999998
 20
-15.52500000000001
 40
1
100
AcDbArc
 50
180
 51
270
  0
ARC
  5
7B
100
AcDbEntity
  8
0
  6
ByLayer
 62
  256
370
   -1
100
AcDbCircle
 10
72.67499999999998
 20
-15.52500000000001
 40
1
100
AcDbArc
 50
270
 51
360
  0
LINE
  5
7C
100
AcDbEntity
  8
0
  6
ByLayer
 62
  256
370
   -1
100
AcDbLine
 10
79.72499999999999
 20
-2.525000000000006
 11
91.72499999999999
 21
-2.525000000000006
  0
LINE
  5
7D
100
AcDbEntity
  8
0
  6
ByLayer
 62
  256
370
   -1
100
AcDbLine
 10
79.72499999999999
 20
-16.52500000000001
 11
91.72499999999999
 21
-16.52500000000001
  0
LINE
  5
7E
100
AcDbEntity
  8
0
  6
ByLayer
 62
  256
370
   -1
100
AcDbLine
 10
78.72499999999999
 20
-3.525000000000006
 11
78.72499999999999
 21
-15.52500000000001
  0
LINE
  5
7F
100
AcDbEntity
  8
0
  6
ByLayer
 62
  256
370
   -1
100
AcDbLine
 10
92.72499999999999
 20
-3.525000000000006
 11
92.72499999999999
 21
-15.52500000000001
  0
ARC
  5
80
100
AcDbEntity
  8
0
  6
ByLayer
 62
  256
370
   -1
100
AcDbCircle
 10
79.72499999999999
 20
-3.525000000000006
 40
1
100
AcDbArc
 50
90
 51
180
  0
ARC
  5
81
100
AcDbEntity
  8
0
  6
ByLayer
 62
  256
370
   -1
100
AcDbCircle
 10
91.72499999999999
 20
-3.525000000000006
 40
1
100
AcDbArc
 50
0
 51
90
  0
ARC
  5
82
100
AcDbEntity
  8
0
  6
ByLayer
 62
  256
370
   -1
100
AcDbCircle
 10
79.72499999999999
 20
-15.52500000000001
 40
1
100
AcDbArc
 50
180
 51
270
  0
ARC
  5
83
100
AcDbEntity
  8
0
  6
ByLayer
 62
  256
370
   -1
100
AcDbCircle
 10
91.72499999999999
 20
-15.52500000000001
 40
1
100
AcDbArc
 50
270
 51
360
  0
LINE
  5
84
100
AcDbEntity
  8
0
  6
ByLayer
 62
  256
370
   -1
100
AcDbLine
 10
98.77500000000001
 20
-2.525000000000006
 11
110.775
 21
-2.525000000000006
  0
LINE
  5
85
100
AcDbEntity
  8
0
  6
ByLayer
 62
  256
370
   -1
100
AcDbLine
 10
98.77500000000001
 20
-16.52500000000001
 11
110.775
 21
-16.52500000000001
  0
LINE
  5
86
100
AcDbEntity
  8
0
  6
ByLayer
 62
  256
370
   -1
100
AcDbLine
 10
97.77500000000001
 20
-3.525000000000006
 11
97.77500000000001
 21
-15.52500000000001
  0
LINE
  5
87
100
AcDbEntity
  8
0
  6
ByLayer
 62
  256
370
   -1
100
AcDbLine
 10
111.775
 20
-3.525000000000006
 11
111.775
 21
-15.52500000000001
  0
ARC
  5
88
100
AcDbEntity
  8
0
  6
ByLayer
 62
  256
370
   -1
100
AcDbCircle
 10
98.77500000000001
 20
-3.525000000000006
 40
1
100
AcDbArc
 50
90
 51
180
  0
ARC
  5
89
100
AcDbEntity
  8
0
  6
ByLayer
 62
  256
370
   -1
100
AcDbCircle
 10
110.775
 20
-3.525000000000006
 40
1
100
AcDbArc
 50
0
 51
90
  0
ARC
  5
8A
100
AcDbEntity
  8
0
  6
ByLayer
 62
  256
370
   -1
100
AcDbCircle
 10
98.77500000000001
 20
-15.52500000000001
 40
1
100
AcDbArc
 50
180
 51
270
  0
ARC
  5
8B
100
AcDbEntity
  8
0
  6
ByLayer
 62
  256
370
   -1
100
AcDbCircle
 10
110.775
 20
-15.52500000000001
 40
1
100
AcDbArc
 50
270
 51
360
  0
LINE
  5
8C
100
AcDbEntity
  8
0
  6
ByLayer
 62
  256
370
   -1
100
AcDbLine
 10
117.825
 20
-2.525000000000006
 11
129.825
 21
-2.525000000000006
  0
LINE
  5
8D
100
AcDbEntity
  8
0
  6
ByLayer
 62
  256
370
   -1
100
AcDbLine
 10
117.825
 20
-16.52500000000001
 11
129.825
 21
-16.52500000000001
  0
LINE
  5
8E
100
AcDbEntity
  8
0
  6
ByLayer
 62
  256
370
   -1
100
AcDbLine
 10
116.825
 20
-3.525000000000006
 11
116.825
 21
-15.52500000000001
  0
LINE
  5
8F
100
AcDbEntity
  8
0
  6
ByLayer
 62
  256
370
   -1
100
AcDbLine
 10
130.825
 20
-3.525000000000006
 11
130.825
 21
-15.52500000000001
  0
ARC
  5
90
100
AcDbEntity
  8
0
  6
ByLayer
 62
  256
370
   -1
100
AcDbCircle
 10
117.825
 20
-3.525000000000006
 40
1
100
AcDbArc
 50
90
 51
180
  0
ARC
  5
91
100
AcDbEntity
  8
0
  6
ByLayer
 62
  256
370
   -1
100
AcDbCircle
 10
129.825
 20
-3.525000000000006
 40
1
100
AcDbArc
 50
0
 51
90
  0
ARC
  5
92
100
AcDbEntity
  8
0
  6
ByLayer
 62
  256
370
   -1
100
AcDbCircle
 10
117.825
 20
-15.52500000000001
 40
1
100
AcDbArc
 50
180
 51
270
  0
ARC
  5
93
100
AcDbEntity
  8
0
  6
ByLayer
 62
  256
370
   -1
100
AcDbCircle
 10
129.825
 20
-15.52500000000001
 40
1
100
AcDbArc
 50
270
 51
360
  0
LINE
  5
94
100
AcDbEntity
  8
0
  6
ByLayer
 62
  256
370
   -1
100
AcDbLine
 10
136.875
 20
-2.525000000000006
 11
148.875
 21
-2.525000000000006
  0
LINE
  5
95
100
AcDbEntity
  8
0
  6
ByLayer
 62
  256
370
   -1
100
AcDbLine
 10
136.875
 20
-16.52500000000001
 11
148.875
 21
-16.52500000000001
  0
LINE
  5
96
100
AcDbEntity
  8
0
  6
ByLayer
 62
  256
370
   -1
100
AcDbLine
 10
135.875
 20
-3.525000000000006
 11
135.875
 21
-15.52500000000001
  0
LINE
  5
97
100
AcDbEntity
  8
0
  6
ByLayer
 62
  256
370
   -1
100
AcDbLine
 10
149.875
 20
-3.525000000000006
 11
149.875
 21
-15.52500000000001
  0
ARC
  5
98
100
AcDbEntity
  8
0
  6
ByLayer
 62
  256
370
   -1
100
AcDbCircle
 10
136.875
 20
-3.525000000000006
 40
1
100
AcDbArc
 50
90
 51
180
  0
ARC
  5
99
100
AcDbEntity
  8
0
  6
ByLayer
 62
  256
370
   -1
100
AcDbCircle
 10
148.875
 20
-3.525000000000006
 40
1
100
AcDbArc
 50
0
 51
90
  0
ARC
  5
9A
100
AcDbEntity
  8
0
  6
ByLayer
 62
  256
370
   -1
100
AcDbCircle
 10
136.875
 20
-15.52500000000001
 40
1
100
AcDbArc
 50
180
 51
270
  0
ARC
  5
9B
100
AcDbEntity
  8
0
  6
ByLayer
 62
  256
370
   -1
100
AcDbCircle
 10
148.875
 20
-15.52500000000001
 40
1
100
AcDbArc
 50
270
 51
360
  0
LINE
  5
9C
100
AcDbEntity
  8
0
  6
ByLayer
 62
  256
370
   -1
100
AcDbLine
 10
155.925
 20
-2.525000000000006
 11
167.925
 21
-2.525000000000006
  0
LINE
  5
9D
100
AcDbEntity
  8
0
  6
ByLayer
 62
  256
370
   -1
100
AcDbLine
 10
155.925
 20
-16.52500000000001
 11
167.925
 21
-16.52500000000001
  0
LINE
  5
9E
100
AcDbEntity
  8
0
  6
ByLayer
 62
  256
370
   -1
100
AcDbLine
 10
154.925
 20
-3.525000000000006
 11
154.925
 21
-15.52500000000001
  0
LINE
  5
9F
100
AcDbEntity
  8
0
  6
ByLayer
 62
  256
370
   -1
100
AcDbLine
 10
168.925
 20
-3.525000000000006
 11
168.925
 21
-15.52500000000001
  0
ARC
  5
A0
100
AcDbEntity
  8
0
  6
ByLayer
 62
  256
370
   -1
100
AcDbCircle
 10
155.925
 20
-3.525000000000006
 40
1
100
AcDbArc
 50
90
 51
180
  0
ARC
  5
A1
100
AcDbEntity
  8
0
  6
ByLayer
 62
  256
370
   -1
100
AcDbCircle
 10
167.925
 20
-3.525000000000006
 40
1
100
AcDbArc
 50
0
 51
90
  0
ARC
  5
A2
100
AcDbEntity
  8
0
  6
ByLayer
 62
  256
370
   -1
100
AcDbCircle
 10
155.925
 20
-15.52500000000001
 40
1
100
AcDbArc
 50
180
 51
270
  0
ARC
  5
A3
100
AcDbEntity
  8
0
  6
ByLayer
 62
  256
370
   -1
100
AcDbCircle
 10
167.925
 20
-15.52500000000001
 40
1
100
AcDbArc
 50
270
 51
360
  0
LINE
  5
A4
100
AcDbEntity
  8
0
  6
ByLayer
 62
  256
370
   -1
100
AcDbLine
 10
174.975
 20
-2.525000000000006
 11
186.975
 21
-2.525000000000006
  0
LINE
  5
A5
100
AcDbEntity
  8
0
  6
ByLayer
 62
  256
370
   -1
100
AcDbLine
 10
174.975
 20
-16.52500000000001
 11
186.975
 21
-16.52500000000001
  0
LINE
  5
A6
100
AcDbEntity
  8
0
  6
ByLayer
 62
  256
370
   -1
100
AcDbLine
 10
173.975
 20
-3.525000000000006
 11
173.975
 21
-15.52500000000001
  0
LINE
  5
A7
100
AcDbEntity
  8
0
  6
ByLayer
 62
  256
370
   -1
100
AcDbLine
 10
187.975
 20
-3.525000000000006
 11
187.975
 21
-15.52500000000001
  0
ARC
  5
A8
100
AcDbEntity
  8
0
  6
ByLayer
 62
  256
370
   -1
100
AcDbCircle
 10
174.975
 20
-3.525000000000006
 40
1
100
AcDbArc
 50
90
 51
180
  0
ARC
  5
A9
100
AcDbEntity
  8
0
  6
ByLayer
 62
  256
370
   -1
100
AcDbCircle
 10
186.975
 20
-3.525000000000006
 40
1
100
AcDbArc
 50
0
 51
90
  0
ARC
  5
AA
100
AcDbEntity
  8
0
  6
ByLayer
 62
  256
370
   -1
100
AcDbCircle
 10
174.975
 20
-15.52500000000001
 40
1
100
AcDbArc
 50
180
 51
270
  0
ARC
  5
AB
100
AcDbEntity
  8
0
  6
ByLayer
 62
  256
370
   -1
100
AcDbCircle
 10
186.975
 20
-15.52500000000001
 40
1
100
AcDbArc
 50
270
 51
360
  0
LINE
  5
AC
100
AcDbEntity
  8
0
  6
ByLayer
 62
  256
370
   -1
100
AcDbLine
 10
194.025
 20
-2.525000000000006
 11
206.025
 21
-2.525000000000006
  0
LINE
  5
AD
100
AcDbEntity
  8
0
  6
ByLayer
 62
  256
370
   -1
100
AcDbLine
 10
194.025
 20
-16.52500000000001
 11
206.025
 21
-16.52500000000001
  0
LINE
  5
AE
100
AcDbEntity
  8
0
  6
ByLayer
 62
  256
370
   -1
100
AcDbLine
 10
193.025
 20
-3.525000000000006
 11
193.025
 21
-15.52500000000001
  0
LINE
  5
AF
100
AcDbEntity
  8
0
  6
ByLayer
 62
  256
370
   -1
100
AcDbLine
 10
207.025
 20
-3.525000000000006
 11
207.025
 21
-15.52500000000001
  0
ARC
  5
B0
100
AcDbEntity
  8
0
  6
ByLayer
 62
  256
370
   -1
100
AcDbCircle
 10
194.025
 20
-3.525000000000006
 40
1
100
AcDbArc
 50
90
 51
180
  0
ARC
  5
B1
100
AcDbEntity
  8
0
  6
ByLayer
 62
  256
370
   -1
100
AcDbCircle
 10
206.025
 20
-3.525000000000006
 40
1
100
AcDbArc
 50
0
 51
90
  0
ARC
  5
B2
100
AcDbEntity
  8
0
  6
ByLayer
 62
  256
370
   -1
100
AcDbCircle
 10
194.025
 20
-15.52500000000001
 40
1
100
AcDbArc
 50
180
 51
270
  0
ARC
  5
B3
100
AcDbEntity
  8
0
  6
ByLayer
 62
  256
370
   -1
100
AcDbCircle
 10
206.025
 20
-15.52500000000001
 40
1
100
AcDbArc
 50
270
 51
360
  0
LINE
  5
B4
100
AcDbEntity
  8
0
  6
ByLayer
 62
  256
370
   -1
100
AcDbLine
 10
220.21875
 20
-2.525000000000006
 11
232.21875
 21
-2.525000000000006
  0
LINE
  5
B5
100
AcDbEntity
  8
0
  6
ByLayer
 62
  256
370
   -1
100
AcDbLine
 10
220.21875
 20
-16.52500000000001
 11
232.21875
 21
-16.52500000000001
  0
LINE
  5
B6
100
AcDbEntity
  8
0
  6
ByLayer
 62
  256
370
   -1
100
AcDbLine
 10
219.21875
 20
-3.525000000000006
 11
219.21875
 21
-15.52500000000001
  0
LINE
  5
B7
100
AcDbEntity
  8
0
  6
ByLayer
 62
  256
370
   -1
100
AcDbLine
 10
233.21875
 20
-3.525000000000006
 11
233.21875
 21
-15.52500000000001
  0
ARC
  5
B8
100
AcDbEntity
  8
0
  6
ByLayer
 62
  256
370
   -1
100
AcDbCircle
 10
220.21875
 20
-3.525000000000006
 40
1
100
AcDbArc
 50
90
 51
180
  0
ARC
  5
B9
100
AcDbEntity
  8
0
  6
ByLayer
 62
  256
370
   -1
100
AcDbCircle
 10
232.21875
 20
-3.525000000000006
 40
1
100
AcDbArc
 50
0
 51
90
  0
ARC
  5
BA
100
AcDbEntity
  8
0
  6
ByLayer
 62
  256
370
   -1
100
AcDbCircle
 10
220.21875
 20
-15.52500000000001
 40
1
100
AcDbArc
 50
180
 51
270
  0
ARC
  5
BB
100
AcDbEntity
  8
0
  6
ByLayer
 62
  256
370
   -1
100
AcDbCircle
 10
232.21875
 20
-15.52500000000001
 40
1
100
AcDbArc
 50
270
 51
360
  0
LINE
  5
BC
100
AcDbEntity
  8
0
  6
ByLayer
 62
  256
370
   -1
100
AcDbLine
 10
5.90625
 20
-21.575
 11
17.90625
 21
-21.575
  0
LINE
  5
BD
100
AcDbEntity
  8
0
  6
ByLayer
 62
  256
370
   -1
100
AcDbLine
 10
5.90625
 20
-35.575
 11
17.90625
 21
-35.575
  0
LINE
  5
BE
100
AcDbEntity
  8
0
  6
ByLayer
 62
  256
370
   -1
100
AcDbLine
 10
4.90625
 20
-22.575
 11
4.90625
 21
-34.575
  0
LINE
  5
BF
100
AcDbEntity
  8
0
  6
ByLayer
 62
  256
370
   -1
100
AcDbLine
 10
18.90625
 20
-22.575
 11
18.90625
 21
-34.575
  0
ARC
  5
C0
100
AcDbEntity
  8
0
  6
ByLayer
 62
  256
370
   -1
100
AcDbCircle
 10
5.90625
 20
-22.575
 40
1
100
AcDbArc
 50
90
 51
180
  0
ARC
  5
C1
100
AcDbEntity
  8
0
  6
ByLayer
 62
  256
370
   -1
100
AcDbCircle
 10
17.90625
 20
-22.575
 40
1
100
AcDbArc
 50
0
 51
90
  0
ARC
  5
C2
100
AcDbEntity
  8
0
  6
ByLayer
 62
  256
370
   -1
100
AcDbCircle
 10
5.90625
 20
-34.575
 40
1
100
AcDbArc
 50
180
 51
270
  0
ARC
  5
C3
100
AcDbEntity
  8
0
  6
ByLayer
 62
  256
370
   -1
100
AcDbCircle
 10
17.90625
 20
-34.575
 40
1
100
AcDbArc
 50
270
 51
360
  0
LINE
  5
C4
100
AcDbEntity
  8
0
  6
ByLayer
 62
  256
370
   -1
100
AcDbLine
 10
27.33750000000001
 20
-21.575
 11
39.33750000000001
 21
-21.575
  0
LINE
  5
C5
100
AcDbEntity
  8
0
  6
ByLayer
 62
  256
370
   -1
100
AcDbLine
 10
27.33750000000001
 20
-35.575
 11
39.33750000000001
 21
-35.575
  0
LINE
  5
C6
100
AcDbEntity
  8
0
  6
ByLayer
 62
  256
370
   -1
100
AcDbLine
 10
26.33750000000001
 20
-22.575
 11
26.33750000000001
 21
-34.575
  0
LINE
  5
C7
100
AcDbEntity
  8
0
  6
ByLayer
 62
  256
370
   -1
100
AcDbLine
 10
40.33750000000001
 20
-22.575
 11
40.33750000000001
 21
-34.575
  0
ARC
  5
C8
100
AcDbEntity
  8
0
  6
ByLayer
 62
  256
370
   -1
100
AcDbCircle
 10
27.33750000000001
 20
-22.575
 40
1
100
AcDbArc
 50
90
 51
180
  0
ARC
  5
C9
100
AcDbEntity
  8
0
  6
ByLayer
 62
  256
370
   -1
100
AcDbCircle
 10
39.33750000000001
 20
-22.575
 40
1
100
AcDbArc
 50
0
 51
90
  0
ARC
  5
CA
100
AcDbEntity
  8
0
  6
ByLayer
 62
  256
370
   -1
100
AcDbCircle
 10
27.33750000000001
 20
-34.575
 40
1
100
AcDbArc
 50
180
 51
270
  0
ARC
  5
CB
100
AcDbEntity
  8
0
  6
ByLayer
 62
  256
370
   -1
100
AcDbCircle
 10
39.33750000000001
 20
-34.575
 40
1
100
AcDbArc
 50
270
 51
360
  0
LINE
  5
CC
100
AcDbEntity
  8
0
  6
ByLayer
 62
  256
370
   -1
100
AcDbLine
 10
46.38750000000002
 20
-21.575
 11
58.38750000000002
 21
-21.575
  0
LINE
  5
CD
100
AcDbEntity
  8
0
  6
ByLayer
 62
  256
370
   -1
100
AcDbLine
 10
46.38750000000002
 20
-35.575
 11
58.38750000000002
 21
-35.575
  0
LINE
  5
CE
100
AcDbEntity
  8
0
  6
ByLayer
 62
  256
370
   -1
100
AcDbLine
 10
45.38750000000002
 20
-22.575
 11
45.38750000000002
 21
-34.575
  0
LINE
  5
CF
100
AcDbEntity
  8
0
  6
ByLayer
 62
  256
370
   -1
100
AcDbLine
 10
59.38750000000002
 20
-22.575
 11
59.38750000000002
 21
-34.575
  0
ARC
  5
D0
100
AcDbEntity
  8
0
  6
ByLayer
 62
  256
370
   -1
100
AcDbCircle
 10
46.38750000000002
 20
-22.575
 40
1
100
AcDbArc
 50
90
 51
180
  0
ARC
  5
D1
100
AcDbEntity
  8
0
  6
ByLayer
 62
  256
370
   -1
100
AcDbCircle
 10
58.38750000000002
 20
-22.575
 40
1
100
AcDbArc
 50
0
 51
90
  0
ARC
  5
D2
100
AcDbEntity
  8
0
  6
ByLayer
 62
  256
370
   -1
100
AcDbCircle
 10
46.38750000000002
 20
-34.575
 40
1
100
AcDbArc
 50
180
 51
270
  0
ARC
  5
D3
100
AcDbEntity
  8
0
  6
ByLayer
 62
  256
370
   -1
100
AcDbCircle
 10
58.38750000000002
 20
-34.575
 40
1
100
AcDbArc
 50
270
 51
360
  0
LINE
  5
D4
100
AcDbEntity
  8
0
  6
ByLayer
 62
  256
370
   -1
100
AcDbLine
 10
65.4375
 20
-21.575
 11
77.4375
 21
-21.575
  0
LINE
  5
D5
100
AcDbEntity
  8
0
  6
ByLayer
 62
  256
370
   -1
100
AcDbLine
 10
65.4375
 20
-35.575
 11
77.4375
 21
-35.575
  0
LINE
  5
D6
100
AcDbEntity
  8
0
  6
ByLayer
 62
  256
370
   -1
100
AcDbLine
 10
64.4375
 20
-22.575
 11
64.4375
 21
-34.575
  0
LINE
  5
D7
100
AcDbEntity
  8
0
  6
ByLayer
 62
  256
370
   -1
100
AcDbLine
 10
78.4375
 20
-22.575
 11
78.4375
 21
-34.575
  0
ARC
  5
D8
100
AcDbEntity
  8
0
  6
ByLayer
 62
  256
370
   -1
100
AcDbCircle
 10
65.4375
 20
-22.575
 40
1
100
AcDbArc
 50
90
 51
180
  0
ARC
  5
D9
100
AcDbEntity
  8
0
  6
ByLayer
 62
  256
370
   -1
100
AcDbCircle
 10
77.4375
 20
-22.575
 40
1
100
AcDbArc
 50
0
 51
90
  0
ARC
  5
DA
100
AcDbEntity
  8
0
  6
ByLayer
 62
  256
370
   -1
100
AcDbCircle
 10
65.4375
 20
-34.575
 40
1
100
AcDbArc
 50
180
 51
270
  0
ARC
  5
DB
100
AcDbEntity
  8
0
  6
ByLayer
 62
  256
370
   -1
100
AcDbCircle
 10
77.4375
 20
-34.575
 40
1
100
AcDbArc
 50
270
 51
360
  0
LINE
  5
DC
100
AcDbEntity
  8
0
  6
ByLayer
 62
  256
370
   -1
100
AcDbLine
 10
84.48749999999998
 20
-21.575
 11
96.48749999999998
 21
-21.575
  0
LINE
  5
DD
100
AcDbEntity
  8
0
  6
ByLayer
 62
  256
370
   -1
100
AcDbLine
 10
84.48749999999998
 20
-35.575
 11
96.48749999999998
 21
-35.575
  0
LINE
  5
DE
100
AcDbEntity
  8
0
  6
ByLayer
 62
  256
370
   -1
100
AcDbLine
 10
83.48749999999998
 20
-22.575
 11
83.48749999999998
 21
-34.575
  0
LINE
  5
DF
100
AcDbEntity
  8
0
  6
ByLayer
 62
  256
370
   -1
100
AcDbLine
 10
97.48749999999998
 20
-22.575
 11
97.48749999999998
 21
-34.575
  0
ARC
  5
E0
100
AcDbEntity
  8
0
  6
ByLayer
 62
  256
370
   -1
100
AcDbCircle
 10
84.48749999999998
 20
-22.575
 40
1
100
AcDbArc
 50
90
 51
180
  0
ARC
  5
E1
100
AcDbEntity
  8
0
  6
ByLayer
 62
  256
370
   -1
100
AcDbCircle
 10
96.48749999999998
 20
-22.575
 40
1
100
AcDbArc
 50
0
 51
90
  0
ARC
  5
E2
100
AcDbEntity
  8
0
  6
ByLayer
 62
  256
370
   -1
100
AcDbCircle
 10
84.48749999999998
 20
-34.575
 40
1
100
AcDbArc
 50
180
 51
270
  0
ARC
  5
E3
100
AcDbEntity
  8
0
  6
ByLayer
 62
  256
370
   -1
100
AcDbCircle
 10
96.48749999999998
 20
-34.575
 40
1
100
AcDbArc
 50
270
 51
360
  0
LINE
  5
E4
100
AcDbEntity
  8
0
  6
ByLayer
 62
  256
370
   -1
100
AcDbLine
 10
103.5375
 20
-21.575
 11
115.5375
 21
-21.575
  0
LINE
  5
E5
100
AcDbEntity
  8
0
  6
ByLayer
 62
  256
370
   -1
100
AcDbLine
 10
103.5375
 20
-35.575
 11
115.5375
 21
-35.575
  0
LINE
  5
E6
100
AcDbEntity
  8
0
  6
ByLayer
 62
  256
370
   -1
100
AcDbLine
 10
102.5375
 20
-22.575
 11
102.5375
 21
-34.575
  0
LINE
  5
E7
100
AcDbEntity
  8
0
  6
ByLayer
 62
  256
370
   -1
100
AcDbLine
 10
116.5375
 20
-22.575
 11
116.5375
 21
-34.575
  0
ARC
  5
E8
100
AcDbEntity
  8
0
  6
ByLayer
 62
  256
370
   -1
100
AcDbCircle
 10
103.5375
 20
-22.575
 40
1
100
AcDbArc
 50
90
 51
180
  0
ARC
  5
E9
100
AcDbEntity
  8
0
  6
ByLayer
 62
  256
370
   -1
100
AcDbCircle
 10
115.5375
 20
-22.575
 40
1
100
AcDbArc
 50
0
 51
90
  0
ARC
  5
EA
100
AcDbEntity
  8
0
  6
ByLayer
 62
  256
370
   -1
100
AcDbCircle
 10
103.5375
 20
-34.575
 40
1
100
AcDbArc
 50
180
 51
270
  0
ARC
  5
EB
100
AcDbEntity
  8
0
  6
ByLayer
 62
  256
370
   -1
100
AcDbCircle
 10
115.5375
 20
-34.575
 40
1
100
AcDbArc
 50
270
 51
360
  0
LINE
  5
EC
100
AcDbEntity
  8
0
  6
ByLayer
 62
  256
370
   -1
100
AcDbLine
 10
122.5875
 20
-21.575
 11
134.5875
 21
-21.575
  0
LINE
  5
ED
100
AcDbEntity
  8
0
  6
ByLayer
 62
  256
370
   -1
100
AcDbLine
 10
122.5875
 20
-35.575
 11
134.5875
 21
-35.575
  0
LINE
  5
EE
100
AcDbEntity
  8
0
  6
ByLayer
 62
  256
370
   -1
100
AcDbLine
 10
121.5875
 20
-22.575
 11
121.5875
 21
-34.575
  0
LINE
  5
EF
100
AcDbEntity
  8
0
  6
ByLayer
 62
  256
370
   -1
100
AcDbLine
 10
135.5875
 20
-22.575
 11
135.5875
 21
-34.575
  0
ARC
  5
F0
100
AcDbEntity
  8
0
  6
ByLayer
 62
  256
370
   -1
100
AcDbCircle
 10
122.5875
 20
-22.575
 40
1
100
AcDbArc
 50
90
 51
180
  0
ARC
  5
F1
100
AcDbEntity
  8
0
  6
ByLayer
 62
  256
370
   -1
100
AcDbCircle
 10
134.5875
 20
-22.575
 40
1
100
AcDbArc
 50
0
 51
90
  0
ARC
  5
F2
100
AcDbEntity
  8
0
  6
ByLayer
 62
  256
370
   -1
100
AcDbCircle
 10
122.5875
 20
-34.575
 40
1
100
AcDbArc
 50
180
 51
270
  0
ARC
  5
F3
100
AcDbEntity
  8
0
  6
ByLayer
 62
  256
370
   -1
100
AcDbCircle
 10
134.5875
 20
-34.575
 40
1
100
AcDbArc
 50
270
 51
360
  0
LINE
  5
F4
100
AcDbEntity
  8
0
  6
ByLayer
 62
  256
370
   -1
100
AcDbLine
 10
141.6375
 20
-21.575
 11
153.6375
 21
-21.575
  0
LINE
  5
F5
100
AcDbEntity
  8
0
  6
ByLayer
 62
  256
370
   -1
100
AcDbLine
 10
141.6375
 20
-35.575
 11
153.6375
 21
-35.575
  0
LINE
  5
F6
100
AcDbEntity
  8
0
  6
ByLayer
 62
  256
370
   -1
100
AcDbLine
 10
140.6375
 20
-22.575
 11
140.6375
 21
-34.575
  0
LINE
  5
F7
100
AcDbEntity
  8
0
  6
ByLayer
 62
  256
370
   -1
100
AcDbLine
 10
154.6375
 20
-22.575
 11
154.6375
 21
-34.575
  0
ARC
  5
F8
100
AcDbEntity
  8
0
  6
ByLayer
 62
  256
370
   -1
100
AcDbCircle
 10
141.6375
 20
-22.575
 40
1
100
AcDbArc
 50
90
 51
180
  0
ARC
  5
F9
100
AcDbEntity
  8
0
  6
ByLayer
 62
  256
370
   -1
100
AcDbCircle
 10
153.6375
 20
-22.575
 40
1
100
AcDbArc
 50
0
 51
90
  0
ARC
  5
FA
100
AcDbEntity
  8
0
  6
ByLayer
 62
  256
370
   -1
100
AcDbCircle
 10
141.6375
 20
-34.575
 40
1
100
AcDbArc
 50
180
 51
270
  0
ARC
  5
FB
100
AcDbEntity
  8
0
  6
ByLayer
 62
  256
370
   -1
100
AcDbCircle
 10
153.6375
 20
-34.575
 40
1
100
AcDbArc
 50
270
 51
360
  0
LINE
  5
FC
100
AcDbEntity
  8
0
  6
ByLayer
 62
  256
370
   -1
100
AcDbLine
 10
160.6875
 20
-21.575
 11
172.6875
 21
-21.575
  0
LINE
  5
FD
100
AcDbEntity
  8
0
  6
ByLayer
 62
  256
370
   -1
100
AcDbLine
 10
160.6875
 20
-35.575
 11
172.6875
 21
-35.575
  0
LINE
  5
FE
100
AcDbEntity
  8
0
  6
ByLayer
 62
  256
370
   -1
100
AcDbLine
 10
159.6875
 20
-22.575
 11
159.6875
 21
-34.575
  0
LINE
  5
FF
100
AcDbEntity
  8
0
  6
ByLayer
 62
  256
370
   -1
100
AcDbLine
 10
173.6875
 20
-22.575
 11
173.6875
 21
-34.575
  0
ARC
  5
100
100
AcDbEntity
  8
0
  6
ByLayer
 62
  256
370
   -1
100
AcDbCircle
 10
160.6875
 20
-22.575
 40
1
100
AcDbArc
 50
90
 51
180
  0
ARC
  5
101
100
AcDbEntity
  8
0
  6
ByLayer
 62
  256
370
   -1
100
AcDbCircle
 10
172.6875
 20
-22.575
 40
1
100
AcDbArc
 50
0
 51
90
  0
ARC
  5
102
100
AcDbEntity
  8
0
  6
ByLayer
 62
  256
370
   -1
100
AcDbCircle
 10
160.6875
 20
-34.575
 40
1
100
AcDbArc
 50
180
 51
270
  0
ARC
  5
103
100
AcDbEntity
  8
0
  6
ByLayer
 62
  256
370
   -1
100
AcDbCircle
 10
172.6875
 20
-34.575
 40
1
100
AcDbArc
 50
270
 51
360
  0
LINE
  5
104
100
AcDbEntity
  8
0
  6
ByLayer
 62
  256
370
   -1
100
AcDbLine
 10
179.7375
 20
-21.575
 11
191.7375
 21
-21.575
  0
LINE
  5
105
100
AcDbEntity
  8
0
  6
ByLayer
 62
  256
370
   -1
100
AcDbLine
 10
179.7375
 20
-35.575
 11
191.7375
 21
-35.575
  0
LINE
  5
106
100
AcDbEntity
  8
0
  6
ByLayer
 62
  256
370
   -1
100
AcDbLine
 10
178.7375
 20
-22.575
 11
178.7375
 21
-34.575
  0
LINE
  5
107
100
AcDbEntity
  8
0
  6
ByLayer
 62
  256
370
   -1
100
AcDbLine
 10
192.7375
 20
-22.575
 11
192.7375
 21
-34.575
  0
ARC
  5
108
100
AcDbEntity
  8
0
  6
ByLayer
 62
  256
370
   -1
100
AcDbCircle
 10
179.7375
 20
-22.575
 40
1
100
AcDbArc
 50
90
 51
180
  0
ARC
  5
109
100
AcDbEntity
  8
0
  6
ByLayer
 62
  256
370
   -1
100
AcDbCircle
 10
191.7375
 20
-22.575
 40
1
100
AcDbArc
 50
0
 51
90
  0
ARC
  5
10A
100
AcDbEntity
  8
0
  6
ByLayer
 62
  256
370
   -1
100
AcDbCircle
 10
179.7375
 20
-34.575
 40
1
100
AcDbArc
 50
180
 51
270
  0
ARC
  5
10B
100
AcDbEntity
  8
0
  6
ByLayer
 62
  256
370
   -1
100
AcDbCircle
 10
191.7375
 20
-34.575
 40
1
100
AcDbArc
 50
270
 51
360
  0
LINE
  5
10C
100
AcDbEntity
  8
0
  6
ByLayer
 62
  256
370
   -1
100
AcDbLine
 10
198.7875
 20
-21.575
 11
210.7875
 21
-21.575
  0
LINE
  5
10D
100
AcDbEntity
  8
0
  6
ByLayer
 62
  256
370
   -1
100
AcDbLine
 10
198.7875
 20
-35.575
 11
210.7875
 21
-35.575
  0
LINE
  5
10E
100
AcDbEntity
  8
0
  6
ByLayer
 62
  256
370
   -1
100
AcDbLine
 10
197.7875
 20
-22.575
 11
197.7875
 21
-34.575
  0
LINE
  5
10F
100
AcDbEntity
  8
0
  6
ByLayer
 62
  256
370
   -1
100
AcDbLine
 10
211.7875
 20
-22.575
 11
211.7875
 21
-34.575
  0
ARC
  5
110
100
AcDbEntity
  8
0
  6
ByLayer
 62
  256
370
   -1
100
AcDbCircle
 10
198.7875
 20
-22.575
 40
1
100
AcDbArc
 50
90
 51
180
  0
ARC
  5
111
100
AcDbEntity
  8
0
  6
ByLayer
 62
  256
370
   -1
100
AcDbCircle
 10
210.7875
 20
-22.575
 40
1
100
AcDbArc
 50
0
 51
90
  0
ARC
  5
112
100
AcDbEntity
  8
0
  6
ByLayer
 62
  256
370
   -1
100
AcDbCircle
 10
198.7875
 20
-34.575
 40
1
100
AcDbArc
 50
180
 51
270
  0
ARC
  5
113
100
AcDbEntity
  8
0
  6
ByLayer
 62
  256
370
   -1
100
AcDbCircle
 10
210.7875
 20
-34.575
 40
1
100
AcDbArc
 50
270
 51
360
  0
LINE
  5
114
100
AcDbEntity
  8
0
  6
ByLayer
 62
  256
370
   -1
100
AcDbLine
 10
222.6
 20
-21.575
 11
234.6
 21
-21.575
  0
LINE
  5
115
100
AcDbEntity
  8
0
  6
ByLayer
 62
  256
370
   -1
100
AcDbLine
 10
222.6
 20
-35.575
 11
234.6
 21
-35.575
  0
LINE
  5
116
100
AcDbEntity
  8
0
  6
ByLayer
 62
  256
370
   -1
100
AcDbLine
 10
221.6
 20
-22.575
 11
221.6
 21
-34.575
  0
LINE
  5
117
100
AcDbEntity
  8
0
  6
ByLayer
 62
  256
370
   -1
100
AcDbLine
 10
235.6
 20
-22.575
 11
235.6
 21
-34.575
  0
ARC
  5
118
100
AcDbEntity
  8
0
  6
ByLayer
 62
  256
370
   -1
100
AcDbCircle
 10
222.6
 20
-22.575
 40
1
100
AcDbArc
 50
90
 51
180
  0
ARC
  5
119
100
AcDbEntity
  8
0
  6
ByLayer
 62
  256
370
   -1
100
AcDbCircle
 10
234.6
 20
-22.575
 40
1
100
AcDbArc
 50
0
 51
90
  0
ARC
  5
11A
100
AcDbEntity
  8
0
  6
ByLayer
 62
  256
370
   -1
100
AcDbCircle
 10
222.6
 20
-34.575
 40
1
100
AcDbArc
 50
180
 51
270
  0
ARC
  5
11B
100
AcDbEntity
  8
0
  6
ByLayer
 62
  256
370
   -1
100
AcDbCircle
 10
234.6
 20
-34.575
 40
1
100
AcDbArc
 50
270
 51
360
  0
LINE
  5
11C
100
AcDbEntity
  8
0
  6
ByLayer
 62
  256
370
   -1
100
AcDbLine
 10
10.66875
 20
-40.625
 11
22.66874999999999
 21
-40.625
  0
LINE
  5
11D
100
AcDbEntity
  8
0
  6
ByLayer
 62
  256
370
   -1
100
AcDbLine
 10
10.66875
 20
-54.625
 11
22.66874999999999
 21
-54.625
  0
LINE
  5
11E
100
AcDbEntity
  8
0
  6
ByLayer
 62
  256
370
   -1
100
AcDbLine
 10
9.668750000000003
 20
-41.625
 11
9.668750000000003
 21
-53.625
  0
LINE
  5
11F
100
AcDbEntity
  8
0
  6
ByLayer
 62
  256
370
   -1
100
AcDbLine
 10
23.66874999999999
 20
-41.625
 11
23.66874999999999
 21
-53.625
  0
ARC
  5
120
100
AcDbEntity
  8
0
  6
ByLayer
 62
  256
370
   -1
100
AcDbCircle
 10
10.66875
 20
-41.625
 40
1
100
AcDbArc
 50
90
 51
180
  0
ARC
  5
121
100
AcDbEntity
  8
0
  6
ByLayer
 62
  256
370
   -1
100
AcDbCircle
 10
22.66874999999999
 20
-41.625
 40
1
100
AcDbArc
 50
0
 51
90
  0
ARC
  5
122
100
AcDbEntity
  8
0
  6
ByLayer
 62
  256
370
   -1
100
AcDbCircle
 10
10.66875
 20
-53.625
 40
1
100
AcDbArc
 50
180
 51
270
  0
ARC
  5
123
100
AcDbEntity
  8
0
  6
ByLayer
 62
  256
370
   -1
100
AcDbCircle
 10
22.66874999999999
 20
-53.625
 40
1
100
AcDbArc
 50
270
 51
360
  0
LINE
  5
124
100
AcDbEntity
  8
0
  6
ByLayer
 62
  256
370
   -1
100
AcDbLine
 10
36.86249999999998
 20
-40.625
 11
48.86249999999998
 21
-40.625
  0
LINE
  5
125
100
AcDbEntity
  8
0
  6
ByLayer
 62
  256
370
   -1
100
AcDbLine
 10
36.86249999999998
 20
-54.625
 11
48.86249999999998
 21
-54.625
  0
LINE
  5
126
100
AcDbEntity
  8
0
  6
ByLayer
 62
  256
370
   -1
100
AcDbLine
 10
35.86249999999998
 20
-41.625
 11
35.86249999999998
 21
-53.625
  0
LINE
  5
127
100
AcDbEntity
  8
0
  6
ByLayer
 62
  256
370
   -1
100
AcDbLine
 10
49.86249999999998
 20
-41.625
 11
49.86249999999998
 21
-53.625
  0
ARC
  5
128
100
AcDbEntity
  8
0
  6
ByLayer
 62
  256
370
   -1
100
AcDbCircle
 10
36.86249999999998
 20
-41.625
 40
1
100
AcDbArc
 50
90
 51
180
  0
ARC
  5
129
100
AcDbEntity
  8
0
  6
ByLayer
 62
  256
370
   -1
100
AcDbCircle
 10
48.86249999999998
 20
-41.625
 40
1
100
AcDbArc
 50
0
 51
90
  0
ARC
  5
12A
100
AcDbEntity
  8
0
  6
ByLayer
 62
  256
370
   -1
100
AcDbCircle
 10
36.86249999999998
 20
-53.625
 40
1
100
AcDbArc
 50
180
 51
270
  0
ARC
  5
12B
100
AcDbEntity
  8
0
  6
ByLayer
 62
  256
370
   -1
100
AcDbCircle
 10
48.86249999999998
 20
-53.625
 40
1
100
AcDbArc
 50
270
 51
360
  0
LINE
  5
12C
100
AcDbEntity
  8
0
  6
ByLayer
 62
  256
370
   -1
100
AcDbLine
 10
55.91249999999999
 20
-40.625
 11
67.91249999999999
 21
-40.625
  0
LINE
  5
12D
100
AcDbEntity
  8
0
  6
ByLayer
 62
  256
370
   -1
100
AcDbLine
 10
55.91249999999999
 20
-54.625
 11
67.91249999999999
 21
-54.625
  0
LINE
  5
12E
100
AcDbEntity
  8
0
  6
ByLayer
 62
  256
370
   -1
100
AcDbLine
 10
54.91249999999999
 20
-41.625
 11
54.91249999999999
 21
-53.625
  0
LINE
  5
12F
100
AcDbEntity
  8
0
  6
ByLayer
 62
  256
370
   -1
100
AcDbLine
 10
68.91249999999999
 20
-41.625
 11
68.91249999999999
 21
-53.625
  0
ARC
  5
130
100
AcDbEntity
  8
0
  6
ByLayer
 62
  256
370
   -1
100
AcDbCircle
 10
55.91249999999999
 20
-41.625
 40
1
100
AcDbArc
 50
90
 51
180
  0
ARC
  5
131
100
AcDbEntity
  8
0
  6
ByLayer
 62
  256
370
   -1
100
AcDbCircle
 10
67.91249999999999
 20
-41.625
 40
1
100
AcDbArc
 50
0
 51
90
  0
ARC
  5
132
100
AcDbEntity
  8
0
  6
ByLayer
 62
  256
370
   -1
100
AcDbCircle
 10
55.91249999999999
 20
-53.625
 40
1
100
AcDbArc
 50
180
 51
270
  0
ARC
  5
133
100
AcDbEntity
  8
0
  6
ByLayer
 62
  256
370
   -1
100
AcDbCircle
 10
67.91249999999999
 20
-53.625
 40
1
100
AcDbArc
 50
270
 51
360
  0
LINE
  5
134
100
AcDbEntity
  8
0
  6
ByLayer
 62
  256
370
   -1
100
AcDbLine
 10
74.96250000000001
 20
-40.625
 11
86.96250000000001
 21
-40.625
  0
LINE
  5
135
100
AcDbEntity
  8
0
  6
ByLayer
 62
  256
370
   -1
100
AcDbLine
 10
74.96250000000001
 20
-54.625
 11
86.96250000000001
 21
-54.625
  0
LINE
  5
136
100
AcDbEntity
  8
0
  6
ByLayer
 62
  256
370
   -1
100
AcDbLine
 10
73.96250000000001
 20
-41.625
 11
73.96250000000001
 21
-53.625
  0
LINE
  5
137
100
AcDbEntity
  8
0
  6
ByLayer
 62
  256
370
   -1
100
AcDbLine
 10
87.96250000000001
 20
-41.625
 11
87.96250000000001
 21
-53.625
  0
ARC
  5
138
100
AcDbEntity
  8
0
  6
ByLayer
 62
  256
370
   -1
100
AcDbCircle
 10
74.96250000000001
 20
-41.625
 40
1
100
AcDbArc
 50
90
 51
180
  0
ARC
  5
139
100
AcDbEntity
  8
0
  6
ByLayer
 62
  256
370
   -1
100
AcDbCircle
 10
86.96250000000001
 20
-41.625
 40
1
100
AcDbArc
 50
0
 51
90
  0
ARC
  5
13A
100
AcDbEntity
  8
0
  6
ByLayer
 62
  256
370
   -1
100
AcDbCircle
 10
74.96250000000001
 20
-53.625
 40
1
100
AcDbArc
 50
180
 51
270
  0
ARC
  5
13B
100
AcDbEntity
  8
0
  6
ByLayer
 62
  256
370
   -1
100
AcDbCircle
 10
86.96250000000001
 20
-53.625
 40
1
100
AcDbArc
 50
270
 51
360
  0
LINE
  5
13C
100
AcDbEntity
  8
0
  6
ByLayer
 62
  256
370
   -1
100
AcDbLine
 10
94.01250000000002
 20
-40.625
 11
106.0125
 21
-40.625
  0
LINE
  5
13D
100
AcDbEntity
  8
0
  6
ByLayer
 62
  256
370
   -1
100
AcDbLine
 10
94.01250000000002
 20
-54.625
 11
106.0125
 21
-54.625
  0
LINE
  5
13E
100
AcDbEntity
  8
0
  6
ByLayer
 62
  256
370
   -1
100
AcDbLine
 10
93.01250000000002
 20
-41.625
 11
93.01250000000002
 21
-53.625
  0
LINE
  5
13F
100
AcDbEntity
  8
0
  6
ByLayer
 62
  256
370
   -1
100
AcDbLine
 10
107.0125
 20
-41.625
 11
107.0125
 21
-53.625
  0
ARC
  5
140
100
AcDbEntity
  8
0
  6
ByLayer
 62
  256
370
   -1
100
AcDbCircle
 10
94.01250000000002
 20
-41.625
 40
1
100
AcDbArc
 50
90
 51
180
  0
ARC
  5
141
100
AcDbEntity
  8
0
  6
ByLayer
 62
  256
370
   -1
100
AcDbCircle
 10
106.0125
 20
-41.625
 40
1
100
AcDbArc
 50
0
 51
90
  0
ARC
  5
142
100
AcDbEntity
  8
0
  6
ByLayer
 62
  256
370
   -1
100
AcDbCircle
 10
94.01250000000002
 20
-53.625
 40
1
100
AcDbArc
 50
180
 51
270
  0
ARC
  5
143
100
AcDbEntity
  8
0
  6
ByLayer
 62
  256
370
   -1
100
AcDbCircle
 10
106.0125
 20
-53.625
 40
1
100
AcDbArc
 50
270
 51
360
  0
LINE
  5
144
100
AcDbEntity
  8
0
  6
ByLayer
 62
  256
370
   -1
100
AcDbLine
 10
113.0625
 20
-40.625
 11
125.0625
 21
-40.625
  0
LINE
  5
145
100
AcDbEntity
  8
0
  6
ByLayer
 62
  256
370
   -1
100
AcDbLine
 10
113.0625
 20
-54.625
 11
125.0625
 21
-54.625
  0
LINE
  5
146
100
AcDbEntity
  8
0
  6
ByLayer
 62
  256
370
   -1
100
AcDbLine
 10
112.0625
 20
-41.625
 11
112.0625
 21
-53.625
  0
LINE
  5
147
100
AcDbEntity
  8
0
  6
ByLayer
 62
  256
370
   -1
100
AcDbLine
 10
126.0625
 20
-41.625
 11
126.0625
 21
-53.625
  0
ARC
  5
148
100
AcDbEntity
  8
0
  6
ByLayer
 62
  256
370
   -1
100
AcDbCircle
 10
113.0625
 20
-41.625
 40
1
100
AcDbArc
 50
90
 51
180
  0
ARC
  5
149
100
AcDbEntity
  8
0
  6
ByLayer
 62
  256
370
   -1
100
AcDbCircle
 10
125.0625
 20
-41.625
 40
1
100
AcDbArc
 50
0
 51
90
  0
ARC
  5
14A
100
AcDbEntity
  8
0
  6
ByLayer
 62
  256
370
   -1
100
AcDbCircle
 10
113.0625
 20
-53.625
 40
1
100
AcDbArc
 50
180
 51
270
  0
ARC
  5
14B
100
AcDbEntity
  8
0
  6
ByLayer
 62
  256
370
   -1
100
AcDbCircle
 10
125.0625
 20
-53.625
 40
1
100
AcDbArc
 50
270
 51
360
  0
LINE
  5
14C
100
AcDbEntity
  8
0
  6
ByLayer
 62
  256
370
   -1
100
AcDbLine
 10
132.1125
 20
-40.625
 11
144.1125
 21
-40.625
  0
LINE
  5
14D
100
AcDbEntity
  8
0
  6
ByLayer
 62
  256
370
   -1
100
AcDbLine
 10
132.1125
 20
-54.625
 11
144.1125
 21
-54.625
  0
LINE
  5
14E
100
AcDbEntity
  8
0
  6
ByLayer
 62
  256
370
   -1
100
AcDbLine
 10
131.1125
 20
-41.625
 11
131.1125
 21
-53.625
  0
LINE
  5
14F
100
AcDbEntity
  8
0
  6
ByLayer
 62
  256
370
   -1
100
AcDbLine
 10
145.1125
 20
-41.625
 11
145.1125
 21
-53.625
  0
ARC
  5
150
100
AcDbEntity
  8
0
  6
ByLayer
 62
  256
370
   -1
100
AcDbCircle
 10
132.1125
 20
-41.625
 40
1
100
AcDbArc
 50
90
 51
180
  0
ARC
  5
151
100
AcDbEntity
  8
0
  6
ByLayer
 62
  256
370
   -1
100
AcDbCircle
 10
144.1125
 20
-41.625
 40
1
100
AcDbArc
 50
0
 51
90
  0
ARC
  5
152
100
AcDbEntity
  8
0
  6
ByLayer
 62
  256
370
   -1
100
AcDbCircle
 10
132.1125
 20
-53.625
 40
1
100
AcDbArc
 50
180
 51
270
  0
ARC
  5
153
100
AcDbEntity
  8
0
  6
ByLayer
 62
  256
370
   -1
100
AcDbCircle
 10
144.1125
 20
-53.625
 40
1
100
AcDbArc
 50
270
 51
360
  0
LINE
  5
154
100
AcDbEntity
  8
0
  6
ByLayer
 62
  256
370
   -1
100
AcDbLine
 10
151.1625
 20
-40.625
 11
163.1625
 21
-40.625
  0
LINE
  5
155
100
AcDbEntity
  8
0
  6
ByLayer
 62
  256
370
   -1
100
AcDbLine
 10
151.1625
 20
-54.625
 11
163.1625
 21
-54.625
  0
LINE
  5
156
100
AcDbEntity
  8
0
  6
ByLayer
 62
  256
370
   -1
100
AcDbLine
 10
150.1625
 20
-41.625
 11
150.1625
 21
-53.625
  0
LINE
  5
157
100
AcDbEntity
  8
0
  6
ByLayer
 62
  256
370
   -1
100
AcDbLine
 10
164.1625
 20
-41.625
 11
164.1625
 21
-53.625
  0
ARC
  5
158
100
AcDbEntity
  8
0
  6
ByLayer
 62
  256
370
   -1
100
AcDbCircle
 10
151.1625
 20
-41.625
 40
1
100
AcDbArc
 50
90
 51
180
  0
ARC
  5
159
100
AcDbEntity
  8
0
  6
ByLayer
 62
  256
370
   -1
100
AcDbCircle
 10
163.1625
 20
-41.625
 40
1
100
AcDbArc
 50
0
 51
90
  0
ARC
  5
15A
100
AcDbEntity
  8
0
  6
ByLayer
 62
  256
370
   -1
100
AcDbCircle
 10
151.1625
 20
-53.625
 40
1
100
AcDbArc
 50
180
 51
270
  0
ARC
  5
15B
100
AcDbEntity
  8
0
  6
ByLayer
 62
  256
370
   -1
100
AcDbCircle
 10
163.1625
 20
-53.625
 40
1
100
AcDbArc
 50
270
 51
360
  0
LINE
  5
15C
100
AcDbEntity
  8
0
  6
ByLayer
 62
  256
370
   -1
100
AcDbLine
 10
170.2125
 20
-40.625
 11
182.2125
 21
-40.625
  0
LINE
  5
15D
100
AcDbEntity
  8
0
  6
ByLayer
 62
  256
370
   -1
100
AcDbLine
 10
170.2125
 20
-54.625
 11
182.2125
 21
-54.625
  0
LINE
  5
15E
100
AcDbEntity
  8
0
  6
ByLayer
 62
  256
370
   -1
100
AcDbLine
 10
169.2125
 20
-41.625
 11
169.2125
 21
-53.625
  0
LINE
  5
15F
100
AcDbEntity
  8
0
  6
ByLayer
 62
  256
370
   -1
100
AcDbLine
 10
183.2125
 20
-41.625
 11
183.2125
 21
-53.625
  0
ARC
  5
160
100
AcDbEntity
  8
0
  6
ByLayer
 62
  256
370
   -1
100
AcDbCircle
 10
170.2125
 20
-41.625
 40
1
100
AcDbArc
 50
90
 51
180
  0
ARC
  5
161
100
AcDbEntity
  8
0
  6
ByLayer
 62
  256
370
   -1
100
AcDbCircle
 10
182.2125
 20
-41.625
 40
1
100
AcDbArc
 50
0
 51
90
  0
ARC
  5
162
100
AcDbEntity
  8
0
  6
ByLayer
 62
  256
370
   -1
100
AcDbCircle
 10
170.2125
 20
-53.625
 40
1
100
AcDbArc
 50
180
 51
270
  0
ARC
  5
163
100
AcDbEntity
  8
0
  6
ByLayer
 62
  256
370
   -1
100
AcDbCircle
 10
182.2125
 20
-53.625
 40
1
100
AcDbArc
 50
270
 51
360
  0
LINE
  5
164
100
AcDbEntity
  8
0
  6
ByLayer
 62
  256
370
   -1
100
AcDbLine
 10
189.2625
 20
-40.625
 11
201.2625
 21
-40.625
  0
LINE
  5
165
100
AcDbEntity
  8
0
  6
ByLayer
 62
  256
370
   -1
100
AcDbLine
 10
189.2625
 20
-54.625
 11
201.2625
 21
-54.625
  0
LINE
  5
166
100
AcDbEntity
  8
0
  6
ByLayer
 62
  256
370
   -1
100
AcDbLine
 10
188.2625
 20
-41.625
 11
188.2625
 21
-53.625
  0
LINE
  5
167
100
AcDbEntity
  8
0
  6
ByLayer
 62
  256
370
   -1
100
AcDbLine
 10
202.2625
 20
-41.625
 11
202.2625
 21
-53.625
  0
ARC
  5
168
100
AcDbEntity
  8
0
  6
ByLayer
 62
  256
370
   -1
100
AcDbCircle
 10
189.2625
 20
-41.625
 40
1
100
AcDbArc
 50
90
 51
180
  0
ARC
  5
169
100
AcDbEntity
  8
0
  6
ByLayer
 62
  256
370
   -1
100
AcDbCircle
 10
201.2625
 20
-41.625
 40
1
100
AcDbArc
 50
0
 51
90
  0
ARC
  5
16A
100
AcDbEntity
  8
0
  6
ByLayer
 62
  256
370
   -1
100
AcDbCircle
 10
189.2625
 20
-53.625
 40
1
100
AcDbArc
 50
180
 51
270
  0
ARC
  5
16B
100
AcDbEntity
  8
0
  6
ByLayer
 62
  256
370
   -1
100
AcDbCircle
 10
201.2625
 20
-53.625
 40
1
100
AcDbArc
 50
270
 51
360
  0
LINE
  5
16C
100
AcDbEntity
  8
0
  6
ByLayer
 62
  256
370
   -1
100
AcDbLine
 10
208.3125
 20
-40.625
 11
220.3125
 21
-40.625
  0
LINE
  5
16D
100
AcDbEntity
  8
0
  6
ByLayer
 62
  256
370
   -1
100
AcDbLine
 10
208.3125
 20
-54.625
 11
220.3125
 21
-54.625
  0
LINE
  5
16E
100
AcDbEntity
  8
0
  6
ByLayer
 62
  256
370
   -1
100
AcDbLine
 10
207.3125
 20
-41.625
 11
207.3125
 21
-53.625
  0
LINE
  5
16F
100
AcDbEntity
  8
0
  6
ByLayer
 62
  256
370
   -1
100
AcDbLine
 10
221.3125
 20
-41.625
 11
221.3125
 21
-53.625
  0
ARC
  5
170
100
AcDbEntity
  8
0
  6
ByLayer
 62
  256
370
   -1
100
AcDbCircle
 10
208.3125
 20
-41.625
 40
1
100
AcDbArc
 50
90
 51
180
  0
ARC
  5
171
100
AcDbEntity
  8
0
  6
ByLayer
 62
  256
370
   -1
100
AcDbCircle
 10
220.3125
 20
-41.625
 40
1
100
AcDbArc
 50
0
 51
90
  0
ARC
  5
172
100
AcDbEntity
  8
0
  6
ByLayer
 62
  256
370
   -1
100
AcDbCircle
 10
208.3125
 20
-53.625
 40
1
100
AcDbArc
 50
180
 51
270
  0
ARC
  5
173
100
AcDbEntity
  8
0
  6
ByLayer
 62
  256
370
   -1
100
AcDbCircle
 10
220.3125
 20
-53.625
 40
1
100
AcDbArc
 50
270
 51
360
  0
LINE
  5
174
100
AcDbEntity
  8
0
  6
ByLayer
 62
  256
370
   -1
100
AcDbLine
 10
227.3625
 20
-40.625
 11
239.3625
 21
-40.625
  0
LINE
  5
175
100
AcDbEntity
  8
0
  6
ByLayer
 62
  256
370
   -1
100
AcDbLine
 10
227.3625
 20
-54.625
 11
239.3625
 21
-54.625
  0
LINE
  5
176
100
AcDbEntity
  8
0
  6
ByLayer
 62
  256
370
   -1
100
AcDbLine
 10
226.3625
 20
-41.625
 11
226.3625
 21
-53.625
  0
LINE
  5
177
100
AcDbEntity
  8
0
  6
ByLayer
 62
  256
370
   -1
100
AcDbLine
 10
240.3625
 20
-41.625
 11
240.3625
 21
-53.625
  0
ARC
  5
178
100
AcDbEntity
  8
0
  6
ByLayer
 62
  256
370
   -1
100
AcDbCircle
 10
227.3625
 20
-41.625
 40
1
100
AcDbArc
 50
90
 51
180
  0
ARC
  5
179
100
AcDbEntity
  8
0
  6
ByLayer
 62
  256
370
   -1
100
AcDbCircle
 10
239.3625
 20
-41.625
 40
1
100
AcDbArc
 50
0
 51
90
  0
ARC
  5
17A
100
AcDbEntity
  8
0
  6
ByLayer
 62
  256
370
   -1
100
AcDbCircle
 10
227.3625
 20
-53.625
 40
1
100
AcDbArc
 50
180
 51
270
  0
ARC
  5
17B
100
AcDbEntity
  8
0
  6
ByLayer
 62
  256
370
   -1
100
AcDbCircle
 10
239.3625
 20
-53.625
 40
1
100
AcDbArc
 50
270
 51
360
  0
LINE
  5
17C
100
AcDbEntity
  8
0
  6
ByLayer
 62
  256
370
   -1
100
AcDbLine
 10
5.90625
 20
-59.675
 11
17.90625
 21
-59.675
  0
LINE
  5
17D
100
AcDbEntity
  8
0
  6
ByLayer
 62
  256
370
   -1
100
AcDbLine
 10
5.90625
 20
-73.675
 11
17.90625
 21
-73.675
  0
LINE
  5
17E
100
AcDbEntity
  8
0
  6
ByLayer
 62
  256
370
   -1
100
AcDbLine
 10
4.90625
 20
-60.675
 11
4.90625
 21
-72.675
  0
LINE
  5
17F
100
AcDbEntity
  8
0
  6
ByLayer
 62
  256
370
   -1
100
AcDbLine
 10
18.90625
 20
-60.675
 11
18.90625
 21
-72.675
  0
ARC
  5
180
100
AcDbEntity
  8
0
  6
ByLayer
 62
  256
370
   -1
100
AcDbCircle
 10
5.90625
 20
-60.675
 40
1
100
AcDbArc
 50
90
 51
180
  0
ARC
  5
181
100
AcDbEntity
  8
0
  6
ByLayer
 62
  256
370
   -1
100
AcDbCircle
 10
17.90625
 20
-60.675
 40
1
100
AcDbArc
 50
0
 51
90
  0
ARC
  5
182
100
AcDbEntity
  8
0
  6
ByLayer
 62
  256
370
   -1
100
AcDbCircle
 10
5.90625
 20
-72.675
 40
1
100
AcDbArc
 50
180
 51
270
  0
ARC
  5
183
100
AcDbEntity
  8
0
  6
ByLayer
 62
  256
370
   -1
100
AcDbCircle
 10
17.90625
 20
-72.675
 40
1
100
AcDbArc
 50
270
 51
360
  0
LINE
  5
184
100
AcDbEntity
  8
0
  6
ByLayer
 62
  256
370
   -1
100
AcDbLine
 10
32.09999999999999
 20
-59.675
 11
44.09999999999999
 21
-59.675
  0
LINE
  5
185
100
AcDbEntity
  8
0
  6
ByLayer
 62
  256
370
   -1
100
AcDbLine
 10
32.09999999999999
 20
-73.675
 11
44.09999999999999
 21
-73.675
  0
LINE
  5
186
100
AcDbEntity
  8
0
  6
ByLayer
 62
  256
370
   -1
100
AcDbLine
 10
31.09999999999999
 20
-60.675
 11
31.09999999999999
 21
-72.675
  0
LINE
  5
187
100
AcDbEntity
  8
0
  6
ByLayer
 62
  256
370
   -1
100
AcDbLine
 10
45.09999999999999
 20
-60.675
 11
45.09999999999999
 21
-72.675
  0
ARC
  5
188
100
AcDbEntity
  8
0
  6
ByLayer
 62
  256
370
   -1
100
AcDbCircle
 10
32.09999999999999
 20
-60.675
 40
1
100
AcDbArc
 50
90
 51
180
  0
ARC
  5
189
100
AcDbEntity
  8
0
  6
ByLayer
 62
  256
370
   -1
100
AcDbCircle
 10
44.09999999999999
 20
-60.675
 40
1
100
AcDbArc
 50
0
 51
90
  0
ARC
  5
18A
100
AcDbEntity
  8
0
  6
ByLayer
 62
  256
370
   -1
100
AcDbCircle
 10
32.09999999999999
 20
-72.675
 40
1
100
AcDbArc
 50
180
 51
270
  0
ARC
  5
18B
100
AcDbEntity
  8
0
  6
ByLayer
 62
  256
370
   -1
100
AcDbCircle
 10
44.09999999999999
 20
-72.675
 40
1
100
AcDbArc
 50
270
 51
360
  0
LINE
  5
18C
100
AcDbEntity
  8
0
  6
ByLayer
 62
  256
370
   -1
100
AcDbLine
 10
58.29375000000002
 20
-59.675
 11
70.29375000000002
 21
-59.675
  0
LINE
  5
18D
100
AcDbEntity
  8
0
  6
ByLayer
 62
  256
370
   -1
100
AcDbLine
 10
58.29375000000002
 20
-73.675
 11
70.29375000000002
 21
-73.675
  0
LINE
  5
18E
100
AcDbEntity
  8
0
  6
ByLayer
 62
  256
370
   -1
100
AcDbLine
 10
57.29375000000002
 20
-60.675
 11
57.29375000000002
 21
-72.675
  0
LINE
  5
18F
100
AcDbEntity
  8
0
  6
ByLayer
 62
  256
370
   -1
100
AcDbLine
 10
71.29375000000002
 20
-60.675
 11
71.29375000000002
 21
-72.675
  0
ARC
  5
190
100
AcDbEntity
  8
0
  6
ByLayer
 62
  256
370
   -1
100
AcDbCircle
 10
58.29375000000002
 20
-60.675
 40
1
100
AcDbArc
 50
90
 51
180
  0
ARC
  5
191
100
AcDbEntity
  8
0
  6
ByLayer
 62
  256
370
   -1
100
AcDbCircle
 10
70.29375000000002
 20
-60.675
 40
1
100
AcDbArc
 50
0
 51
90
  0
ARC
  5
192
100
AcDbEntity
  8
0
  6
ByLayer
 62
  256
370
   -1
100
AcDbCircle
 10
58.29375000000002
 20
-72.675
 40
1
100
AcDbArc
 50
180
 51
270
  0
ARC
  5
193
100
AcDbEntity
  8
0
  6
ByLayer
 62
  256
370
   -1
100
AcDbCircle
 10
70.29375000000002
 20
-72.675
 40
1
100
AcDbArc
 50
270
 51
360
  0
LINE
  5
194
100
AcDbEntity
  8
0
  6
ByLayer
 62
  256
370
   -1
100
AcDbLine
 10
91.63124999999999
 20
-59.675
 11
103.63125
 21
-59.675
  0
LINE
  5
195
100
AcDbEntity
  8
0
  6
ByLayer
 62
  256
370
   -1
100
AcDbLine
 10
91.63124999999999
 20
-73.675
 11
103.63125
 21
-73.675
  0
LINE
  5
196
100
AcDbEntity
  8
0
  6
ByLayer
 62
  256
370
   -1
100
AcDbLine
 10
90.63124999999999
 20
-60.675
 11
90.63124999999999
 21
-72.675
  0
LINE
  5
197
100
AcDbEntity
  8
0
  6
ByLayer
 62
  256
370
   -1
100
AcDbLine
 10
104.63125
 20
-60.675
 11
104.63125
 21
-72.675
  0
ARC
  5
198
100
AcDbEntity
  8
0
  6
ByLayer
 62
  256
370
   -1
100
AcDbCircle
 10
91.63124999999999
 20
-60.675
 40
1
100
AcDbArc
 50
90
 51
180
  0
ARC
  5
199
100
AcDbEntity
  8
0
  6
ByLayer
 62
  256
370
   -1
100
AcDbCircle
 10
103.63125
 20
-60.675
 40
1
100
AcDbArc
 50
0
 51
90
  0
ARC
  5
19A
100
AcDbEntity
  8
0
  6
ByLayer
 62
  256
370
   -1
100
AcDbCircle
 10
91.63124999999999
 20
-72.675
 40
1
100
AcDbArc
 50
180
 51
270
  0
ARC
  5
19B
100
AcDbEntity
  8
0
  6
ByLayer
 62
  256
370
   -1
100
AcDbCircle
 10
103.63125
 20
-72.675
 40
1
100
AcDbArc
 50
270
 51
360
  0
LINE
  5
19C
100
AcDbEntity
  8
0
  6
ByLayer
 62
  256
370
   -1
100
AcDbLine
 10
88.06825000000001
 20
-72.675
 11
83.31825000000001
 21
-72.675
  0
LINE
  5
19D
100
AcDbEntity
  8
0
  6
ByLayer
 62
  256
370
   -1
100
AcDbLine
 10
88.06825000000001
 20
-58.675
 11
83.31825000000001
 21
-58.675
  0
LINE
  5
19E
100
AcDbEntity
  8
0
  6
ByLayer
 62
  256
370
   -1
100
AcDbLine
 10
89.06825000000001
 20
-71.675
 11
89.06825000000001
 21
-59.675
  0
LINE
  5
19F
100
AcDbEntity
  8
0
  6
ByLayer
 62
  256
370
   -1
100
AcDbLine
 10
82.31825000000001
 20
-71.675
 11
82.31825000000001
 21
-59.675
  0
ARC
  5
1A0
100
AcDbEntity
  8
0
  6
ByLayer
 62
  256
370
   -1
100
AcDbCircle
 10
88.06825000000001
 20
-71.675
 40
1
100
AcDbArc
 50
-90
 51
0
  0
ARC
  5
1A1
100
AcDbEntity
  8
0
  6
ByLayer
 62
  256
370
   -1
100
AcDbCircle
 10
83.31825000000001
 20
-71.675
 40
1
100
AcDbArc
 50
-180
 51
-90
  0
ARC
  5
1A2
100
AcDbEntity
  8
0
  6
ByLayer
 62
  256
370
   -1
100
AcDbCircle
 10
88.06825000000001
 20
-59.675
 40
1
100
AcDbArc
 50
0
 51
90
  0
ARC
  5
1A3
100
AcDbEntity
  8
0
  6
ByLayer
 62
  256
370
   -1
100
AcDbCircle
 10
83.31825000000001
 20
-59.675
 40
1
100
AcDbArc
 50
90
 51
180
  0
LINE
  5
1A4
100
AcDbEntity
  8
0
  6
ByLayer
 62
  256
370
   -1
100
AcDbLine
 10
111.94425
 20
-72.675
 11
107.19425
 21
-72.675
  0
LINE
  5
1A5
100
AcDbEntity
  8
0
  6
ByLayer
 62
  256
370
   -1
100
AcDbLine
 10
111.94425
 20
-58.675
 11
107.19425
 21
-58.675
  0
LINE
  5
1A6
100
AcDbEntity
  8
0
  6
ByLayer
 62
  256
370
   -1
100
AcDbLine
 10
112.94425
 20
-71.675
 11
112.94425
 21
-59.675
  0
LINE
  5
1A7
100
AcDbEntity
  8
0
  6
ByLayer
 62
  256
370
   -1
100
AcDbLine
 10
106.19425
 20
-71.675
 11
106.19425
 21
-59.675
  0
ARC
  5
1A8
100
AcDbEntity
  8
0
  6
ByLayer
 62
  256
370
   -1
100
AcDbCircle
 10
111.94425
 20
-71.675
 40
1
100
AcDbArc
 50
-90
 51
0
  0
ARC
  5
1A9
100
AcDbEntity
  8
0
  6
ByLayer
 62
  256
370
   -1
100
AcDbCircle
 10
107.19425
 20
-71.675
 40
1
100
AcDbArc
 50
-180
 51
-90
  0
ARC
  5
1AA
100
AcDbEntity
  8
0
  6
ByLayer
 62
  256
370
   -1
100
AcDbCircle
 10
111.94425
 20
-59.675
 40
1
100
AcDbArc
 50
0
 51
90
  0
ARC
  5
1AB
100
AcDbEntity
  8
0
  6
ByLayer
 62
  256
370
   -1
100
AcDbCircle
 10
107.19425
 20
-59.675
 40
1
100
AcDbArc
 50
90
 51
180
  0
LINE
  5
1AC
100
AcDbEntity
  8
0
  6
ByLayer
 62
  256
370
   -1
100
AcDbLine
 10
132.1125
 20
-59.675
 11
144.1125
 21
-59.675
  0
LINE
  5
1AD
100
AcDbEntity
  8
0
  6
ByLayer
 62
  256
370
   -1
100
AcDbLine
 10
132.1125
 20
-73.675
 11
144.1125
 21
-73.675
  0
LINE
  5
1AE
100
AcDbEntity
  8
0
  6
ByLayer
 62
  256
370
   -1
100
AcDbLine
 10
131.1125
 20
-60.675
 11
131.1125
 21
-72.675
  0
LINE
  5
1AF
100
AcDbEntity
  8
0
  6
ByLayer
 62
  256
370
   -1
100
AcDbLine
 10
145.1125
 20
-60.675
 11
145.1125
 21
-72.675
  0
ARC
  5
1B0
100
AcDbEntity
  8
0
  6
ByLayer
 62
  256
370
   -1
100
AcDbCircle
 10
132.1125
 20
-60.675
 40
1
100
AcDbArc
 50
90
 51
180
  0
ARC
  5
1B1
100
AcDbEntity
  8
0
  6
ByLayer
 62
  256
370
   -1
100
AcDbCircle
 10
144.1125
 20
-60.675
 40
1
100
AcDbArc
 50
0
 51
90
  0
ARC
  5
1B2
100
AcDbEntity
  8
0
  6
ByLayer
 62
  256
370
   -1
100
AcDbCircle
 10
132.1125
 20
-72.675
 40
1
100
AcDbArc
 50
180
 51
270
  0
ARC
  5
1B3
100
AcDbEntity
  8
0
  6
ByLayer
 62
  256
370
   -1
100
AcDbCircle
 10
144.1125
 20
-72.675
 40
1
100
AcDbArc
 50
270
 51
360
  0
LINE
  5
1B4
100
AcDbEntity
  8
0
  6
ByLayer
 62
  256
370
   -1
100
AcDbLine
 10
128.5495
 20
-72.675
 11
123.7995
 21
-72.675
  0
LINE
  5
1B5
100
AcDbEntity
  8
0
  6
ByLayer
 62
  256
370
   -1
100
AcDbLine
 10
128.5495
 20
-58.675
 11
123.7995
 21
-58.675
  0
LINE
  5
1B6
100
AcDbEntity
  8
0
  6
ByLayer
 62
  256
370
   -1
100
AcDbLine
 10
129.5495
 20
-71.675
 11
129.5495
 21
-59.675
  0
LINE
  5
1B7
100
AcDbEntity
  8
0
  6
ByLayer
 62
  256
370
   -1
100
AcDbLine
 10
122.7995
 20
-71.675
 11
122.7995
 21
-59.675
  0
ARC
  5
1B8
100
AcDbEntity
  8
0
  6
ByLayer
 62
  256
370
   -1
100
AcDbCircle
 10
128.5495
 20
-71.675
 40
1
100
AcDbArc
 50
-90
 51
0
  0
ARC
  5
1B9
100
AcDbEntity
  8
0
  6
ByLayer
 62
  256
370
   -1
100
AcDbCircle
 10
123.7995
 20
-71.675
 40
1
100
AcDbArc
 50
-180
 51
-90
  0
ARC
  5
1BA
100
AcDbEntity
  8
0
  6
ByLayer
 62
  256
370
   -1
100
AcDbCircle
 10
128.5495
 20
-59.675
 40
1
100
AcDbArc
 50
0
 51
90
  0
ARC
  5
1BB
100
AcDbEntity
  8
0
  6
ByLayer
 62
  256
370
   -1
100
AcDbCircle
 10
123.7995
 20
-59.675
 40
1
100
AcDbArc
 50
90
 51
180
  0
LINE
  5
1BC
100
AcDbEntity
  8
0
  6
ByLayer
 62
  256
370
   -1
100
AcDbLine
 10
152.4255
 20
-72.675
 11
147.6755
 21
-72.675
  0
LINE
  5
1BD
100
AcDbEntity
  8
0
  6
ByLayer
 62
  256
370
   -1
100
AcDbLine
 10
152.4255
 20
-58.675
 11
147.6755
 21
-58.675
  0
LINE
  5
1BE
100
AcDbEntity
  8
0
  6
ByLayer
 62
  256
370
   -1
100
AcDbLine
 10
153.4255
 20
-71.675
 11
153.4255
 21
-59.675
  0
LINE
  5
1BF
100
AcDbEntity
  8
0
  6
ByLayer
 62
  256
370
   -1
100
AcDbLine
 10
146.6755
 20
-71.675
 11
146.6755
 21
-59.675
  0
ARC
  5
1C0
100
AcDbEntity
  8
0
  6
ByLayer
 62
  256
370
   -1
100
AcDbCircle
 10
152.4255
 20
-71.675
 40
1
100
AcDbArc
 50
-90
 51
0
  0
ARC
  5
1C1
100
AcDbEntity
  8
0
  6
ByLayer
 62
  256
370
   -1
100
AcDbCircle
 10
147.6755
 20
-71.675
 40
1
100
AcDbArc
 50
-180
 51
-90
  0
ARC
  5
1C2
100
AcDbEntity
  8
0
  6
ByLayer
 62
  256
370
   -1
100
AcDbCircle
 10
152.4255
 20
-59.675
 40
1
100
AcDbArc
 50
0
 51
90
  0
ARC
  5
1C3
100
AcDbEntity
  8
0
  6
ByLayer
 62
  256
370
   -1
100
AcDbCircle
 10
147.6755
 20
-59.675
 40
1
100
AcDbArc
 50
90
 51
180
  0
LINE
  5
1C4
100
AcDbEntity
  8
0
  6
ByLayer
 62
  256
370
   -1
100
AcDbLine
 10
163.06875
 20
-59.675
 11
175.06875
 21
-59.675
  0
LINE
  5
1C5
100
AcDbEntity
  8
0
  6
ByLayer
 62
  256
370
   -1
100
AcDbLine
 10
163.06875
 20
-73.675
 11
175.06875
 21
-73.675
  0
LINE
  5
1C6
100
AcDbEntity
  8
0
  6
ByLayer
 62
  256
370
   -1
100
AcDbLine
 10
162.06875
 20
-60.675
 11
162.06875
 21
-72.675
  0
LINE
  5
1C7
100
AcDbEntity
  8
0
  6
ByLayer
 62
  256
370
   -1
100
AcDbLine
 10
176.06875
 20
-60.675
 11
176.06875
 21
-72.675
  0
ARC
  5
1C8
100
AcDbEntity
  8
0
  6
ByLayer
 62
  256
370
   -1
100
AcDbCircle
 10
163.06875
 20
-60.675
 40
1
100
AcDbArc
 50
90
 51
180
  0
ARC
  5
1C9
100
AcDbEntity
  8
0
  6
ByLayer
 62
  256
370
   -1
100
AcDbCircle
 10
175.06875
 20
-60.675
 40
1
100
AcDbArc
 50
0
 51
90
  0
ARC
  5
1CA
100
AcDbEntity
  8
0
  6
ByLayer
 62
  256
370
   -1
100
AcDbCircle
 10
163.06875
 20
-72.675
 40
1
100
AcDbArc
 50
180
 51
270
  0
ARC
  5
1CB
100
AcDbEntity
  8
0
  6
ByLayer
 62
  256
370
   -1
100
AcDbCircle
 10
175.06875
 20
-72.675
 40
1
100
AcDbArc
 50
270
 51
360
  0
LINE
  5
1CC
100
AcDbEntity
  8
0
  6
ByLayer
 62
  256
370
   -1
100
AcDbLine
 10
189.2625
 20
-59.675
 11
201.2625
 21
-59.675
  0
LINE
  5
1CD
100
AcDbEntity
  8
0
  6
ByLayer
 62
  256
370
   -1
100
AcDbLine
 10
189.2625
 20
-73.675
 11
201.2625
 21
-73.675
  0
LINE
  5
1CE
100
AcDbEntity
  8
0
  6
ByLayer
 62
  256
370
   -1
100
AcDbLine
 10
188.2625
 20
-60.675
 11
188.2625
 21
-72.675
  0
LINE
  5
1CF
100
AcDbEntity
  8
0
  6
ByLayer
 62
  256
370
   -1
100
AcDbLine
 10
202.2625
 20
-60.675
 11
202.2625
 21
-72.675
  0
ARC
  5
1D0
100
AcDbEntity
  8
0
  6
ByLayer
 62
  256
370
   -1
100
AcDbCircle
 10
189.2625
 20
-60.675
 40
1
100
AcDbArc
 50
90
 51
180
  0
ARC
  5
1D1
100
AcDbEntity
  8
0
  6
ByLayer
 62
  256
370
   -1
100
AcDbCircle
 10
201.2625
 20
-60.675
 40
1
100
AcDbArc
 50
0
 51
90
  0
ARC
  5
1D2
100
AcDbEntity
  8
0
  6
ByLayer
 62
  256
370
   -1
100
AcDbCircle
 10
189.2625
 20
-72.675
 40
1
100
AcDbArc
 50
180
 51
270
  0
ARC
  5
1D3
100
AcDbEntity
  8
0
  6
ByLayer
 62
  256
370
   -1
100
AcDbCircle
 10
201.2625
 20
-72.675
 40
1
100
AcDbArc
 50
270
 51
360
  0
LINE
  5
1D4
100
AcDbEntity
  8
0
  6
ByLayer
 62
  256
370
   -1
100
AcDbLine
 10
220.21875
 20
-59.675
 11
232.21875
 21
-59.675
  0
LINE
  5
1D5
100
AcDbEntity
  8
0
  6
ByLayer
 62
  256
370
   -1
100
AcDbLine
 10
220.21875
 20
-73.675
 11
232.21875
 21
-73.675
  0
LINE
  5
1D6
100
AcDbEntity
  8
0
  6
ByLayer
 62
  256
370
   -1
100
AcDbLine
 10
219.21875
 20
-60.675
 11
219.21875
 21
-72.675
  0
LINE
  5
1D7
100
AcDbEntity
  8
0
  6
ByLayer
 62
  256
370
   -1
100
AcDbLine
 10
233.21875
 20
-60.675
 11
233.21875
 21
-72.675
  0
ARC
  5
1D8
100
AcDbEntity
  8
0
  6
ByLayer
 62
  256
370
   -1
100
AcDbCircle
 10
220.21875
 20
-60.675
 40
1
100
AcDbArc
 50
90
 51
180
  0
ARC
  5
1D9
100
AcDbEntity
  8
0
  6
ByLayer
 62
  256
370
   -1
100
AcDbCircle
 10
232.21875
 20
-60.675
 40
1
100
AcDbArc
 50
0
 51
90
  0
ARC
  5
1DA
100
AcDbEntity
  8
0
  6
ByLayer
 62
  256
370
   -1
100
AcDbCircle
 10
220.21875
 20
-72.675
 40
1
100
AcDbArc
 50
180
 51
270
  0
ARC
  5
1DB
100
AcDbEntity
  8
0
  6
ByLayer
 62
  256
370
   -1
100
AcDbCircle
 10
232.21875
 20
-72.675
 40
1
100
AcDbArc
 50
270
 51
360
  0
LINE
  5
1DC
100
AcDbEntity
  8
0
  6
ByLayer
 62
  256
370
   -1
100
AcDbLine
 10
0
 20
0
 11
242.8875
 21
0
  0
LINE
  5
1DD
100
AcDbEntity
  8
0
  6
ByLayer
 62
  256
370
   -1
100
AcDbLine
 10
0
 20
-76.2
 11
242.8875
 21
-76.2
  0
LINE
  5
1DE
100
AcDbEntity
  8
0
  6
ByLayer
 62
  256
370
   -1
100
AcDbLine
 10
0
 20
0
 11
0
 21
-76.2
  0
LINE
  5
1DF
100
AcDbEntity
  8
0
  6
ByLayer
 62
  256
370
   -1
100
AcDbLine
 10
242.8875
 20
0
 11
242.8875
 21
-76.2
  0
ENDBLK
  5
57
330
55
100
AcDbEntity
  8
0
100
AcDbBlockEnd
  0
ENDSEC
  0
SECTION
  2
ENTITIES
  0
LINE
  5
1E0
100
AcDbEntity
  8
0
  6
ByLayer
 62
  256
370
   -1
100
AcDbLine
 10
0.7731249999961989
 20
0.4771874999995021
 11
12.77312499999623
 21
0.4771874999995021
  0
LINE
  5
1E1
100
AcDbEntity
  8
0
  6
ByLayer
 62
  256
370
   -1
100
AcDbLine
 10
0.7731249999961989
 20
-13.52281250000048
 11
12.77312499999623
 21
-13.52281250000048
  0
LINE
  5
1E2
100
AcDbEntity
  8
0
  6
ByLayer
 62
  256
370
   -1
100
AcDbLine
 10
-0.2268750000038011
 20
-0.5228125000004979
 11
-0.2268750000038011
 21
-12.52281250000048
  0
LINE
  5
1E3
100
AcDbEntity
  8
0
  6
ByLayer
 62
  256
370
   -1
100
AcDbLine
 10
13.77312499999623
 20
-0.5228125000004979
 11
13.77312499999623
 21
-12.52281250000048
  0
ARC
  5
1E4
100
AcDbEntity
  8
0
  6
ByLayer
 62
  256
370
   -1
100
AcDbCircle
 10
0.7731249999961989
 20
-0.5228125000004979
 40
1
100
AcDbArc
 50
90
 51
180
  0
ARC
  5
1E5
100
AcDbEntity
  8
0
  6
ByLayer
 62
  256
370
   -1
100
AcDbCircle
 10
12.77312499999623
 20
-0.5228125000004979
 40
1
100
AcDbArc
 50
0
 51
90
  0
ARC
  5
1E6
100
AcDbEntity
  8
0
  6
ByLayer
 62
  256
370
   -1
100
AcDbCircle
 10
0.7731249999961989
 20
-12.52281250000048
 40
1
100
AcDbArc
 50
180
 51
270
  0
ARC
  5
1E7
100
AcDbEntity
  8
0
  6
ByLayer
 62
  256
370
   -1
100
AcDbCircle
 10
12.77312499999623
 20
-12.52281250000048
 40
1
100
AcDbArc
 50
270
 51
360
  0
LINE
  5
1E8
100
AcDbEntity
  8
0
  6
ByLayer
 62
  256
370
   -1
100
AcDbLine
 10
19.82312499999621
 20
0.4771874999995021
 11
31.82312499999624
 21
0.4771874999995021
  0
LINE
  5
1E9
100
AcDbEntity
  8
0
  6
ByLayer
 62
  256
370
   -1
100
AcDbLine
 10
18.82312499999621
 20
-0.5228125000004979
 11
18.82312499999621
 21
-12.52281250000048
  0
LINE
  5
1EA
100
AcDbEntity
  8
0
  6
ByLayer
 62
  256
370
   -1
100
AcDbLine
 10
32.82312499999624
 20
-0.5228125000004979
 11
32.82312499999624
 21
-12.52281250000048
  0
ARC
  5
1EB
100
AcDbEntity
  8
0
  6
ByLayer
 62
  256
370
   -1
100
AcDbCircle
 10
19.82312499999621
 20
-0.5228125000004979
 40
1
100
AcDbArc
 50
90
 51
180
  0
ARC
  5
1EC
100
AcDbEntity
  8
0
  6
ByLayer
 62
  256
370
   -1
100
AcDbCircle
 10
31.82312499999624
 20
-0.5228125000004979
 40
1
100
AcDbArc
 50
0
 51
90
  0
ARC
  5
1ED
100
AcDbEntity
  8
0
  6
ByLayer
 62
  256
370
   -1
100
AcDbCircle
 10
19.82312499999621
 20
-12.52281250000048
 40
1
100
AcDbArc
 50
180
 51
270
  0
ARC
  5
1EE
100
AcDbEntity
  8
0
  6
ByLayer
 62
  256
370
   -1
100
AcDbCircle
 10
31.82312499999624
 20
-12.52281250000048
 40
1
100
AcDbArc
 50
270
 51
360
  0
LINE
  5
1EF
100
AcDbEntity
  8
0
  6
ByLayer
 62
  256
370
   -1
100
AcDbLine
 10
38.87312499999622
 20
0.4771874999995021
 11
50.87312499999622
 21
0.4771874999995021
  0
LINE
  5
1F0
100
AcDbEntity
  8
0
  6
ByLayer
 62
  256
370
   -1
100
AcDbLine
 10
38.87312499999622
 20
-13.52281250000048
 11
50.87312499999622
 21
-13.52281250000048
  0
LINE
  5
1F1
100
AcDbEntity
  8
0
  6
ByLayer
 62
  256
370
   -1
100
AcDbLine
 10
37.87312499999622
 20
-0.5228125000004979
 11
37.87312499999622
 21
-12.52281250000048
  0
LINE
  5
1F2
100
AcDbEntity
  8
0
  6
ByLayer
 62
  256
370
   -1
100
AcDbLine
 10
51.87312499999622
 20
-0.5228125000004979
 11
51.87312499999622
 21
-12.52281250000048
  0
ARC
  5
1F3
100
AcDbEntity
  8
0
  6
ByLayer
 62
  256
370
   -1
100
AcDbCircle
 10
38.87312499999622
 20
-0.5228125000004979
 40
1
100
AcDbArc
 50
90
 51
180
  0
ARC
  5
1F4
100
AcDbEntity
  8
0
  6
ByLayer
 62
  256
370
   -1
100
AcDbCircle
 10
50.87312499999622
 20
-0.5228125000004979
 40
1
100
AcDbArc
 50
0
 51
90
  0
ARC
  5
1F5
100
AcDbEntity
  8
0
  6
ByLayer
 62
  256
370
   -1
100
AcDbCircle
 10
38.87312499999622
 20
-12.52281250000048
 40
1
100
AcDbArc
 50
180
 51
270
  0
ARC
  5
1F6
100
AcDbEntity
  8
0
  6
ByLayer
 62
  256
370
   -1
100
AcDbCircle
 10
50.87312499999622
 20
-12.52281250000048
 40
1
100
AcDbArc
 50
270
 51
360
  0
LINE
  5
1F7
100
AcDbEntity
  8
0
  6
ByLayer
 62
  256
370
   -1
100
AcDbLine
 10
57.9231249999962
 20
0.4771874999995021
 11
69.9231249999962
 21
0.4771874999995021
  0
LINE
  5
1F8
100
AcDbEntity
  8
0
  6
ByLayer
 62
  256
370
   -1
100
AcDbLine
 10
57.9231249999962
 20
-13.52281250000048
 11
69.9231249999962
 21
-13.52281250000048
  0
LINE
  5
1F9
100
AcDbEntity
  8
0
  6
ByLayer
 62
  256
370
   -1
100
AcDbLine
 10
56.9231249999962
 20
-0.5228125000004979
 11
56.9231249999962
 21
-12.52281250000048
  0
LINE
  5
1FA
100
AcDbEntity
  8
0
  6
ByLayer
 62
  256
370
   -1
100
AcDbLine
 10
70.9231249999962
 20
-0.5228125000004979
 11
70.9231249999962
 21
-12.52281250000048
  0
ARC
  5
1FB
100
AcDbEntity
  8
0
  6
ByLayer
 62
  256
370
   -1
100
AcDbCircle
 10
57.9231249999962
 20
-0.5228125000004979
 40
1
100
AcDbArc
 50
90
 51
180
  0
ARC
  5
1FC
100
AcDbEntity
  8
0
  6
ByLayer
 62
  256
370
   -1
100
AcDbCircle
 10
69.9231249999962
 20
-0.5228125000004979
 40
1
100
AcDbArc
 50
0
 51
90
  0
ARC
  5
1FD
100
AcDbEntity
  8
0
  6
ByLayer
 62
  256
370
   -1
100
AcDbCircle
 10
57.9231249999962
 20
-12.52281250000048
 40
1
100
AcDbArc
 50
180
 51
270
  0
ARC
  5
1FE
100
AcDbEntity
  8
0
  6
ByLayer
 62
  256
370
   -1
100
AcDbCircle
 10
69.9231249999962
 20
-12.52281250000048
 40
1
100
AcDbArc
 50
270
 51
360
  0
LINE
  5
1FF
100
AcDbEntity
  8
0
  6
ByLayer
 62
  256
370
   -1
100
AcDbLine
 10
76.97312499999622
 20
0.4771874999995021
 11
88.97312499999622
 21
0.4771874999995021
  0
LINE
  5
200
100
AcDbEntity
  8
0
  6
ByLayer
 62
  256
370
   -1
100
AcDbLine
 10
76.97312499999622
 20
-13.52281250000048
 11
88.97312499999622
 21
-13.52281250000048
  0
LINE
  5
201
100
AcDbEntity
  8
0
  6
ByLayer
 62
  256
370
   -1
100
AcDbLine
 10
75.97312499999622
 20
-0.5228125000004979
 11
75.97312499999622
 21
-12.52281250000048
  0
LINE
  5
202
100
AcDbEntity
  8
0
  6
ByLayer
 62
  256
370
   -1
100
AcDbLine
 10
89.97312499999622
 20
-0.5228125000004979
 11
89.97312499999622
 21
-12.52281250000048
  0
ARC
  5
203
100
AcDbEntity
  8
0
  6
ByLayer
 62
  256
370
   -1
100
AcDbCircle
 10
76.97312499999622
 20
-0.5228125000004979
 40
1
100
AcDbArc
 50
90
 51
180
  0
ARC
  5
204
100
AcDbEntity
  8
0
  6
ByLayer
 62
  256
370
   -1
100
AcDbCircle
 10
88.97312499999622
 20
-0.5228125000004979
 40
1
100
AcDbArc
 50
0
 51
90
  0
ARC
  5
205
100
AcDbEntity
  8
0
  6
ByLayer
 62
  256
370
   -1
100
AcDbCircle
 10
76.97312499999622
 20
-12.52281250000048
 40
1
100
AcDbArc
 50
180
 51
270
  0
ARC
  5
206
100
AcDbEntity
  8
0
  6
ByLayer
 62
  256
370
   -1
100
AcDbCircle
 10
88.97312499999622
 20
-12.52281250000048
 40
1
100
AcDbArc
 50
270
 51
360
  0
LINE
  5
207
100
AcDbEntity
  8
0
  6
ByLayer
 62
  256
370
   -1
100
AcDbLine
 10
96.02312499999623
 20
0.4771874999995021
 11
108.0231249999962
 21
0.4771874999995021
  0
LINE
  5
208
100
AcDbEntity
  8
0
  6
ByLayer
 62
  256
370
   -1
100
AcDbLine
 10
95.02312499999623
 20
-0.5228125000004979
 11
95.02312499999623
 21
-12.52281250000048
  0
LINE
  5
209
100
AcDbEntity
  8
0
  6
ByLayer
 62
  256
370
   -1
100
AcDbLine
 10
109.0231249999962
 20
-0.5228125000004979
 11
109.0231249999962
 21
-12.52281250000048
  0
ARC
  5
20A
100
AcDbEntity
  8
0
  6
ByLayer
 62
  256
370
   -1
100
AcDbCircle
 10
96.02312499999623
 20
-0.5228125000004979
 40
1
100
AcDbArc
 50
90
 51
180
  0
ARC
  5
20B
100
AcDbEntity
  8
0
  6
ByLayer
 62
  256
370
   -1
100
AcDbCircle
 10
108.0231249999962
 20
-0.5228125000004979
 40
1
100
AcDbArc
 50
0
 51
90
  0
ARC
  5
20C
100
AcDbEntity
  8
0
  6
ByLayer
 62
  256
370
   -1
100
AcDbCircle
 10
96.02312499999623
 20
-12.52281250000048
 40
1
100
AcDbArc
 50
180
 51
270
  0
ARC
  5
20D
100
AcDbEntity
  8
0
  6
ByLayer
 62
  256
370
   -1
100
AcDbCircle
 10
108.0231249999962
 20
-12.52281250000048
 40
1
100
AcDbArc
 50
270
 51
360
  0
LINE
  5
20E
100
AcDbEntity
  8
0
  6
ByLayer
 62
  256
370
   -1
100
AcDbLine
 10
115.0731249999962
 20
0.4771874999995021
 11
127.0731249999962
 21
0.4771874999995021
  0
LINE
  5
20F
100
AcDbEntity
  8
0
  6
ByLayer
 62
  256
370
   -1
100
AcDbLine
 10
115.0731249999962
 20
-13.52281250000048
 11
127.0731249999962
 21
-13.52281250000048
  0
LINE
  5
210
100
AcDbEntity
  8
0
  6
ByLayer
 62
  256
370
   -1
100
AcDbLine
 10
114.0731249999962
 20
-0.5228125000004979
 11
114.0731249999962
 21
-12.52281250000048
  0
LINE
  5
211
100
AcDbEntity
  8
0
  6
ByLayer
 62
  256
370
   -1
100
AcDbLine
 10
128.0731249999962
 20
-0.5228125000004979
 11
128.0731249999962
 21
-12.52281250000048
  0
ARC
  5
212
100
AcDbEntity
  8
0
  6
ByLayer
 62
  256
370
   -1
100
AcDbCircle
 10
115.0731249999962
 20
-0.5228125000004979
 40
1
100
AcDbArc
 50
90
 51
180
  0
ARC
  5
213
100
AcDbEntity
  8
0
  6
ByLayer
 62
  256
370
   -1
100
AcDbCircle
 10
127.0731249999962
 20
-0.5228125000004979
 40
1
100
AcDbArc
 50
0
 51
90
  0
ARC
  5
214
100
AcDbEntity
  8
0
  6
ByLayer
 62
  256
370
   -1
100
AcDbCircle
 10
115.0731249999962
 20
-12.52281250000048
 40
1
100
AcDbArc
 50
180
 51
270
  0
ARC
  5
215
100
AcDbEntity
  8
0
  6
ByLayer
 62
  256
370
   -1
100
AcDbCircle
 10
127.0731249999962
 20
-12.52281250000048
 40
1
100
AcDbArc
 50
270
 51
360
  0
LINE
  5
216
100
AcDbEntity
  8
0
  6
ByLayer
 62
  256
370
   -1
100
AcDbLine
 10
134.1231249999962
 20
0.4771874999995021
 11
146.1231249999962
 21
0.4771874999995021
  0
LINE
  5
217
100
AcDbEntity
  8
0
  6
ByLayer
 62
  256
370
   -1
100
AcDbLine
 10
134.1231249999962
 20
-13.52281250000048
 11
146.1231249999962
 21
-13.52281250000048
  0
LINE
  5
218
100
AcDbEntity
  8
0
  6
ByLayer
 62
  256
370
   -1
100
AcDbLine
 10
133.1231249999962
 20
-0.5228125000004979
 11
133.1231249999962
 21
-12.52281250000048
  0
LINE
  5
219
100
AcDbEntity
  8
0
  6
ByLayer
 62
  256
370
   -1
100
AcDbLine
 10
147.1231249999962
 20
-0.5228125000004979
 11
147.1231249999962
 21
-12.52281250000048
  0
ARC
  5
21A
100
AcDbEntity
  8
0
  6
ByLayer
 62
  256
370
   -1
100
AcDbCircle
 10
134.1231249999962
 20
-0.5228125000004979
 40
1
100
AcDbArc
 50
90
 51
180
  0
ARC
  5
21B
100
AcDbEntity
  8
0
  6
ByLayer
 62
  256
370
   -1
100
AcDbCircle
 10
146.1231249999962
 20
-0.5228125000004979
 40
1
100
AcDbArc
 50
0
 51
90
  0
ARC
  5
21C
100
AcDbEntity
  8
0
  6
ByLayer
 62
  256
370
   -1
100
AcDbCircle
 10
134.1231249999962
 20
-12.52281250000048
 40
1
100
AcDbArc
 50
180
 51
270
  0
ARC
  5
21D
100
AcDbEntity
  8
0
  6
ByLayer
 62
  256
370
   -1
100
AcDbCircle
 10
146.1231249999962
 20
-12.52281250000048
 40
1
100
AcDbArc
 50
270
 51
360
  0
LINE
  5
21E
100
AcDbEntity
  8
0
  6
ByLayer
 62
  256
370
   -1
100
AcDbLine
 10
153.1731249999963
 20
0.4771874999995021
 11
165.1731249999963
 21
0.4771874999995021
  0
LINE
  5
21F
100
AcDbEntity
  8
0
  6
ByLayer
 62
  256
370
   -1
100
AcDbLine
 10
153.1731249999963
 20
-13.52281250000048
 11
165.1731249999963
 21
-13.52281250000048
  0
LINE
  5
220
100
AcDbEntity
  8
0
  6
ByLayer
 62
  256
370
   -1
100
AcDbLine
 10
152.1731249999963
 20
-0.5228125000004979
 11
152.1731249999963
 21
-12.52281250000048
  0
LINE
  5
221
100
AcDbEntity
  8
0
  6
ByLayer
 62
  256
370
   -1
100
AcDbLine
 10
166.1731249999963
 20
-0.5228125000004979
 11
166.1731249999963
 21
-12.52281250000048
  0
ARC
  5
222
100
AcDbEntity
  8
0
  6
ByLayer
 62
  256
370
   -1
100
AcDbCircle
 10
153.1731249999963
 20
-0.5228125000004979
 40
1
100
AcDbArc
 50
90
 51
180
  0
ARC
  5
223
100
AcDbEntity
  8
0
  6
ByLayer
 62
  256
370
   -1
100
AcDbCircle
 10
165.1731249999963
 20
-0.5228125000004979
 40
1
100
AcDbArc
 50
0
 51
90
  0
ARC
  5
224
100
AcDbEntity
  8
0
  6
ByLayer
 62
  256
370
   -1
100
AcDbCircle
 10
153.1731249999963
 20
-12.52281250000048
 40
1
100
AcDbArc
 50
180
 51
270
  0
ARC
  5
225
100
AcDbEntity
  8
0
  6
ByLayer
 62
  256
370
   -1
100
AcDbCircle
 10
165.1731249999963
 20
-12.52281250000048
 40
1
100
AcDbArc
 50
270
 51
360
  0
LINE
  5
226
100
AcDbEntity
  8
0
  6
ByLayer
 62
  256
370
   -1
100
AcDbLine
 10
172.2231249999962
 20
0.4771874999995021
 11
184.2231249999962
 21
0.4771874999995021
  0
LINE
  5
227
100
AcDbEntity
  8
0
  6
ByLayer
 62
  256
370
   -1
100
AcDbLine
 10
172.2231249999962
 20
-13.52281250000048
 11
184.2231249999962
 21
-13.52281250000048
  0
LINE
  5
228
100
AcDbEntity
  8
0
  6
ByLayer
 62
  256
370
   -1
100
AcDbLine
 10
171.2231249999962
 20
-0.5228125000004979
 11
171.2231249999962
 21
-12.52281250000048
  0
LINE
  5
229
100
AcDbEntity
  8
0
  6
ByLayer
 62
  256
370
   -1
100
AcDbLine
 10
185.2231249999962
 20
-0.5228125000004979
 11
185.2231249999962
 21
-12.52281250000048
  0
ARC
  5
22A
100
AcDbEntity
  8
0
  6
ByLayer
 62
  256
370
   -1
100
AcDbCircle
 10
172.2231249999962
 20
-0.5228125000004979
 40
1
100
AcDbArc
 50
90
 51
180
  0
ARC
  5
22B
100
AcDbEntity
  8
0
  6
ByLayer
 62
  256
370
   -1
100
AcDbCircle
 10
184.2231249999962
 20
-0.5228125000004979
 40
1
100
AcDbArc
 50
0
 51
90
  0
ARC
  5
22C
100
AcDbEntity
  8
0
  6
ByLayer
 62
  256
370
   -1
100
AcDbCircle
 10
172.2231249999962
 20
-12.52281250000048
 40
1
100
AcDbArc
 50
180
 51
270
  0
ARC
  5
22D
100
AcDbEntity
  8
0
  6
ByLayer
 62
  256
370
   -1
100
AcDbCircle
 10
184.2231249999962
 20
-12.52281250000048
 40
1
100
AcDbArc
 50
270
 51
360
  0
LINE
  5
22E
100
AcDbEntity
  8
0
  6
ByLayer
 62
  256
370
   -1
100
AcDbLine
 10
191.2731249999962
 20
0.4771874999995021
 11
203.2731249999962
 21
0.4771874999995021
  0
LINE
  5
22F
100
AcDbEntity
  8
0
  6
ByLayer
 62
  256
370
   -1
100
AcDbLine
 10
191.2731249999962
 20
-13.52281250000048
 11
203.2731249999962
 21
-13.52281250000048
  0
LINE
  5
230
100
AcDbEntity
  8
0
  6
ByLayer
 62
  256
370
   -1
100
AcDbLine
 10
190.2731249999962
 20
-0.5228125000004979
 11
190.2731249999962
 21
-12.52281250000048
  0
LINE
  5
231
100
AcDbEntity
  8
0
  6
ByLayer
 62
  256
370
   -1
100
AcDbLine
 10
204.2731249999962
 20
-0.5228125000004979
 11
204.2731249999962
 21
-12.52281250000048
  0
ARC
  5
232
100
AcDbEntity
  8
0
  6
ByLayer
 62
  256
370
   -1
100
AcDbCircle
 10
191.2731249999962
 20
-0.5228125000004979
 40
1
100
AcDbArc
 50
90
 51
180
  0
ARC
  5
233
100
AcDbEntity
  8
0
  6
ByLayer
 62
  256
370
   -1
100
AcDbCircle
 10
203.2731249999962
 20
-0.5228125000004979
 40
1
100
AcDbArc
 50
0
 51
90
  0
ARC
  5
234
100
AcDbEntity
  8
0
  6
ByLayer
 62
  256
370
   -1
100
AcDbCircle
 10
191.2731249999962
 20
-12.52281250000048
 40
1
100
AcDbArc
 50
180
 51
270
  0
ARC
  5
235
100
AcDbEntity
  8
0
  6
ByLayer
 62
  256
370
   -1
100
AcDbCircle
 10
203.2731249999962
 20
-12.52281250000048
 40
1
100
AcDbArc
 50
270
 51
360
  0
LINE
  5
236
100
AcDbEntity
  8
0
  6
ByLayer
 62
  256
370
   -1
100
AcDbLine
 10
217.4668749999962
 20
0.4771874999995021
 11
229.4668749999962
 21
0.4771874999995021
  0
LINE
  5
237
100
AcDbEntity
  8
0
  6
ByLayer
 62
  256
370
   -1
100
AcDbLine
 10
217.4668749999962
 20
-13.52281250000048
 11
229.4668749999962
 21
-13.52281250000048
  0
LINE
  5
238
100
AcDbEntity
  8
0
  6
ByLayer
 62
  256
370
   -1
100
AcDbLine
 10
216.4668749999962
 20
-0.5228125000004979
 11
216.4668749999962
 21
-12.52281250000048
  0
LINE
  5
239
100
AcDbEntity
  8
0
  6
ByLayer
 62
  256
370
   -1
100
AcDbLine
 10
230.4668749999962
 20
-0.5228125000004979
 11
230.4668749999962
 21
-12.52281250000048
  0
ARC
  5
23A
100
AcDbEntity
  8
0
  6
ByLayer
 62
  256
370
   -1
100
AcDbCircle
 10
217.4668749999962
 20
-0.5228125000004979
 40
1
100
AcDbArc
 50
90
 51
180
  0
ARC
  5
23B
100
AcDbEntity
  8
0
  6
ByLayer
 62
  256
370
   -1
100
AcDbCircle
 10
229.4668749999962
 20
-0.5228125000004979
 40
1
100
AcDbArc
 50
0
 51
90
  0
ARC
  5
23C
100
AcDbEntity
  8
0
  6
ByLayer
 62
  256
370
   -1
100
AcDbCircle
 10
217.4668749999962
 20
-12.52281250000048
 40
1
100
AcDbArc
 50
180
 51
270
  0
ARC
  5
23D
100
AcDbEntity
  8
0
  6
ByLayer
 62
  256
370
   -1
100
AcDbCircle
 10
229.4668749999962
 20
-12.52281250000048
 40
1
100
AcDbArc
 50
270
 51
360
  0
LINE
  5
23E
100
AcDbEntity
  8
0
  6
ByLayer
 62
  256
370
   -1
100
AcDbLine
 10
3.154374999996207
 20
-18.5728125000005
 11
15.15437499999622
 21
-18.5728125000005
  0
LINE
  5
23F
100
AcDbEntity
  8
0
  6
ByLayer
 62
  256
370
   -1
100
AcDbLine
 10
3.154374999996207
 20
-32.5728125000005
 11
15.15437499999622
 21
-32.5728125000005
  0
LINE
  5
240
100
AcDbEntity
  8
0
  6
ByLayer
 62
  256
370
   -1
100
AcDbLine
 10
2.154374999996207
 20
-19.5728125000005
 11
2.154374999996207
 21
-31.5728125000005
  0
LINE
  5
241
100
AcDbEntity
  8
0
  6
ByLayer
 62
  256
370
   -1
100
AcDbLine
 10
16.15437499999622
 20
-19.5728125000005
 11
16.15437499999622
 21
-31.5728125000005
  0
ARC
  5
242
100
AcDbEntity
  8
0
  6
ByLayer
 62
  256
370
   -1
100
AcDbCircle
 10
3.154374999996207
 20
-19.5728125000005
 40
1
100
AcDbArc
 50
90
 51
180
  0
ARC
  5
243
100
AcDbEntity
  8
0
  6
ByLayer
 62
  256
370
   -1
100
AcDbCircle
 10
15.15437499999622
 20
-19.5728125000005
 40
1
100
AcDbArc
 50
0
 51
90
  0
ARC
  5
244
100
AcDbEntity
  8
0
  6
ByLayer
 62
  256
370
   -1
100
AcDbCircle
 10
3.154374999996207
 20
-31.5728125000005
 40
1
100
AcDbArc
 50
180
 51
270
  0
ARC
  5
245
100
AcDbEntity
  8
0
  6
ByLayer
 62
  256
370
   -1
100
AcDbCircle
 10
15.15437499999622
 20
-31.5728125000005
 40
1
100
AcDbArc
 50
270
 51
360
  0
LINE
  5
246
100
AcDbEntity
  8
0
  6
ByLayer
 62
  256
370
   -1
100
AcDbLine
 10
24.58562499999623
 20
-32.5728125000005
 11
36.58562499999623
 21
-32.5728125000005
  0
LINE
  5
247
100
AcDbEntity
  8
0
  6
ByLayer
 62
  256
370
   -1
100
AcDbLine
 10
23.58562499999623
 20
-19.5728125000005
 11
23.58562499999623
 21
-31.5728125000005
  0
LINE
  5
248
100
AcDbEntity
  8
0
  6
ByLayer
 62
  256
370
   -1
100
AcDbLine
 10
37.58562499999623
 20
-19.5728125000005
 11
37.58562499999623
 21
-31.5728125000005
  0
ARC
  5
249
100
AcDbEntity
  8
0
  6
ByLayer
 62
  256
370
   -1
100
AcDbCircle
 10
24.58562499999623
 20
-19.5728125000005
 40
1
100
AcDbArc
 50
90
 51
180
  0
ARC
  5
24A
100
AcDbEntity
  8
0
  6
ByLayer
 62
  256
370
   -1
100
AcDbCircle
 10
36.58562499999623
 20
-19.5728125000005
 40
1
100
AcDbArc
 50
0
 51
90
  0
ARC
  5
24B
100
AcDbEntity
  8
0
  6
ByLayer
 62
  256
370
   -1
100
AcDbCircle
 10
24.58562499999623
 20
-31.5728125000005
 40
1
100
AcDbArc
 50
180
 51
270
  0
ARC
  5
24C
100
AcDbEntity
  8
0
  6
ByLayer
 62
  256
370
   -1
100
AcDbCircle
 10
36.58562499999623
 20
-31.5728125000005
 40
1
100
AcDbArc
 50
270
 51
360
  0
LINE
  5
24D
100
AcDbEntity
  8
0
  6
ByLayer
 62
  256
370
   -1
100
AcDbLine
 10
43.63562499999623
 20
-18.5728125000005
 11
55.63562499999623
 21
-18.5728125000005
  0
LINE
  5
24E
100
AcDbEntity
  8
0
  6
ByLayer
 62
  256
370
   -1
100
AcDbLine
 10
43.63562499999623
 20
-32.5728125000005
 11
55.63562499999623
 21
-32.5728125000005
  0
LINE
  5
24F
100
AcDbEntity
  8
0
  6
ByLayer
 62
  256
370
   -1
100
AcDbLine
 10
42.63562499999623
 20
-19.5728125000005
 11
42.63562499999623
 21
-31.5728125000005
  0
LINE
  5
250
100
AcDbEntity
  8
0
  6
ByLayer
 62
  256
370
   -1
100
AcDbLine
 10
56.63562499999623
 20
-19.5728125000005
 11
56.63562499999623
 21
-31.5728125000005
  0
ARC
  5
251
100
AcDbEntity
  8
0
  6
ByLayer
 62
  256
370
   -1
100
AcDbCircle
 10
43.63562499999623
 20
-19.5728125000005
 40
1
100
AcDbArc
 50
90
 51
180
  0
ARC
  5
252
100
AcDbEntity
  8
0
  6
ByLayer
 62
  256
370
   -1
100
AcDbCircle
 10
55.63562499999623
 20
-19.5728125000005
 40
1
100
AcDbArc
 50
0
 51
90
  0
ARC
  5
253
100
AcDbEntity
  8
0
  6
ByLayer
 62
  256
370
   -1
100
AcDbCircle
 10
43.63562499999623
 20
-31.5728125000005
 40
1
100
AcDbArc
 50
180
 51
270
  0
ARC
  5
254
100
AcDbEntity
  8
0
  6
ByLayer
 62
  256
370
   -1
100
AcDbCircle
 10
55.63562499999623
 20
-31.5728125000005
 40
1
100
AcDbArc
 50
270
 51
360
  0
LINE
  5
255
100
AcDbEntity
  8
0
  6
ByLayer
 62
  256
370
   -1
100
AcDbLine
 10
62.68562499999622
 20
-18.5728125000005
 11
74.68562499999622
 21
-18.5728125000005
  0
LINE
  5
256
100
AcDbEntity
  8
0
  6
ByLayer
 62
  256
370
   -1
100
AcDbLine
 10
62.68562499999622
 20
-32.5728125000005
 11
74.68562499999622
 21
-32.5728125000005
  0
LINE
  5
257
100
AcDbEntity
  8
0
  6
ByLayer
 62
  256
370
   -1
100
AcDbLine
 10
61.68562499999622
 20
-19.5728125000005
 11
61.68562499999622
 21
-31.5728125000005
  0
LINE
  5
258
100
AcDbEntity
  8
0
  6
ByLayer
 62
  256
370
   -1
100
AcDbLine
 10
75.68562499999622
 20
-19.5728125000005
 11
75.68562499999622
 21
-31.5728125000005
  0
ARC
  5
259
100
AcDbEntity
  8
0
  6
ByLayer
 62
  256
370
   -1
100
AcDbCircle
 10
62.68562499999622
 20
-19.5728125000005
 40
1
100
AcDbArc
 50
90
 51
180
  0
ARC
  5
25A
100
AcDbEntity
  8
0
  6
ByLayer
 62
  256
370
   -1
100
AcDbCircle
 10
74.68562499999622
 20
-19.5728125000005
 40
1
100
AcDbArc
 50
0
 51
90
  0
ARC
  5
25B
100
AcDbEntity
  8
0
  6
ByLayer
 62
  256
370
   -1
100
AcDbCircle
 10
62.68562499999622
 20
-31.5728125000005
 40
1
100
AcDbArc
 50
180
 51
270
  0
ARC
  5
25C
100
AcDbEntity
  8
0
  6
ByLayer
 62
  256
370
   -1
100
AcDbCircle
 10
74.68562499999622
 20
-31.5728125000005
 40
1
100
AcDbArc
 50
270
 51
360
  0
LINE
  5
25D
100
AcDbEntity
  8
0
  6
ByLayer
 62
  256
370
   -1
100
AcDbLine
 10
81.7356249999962
 20
-18.5728125000005
 11
93.7356249999962
 21
-18.5728125000005
  0
LINE
  5
25E
100
AcDbEntity
  8
0
  6
ByLayer
 62
  256
370
   -1
100
AcDbLine
 10
81.7356249999962
 20
-32.5728125000005
 11
93.7356249999962
 21
-32.5728125000005
  0
LINE
  5
25F
100
AcDbEntity
  8
0
  6
ByLayer
 62
  256
370
   -1
100
AcDbLine
 10
80.7356249999962
 20
-19.5728125000005
 11
80.7356249999962
 21
-31.5728125000005
  0
LINE
  5
260
100
AcDbEntity
  8
0
  6
ByLayer
 62
  256
370
   -1
100
AcDbLine
 10
94.7356249999962
 20
-19.5728125000005
 11
94.7356249999962
 21
-31.5728125000005
  0
ARC
  5
261
100
AcDbEntity
  8
0
  6
ByLayer
 62
  256
370
   -1
100
AcDbCircle
 10
81.7356249999962
 20
-19.5728125000005
 40
1
100
AcDbArc
 50
90
 51
180
  0
ARC
  5
262
100
AcDbEntity
  8
0
  6
ByLayer
 62
  256
370
   -1
100
AcDbCircle
 10
93.7356249999962
 20
-19.5728125000005
 40
1
100
AcDbArc
 50
0
 51
90
  0
ARC
  5
263
100
AcDbEntity
  8
0
  6
ByLayer
 62
  256
370
   -1
100
AcDbCircle
 10
81.7356249999962
 20
-31.5728125000005
 40
1
100
AcDbArc
 50
180
 51
270
  0
ARC
  5
264
100
AcDbEntity
  8
0
  6
ByLayer
 62
  256
370
   -1
100
AcDbCircle
 10
93.7356249999962
 20
-31.5728125000005
 40
1
100
AcDbArc
 50
270
 51
360
  0
LINE
  5
265
100
AcDbEntity
  8
0
  6
ByLayer
 62
  256
370
   -1
100
AcDbLine
 10
100.7856249999962
 20
-32.5728125000005
 11
112.7856249999962
 21
-32.5728125000005
  0
LINE
  5
266
100
AcDbEntity
  8
0
  6
ByLayer
 62
  256
370
   -1
100
AcDbLine
 10
99.78562499999622
 20
-19.5728125000005
 11
99.78562499999622
 21
-31.5728125000005
  0
LINE
  5
267
100
AcDbEntity
  8
0
  6
ByLayer
 62
  256
370
   -1
100
AcDbLine
 10
113.7856249999962
 20
-19.5728125000005
 11
113.7856249999962
 21
-31.5728125000005
  0
ARC
  5
268
100
AcDbEntity
  8
0
  6
ByLayer
 62
  256
370
   -1
100
AcDbCircle
 10
100.7856249999962
 20
-19.5728125000005
 40
1
100
AcDbArc
 50
90
 51
180
  0
ARC
  5
269
100
AcDbEntity
  8
0
  6
ByLayer
 62
  256
370
   -1
100
AcDbCircle
 10
112.7856249999962
 20
-19.5728125000005
 40
1
100
AcDbArc
 50
0
 51
90
  0
ARC
  5
26A
100
AcDbEntity
  8
0
  6
ByLayer
 62
  256
370
   -1
100
AcDbCircle
 10
100.7856249999962
 20
-31.5728125000005
 40
1
100
AcDbArc
 50
180
 51
270
  0
ARC
  5
26B
100
AcDbEntity
  8
0
  6
ByLayer
 62
  256
370
   -1
100
AcDbCircle
 10
112.7856249999962
 20
-31.5728125000005
 40
1
100
AcDbArc
 50
270
 51
360
  0
LINE
  5
26C
100
AcDbEntity
  8
0
  6
ByLayer
 62
  256
370
   -1
100
AcDbLine
 10
119.8356249999962
 20
-18.5728125000005
 11
131.8356249999962
 21
-18.5728125000005
  0
LINE
  5
26D
100
AcDbEntity
  8
0
  6
ByLayer
 62
  256
370
   -1
100
AcDbLine
 10
119.8356249999962
 20
-32.5728125000005
 11
131.8356249999962
 21
-32.5728125000005
  0
LINE
  5
26E
100
AcDbEntity
  8
0
  6
ByLayer
 62
  256
370
   -1
100
AcDbLine
 10
118.8356249999962
 20
-19.5728125000005
 11
118.8356249999962
 21
-31.5728125000005
  0
LINE
  5
26F
100
AcDbEntity
  8
0
  6
ByLayer
 62
  256
370
   -1
100
AcDbLine
 10
132.8356249999962
 20
-19.5728125000005
 11
132.8356249999962
 21
-31.5728125000005
  0
ARC
  5
270
100
AcDbEntity
  8
0
  6
ByLayer
 62
  256
370
   -1
100
AcDbCircle
 10
119.8356249999962
 20
-19.5728125000005
 40
1
100
AcDbArc
 50
90
 51
180
  0
ARC
  5
271
100
AcDbEntity
  8
0
  6
ByLayer
 62
  256
370
   -1
100
AcDbCircle
 10
131.8356249999962
 20
-19.5728125000005
 40
1
100
AcDbArc
 50
0
 51
90
  0
ARC
  5
272
100
AcDbEntity
  8
0
  6
ByLayer
 62
  256
370
   -1
100
AcDbCircle
 10
119.8356249999962
 20
-31.5728125000005
 40
1
100
AcDbArc
 50
180
 51
270
  0
ARC
  5
273
100
AcDbEntity
  8
0
  6
ByLayer
 62
  256
370
   -1
100
AcDbCircle
 10
131.8356249999962
 20
-31.5728125000005
 40
1
100
AcDbArc
 50
270
 51
360
  0
LINE
  5
274
100
AcDbEntity
  8
0
  6
ByLayer
 62
  256
370
   -1
100
AcDbLine
 10
138.8856249999962
 20
-18.5728125000005
 11
150.8856249999962
 21
-18.5728125000005
  0
LINE
  5
275
100
AcDbEntity
  8
0
  6
ByLayer
 62
  256
370
   -1
100
AcDbLine
 10
138.8856249999962
 20
-32.5728125000005
 11
150.8856249999962
 21
-32.5728125000005
  0
LINE
  5
276
100
AcDbEntity
  8
0
  6
ByLayer
 62
  256
370
   -1
100
AcDbLine
 10
137.8856249999962
 20
-19.5728125000005
 11
137.8856249999962
 21
-31.5728125000005
  0
LINE
  5
277
100
AcDbEntity
  8
0
  6
ByLayer
 62
  256
370
   -1
100
AcDbLine
 10
151.8856249999962
 20
-19.5728125000005
 11
151.8856249999962
 21
-31.5728125000005
  0
ARC
  5
278
100
AcDbEntity
  8
0
  6
ByLayer
 62
  256
370
   -1
100
AcDbCircle
 10
138.8856249999962
 20
-19.5728125000005
 40
1
100
AcDbArc
 50
90
 51
180
  0
ARC
  5
279
100
AcDbEntity
  8
0
  6
ByLayer
 62
  256
370
   -1
100
AcDbCircle
 10
150.8856249999962
 20
-19.5728125000005
 40
1
100
AcDbArc
 50
0
 51
90
  0
ARC
  5
27A
100
AcDbEntity
  8
0
  6
ByLayer
 62
  256
370
   -1
100
AcDbCircle
 10
138.8856249999962
 20
-31.5728125000005
 40
1
100
AcDbArc
 50
180
 51
270
  0
ARC
  5
27B
100
AcDbEntity
  8
0
  6
ByLayer
 62
  256
370
   -1
100
AcDbCircle
 10
150.8856249999962
 20
-31.5728125000005
 40
1
100
AcDbArc
 50
270
 51
360
  0
LINE
  5
27C
100
AcDbEntity
  8
0
  6
ByLayer
 62
  256
370
   -1
100
AcDbLine
 10
157.9356249999962
 20
-18.5728125000005
 11
169.9356249999962
 21
-18.5728125000005
  0
LINE
  5
27D
100
AcDbEntity
  8
0
  6
ByLayer
 62
  256
370
   -1
100
AcDbLine
 10
157.9356249999962
 20
-32.5728125000005
 11
169.9356249999962
 21
-32.5728125000005
  0
LINE
  5
27E
100
AcDbEntity
  8
0
  6
ByLayer
 62
  256
370
   -1
100
AcDbLine
 10
156.9356249999962
 20
-19.5728125000005
 11
156.9356249999962
 21
-31.5728125000005
  0
LINE
  5
27F
100
AcDbEntity
  8
0
  6
ByLayer
 62
  256
370
   -1
100
AcDbLine
 10
170.9356249999962
 20
-19.5728125000005
 11
170.9356249999962
 21
-31.5728125000005
  0
ARC
  5
280
100
AcDbEntity
  8
0
  6
ByLayer
 62
  256
370
   -1
100
AcDbCircle
 10
157.9356249999962
 20
-19.5728125000005
 40
1
100
AcDbArc
 50
90
 51
180
  0
ARC
  5
281
100
AcDbEntity
  8
0
  6
ByLayer
 62
  256
370
   -1
100
AcDbCircle
 10
169.9356249999962
 20
-19.5728125000005
 40
1
100
AcDbArc
 50
0
 51
90
  0
ARC
  5
282
100
AcDbEntity
  8
0
  6
ByLayer
 62
  256
370
   -1
100
AcDbCircle
 10
157.9356249999962
 20
-31.5728125000005
 40
1
100
AcDbArc
 50
180
 51
270
  0
ARC
  5
283
100
AcDbEntity
  8
0
  6
ByLayer
 62
  256
370
   -1
100
AcDbCircle
 10
169.9356249999962
 20
-31.5728125000005
 40
1
100
AcDbArc
 50
270
 51
360
  0
LINE
  5
284
100
AcDbEntity
  8
0
  6
ByLayer
 62
  256
370
   -1
100
AcDbLine
 10
176.9856249999963
 20
-18.5728125000005
 11
188.9856249999963
 21
-18.5728125000005
  0
LINE
  5
285
100
AcDbEntity
  8
0
  6
ByLayer
 62
  256
370
   -1
100
AcDbLine
 10
176.9856249999963
 20
-32.5728125000005
 11
188.9856249999963
 21
-32.5728125000005
  0
LINE
  5
286
100
AcDbEntity
  8
0
  6
ByLayer
 62
  256
370
   -1
100
AcDbLine
 10
175.9856249999963
 20
-19.5728125000005
 11
175.9856249999963
 21
-31.5728125000005
  0
LINE
  5
287
100
AcDbEntity
  8
0
  6
ByLayer
 62
  256
370
   -1
100
AcDbLine
 10
189.9856249999963
 20
-19.5728125000005
 11
189.9856249999963
 21
-31.5728125000005
  0
ARC
  5
288
100
AcDbEntity
  8
0
  6
ByLayer
 62
  256
370
   -1
100
AcDbCircle
 10
176.9856249999963
 20
-19.5728125000005
 40
1
100
AcDbArc
 50
90
 51
180
  0
ARC
  5
289
100
AcDbEntity
  8
0
  6
ByLayer
 62
  256
370
   -1
100
AcDbCircle
 10
188.9856249999963
 20
-19.5728125000005
 40
1
100
AcDbArc
 50
0
 51
90
  0
ARC
  5
28A
100
AcDbEntity
  8
0
  6
ByLayer
 62
  256
370
   -1
100
AcDbCircle
 10
176.9856249999963
 20
-31.5728125000005
 40
1
100
AcDbArc
 50
180
 51
270
  0
ARC
  5
28B
100
AcDbEntity
  8
0
  6
ByLayer
 62
  256
370
   -1
100
AcDbCircle
 10
188.9856249999963
 20
-31.5728125000005
 40
1
100
AcDbArc
 50
270
 51
360
  0
LINE
  5
28C
100
AcDbEntity
  8
0
  6
ByLayer
 62
  256
370
   -1
100
AcDbLine
 10
196.0356249999962
 20
-18.5728125000005
 11
208.0356249999962
 21
-18.5728125000005
  0
LINE
  5
28D
100
AcDbEntity
  8
0
  6
ByLayer
 62
  256
370
   -1
100
AcDbLine
 10
196.0356249999962
 20
-32.5728125000005
 11
208.0356249999962
 21
-32.5728125000005
  0
LINE
  5
28E
100
AcDbEntity
  8
0
  6
ByLayer
 62
  256
370
   -1
100
AcDbLine
 10
195.0356249999962
 20
-19.5728125000005
 11
195.0356249999962
 21
-31.5728125000005
  0
LINE
  5
28F
100
AcDbEntity
  8
0
  6
ByLayer
 62
  256
370
   -1
100
AcDbLine
 10
209.0356249999962
 20
-19.5728125000005
 11
209.0356249999962
 21
-31.5728125000005
  0
ARC
  5
290
100
AcDbEntity
  8
0
  6
ByLayer
 62
  256
370
   -1
100
AcDbCircle
 10
196.0356249999962
 20
-19.5728125000005
 40
1
100
AcDbArc
 50
90
 51
180
  0
ARC
  5
291
100
AcDbEntity
  8
0
  6
ByLayer
 62
  256
370
   -1
100
AcDbCircle
 10
208.0356249999962
 20
-19.5728125000005
 40
1
100
AcDbArc
 50
0
 51
90
  0
ARC
  5
292
100
AcDbEntity
  8
0
  6
ByLayer
 62
  256
370
   -1
100
AcDbCircle
 10
196.0356249999962
 20
-31.5728125000005
 40
1
100
AcDbArc
 50
180
 51
270
  0
ARC
  5
293
100
AcDbEntity
  8
0
  6
ByLayer
 62
  256
370
   -1
100
AcDbCircle
 10
208.0356249999962
 20
-31.5728125000005
 40
1
100
AcDbArc
 50
270
 51
360
  0
LINE
  5
294
100
AcDbEntity
  8
0
  6
ByLayer
 62
  256
370
   -1
100
AcDbLine
 10
219.8481249999962
 20
-18.5728125000005
 11
231.8481249999962
 21
-18.5728125000005
  0
LINE
  5
295
100
AcDbEntity
  8
0
  6
ByLayer
 62
  256
370
   -1
100
AcDbLine
 10
219.8481249999962
 20
-32.5728125000005
 11
231.8481249999962
 21
-32.5728125000005
  0
LINE
  5
296
100
AcDbEntity
  8
0
  6
ByLayer
 62
  256
370
   -1
100
AcDbLine
 10
218.8481249999962
 20
-19.5728125000005
 11
218.8481249999962
 21
-31.5728125000005
  0
LINE
  5
297
100
AcDbEntity
  8
0
  6
ByLayer
 62
  256
370
   -1
100
AcDbLine
 10
232.8481249999962
 20
-19.5728125000005
 11
232.8481249999962
 21
-31.5728125000005
  0
ARC
  5
298
100
AcDbEntity
  8
0
  6
ByLayer
 62
  256
370
   -1
100
AcDbCircle
 10
219.8481249999962
 20
-19.5728125000005
 40
1
100
AcDbArc
 50
90
 51
180
  0
ARC
  5
299
100
AcDbEntity
  8
0
  6
ByLayer
 62
  256
370
   -1
100
AcDbCircle
 10
231.8481249999962
 20
-19.5728125000005
 40
1
100
AcDbArc
 50
0
 51
90
  0
ARC
  5
29A
100
AcDbEntity
  8
0
  6
ByLayer
 62
  256
370
   -1
100
AcDbCircle
 10
219.8481249999962
 20
-31.5728125000005
 40
1
100
AcDbArc
 50
180
 51
270
  0
ARC
  5
29B
100
AcDbEntity
  8
0
  6
ByLayer
 62
  256
370
   -1
100
AcDbCircle
 10
231.8481249999962
 20
-31.5728125000005
 40
1
100
AcDbArc
 50
270
 51
360
  0
LINE
  5
29C
100
AcDbEntity
  8
0
  6
ByLayer
 62
  256
370
   -1
100
AcDbLine
 10
7.916874999996224
 20
-37.62281250000051
 11
19.91687499999621
 21
-37.62281250000051
  0
LINE
  5
29D
100
AcDbEntity
  8
0
  6
ByLayer
 62
  256
370
   -1
100
AcDbLine
 10
7.916874999996224
 20
-51.62281250000051
 11
19.91687499999621
 21
-51.62281250000051
  0
LINE
  5
29E
100
AcDbEntity
  8
0
  6
ByLayer
 62
  256
370
   -1
100
AcDbLine
 10
6.916874999996224
 20
-38.62281250000051
 11
6.916874999996224
 21
-50.62281250000051
  0
LINE
  5
29F
100
AcDbEntity
  8
0
  6
ByLayer
 62
  256
370
   -1
100
AcDbLine
 10
20.91687499999621
 20
-38.62281250000051
 11
20.91687499999621
 21
-50.62281250000051
  0
ARC
  5
2A0
100
AcDbEntity
  8
0
  6
ByLayer
 62
  256
370
   -1
100
AcDbCircle
 10
7.916874999996224
 20
-38.62281250000051
 40
1
100
AcDbArc
 50
90
 51
180
  0
ARC
  5
2A1
100
AcDbEntity
  8
0
  6
ByLayer
 62
  256
370
   -1
100
AcDbCircle
 10
19.91687499999621
 20
-38.62281250000051
 40
1
100
AcDbArc
 50
0
 51
90
  0
ARC
  5
2A2
100
AcDbEntity
  8
0
  6
ByLayer
 62
  256
370
   -1
100
AcDbCircle
 10
7.916874999996224
 20
-50.62281250000051
 40
1
100
AcDbArc
 50
180
 51
270
  0
ARC
  5
2A3
100
AcDbEntity
  8
0
  6
ByLayer
 62
  256
370
   -1
100
AcDbCircle
 10
19.91687499999621
 20
-50.62281250000051
 40
1
100
AcDbArc
 50
270
 51
360
  0
LINE
  5
2A4
100
AcDbEntity
  8
0
  6
ByLayer
 62
  256
370
   -1
100
AcDbLine
 10
34.1106249999962
 20
-37.62281250000051
 11
46.1106249999962
 21
-37.62281250000051
  0
LINE
  5
2A5
100
AcDbEntity
  8
0
  6
ByLayer
 62
  256
370
   -1
100
AcDbLine
 10
34.1106249999962
 20
-51.62281250000051
 11
46.1106249999962
 21
-51.62281250000051
  0
LINE
  5
2A6
100
AcDbEntity
  8
0
  6
ByLayer
 62
  256
370
   -1
100
AcDbLine
 10
33.1106249999962
 20
-38.62281250000051
 11
33.1106249999962
 21
-50.62281250000051
  0
LINE
  5
2A7
100
AcDbEntity
  8
0
  6
ByLayer
 62
  256
370
   -1
100
AcDbLine
 10
47.1106249999962
 20
-38.62281250000051
 11
47.1106249999962
 21
-50.62281250000051
  0
ARC
  5
2A8
100
AcDbEntity
  8
0
  6
ByLayer
 62
  256
370
   -1
100
AcDbCircle
 10
34.1106249999962
 20
-38.62281250000051
 40
1
100
AcDbArc
 50
90
 51
180
  0
ARC
  5
2A9
100
AcDbEntity
  8
0
  6
ByLayer
 62
  256
370
   -1
100
AcDbCircle
 10
46.1106249999962
 20
-38.62281250000051
 40
1
100
AcDbArc
 50
0
 51
90
  0
ARC
  5
2AA
100
AcDbEntity
  8
0
  6
ByLayer
 62
  256
370
   -1
100
AcDbCircle
 10
34.1106249999962
 20
-50.62281250000051
 40
1
100
AcDbArc
 50
180
 51
270
  0
ARC
  5
2AB
100
AcDbEntity
  8
0
  6
ByLayer
 62
  256
370
   -1
100
AcDbCircle
 10
46.1106249999962
 20
-50.62281250000051
 40
1
100
AcDbArc
 50
270
 51
360
  0
LINE
  5
2AC
100
AcDbEntity
  8
0
  6
ByLayer
 62
  256
370
   -1
100
AcDbLine
 10
53.16062499999622
 20
-37.62281250000051
 11
65.16062499999622
 21
-37.62281250000051
  0
LINE
  5
2AD
100
AcDbEntity
  8
0
  6
ByLayer
 62
  256
370
   -1
100
AcDbLine
 10
53.16062499999622
 20
-51.62281250000051
 11
65.16062499999622
 21
-51.62281250000051
  0
LINE
  5
2AE
100
AcDbEntity
  8
0
  6
ByLayer
 62
  256
370
   -1
100
AcDbLine
 10
52.16062499999622
 20
-38.62281250000051
 11
52.16062499999622
 21
-50.62281250000051
  0
LINE
  5
2AF
100
AcDbEntity
  8
0
  6
ByLayer
 62
  256
370
   -1
100
AcDbLine
 10
66.16062499999622
 20
-38.62281250000051
 11
66.16062499999622
 21
-50.62281250000051
  0
ARC
  5
2B0
100
AcDbEntity
  8
0
  6
ByLayer
 62
  256
370
   -1
100
AcDbCircle
 10
53.16062499999622
 20
-38.62281250000051
 40
1
100
AcDbArc
 50
90
 51
180
  0
ARC
  5
2B1
100
AcDbEntity
  8
0
  6
ByLayer
 62
  256
370
   -1
100
AcDbCircle
 10
65.16062499999622
 20
-38.62281250000051
 40
1
100
AcDbArc
 50
0
 51
90
  0
ARC
  5
2B2
100
AcDbEntity
  8
0
  6
ByLayer
 62
  256
370
   -1
100
AcDbCircle
 10
53.16062499999622
 20
-50.62281250000051
 40
1
100
AcDbArc
 50
180
 51
270
  0
ARC
  5
2B3
100
AcDbEntity
  8
0
  6
ByLayer
 62
  256
370
   -1
100
AcDbCircle
 10
65.16062499999622
 20
-50.62281250000051
 40
1
100
AcDbArc
 50
270
 51
360
  0
LINE
  5
2B4
100
AcDbEntity
  8
0
  6
ByLayer
 62
  256
370
   -1
100
AcDbLine
 10
72.21062499999623
 20
-37.62281250000051
 11
84.21062499999623
 21
-37.62281250000051
  0
LINE
  5
2B5
100
AcDbEntity
  8
0
  6
ByLayer
 62
  256
370
   -1
100
AcDbLine
 10
72.21062499999623
 20
-51.62281250000051
 11
84.21062499999623
 21
-51.62281250000051
  0
LINE
  5
2B6
100
AcDbEntity
  8
0
  6
ByLayer
 62
  256
370
   -1
100
AcDbLine
 10
71.21062499999623
 20
-38.62281250000051
 11
71.21062499999623
 21
-50.62281250000051
  0
LINE
  5
2B7
100
AcDbEntity
  8
0
  6
ByLayer
 62
  256
370
   -1
100
AcDbLine
 10
85.21062499999623
 20
-38.62281250000051
 11
85.21062499999623
 21
-50.62281250000051
  0
ARC
  5
2B8
100
AcDbEntity
  8
0
  6
ByLayer
 62
  256
370
   -1
100
AcDbCircle
 10
72.21062499999623
 20
-38.62281250000051
 40
1
100
AcDbArc
 50
90
 51
180
  0
ARC
  5
2B9
100
AcDbEntity
  8
0
  6
ByLayer
 62
  256
370
   -1
100
AcDbCircle
 10
84.21062499999623
 20
-38.62281250000051
 40
1
100
AcDbArc
 50
0
 51
90
  0
ARC
  5
2BA
100
AcDbEntity
  8
0
  6
ByLayer
 62
  256
370
   -1
100
AcDbCircle
 10
72.21062499999623
 20
-50.62281250000051
 40
1
100
AcDbArc
 50
180
 51
270
  0
ARC
  5
2BB
100
AcDbEntity
  8
0
  6
ByLayer
 62
  256
370
   -1
100
AcDbCircle
 10
84.21062499999623
 20
-50.62281250000051
 40
1
100
AcDbArc
 50
270
 51
360
  0
LINE
  5
2BC
100
AcDbEntity
  8
0
  6
ByLayer
 62
  256
370
   -1
100
AcDbLine
 10
91.26062499999624
 20
-37.62281250000051
 11
103.2606249999962
 21
-37.62281250000051
  0
LINE
  5
2BD
100
AcDbEntity
  8
0
  6
ByLayer
 62
  256
370
   -1
100
AcDbLine
 10
91.26062499999624
 20
-51.62281250000051
 11
103.2606249999962
 21
-51.62281250000051
  0
LINE
  5
2BE
100
AcDbEntity
  8
0
  6
ByLayer
 62
  256
370
   -1
100
AcDbLine
 10
90.26062499999624
 20
-38.62281250000051
 11
90.26062499999624
 21
-50.62281250000051
  0
LINE
  5
2BF
100
AcDbEntity
  8
0
  6
ByLayer
 62
  256
370
   -1
100
AcDbLine
 10
104.2606249999962
 20
-38.62281250000051
 11
104.2606249999962
 21
-50.62281250000051
  0
ARC
  5
2C0
100
AcDbEntity
  8
0
  6
ByLayer
 62
  256
370
   -1
100
AcDbCircle
 10
91.26062499999624
 20
-38.62281250000051
 40
1
100
AcDbArc
 50
90
 51
180
  0
ARC
  5
2C1
100
AcDbEntity
  8
0
  6
ByLayer
 62
  256
370
   -1
100
AcDbCircle
 10
103.2606249999962
 20
-38.62281250000051
 40
1
100
AcDbArc
 50
0
 51
90
  0
ARC
  5
2C2
100
AcDbEntity
  8
0
  6
ByLayer
 62
  256
370
   -1
100
AcDbCircle
 10
91.26062499999624
 20
-50.62281250000051
 40
1
100
AcDbArc
 50
180
 51
270
  0
ARC
  5
2C3
100
AcDbEntity
  8
0
  6
ByLayer
 62
  256
370
   -1
100
AcDbCircle
 10
103.2606249999962
 20
-50.62281250000051
 40
1
100
AcDbArc
 50
270
 51
360
  0
LINE
  5
2C4
100
AcDbEntity
  8
0
  6
ByLayer
 62
  256
370
   -1
100
AcDbLine
 10
110.3106249999962
 20
-37.62281250000051
 11
122.3106249999962
 21
-37.62281250000051
  0
LINE
  5
2C5
100
AcDbEntity
  8
0
  6
ByLayer
 62
  256
370
   -1
100
AcDbLine
 10
110.3106249999962
 20
-51.62281250000051
 11
122.3106249999962
 21
-51.62281250000051
  0
LINE
  5
2C6
100
AcDbEntity
  8
0
  6
ByLayer
 62
  256
370
   -1
100
AcDbLine
 10
109.3106249999962
 20
-38.62281250000051
 11
109.3106249999962
 21
-50.62281250000051
  0
LINE
  5
2C7
100
AcDbEntity
  8
0
  6
ByLayer
 62
  256
370
   -1
100
AcDbLine
 10
123.3106249999962
 20
-38.62281250000051
 11
123.3106249999962
 21
-50.62281250000051
  0
ARC
  5
2C8
100
AcDbEntity
  8
0
  6
ByLayer
 62
  256
370
   -1
100
AcDbCircle
 10
110.3106249999962
 20
-38.62281250000051
 40
1
100
AcDbArc
 50
90
 51
180
  0
ARC
  5
2C9
100
AcDbEntity
  8
0
  6
ByLayer
 62
  256
370
   -1
100
AcDbCircle
 10
122.3106249999962
 20
-38.62281250000051
 40
1
100
AcDbArc
 50
0
 51
90
  0
ARC
  5
2CA
100
AcDbEntity
  8
0
  6
ByLayer
 62
  256
370
   -1
100
AcDbCircle
 10
110.3106249999962
 20
-50.62281250000051
 40
1
100
AcDbArc
 50
180
 51
270
  0
ARC
  5
2CB
100
AcDbEntity
  8
0
  6
ByLayer
 62
  256
370
   -1
100
AcDbCircle
 10
122.3106249999962
 20
-50.62281250000051
 40
1
100
AcDbArc
 50
270
 51
360
  0
LINE
  5
2CC
100
AcDbEntity
  8
0
  6
ByLayer
 62
  256
370
   -1
100
AcDbLine
 10
129.3606249999962
 20
-51.62281250000051
 11
141.3606249999962
 21
-51.62281250000051
  0
LINE
  5
2CD
100
AcDbEntity
  8
0
  6
ByLayer
 62
  256
370
   -1
100
AcDbLine
 10
128.3606249999962
 20
-38.62281250000051
 11
128.3606249999962
 21
-50.62281250000051
  0
LINE
  5
2CE
100
AcDbEntity
  8
0
  6
ByLayer
 62
  256
370
   -1
100
AcDbLine
 10
142.3606249999962
 20
-38.62281250000051
 11
142.3606249999962
 21
-50.62281250000051
  0
ARC
  5
2CF
100
AcDbEntity
  8
0
  6
ByLayer
 62
  256
370
   -1
100
AcDbCircle
 10
129.3606249999962
 20
-38.62281250000051
 40
1
100
AcDbArc
 50
90
 51
180
  0
ARC
  5
2D0
100
AcDbEntity
  8
0
  6
ByLayer
 62
  256
370
   -1
100
AcDbCircle
 10
141.3606249999962
 20
-38.62281250000051
 40
1
100
AcDbArc
 50
0
 51
90
  0
ARC
  5
2D1
100
AcDbEntity
  8
0
  6
ByLayer
 62
  256
370
   -1
100
AcDbCircle
 10
129.3606249999962
 20
-50.62281250000051
 40
1
100
AcDbArc
 50
180
 51
270
  0
ARC
  5
2D2
100
AcDbEntity
  8
0
  6
ByLayer
 62
  256
370
   -1
100
AcDbCircle
 10
141.3606249999962
 20
-50.62281250000051
 40
1
100
AcDbArc
 50
270
 51
360
  0
LINE
  5
2D3
100
AcDbEntity
  8
0
  6
ByLayer
 62
  256
370
   -1
100
AcDbLine
 10
148.4106249999962
 20
-37.62281250000051
 11
160.4106249999962
 21
-37.62281250000051
  0
LINE
  5
2D4
100
AcDbEntity
  8
0
  6
ByLayer
 62
  256
370
   -1
100
AcDbLine
 10
148.4106249999962
 20
-51.62281250000051
 11
160.4106249999962
 21
-51.62281250000051
  0
LINE
  5
2D5
100
AcDbEntity
  8
0
  6
ByLayer
 62
  256
370
   -1
100
AcDbLine
 10
147.4106249999962
 20
-38.62281250000051
 11
147.4106249999962
 21
-50.62281250000051
  0
LINE
  5
2D6
100
AcDbEntity
  8
0
  6
ByLayer
 62
  256
370
   -1
100
AcDbLine
 10
161.4106249999962
 20
-38.62281250000051
 11
161.4106249999962
 21
-50.62281250000051
  0
ARC
  5
2D7
100
AcDbEntity
  8
0
  6
ByLayer
 62
  256
370
   -1
100
AcDbCircle
 10
148.4106249999962
 20
-38.62281250000051
 40
1
100
AcDbArc
 50
90
 51
180
  0
ARC
  5
2D8
100
AcDbEntity
  8
0
  6
ByLayer
 62
  256
370
   -1
100
AcDbCircle
 10
160.4106249999962
 20
-38.62281250000051
 40
1
100
AcDbArc
 50
0
 51
90
  0
ARC
  5
2D9
100
AcDbEntity
  8
0
  6
ByLayer
 62
  256
370
   -1
100
AcDbCircle
 10
148.4106249999962
 20
-50.62281250000051
 40
1
100
AcDbArc
 50
180
 51
270
  0
ARC
  5
2DA
100
AcDbEntity
  8
0
  6
ByLayer
 62
  256
370
   -1
100
AcDbCircle
 10
160.4106249999962
 20
-50.62281250000051
 40
1
100
AcDbArc
 50
270
 51
360
  0
LINE
  5
2DB
100
AcDbEntity
  8
0
  6
ByLayer
 62
  256
370
   -1
100
AcDbLine
 10
167.4606249999962
 20
-37.62281250000051
 11
179.4606249999962
 21
-37.62281250000051
  0
LINE
  5
2DC
100
AcDbEntity
  8
0
  6
ByLayer
 62
  256
370
   -1
100
AcDbLine
 10
167.4606249999962
 20
-51.62281250000051
 11
179.4606249999962
 21
-51.62281250000051
  0
LINE
  5
2DD
100
AcDbEntity
  8
0
  6
ByLayer
 62
  256
370
   -1
100
AcDbLine
 10
166.4606249999962
 20
-38.62281250000051
 11
166.4606249999962
 21
-50.62281250000051
  0
LINE
  5
2DE
100
AcDbEntity
  8
0
  6
ByLayer
 62
  256
370
   -1
100
AcDbLine
 10
180.4606249999962
 20
-38.62281250000051
 11
180.4606249999962
 21
-50.62281250000051
  0
ARC
  5
2DF
100
AcDbEntity
  8
0
  6
ByLayer
 62
  256
370
   -1
100
AcDbCircle
 10
167.4606249999962
 20
-38.62281250000051
 40
1
100
AcDbArc
 50
90
 51
180
  0
ARC
  5
2E0
100
AcDbEntity
  8
0
  6
ByLayer
 62
  256
370
   -1
100
AcDbCircle
 10
179.4606249999962
 20
-38.62281250000051
 40
1
100
AcDbArc
 50
0
 51
90
  0
ARC
  5
2E1
100
AcDbEntity
  8
0
  6
ByLayer
 62
  256
370
   -1
100
AcDbCircle
 10
167.4606249999962
 20
-50.62281250000051
 40
1
100
AcDbArc
 50
180
 51
270
  0
ARC
  5
2E2
100
AcDbEntity
  8
0
  6
ByLayer
 62
  256
370
   -1
100
AcDbCircle
 10
179.4606249999962
 20
-50.62281250000051
 40
1
100
AcDbArc
 50
270
 51
360
  0
LINE
  5
2E3
100
AcDbEntity
  8
0
  6
ByLayer
 62
  256
370
   -1
100
AcDbLine
 10
186.5106249999963
 20
-37.62281250000051
 11
198.5106249999963
 21
-37.62281250000051
  0
LINE
  5
2E4
100
AcDbEntity
  8
0
  6
ByLayer
 62
  256
370
   -1
100
AcDbLine
 10
186.5106249999963
 20
-51.62281250000051
 11
198.5106249999963
 21
-51.62281250000051
  0
LINE
  5
2E5
100
AcDbEntity
  8
0
  6
ByLayer
 62
  256
370
   -1
100
AcDbLine
 10
185.5106249999963
 20
-38.62281250000051
 11
185.5106249999963
 21
-50.62281250000051
  0
LINE
  5
2E6
100
AcDbEntity
  8
0
  6
ByLayer
 62
  256
370
   -1
100
AcDbLine
 10
199.5106249999963
 20
-38.62281250000051
 11
199.5106249999963
 21
-50.62281250000051
  0
ARC
  5
2E7
100
AcDbEntity
  8
0
  6
ByLayer
 62
  256
370
   -1
100
AcDbCircle
 10
186.5106249999963
 20
-38.62281250000051
 40
1
100
AcDbArc
 50
90
 51
180
  0
ARC
  5
2E8
100
AcDbEntity
  8
0
  6
ByLayer
 62
  256
370
   -1
100
AcDbCircle
 10
198.5106249999963
 20
-38.62281250000051
 40
1
100
AcDbArc
 50
0
 51
90
  0
ARC
  5
2E9
100
AcDbEntity
  8
0
  6
ByLayer
 62
  256
370
   -1
100
AcDbCircle
 10
186.5106249999963
 20
-50.62281250000051
 40
1
100
AcDbArc
 50
180
 51
270
  0
ARC
  5
2EA
100
AcDbEntity
  8
0
  6
ByLayer
 62
  256
370
   -1
100
AcDbCircle
 10
198.5106249999963
 20
-50.62281250000051
 40
1
100
AcDbArc
 50
270
 51
360
  0
LINE
  5
2EB
100
AcDbEntity
  8
0
  6
ByLayer
 62
  256
370
   -1
100
AcDbLine
 10
205.5606249999962
 20
-37.62281250000051
 11
217.5606249999962
 21
-37.62281250000051
  0
LINE
  5
2EC
100
AcDbEntity
  8
0
  6
ByLayer
 62
  256
370
   -1
100
AcDbLine
 10
205.5606249999962
 20
-51.62281250000051
 11
217.5606249999962
 21
-51.62281250000051
  0
LINE
  5
2ED
100
AcDbEntity
  8
0
  6
ByLayer
 62
  256
370
   -1
100
AcDbLine
 10
204.5606249999962
 20
-38.62281250000051
 11
204.5606249999962
 21
-50.62281250000051
  0
LINE
  5
2EE
100
AcDbEntity
  8
0
  6
ByLayer
 62
  256
370
   -1
100
AcDbLine
 10
218.5606249999962
 20
-38.62281250000051
 11
218.5606249999962
 21
-50.62281250000051
  0
ARC
  5
2EF
100
AcDbEntity
  8
0
  6
ByLayer
 62
  256
370
   -1
100
AcDbCircle
 10
205.5606249999962
 20
-38.62281250000051
 40
1
100
AcDbArc
 50
90
 51
180
  0
ARC
  5
2F0
100
AcDbEntity
  8
0
  6
ByLayer
 62
  256
370
   -1
100
AcDbCircle
 10
217.5606249999962
 20
-38.62281250000051
 40
1
100
AcDbArc
 50
0
 51
90
  0
ARC
  5
2F1
100
AcDbEntity
  8
0
  6
ByLayer
 62
  256
370
   -1
100
AcDbCircle
 10
205.5606249999962
 20
-50.62281250000051
 40
1
100
AcDbArc
 50
180
 51
270
  0
ARC
  5
2F2
100
AcDbEntity
  8
0
  6
ByLayer
 62
  256
370
   -1
100
AcDbCircle
 10
217.5606249999962
 20
-50.62281250000051
 40
1
100
AcDbArc
 50
270
 51
360
  0
LINE
  5
2F3
100
AcDbEntity
  8
0
  6
ByLayer
 62
  256
370
   -1
100
AcDbLine
 10
224.6106249999963
 20
-37.62281250000051
 11
236.6106249999963
 21
-37.62281250000051
  0
LINE
  5
2F4
100
AcDbEntity
  8
0
  6
ByLayer
 62
  256
370
   -1
100
AcDbLine
 10
224.6106249999963
 20
-51.62281250000051
 11
236.6106249999963
 21
-51.62281250000051
  0
LINE
  5
2F5
100
AcDbEntity
  8
0
  6
ByLayer
 62
  256
370
   -1
100
AcDbLine
 10
223.6106249999963
 20
-38.62281250000051
 11
223.6106249999963
 21
-50.62281250000051
  0
LINE
  5
2F6
100
AcDbEntity
  8
0
  6
ByLayer
 62
  256
370
   -1
100
AcDbLine
 10
237.6106249999963
 20
-38.62281250000051
 11
237.6106249999963
 21
-50.62281250000051
  0
ARC
  5
2F7
100
AcDbEntity
  8
0
  6
ByLayer
 62
  256
370
   -1
100
AcDbCircle
 10
224.6106249999963
 20
-38.62281250000051
 40
1
100
AcDbArc
 50
90
 51
180
  0
ARC
  5
2F8
100
AcDbEntity
  8
0
  6
ByLayer
 62
  256
370
   -1
100
AcDbCircle
 10
236.6106249999963
 20
-38.62281250000051
 40
1
100
AcDbArc
 50
0
 51
90
  0
ARC
  5
2F9
100
AcDbEntity
  8
0
  6
ByLayer
 62
  256
370
   -1
100
AcDbCircle
 10
224.6106249999963
 20
-50.62281250000051
 40
1
100
AcDbArc
 50
180
 51
270
  0
ARC
  5
2FA
100
AcDbEntity
  8
0
  6
ByLayer
 62
  256
370
   -1
100
AcDbCircle
 10
236.6106249999963
 20
-50.62281250000051
 40
1
100
AcDbArc
 50
270
 51
360
  0
LINE
  5
2FB
100
AcDbEntity
  8
0
  6
ByLayer
 62
  256
370
   -1
100
AcDbLine
 10
3.154374999996207
 20
-56.67281250000049
 11
15.15437499999622
 21
-56.67281250000049
  0
LINE
  5
2FC
100
AcDbEntity
  8
0
  6
ByLayer
 62
  256
370
   -1
100
AcDbLine
 10
3.154374999996207
 20
-70.67281250000049
 11
15.15437499999622
 21
-70.67281250000049
  0
LINE
  5
2FD
100
AcDbEntity
  8
0
  6
ByLayer
 62
  256
370
   -1
100
AcDbLine
 10
2.154374999996207
 20
-57.67281250000049
 11
2.154374999996207
 21
-69.67281250000049
  0
LINE
  5
2FE
100
AcDbEntity
  8
0
  6
ByLayer
 62
  256
370
   -1
100
AcDbLine
 10
16.15437499999622
 20
-57.67281250000049
 11
16.15437499999622
 21
-69.67281250000049
  0
ARC
  5
2FF
100
AcDbEntity
  8
0
  6
ByLayer
 62
  256
370
   -1
100
AcDbCircle
 10
3.154374999996207
 20
-57.67281250000049
 40
1
100
AcDbArc
 50
90
 51
180
  0
ARC
  5
300
100
AcDbEntity
  8
0
  6
ByLayer
 62
  256
370
   -1
100
AcDbCircle
 10
15.15437499999622
 20
-57.67281250000049
 40
1
100
AcDbArc
 50
0
 51
90
  0
ARC
  5
301
100
AcDbEntity
  8
0
  6
ByLayer
 62
  256
370
   -1
100
AcDbCircle
 10
3.154374999996207
 20
-69.67281250000049
 40
1
100
AcDbArc
 50
180
 51
270
  0
ARC
  5
302
100
AcDbEntity
  8
0
  6
ByLayer
 62
  256
370
   -1
100
AcDbCircle
 10
15.15437499999622
 20
-69.67281250000049
 40
1
100
AcDbArc
 50
270
 51
360
  0
LINE
  5
303
100
AcDbEntity
  8
0
  6
ByLayer
 62
  256
370
   -1
100
AcDbLine
 10
29.34812499999622
 20
-56.67281250000049
 11
41.34812499999622
 21
-56.67281250000049
  0
LINE
  5
304
100
AcDbEntity
  8
0
  6
ByLayer
 62
  256
370
   -1
100
AcDbLine
 10
29.34812499999622
 20
-70.67281250000049
 11
41.34812499999622
 21
-70.67281250000049
  0
LINE
  5
305
100
AcDbEntity
  8
0
  6
ByLayer
 62
  256
370
   -1
100
AcDbLine
 10
28.34812499999622
 20
-57.67281250000049
 11
28.34812499999622
 21
-69.67281250000049
  0
LINE
  5
306
100
AcDbEntity
  8
0
  6
ByLayer
 62
  256
370
   -1
100
AcDbLine
 10
42.34812499999622
 20
-57.67281250000049
 11
42.34812499999622
 21
-69.67281250000049
  0
ARC
  5
307
100
AcDbEntity
  8
0
  6
ByLayer
 62
  256
370
   -1
100
AcDbCircle
 10
29.34812499999622
 20
-57.67281250000049
 40
1
100
AcDbArc
 50
90
 51
180
  0
ARC
  5
308
100
AcDbEntity
  8
0
  6
ByLayer
 62
  256
370
   -1
100
AcDbCircle
 10
41.34812499999622
 20
-57.67281250000049
 40
1
100
AcDbArc
 50
0
 51
90
  0
ARC
  5
309
100
AcDbEntity
  8
0
  6
ByLayer
 62
  256
370
   -1
100
AcDbCircle
 10
29.34812499999622
 20
-69.67281250000049
 40
1
100
AcDbArc
 50
180
 51
270
  0
ARC
  5
30A
100
AcDbEntity
  8
0
  6
ByLayer
 62
  256
370
   -1
100
AcDbCircle
 10
41.34812499999622
 20
-69.67281250000049
 40
1
100
AcDbArc
 50
270
 51
360
  0
LINE
  5
30B
100
AcDbEntity
  8
0
  6
ByLayer
 62
  256
370
   -1
100
AcDbLine
 10
55.54187499999623
 20
-56.67281250000049
 11
67.54187499999622
 21
-56.67281250000049
  0
LINE
  5
30C
100
AcDbEntity
  8
0
  6
ByLayer
 62
  256
370
   -1
100
AcDbLine
 10
55.54187499999623
 20
-70.67281250000049
 11
67.54187499999622
 21
-70.67281250000049
  0
LINE
  5
30D
100
AcDbEntity
  8
0
  6
ByLayer
 62
  256
370
   -1
100
AcDbLine
 10
54.54187499999623
 20
-57.67281250000049
 11
54.54187499999623
 21
-69.67281250000049
  0
LINE
  5
30E
100
AcDbEntity
  8
0
  6
ByLayer
 62
  256
370
   -1
100
AcDbLine
 10
68.54187499999622
 20
-57.67281250000049
 11
68.54187499999622
 21
-69.67281250000049
  0
ARC
  5
30F
100
AcDbEntity
  8
0
  6
ByLayer
 62
  256
370
   -1
100
AcDbCircle
 10
55.54187499999623
 20
-57.67281250000049
 40
1
100
AcDbArc
 50
90
 51
180
  0
ARC
  5
310
100
AcDbEntity
  8
0
  6
ByLayer
 62
  256
370
   -1
100
AcDbCircle
 10
67.54187499999622
 20
-57.67281250000049
 40
1
100
AcDbArc
 50
0
 51
90
  0
ARC
  5
311
100
AcDbEntity
  8
0
  6
ByLayer
 62
  256
370
   -1
100
AcDbCircle
 10
55.54187499999623
 20
-69.67281250000049
 40
1
100
AcDbArc
 50
180
 51
270
  0
ARC
  5
312
100
AcDbEntity
  8
0
  6
ByLayer
 62
  256
370
   -1
100
AcDbCircle
 10
67.54187499999622
 20
-69.67281250000049
 40
1
100
AcDbArc
 50
270
 51
360
  0
LINE
  5
313
100
AcDbEntity
  8
0
  6
ByLayer
 62
  256
370
   -1
100
AcDbLine
 10
88.87937499999622
 20
-56.67281250000049
 11
100.8793749999962
 21
-56.67281250000049
  0
LINE
  5
314
100
AcDbEntity
  8
0
  6
ByLayer
 62
  256
370
   -1
100
AcDbLine
 10
88.87937499999622
 20
-70.67281250000049
 11
100.8793749999962
 21
-70.67281250000049
  0
LINE
  5
315
100
AcDbEntity
  8
0
  6
ByLayer
 62
  256
370
   -1
100
AcDbLine
 10
87.87937499999622
 20
-57.67281250000049
 11
87.87937499999622
 21
-69.67281250000049
  0
LINE
  5
316
100
AcDbEntity
  8
0
  6
ByLayer
 62
  256
370
   -1
100
AcDbLine
 10
101.8793749999962
 20
-57.67281250000049
 11
101.8793749999962
 21
-69.67281250000049
  0
ARC
  5
317
100
AcDbEntity
  8
0
  6
ByLayer
 62
  256
370
   -1
100
AcDbCircle
 10
88.87937499999622
 20
-57.67281250000049
 40
1
100
AcDbArc
 50
90
 51
180
  0
ARC
  5
318
100
AcDbEntity
  8
0
  6
ByLayer
 62
  256
370
   -1
100
AcDbCircle
 10
100.8793749999962
 20
-57.67281250000049
 40
1
100
AcDbArc
 50
0
 51
90
  0
ARC
  5
319
100
AcDbEntity
  8
0
  6
ByLayer
 62
  256
370
   -1
100
AcDbCircle
 10
88.87937499999622
 20
-69.67281250000049
 40
1
100
AcDbArc
 50
180
 51
270
  0
ARC
  5
31A
100
AcDbEntity
  8
0
  6
ByLayer
 62
  256
370
   -1
100
AcDbCircle
 10
100.8793749999962
 20
-69.67281250000049
 40
1
100
AcDbArc
 50
270
 51
360
  0
LINE
  5
31B
100
AcDbEntity
  8
0
  6
ByLayer
 62
  256
370
   -1
100
AcDbLine
 10
85.31637499999623
 20
-69.67281250000049
 11
80.56637499999623
 21
-69.67281250000049
  0
LINE
  5
31C
100
AcDbEntity
  8
0
  6
ByLayer
 62
  256
370
   -1
100
AcDbLine
 10
85.31637499999623
 20
-55.67281250000049
 11
80.56637499999623
 21
-55.67281250000049
  0
LINE
  5
31D
100
AcDbEntity
  8
0
  6
ByLayer
 62
  256
370
   -1
100
AcDbLine
 10
86.31637499999623
 20
-68.67281250000049
 11
86.31637499999623
 21
-56.67281250000049
  0
LINE
  5
31E
100
AcDbEntity
  8
0
  6
ByLayer
 62
  256
370
   -1
100
AcDbLine
 10
79.56637499999623
 20
-68.67281250000049
 11
79.56637499999623
 21
-56.67281250000049
  0
ARC
  5
31F
100
AcDbEntity
  8
0
  6
ByLayer
 62
  256
370
   -1
100
AcDbCircle
 10
85.31637499999623
 20
-68.67281250000049
 40
1
100
AcDbArc
 50
270
 51
0
  0
ARC
  5
320
100
AcDbEntity
  8
0
  6
ByLayer
 62
  256
370
   -1
100
AcDbCircle
 10
80.56637499999623
 20
-68.67281250000049
 40
1
100
AcDbArc
 50
180
 51
270
  0
ARC
  5
321
100
AcDbEntity
  8
0
  6
ByLayer
 62
  256
370
   -1
100
AcDbCircle
 10
85.31637499999623
 20
-56.67281250000049
 40
1
100
AcDbArc
 50
0
 51
90
  0
ARC
  5
322
100
AcDbEntity
  8
0
  6
ByLayer
 62
  256
370
   -1
100
AcDbCircle
 10
80.56637499999623
 20
-56.67281250000049
 40
1
100
AcDbArc
 50
90
 51
180
  0
LINE
  5
323
100
AcDbEntity
  8
0
  6
ByLayer
 62
  256
370
   -1
100
AcDbLine
 10
109.1923749999962
 20
-69.67281250000049
 11
104.4423749999962
 21
-69.67281250000049
  0
LINE
  5
324
100
AcDbEntity
  8
0
  6
ByLayer
 62
  256
370
   -1
100
AcDbLine
 10
109.1923749999962
 20
-55.67281250000049
 11
104.4423749999962
 21
-55.67281250000049
  0
LINE
  5
325
100
AcDbEntity
  8
0
  6
ByLayer
 62
  256
370
   -1
100
AcDbLine
 10
110.1923749999962
 20
-68.67281250000049
 11
110.1923749999962
 21
-56.67281250000049
  0
LINE
  5
326
100
AcDbEntity
  8
0
  6
ByLayer
 62
  256
370
   -1
100
AcDbLine
 10
103.4423749999962
 20
-68.67281250000049
 11
103.4423749999962
 21
-56.67281250000049
  0
ARC
  5
327
100
AcDbEntity
  8
0
  6
ByLayer
 62
  256
370
   -1
100
AcDbCircle
 10
109.1923749999962
 20
-68.67281250000049
 40
1
100
AcDbArc
 50
270
 51
0
  0
ARC
  5
328
100
AcDbEntity
  8
0
  6
ByLayer
 62
  256
370
   -1
100
AcDbCircle
 10
104.4423749999962
 20
-68.67281250000049
 40
1
100
AcDbArc
 50
180
 51
270
  0
ARC
  5
329
100
AcDbEntity
  8
0
  6
ByLayer
 62
  256
370
   -1
100
AcDbCircle
 10
109.1923749999962
 20
-56.67281250000049
 40
1
100
AcDbArc
 50
0
 51
90
  0
ARC
  5
32A
100
AcDbEntity
  8
0
  6
ByLayer
 62
  256
370
   -1
100
AcDbCircle
 10
104.4423749999962
 20
-56.67281250000049
 40
1
100
AcDbArc
 50
90
 51
180
  0
LINE
  5
32B
100
AcDbEntity
  8
0
  6
ByLayer
 62
  256
370
   -1
100
AcDbLine
 10
129.3606249999962
 20
-56.67281250000049
 11
141.3606249999962
 21
-56.67281250000049
  0
LINE
  5
32C
100
AcDbEntity
  8
0
  6
ByLayer
 62
  256
370
   -1
100
AcDbLine
 10
129.3606249999962
 20
-70.67281250000049
 11
141.3606249999962
 21
-70.67281250000049
  0
LINE
  5
32D
100
AcDbEntity
  8
0
  6
ByLayer
 62
  256
370
   -1
100
AcDbLine
 10
128.3606249999962
 20
-57.67281250000049
 11
128.3606249999962
 21
-69.67281250000049
  0
LINE
  5
32E
100
AcDbEntity
  8
0
  6
ByLayer
 62
  256
370
   -1
100
AcDbLine
 10
142.3606249999962
 20
-57.67281250000049
 11
142.3606249999962
 21
-69.67281250000049
  0
ARC
  5
32F
100
AcDbEntity
  8
0
  6
ByLayer
 62
  256
370
   -1
100
AcDbCircle
 10
129.3606249999962
 20
-57.67281250000049
 40
1
100
AcDbArc
 50
90
 51
180
  0
ARC
  5
330
100
AcDbEntity
  8
0
  6
ByLayer
 62
  256
370
   -1
100
AcDbCircle
 10
141.3606249999962
 20
-57.67281250000049
 40
1
100
AcDbArc
 50
0
 51
90
  0
ARC
  5
331
100
AcDbEntity
  8
0
  6
ByLayer
 62
  256
370
   -1
100
AcDbCircle
 10
129.3606249999962
 20
-69.67281250000049
 40
1
100
AcDbArc
 50
180
 51
270
  0
ARC
  5
332
100
AcDbEntity
  8
0
  6
ByLayer
 62
  256
370
   -1
100
AcDbCircle
 10
141.3606249999962
 20
-69.67281250000049
 40
1
100
AcDbArc
 50
270
 51
360
  0
LINE
  5
333
100
AcDbEntity
  8
0
  6
ByLayer
 62
  256
370
   -1
100
AcDbLine
 10
125.7976249999962
 20
-69.67281250000049
 11
121.0476249999962
 21
-69.67281250000049
  0
LINE
  5
334
100
AcDbEntity
  8
0
  6
ByLayer
 62
  256
370
   -1
100
AcDbLine
 10
125.7976249999962
 20
-55.67281250000049
 11
121.0476249999962
 21
-55.67281250000049
  0
LINE
  5
335
100
AcDbEntity
  8
0
  6
ByLayer
 62
  256
370
   -1
100
AcDbLine
 10
126.7976249999962
 20
-68.67281250000049
 11
126.7976249999962
 21
-56.67281250000049
  0
LINE
  5
336
100
AcDbEntity
  8
0
  6
ByLayer
 62
  256
370
   -1
100
AcDbLine
 10
120.0476249999962
 20
-68.67281250000049
 11
120.0476249999962
 21
-56.67281250000049
  0
ARC
  5
337
100
AcDbEntity
  8
0
  6
ByLayer
 62
  256
370
   -1
100
AcDbCircle
 10
125.7976249999962
 20
-68.67281250000049
 40
1
100
AcDbArc
 50
270
 51
0
  0
ARC
  5
338
100
AcDbEntity
  8
0
  6
ByLayer
 62
  256
370
   -1
100
AcDbCircle
 10
121.0476249999962
 20
-68.67281250000049
 40
1
100
AcDbArc
 50
180
 51
270
  0
ARC
  5
339
100
AcDbEntity
  8
0
  6
ByLayer
 62
  256
370
   -1
100
AcDbCircle
 10
125.7976249999962
 20
-56.67281250000049
 40
1
100
AcDbArc
 50
0
 51
90
  0
ARC
  5
33A
100
AcDbEntity
  8
0
  6
ByLayer
 62
  256
370
   -1
100
AcDbCircle
 10
121.0476249999962
 20
-56.67281250000049
 40
1
100
AcDbArc
 50
90
 51
180
  0
LINE
  5
33B
100
AcDbEntity
  8
0
  6
ByLayer
 62
  256
370
   -1
100
AcDbLine
 10
149.6736249999962
 20
-69.67281250000049
 11
144.9236249999962
 21
-69.67281250000049
  0
LINE
  5
33C
100
AcDbEntity
  8
0
  6
ByLayer
 62
  256
370
   -1
100
AcDbLine
 10
149.6736249999962
 20
-55.67281250000049
 11
144.9236249999962
 21
-55.67281250000049
  0
LINE
  5
33D
100
AcDbEntity
  8
0
  6
ByLayer
 62
  256
370
   -1
100
AcDbLine
 10
150.6736249999962
 20
-68.67281250000049
 11
150.6736249999962
 21
-56.67281250000049
  0
LINE
  5
33E
100
AcDbEntity
  8
0
  6
ByLayer
 62
  256
370
   -1
100
AcDbLine
 10
143.9236249999962
 20
-68.67281250000049
 11
143.9236249999962
 21
-56.67281250000049
  0
ARC
  5
33F
100
AcDbEntity
  8
0
  6
ByLayer
 62
  256
370
   -1
100
AcDbCircle
 10
149.6736249999962
 20
-68.67281250000049
 40
1
100
AcDbArc
 50
270
 51
0
  0
ARC
  5
340
100
AcDbEntity
  8
0
  6
ByLayer
 62
  256
370
   -1
100
AcDbCircle
 10
144.9236249999962
 20
-68.67281250000049
 40
1
100
AcDbArc
 50
180
 51
270
  0
ARC
  5
341
100
AcDbEntity
  8
0
  6
ByLayer
 62
  256
370
   -1
100
AcDbCircle
 10
149.6736249999962
 20
-56.67281250000049
 40
1
100
AcDbArc
 50
0
 51
90
  0
ARC
  5
342
100
AcDbEntity
  8
0
  6
ByLayer
 62
  256
370
   -1
100
AcDbCircle
 10
144.9236249999962
 20
-56.67281250000049
 40
1
100
AcDbArc
 50
90
 51
180
  0
LINE
  5
343
100
AcDbEntity
  8
0
  6
ByLayer
 62
  256
370
   -1
100
AcDbLine
 10
160.3168749999962
 20
-56.67281250000049
 11
172.3168749999962
 21
-56.67281250000049
  0
LINE
  5
344
100
AcDbEntity
  8
0
  6
ByLayer
 62
  256
370
   -1
100
AcDbLine
 10
160.3168749999962
 20
-70.67281250000049
 11
172.3168749999962
 21
-70.67281250000049
  0
LINE
  5
345
100
AcDbEntity
  8
0
  6
ByLayer
 62
  256
370
   -1
100
AcDbLine
 10
159.3168749999962
 20
-57.67281250000049
 11
159.3168749999962
 21
-69.67281250000049
  0
LINE
  5
346
100
AcDbEntity
  8
0
  6
ByLayer
 62
  256
370
   -1
100
AcDbLine
 10
173.3168749999962
 20
-57.67281250000049
 11
173.3168749999962
 21
-69.67281250000049
  0
ARC
  5
347
100
AcDbEntity
  8
0
  6
ByLayer
 62
  256
370
   -1
100
AcDbCircle
 10
160.3168749999962
 20
-57.67281250000049
 40
1
100
AcDbArc
 50
90
 51
180
  0
ARC
  5
348
100
AcDbEntity
  8
0
  6
ByLayer
 62
  256
370
   -1
100
AcDbCircle
 10
172.3168749999962
 20
-57.67281250000049
 40
1
100
AcDbArc
 50
0
 51
90
  0
ARC
  5
349
100
AcDbEntity
  8
0
  6
ByLayer
 62
  256
370
   -1
100
AcDbCircle
 10
160.3168749999962
 20
-69.67281250000049
 40
1
100
AcDbArc
 50
180
 51
270
  0
ARC
  5
34A
100
AcDbEntity
  8
0
  6
ByLayer
 62
  256
370
   -1
100
AcDbCircle
 10
172.3168749999962
 20
-69.67281250000049
 40
1
100
AcDbArc
 50
270
 51
360
  0
LINE
  5
34B
100
AcDbEntity
  8
0
  6
ByLayer
 62
  256
370
   -1
100
AcDbLine
 10
186.5106249999963
 20
-56.67281250000049
 11
198.5106249999963
 21
-56.67281250000049
  0
LINE
  5
34C
100
AcDbEntity
  8
0
  6
ByLayer
 62
  256
370
   -1
100
AcDbLine
 10
186.5106249999963
 20
-70.67281250000049
 11
198.5106249999963
 21
-70.67281250000049
  0
LINE
  5
34D
100
AcDbEntity
  8
0
  6
ByLayer
 62
  256
370
   -1
100
AcDbLine
 10
185.5106249999963
 20
-57.67281250000049
 11
185.5106249999963
 21
-69.67281250000049
  0
LINE
  5
34E
100
AcDbEntity
  8
0
  6
ByLayer
 62
  256
370
   -1
100
AcDbLine
 10
199.5106249999963
 20
-57.67281250000049
 11
199.5106249999963
 21
-69.67281250000049
  0
ARC
  5
34F
100
AcDbEntity
  8
0
  6
ByLayer
 62
  256
370
   -1
100
AcDbCircle
 10
186.5106249999963
 20
-57.67281250000049
 40
1
100
AcDbArc
 50
90
 51
180
  0
ARC
  5
350
100
AcDbEntity
  8
0
  6
ByLayer
 62
  256
370
   -1
100
AcDbCircle
 10
198.5106249999963
 20
-57.67281250000049
 40
1
100
AcDbArc
 50
0
 51
90
  0
ARC
  5
351
100
AcDbEntity
  8
0
  6
ByLayer
 62
  256
370
   -1
100
AcDbCircle
 10
186.5106249999963
 20
-69.67281250000049
 40
1
100
AcDbArc
 50
180
 51
270
  0
ARC
  5
352
100
AcDbEntity
  8
0
  6
ByLayer
 62
  256
370
   -1
100
AcDbCircle
 10
198.5106249999963
 20
-69.67281250000049
 40
1
100
AcDbArc
 50
270
 51
360
  0
LINE
  5
353
100
AcDbEntity
  8
0
  6
ByLayer
 62
  256
370
   -1
100
AcDbLine
 10
217.4668749999962
 20
-56.67281250000049
 11
229.4668749999962
 21
-56.67281250000049
  0
LINE
  5
354
100
AcDbEntity
  8
0
  6
ByLayer
 62
  256
370
   -1
100
AcDbLine
 10
217.4668749999962
 20
-70.67281250000049
 11
229.4668749999962
 21
-70.67281250000049
  0
LINE
  5
355
100
AcDbEntity
  8
0
  6
ByLayer
 62
  256
370
   -1
100
AcDbLine
 10
216.4668749999962
 20
-57.67281250000049
 11
216.4668749999962
 21
-69.67281250000049
  0
LINE
  5
356
100
AcDbEntity
  8
0
  6
ByLayer
 62
  256
370
   -1
100
AcDbLine
 10
230.4668749999962
 20
-57.67281250000049
 11
230.4668749999962
 21
-69.67281250000049
  0
ARC
  5
357
100
AcDbEntity
  8
0
  6
ByLayer
 62
  256
370
   -1
100
AcDbCircle
 10
217.4668749999962
 20
-57.67281250000049
 40
1
100
AcDbArc
 50
90
 51
180
  0
ARC
  5
358
100
AcDbEntity
  8
0
  6
ByLayer
 62
  256
370
   -1
100
AcDbCircle
 10
229.4668749999962
 20
-57.67281250000049
 40
1
100
AcDbArc
 50
0
 51
90
  0
ARC
  5
359
100
AcDbEntity
  8
0
  6
ByLayer
 62
  256
370
   -1
100
AcDbCircle
 10
217.4668749999962
 20
-69.67281250000049
 40
1
100
AcDbArc
 50
180
 51
270
  0
ARC
  5
35A
100
AcDbEntity
  8
0
  6
ByLayer
 62
  256
370
   -1
100
AcDbCircle
 10
229.4668749999962
 20
-69.67281250000049
 40
1
100
AcDbArc
 50
270
 51
360
  0
LWPOLYLINE
  5
35B
100
AcDbEntity
  8
0
  6
ByLayer
 62
  256
370
   -1
100
AcDbPolyline
 90
    8
 70
    1
 43
0
 10
-3
 20
-70.19990100000008
 10
-3
 20
0
 42
-0.414213562373095
 10
0
 20
3
 10
237.3872934
 20
2.999999999999901
 42
-0.414213562373095
 10
240.3872934
 20
-9.947598300641403e-14
 10
240.3872934
 20
-70.19990100000008
 42
-0.414213562373095
 10
237.3872934
 20
-73.19990100000008
 10
0
 20
-73.19990100000008
 42
-0.414213562373095
  0
CIRCLE
  5
35C
100
AcDbEntity
  8
0
  6
ByLayer
 62
  256
370
   -1
100
AcDbCircle
 10
27.10000000000001
 20
-50.79989999999999
 40
2.5
  0
CIRCLE
  5
35D
100
AcDbEntity
  8
0
  6
ByLayer
 62
  256
370
   -1
100
AcDbCircle
 10
74
 20
-62.34990000000001
 40
2.5
  0
CIRCLE
  5
35E
100
AcDbEntity
  8
0
  6
ByLayer
 62
  256
370
   -1
100
AcDbCircle
 10
179.5873
 20
-62.54989999999999
 40
2.5
  0
CIRCLE
  5
35F
100
AcDbEntity
  8
0
  6
ByLayer
 62
  256
370
   -1
100
AcDbCircle
 10
207.8873
 20
-13.74999999999999
 40
2.5
  0
ARC
  5
360
100
AcDbEntity
  8
0
  6
ByLayer
 62
  256
370
   -1
100
AcDbCircle
 10
29.1747
 20
-16.02550000000001
 40
2.5
100
AcDbArc
 50
118.6854020141253
 51
241.3145979858747
  0
ARC
  5
361
100
AcDbEntity
  8
0
  6
ByLayer
 62
  256
370
   -1
100
AcDbCircle
 10
29.1747
 20
-16.02550000000001
 40
2.5
100
AcDbArc
 50
118.6854020141253
 51
241.3145979858747
  0
ARC
  5
362
100
AcDbEntity
  8
0
  6
ByLayer
 62
  256
370
   -1
100
AcDbCircle
 10
29.1747
 20
-16.02550000000001
 40
2.5
100
AcDbArc
 50
118.6854020141253
 51
241.3145979858747
  0
ARC
  5
363
100
AcDbEntity
  8
0
  6
ByLayer
 62
  256
370
   -1
100
AcDbCircle
 10
29.1747
 20
-16.02550000000001
 40
2.5
100
AcDbArc
 50
298.6854020141247
 51
61.314597985875
  0
LINE
  5
364
100
AcDbEntity
  8
0
  6
ByLayer
 62
  256
370
   -1
100
AcDbLine
 10
19.82312499999621
 20
-13.52281250000048
 11
27.9747
 21
-13.52281250000048
  0
LINE
  5
365
100
AcDbEntity
  8
0
  6
ByLayer
 62
  256
370
   -1
100
AcDbLine
 10
30.3747
 20
-13.52281250000048
 11
31.82312499999624
 21
-13.52281250000048
  0
LINE
  5
366
100
AcDbEntity
  8
0
  6
ByLayer
 62
  256
370
   -1
100
AcDbLine
 10
24.58562499999623
 20
-18.5728125000005
 11
27.9747
 21
-18.5728125000005
  0
LINE
  5
367
100
AcDbEntity
  8
0
  6
ByLayer
 62
  256
370
   -1
100
AcDbLine
 10
30.3747
 20
-18.5728125000005
 11
36.58562499999623
 21
-18.5728125000005
  0
LINE
  5
368
100
AcDbEntity
  8
0
  6
ByLayer
 62
    9
370
   -1
100
AcDbLine
 10
27.9747
 20
-13.52281250000048
 11
27.97469999999976
 21
-13.832328780054
  0
LINE
  5
369
100
AcDbEntity
  8
0
  6
ByLayer
 62
    9
370
   -1
100
AcDbLine
 10
30.3747
 20
-13.52281250000048
 11
30.37470000000023
 21
-13.832328780054
  0
LINE
  5
36A
100
AcDbEntity
  8
0
  6
ByLayer
 62
    9
370
   -1
100
AcDbLine
 10
27.97469999999976
 20
-18.21867121994599
 11
27.9747
 21
-18.5728125000005
  0
LINE
  5
36B
100
AcDbEntity
  8
0
  6
ByLayer
 62
    9
370
   -1
100
AcDbLine
 10
30.37470000000022
 20
-18.21867121994599
 11
30.3747
 21
-18.5728125000005
  0
ARC
  5
36C
100
AcDbEntity
  8
0
  6
ByLayer
 62
  256
370
   -1
100
AcDbCircle
 10
104.85
 20
-16.05
 40
2.5
100
AcDbArc
 50
118.6854020141159
 51
241.3145979858841
  0
ARC
  5
36D
100
AcDbEntity
  8
0
  6
ByLayer
 62
  256
370
   -1
100
AcDbCircle
 10
104.85
 20
-16.05
 40
2.5
100
AcDbArc
 50
298.685402014125
 51
61.3145979858753
  0
LINE
  5
36E
100
AcDbEntity
  8
0
  6
ByLayer
 62
  256
370
   -1
100
AcDbLine
 10
103.6500000000001
 20
-13.85682878005382
 11
103.6500000000001
 21
-13.52281250000048
  0
POINT
  5
36F
100
AcDbEntity
  8
0
  6
ByLayer
 62
  256
370
   -1
100
AcDbPoint
 10
106.0500000000002
 20
-13.85682878005399
  0
LINE
  5
370
100
AcDbEntity
  8
0
  6
ByLayer
 62
  256
370
   -1
100
AcDbLine
 10
106.0500000000002
 20
-13.85682878005399
 11
106.0500000000002
 21
-13.52281250000048
  0
LINE
  5
371
100
AcDbEntity
  8
0
  6
ByLayer
 62
  256
370
   -1
100
AcDbLine
 10
103.6500000000001
 20
-18.24317121994618
 11
103.6500000000001
 21
-18.5728125000005
  0
LINE
  5
372
100
AcDbEntity
  8
0
  6
ByLayer
 62
  256
370
   -1
100
AcDbLine
 10
106.0500000000002
 20
-18.24317121994601
 11
106.0500000000002
 21
-18.5728125000005
  0
LINE
  5
373
100
AcDbEntity
  8
0
  6
ByLayer
 62
  256
370
   -1
100
AcDbLine
 10
106.0500000000002
 20
-13.52281250000048
 11
108.0231249999962
 21
-13.52281250000048
  0
LINE
  5
374
100
AcDbEntity
  8
0
  6
ByLayer
 62
  256
370
   -1
100
AcDbLine
 10
96.02312499999623
 20
-13.52281250000048
 11
103.6500000000001
 21
-13.52281250000048
  0
LINE
  5
375
100
AcDbEntity
  8
0
  6
ByLayer
 62
  256
370
   -1
100
AcDbLine
 10
100.7856249999962
 20
-18.5728125000005
 11
103.6500000000001
 21
-18.5728125000005
  0
LINE
  5
376
100
AcDbEntity
  8
0
  6
ByLayer
 62
  256
370
   -1
100
AcDbLine
 10
106.0500000000002
 20
-18.5728125000005
 11
112.7856249999962
 21
-18.5728125000005
  0
ARC
  5
377
100
AcDbEntity
  8
0
  6
ByLayer
 62
  256
370
   -1
100
AcDbCircle
 10
135.3373
 20
-35.14999999999999
 40
2.5
100
AcDbArc
 50
298.6854020141065
 51
241.3145979858749
  0
LINE
  5
378
100
AcDbEntity
  8
0
  6
ByLayer
 62
  256
370
   -1
100
AcDbLine
 10
134.1372999999998
 20
-37.343171219946
 11
134.1372999999998
 21
-37.62281250000051
  0
LINE
  5
379
100
AcDbEntity
  8
0
  6
ByLayer
 62
  256
370
   -1
100
AcDbLine
 10
136.5372999999995
 20
-37.34317121994637
 11
136.5372999999995
 21
-37.62281250000051
  0
LINE
  5
37A
100
AcDbEntity
  8
0
  6
ByLayer
 62
  256
370
   -1
100
AcDbLine
 10
136.5372999999995
 20
-37.62281250000051
 11
141.3606249999962
 21
-37.62281250000051
  0
LINE
  5
37B
100
AcDbEntity
  8
0
  6
ByLayer
 62
  256
370
   -1
100
AcDbLine
 10
129.3606249999962
 20
-37.62281250000051
 11
134.1372999999998
 21
-37.62281250000051
  0
ENDSEC
  0
SECTION
  2
OBJECTS
  0
DICTIONARY
  5
C
330
0
100
AcDbDictionary
281
    1
  3
ACAD_GROUP
350
D
  0
DICTIONARY
  5
D
330
C
100
AcDbDictionary
281
    1
  0
ENDSEC
  0
EOF
