G04 #@! TF.GenerationSoftware,KiCad,Pcbnew,5.0.2-bee76a0~70~ubuntu16.04.1*
G04 #@! TF.CreationDate,2019-08-03T15:14:39-04:00*
G04 #@! TF.ProjectId,steamvan,73746561-6d76-4616-9e2e-6b696361645f,rev?*
G04 #@! TF.SameCoordinates,PX43ec160PY7dabae0*
G04 #@! TF.FileFunction,Legend,Top*
G04 #@! TF.FilePolarity,Positive*
%FSLAX46Y46*%
G04 Gerber Fmt 4.6, Leading zero omitted, Abs format (unit mm)*
G04 Created by KiCad (PCBNEW 5.0.2-bee76a0~70~ubuntu16.04.1) date Sat 03 Aug 2019 03:14:39 PM EDT*
%MOMM*%
%LPD*%
G01*
G04 APERTURE LIST*
%ADD10C,0.300000*%
%ADD11C,0.150000*%
G04 APERTURE END LIST*
D10*
X24561219Y36275296D02*
X24918361Y36156248D01*
X25513600Y36156248D01*
X25751695Y36275296D01*
X25870742Y36394343D01*
X25989790Y36632439D01*
X25989790Y36870534D01*
X25870742Y37108629D01*
X25751695Y37227677D01*
X25513600Y37346724D01*
X25037409Y37465772D01*
X24799314Y37584820D01*
X24680266Y37703867D01*
X24561219Y37941962D01*
X24561219Y38180058D01*
X24680266Y38418153D01*
X24799314Y38537200D01*
X25037409Y38656248D01*
X25632647Y38656248D01*
X25989790Y38537200D01*
X26704076Y37822915D02*
X27656457Y37822915D01*
X27061219Y38656248D02*
X27061219Y36513391D01*
X27180266Y36275296D01*
X27418361Y36156248D01*
X27656457Y36156248D01*
X29442171Y36275296D02*
X29204076Y36156248D01*
X28727885Y36156248D01*
X28489790Y36275296D01*
X28370742Y36513391D01*
X28370742Y37465772D01*
X28489790Y37703867D01*
X28727885Y37822915D01*
X29204076Y37822915D01*
X29442171Y37703867D01*
X29561219Y37465772D01*
X29561219Y37227677D01*
X28370742Y36989581D01*
X31704076Y36156248D02*
X31704076Y37465772D01*
X31585028Y37703867D01*
X31346933Y37822915D01*
X30870742Y37822915D01*
X30632647Y37703867D01*
X31704076Y36275296D02*
X31465980Y36156248D01*
X30870742Y36156248D01*
X30632647Y36275296D01*
X30513600Y36513391D01*
X30513600Y36751486D01*
X30632647Y36989581D01*
X30870742Y37108629D01*
X31465980Y37108629D01*
X31704076Y37227677D01*
X32894552Y36156248D02*
X32894552Y37822915D01*
X32894552Y37584820D02*
X33013600Y37703867D01*
X33251695Y37822915D01*
X33608838Y37822915D01*
X33846933Y37703867D01*
X33965980Y37465772D01*
X33965980Y36156248D01*
X33965980Y37465772D02*
X34085028Y37703867D01*
X34323123Y37822915D01*
X34680266Y37822915D01*
X34918361Y37703867D01*
X35037409Y37465772D01*
X35037409Y36156248D01*
X35870742Y38656248D02*
X36704076Y36156248D01*
X37537409Y38656248D01*
X39442171Y36156248D02*
X39442171Y37465772D01*
X39323123Y37703867D01*
X39085028Y37822915D01*
X38608838Y37822915D01*
X38370742Y37703867D01*
X39442171Y36275296D02*
X39204076Y36156248D01*
X38608838Y36156248D01*
X38370742Y36275296D01*
X38251695Y36513391D01*
X38251695Y36751486D01*
X38370742Y36989581D01*
X38608838Y37108629D01*
X39204076Y37108629D01*
X39442171Y37227677D01*
X40632647Y37822915D02*
X40632647Y36156248D01*
X40632647Y37584820D02*
X40751695Y37703867D01*
X40989790Y37822915D01*
X41346933Y37822915D01*
X41585028Y37703867D01*
X41704076Y37465772D01*
X41704076Y36156248D01*
X46227885Y36156248D02*
X45394552Y37346724D01*
X44799314Y36156248D02*
X44799314Y38656248D01*
X45751695Y38656248D01*
X45989790Y38537200D01*
X46108838Y38418153D01*
X46227885Y38180058D01*
X46227885Y37822915D01*
X46108838Y37584820D01*
X45989790Y37465772D01*
X45751695Y37346724D01*
X44799314Y37346724D01*
X48251695Y36275296D02*
X48013599Y36156248D01*
X47537409Y36156248D01*
X47299314Y36275296D01*
X47180266Y36513391D01*
X47180266Y37465772D01*
X47299314Y37703867D01*
X47537409Y37822915D01*
X48013599Y37822915D01*
X48251695Y37703867D01*
X48370742Y37465772D01*
X48370742Y37227677D01*
X47180266Y36989581D01*
X49204076Y37822915D02*
X49799314Y36156248D01*
X50394552Y37822915D01*
X51346933Y36394343D02*
X51465980Y36275296D01*
X51346933Y36156248D01*
X51227885Y36275296D01*
X51346933Y36394343D01*
X51346933Y36156248D01*
X54323123Y38418153D02*
X54442171Y38537200D01*
X54680266Y38656248D01*
X55275504Y38656248D01*
X55513599Y38537200D01*
X55632647Y38418153D01*
X55751695Y38180058D01*
X55751695Y37941962D01*
X55632647Y37584820D01*
X54204076Y36156248D01*
X55751695Y36156248D01*
X56823123Y36394343D02*
X56942171Y36275296D01*
X56823123Y36156248D01*
X56704076Y36275296D01*
X56823123Y36394343D01*
X56823123Y36156248D01*
X59918361Y36156248D02*
X59918361Y38656248D01*
X60513599Y38656248D01*
X60870742Y38537200D01*
X61108838Y38299105D01*
X61227885Y38061010D01*
X61346933Y37584820D01*
X61346933Y37227677D01*
X61227885Y36751486D01*
X61108838Y36513391D01*
X60870742Y36275296D01*
X60513599Y36156248D01*
X59918361Y36156248D01*
X63370742Y36275296D02*
X63132647Y36156248D01*
X62656457Y36156248D01*
X62418361Y36275296D01*
X62299314Y36513391D01*
X62299314Y37465772D01*
X62418361Y37703867D01*
X62656457Y37822915D01*
X63132647Y37822915D01*
X63370742Y37703867D01*
X63489790Y37465772D01*
X63489790Y37227677D01*
X62299314Y36989581D01*
X64442171Y36275296D02*
X64680266Y36156248D01*
X65156457Y36156248D01*
X65394552Y36275296D01*
X65513599Y36513391D01*
X65513599Y36632439D01*
X65394552Y36870534D01*
X65156457Y36989581D01*
X64799314Y36989581D01*
X64561219Y37108629D01*
X64442171Y37346724D01*
X64442171Y37465772D01*
X64561219Y37703867D01*
X64799314Y37822915D01*
X65156457Y37822915D01*
X65394552Y37703867D01*
X66585028Y36156248D02*
X66585028Y37822915D01*
X66585028Y38656248D02*
X66465980Y38537200D01*
X66585028Y38418153D01*
X66704076Y38537200D01*
X66585028Y38656248D01*
X66585028Y38418153D01*
X68846933Y37822915D02*
X68846933Y35799105D01*
X68727885Y35561010D01*
X68608838Y35441962D01*
X68370742Y35322915D01*
X68013599Y35322915D01*
X67775504Y35441962D01*
X68846933Y36275296D02*
X68608838Y36156248D01*
X68132647Y36156248D01*
X67894552Y36275296D01*
X67775504Y36394343D01*
X67656457Y36632439D01*
X67656457Y37346724D01*
X67775504Y37584820D01*
X67894552Y37703867D01*
X68132647Y37822915D01*
X68608838Y37822915D01*
X68846933Y37703867D01*
X70037409Y37822915D02*
X70037409Y36156248D01*
X70037409Y37584820D02*
X70156457Y37703867D01*
X70394552Y37822915D01*
X70751695Y37822915D01*
X70989790Y37703867D01*
X71108838Y37465772D01*
X71108838Y36156248D01*
X74204076Y36156248D02*
X74204076Y38656248D01*
X74204076Y37703867D02*
X74442171Y37822915D01*
X74918361Y37822915D01*
X75156457Y37703867D01*
X75275504Y37584820D01*
X75394552Y37346724D01*
X75394552Y36632439D01*
X75275504Y36394343D01*
X75156457Y36275296D01*
X74918361Y36156248D01*
X74442171Y36156248D01*
X74204076Y36275296D01*
X76227885Y37822915D02*
X76823123Y36156248D01*
X77418361Y37822915D02*
X76823123Y36156248D01*
X76585028Y35561010D01*
X76465980Y35441962D01*
X76227885Y35322915D01*
X80275504Y37822915D02*
X80275504Y35680058D01*
X80156457Y35441962D01*
X79918361Y35322915D01*
X79799314Y35322915D01*
X80275504Y38656248D02*
X80156457Y38537200D01*
X80275504Y38418153D01*
X80394552Y38537200D01*
X80275504Y38656248D01*
X80275504Y38418153D01*
X81465980Y36156248D02*
X81465980Y37822915D01*
X81465980Y37584820D02*
X81585028Y37703867D01*
X81823123Y37822915D01*
X82180266Y37822915D01*
X82418361Y37703867D01*
X82537409Y37465772D01*
X82537409Y36156248D01*
X82537409Y37465772D02*
X82656457Y37703867D01*
X82894552Y37822915D01*
X83251695Y37822915D01*
X83489790Y37703867D01*
X83608838Y37465772D01*
X83608838Y36156248D01*
X85870742Y36156248D02*
X85870742Y38656248D01*
X85870742Y36275296D02*
X85632647Y36156248D01*
X85156457Y36156248D01*
X84918361Y36275296D01*
X84799314Y36394343D01*
X84680266Y36632439D01*
X84680266Y37346724D01*
X84799314Y37584820D01*
X84918361Y37703867D01*
X85156457Y37822915D01*
X85632647Y37822915D01*
X85870742Y37703867D01*
X88132647Y36156248D02*
X88132647Y37465772D01*
X88013599Y37703867D01*
X87775504Y37822915D01*
X87299314Y37822915D01*
X87061219Y37703867D01*
X88132647Y36275296D02*
X87894552Y36156248D01*
X87299314Y36156248D01*
X87061219Y36275296D01*
X86942171Y36513391D01*
X86942171Y36751486D01*
X87061219Y36989581D01*
X87299314Y37108629D01*
X87894552Y37108629D01*
X88132647Y37227677D01*
X89680266Y36156248D02*
X89442171Y36275296D01*
X89323123Y36513391D01*
X89323123Y38656248D01*
X90394552Y37822915D02*
X90989790Y36156248D01*
X91585028Y37822915D02*
X90989790Y36156248D01*
X90751695Y35561010D01*
X90632647Y35441962D01*
X90394552Y35322915D01*
G04 #@! TO.C,REF\002A\002A*
D11*
X30285066Y56192820D02*
X29951733Y56669010D01*
X29713638Y56192820D02*
X29713638Y57192820D01*
X30094590Y57192820D01*
X30189828Y57145200D01*
X30237447Y57097581D01*
X30285066Y57002343D01*
X30285066Y56859486D01*
X30237447Y56764248D01*
X30189828Y56716629D01*
X30094590Y56669010D01*
X29713638Y56669010D01*
X30713638Y56716629D02*
X31046971Y56716629D01*
X31189828Y56192820D02*
X30713638Y56192820D01*
X30713638Y57192820D01*
X31189828Y57192820D01*
X31951733Y56716629D02*
X31618400Y56716629D01*
X31618400Y56192820D02*
X31618400Y57192820D01*
X32094590Y57192820D01*
X32618400Y57192820D02*
X32618400Y56954724D01*
X32380304Y57049962D02*
X32618400Y56954724D01*
X32856495Y57049962D01*
X32475542Y56764248D02*
X32618400Y56954724D01*
X32761257Y56764248D01*
X33380304Y57192820D02*
X33380304Y56954724D01*
X33142209Y57049962D02*
X33380304Y56954724D01*
X33618400Y57049962D01*
X33237447Y56764248D02*
X33380304Y56954724D01*
X33523161Y56764248D01*
G04 #@! TD*
M02*
