G04 #@! TF.GenerationSoftware,KiCad,Pcbnew,5.1.5-52549c5~84~ubuntu16.04.1*
G04 #@! TF.CreationDate,2020-05-05T20:45:57-04:00*
G04 #@! TF.ProjectId,steamvan,73746561-6d76-4616-9e2e-6b696361645f,rev?*
G04 #@! TF.SameCoordinates,PX43ec160PY7dabae0*
G04 #@! TF.FileFunction,Legend,Top*
G04 #@! TF.FilePolarity,Positive*
%FSLAX46Y46*%
G04 Gerber Fmt 4.6, Leading zero omitted, Abs format (unit mm)*
G04 Created by KiCad (PCBNEW 5.1.5-52549c5~84~ubuntu16.04.1) date 2020-05-05 20:45:57*
%MOMM*%
%LPD*%
G04 APERTURE LIST*
%ADD10C,0.300000*%
%ADD11C,0.150000*%
G04 APERTURE END LIST*
D10*
X22775504Y36275296D02*
X23132647Y36156248D01*
X23727885Y36156248D01*
X23965980Y36275296D01*
X24085028Y36394343D01*
X24204076Y36632439D01*
X24204076Y36870534D01*
X24085028Y37108629D01*
X23965980Y37227677D01*
X23727885Y37346724D01*
X23251695Y37465772D01*
X23013600Y37584820D01*
X22894552Y37703867D01*
X22775504Y37941962D01*
X22775504Y38180058D01*
X22894552Y38418153D01*
X23013600Y38537200D01*
X23251695Y38656248D01*
X23846933Y38656248D01*
X24204076Y38537200D01*
X24918361Y37822915D02*
X25870742Y37822915D01*
X25275504Y38656248D02*
X25275504Y36513391D01*
X25394552Y36275296D01*
X25632647Y36156248D01*
X25870742Y36156248D01*
X27656457Y36275296D02*
X27418361Y36156248D01*
X26942171Y36156248D01*
X26704076Y36275296D01*
X26585028Y36513391D01*
X26585028Y37465772D01*
X26704076Y37703867D01*
X26942171Y37822915D01*
X27418361Y37822915D01*
X27656457Y37703867D01*
X27775504Y37465772D01*
X27775504Y37227677D01*
X26585028Y36989581D01*
X29918361Y36156248D02*
X29918361Y37465772D01*
X29799314Y37703867D01*
X29561219Y37822915D01*
X29085028Y37822915D01*
X28846933Y37703867D01*
X29918361Y36275296D02*
X29680266Y36156248D01*
X29085028Y36156248D01*
X28846933Y36275296D01*
X28727885Y36513391D01*
X28727885Y36751486D01*
X28846933Y36989581D01*
X29085028Y37108629D01*
X29680266Y37108629D01*
X29918361Y37227677D01*
X31108838Y36156248D02*
X31108838Y37822915D01*
X31108838Y37584820D02*
X31227885Y37703867D01*
X31465980Y37822915D01*
X31823123Y37822915D01*
X32061219Y37703867D01*
X32180266Y37465772D01*
X32180266Y36156248D01*
X32180266Y37465772D02*
X32299314Y37703867D01*
X32537409Y37822915D01*
X32894552Y37822915D01*
X33132647Y37703867D01*
X33251695Y37465772D01*
X33251695Y36156248D01*
X34085028Y38656248D02*
X34918361Y36156248D01*
X35751695Y38656248D01*
X37656457Y36156248D02*
X37656457Y37465772D01*
X37537409Y37703867D01*
X37299314Y37822915D01*
X36823123Y37822915D01*
X36585028Y37703867D01*
X37656457Y36275296D02*
X37418361Y36156248D01*
X36823123Y36156248D01*
X36585028Y36275296D01*
X36465980Y36513391D01*
X36465980Y36751486D01*
X36585028Y36989581D01*
X36823123Y37108629D01*
X37418361Y37108629D01*
X37656457Y37227677D01*
X38846933Y37822915D02*
X38846933Y36156248D01*
X38846933Y37584820D02*
X38965980Y37703867D01*
X39204076Y37822915D01*
X39561219Y37822915D01*
X39799314Y37703867D01*
X39918361Y37465772D01*
X39918361Y36156248D01*
X44442171Y36156248D02*
X43608838Y37346724D01*
X43013599Y36156248D02*
X43013599Y38656248D01*
X43965980Y38656248D01*
X44204076Y38537200D01*
X44323123Y38418153D01*
X44442171Y38180058D01*
X44442171Y37822915D01*
X44323123Y37584820D01*
X44204076Y37465772D01*
X43965980Y37346724D01*
X43013599Y37346724D01*
X46465980Y36275296D02*
X46227885Y36156248D01*
X45751695Y36156248D01*
X45513600Y36275296D01*
X45394552Y36513391D01*
X45394552Y37465772D01*
X45513600Y37703867D01*
X45751695Y37822915D01*
X46227885Y37822915D01*
X46465980Y37703867D01*
X46585028Y37465772D01*
X46585028Y37227677D01*
X45394552Y36989581D01*
X47418361Y37822915D02*
X48013599Y36156248D01*
X48608838Y37822915D01*
X49561219Y36394343D02*
X49680266Y36275296D01*
X49561219Y36156248D01*
X49442171Y36275296D01*
X49561219Y36394343D01*
X49561219Y36156248D01*
X52537409Y38418153D02*
X52656457Y38537200D01*
X52894552Y38656248D01*
X53489790Y38656248D01*
X53727885Y38537200D01*
X53846933Y38418153D01*
X53965980Y38180058D01*
X53965980Y37941962D01*
X53846933Y37584820D01*
X52418361Y36156248D01*
X53965980Y36156248D01*
X55037409Y36394343D02*
X55156457Y36275296D01*
X55037409Y36156248D01*
X54918361Y36275296D01*
X55037409Y36394343D01*
X55037409Y36156248D01*
X57537409Y36156248D02*
X56108838Y36156248D01*
X56823123Y36156248D02*
X56823123Y38656248D01*
X56585028Y38299105D01*
X56346933Y38061010D01*
X56108838Y37941962D01*
X58608838Y36394343D02*
X58727885Y36275296D01*
X58608838Y36156248D01*
X58489790Y36275296D01*
X58608838Y36394343D01*
X58608838Y36156248D01*
X61704076Y36156248D02*
X61704076Y38656248D01*
X62299314Y38656248D01*
X62656457Y38537200D01*
X62894552Y38299105D01*
X63013600Y38061010D01*
X63132647Y37584820D01*
X63132647Y37227677D01*
X63013600Y36751486D01*
X62894552Y36513391D01*
X62656457Y36275296D01*
X62299314Y36156248D01*
X61704076Y36156248D01*
X65156457Y36275296D02*
X64918361Y36156248D01*
X64442171Y36156248D01*
X64204076Y36275296D01*
X64085028Y36513391D01*
X64085028Y37465772D01*
X64204076Y37703867D01*
X64442171Y37822915D01*
X64918361Y37822915D01*
X65156457Y37703867D01*
X65275504Y37465772D01*
X65275504Y37227677D01*
X64085028Y36989581D01*
X66227885Y36275296D02*
X66465980Y36156248D01*
X66942171Y36156248D01*
X67180266Y36275296D01*
X67299314Y36513391D01*
X67299314Y36632439D01*
X67180266Y36870534D01*
X66942171Y36989581D01*
X66585028Y36989581D01*
X66346933Y37108629D01*
X66227885Y37346724D01*
X66227885Y37465772D01*
X66346933Y37703867D01*
X66585028Y37822915D01*
X66942171Y37822915D01*
X67180266Y37703867D01*
X68370742Y36156248D02*
X68370742Y37822915D01*
X68370742Y38656248D02*
X68251695Y38537200D01*
X68370742Y38418153D01*
X68489790Y38537200D01*
X68370742Y38656248D01*
X68370742Y38418153D01*
X70632647Y37822915D02*
X70632647Y35799105D01*
X70513600Y35561010D01*
X70394552Y35441962D01*
X70156457Y35322915D01*
X69799314Y35322915D01*
X69561219Y35441962D01*
X70632647Y36275296D02*
X70394552Y36156248D01*
X69918361Y36156248D01*
X69680266Y36275296D01*
X69561219Y36394343D01*
X69442171Y36632439D01*
X69442171Y37346724D01*
X69561219Y37584820D01*
X69680266Y37703867D01*
X69918361Y37822915D01*
X70394552Y37822915D01*
X70632647Y37703867D01*
X71823123Y37822915D02*
X71823123Y36156248D01*
X71823123Y37584820D02*
X71942171Y37703867D01*
X72180266Y37822915D01*
X72537409Y37822915D01*
X72775504Y37703867D01*
X72894552Y37465772D01*
X72894552Y36156248D01*
X75989790Y36156248D02*
X75989790Y38656248D01*
X75989790Y37703867D02*
X76227885Y37822915D01*
X76704076Y37822915D01*
X76942171Y37703867D01*
X77061219Y37584820D01*
X77180266Y37346724D01*
X77180266Y36632439D01*
X77061219Y36394343D01*
X76942171Y36275296D01*
X76704076Y36156248D01*
X76227885Y36156248D01*
X75989790Y36275296D01*
X78013600Y37822915D02*
X78608838Y36156248D01*
X79204076Y37822915D02*
X78608838Y36156248D01*
X78370742Y35561010D01*
X78251695Y35441962D01*
X78013600Y35322915D01*
X82061219Y37822915D02*
X82061219Y35680058D01*
X81942171Y35441962D01*
X81704076Y35322915D01*
X81585028Y35322915D01*
X82061219Y38656248D02*
X81942171Y38537200D01*
X82061219Y38418153D01*
X82180266Y38537200D01*
X82061219Y38656248D01*
X82061219Y38418153D01*
X83251695Y36156248D02*
X83251695Y37822915D01*
X83251695Y37584820D02*
X83370742Y37703867D01*
X83608838Y37822915D01*
X83965980Y37822915D01*
X84204076Y37703867D01*
X84323123Y37465772D01*
X84323123Y36156248D01*
X84323123Y37465772D02*
X84442171Y37703867D01*
X84680266Y37822915D01*
X85037409Y37822915D01*
X85275504Y37703867D01*
X85394552Y37465772D01*
X85394552Y36156248D01*
X87656457Y36156248D02*
X87656457Y38656248D01*
X87656457Y36275296D02*
X87418361Y36156248D01*
X86942171Y36156248D01*
X86704076Y36275296D01*
X86585028Y36394343D01*
X86465980Y36632439D01*
X86465980Y37346724D01*
X86585028Y37584820D01*
X86704076Y37703867D01*
X86942171Y37822915D01*
X87418361Y37822915D01*
X87656457Y37703867D01*
X89918361Y36156248D02*
X89918361Y37465772D01*
X89799314Y37703867D01*
X89561219Y37822915D01*
X89085028Y37822915D01*
X88846933Y37703867D01*
X89918361Y36275296D02*
X89680266Y36156248D01*
X89085028Y36156248D01*
X88846933Y36275296D01*
X88727885Y36513391D01*
X88727885Y36751486D01*
X88846933Y36989581D01*
X89085028Y37108629D01*
X89680266Y37108629D01*
X89918361Y37227677D01*
X91465980Y36156248D02*
X91227885Y36275296D01*
X91108838Y36513391D01*
X91108838Y38656248D01*
X92180266Y37822915D02*
X92775504Y36156248D01*
X93370742Y37822915D02*
X92775504Y36156248D01*
X92537409Y35561010D01*
X92418361Y35441962D01*
X92180266Y35322915D01*
D11*
X30285066Y56192820D02*
X29951733Y56669010D01*
X29713638Y56192820D02*
X29713638Y57192820D01*
X30094590Y57192820D01*
X30189828Y57145200D01*
X30237447Y57097581D01*
X30285066Y57002343D01*
X30285066Y56859486D01*
X30237447Y56764248D01*
X30189828Y56716629D01*
X30094590Y56669010D01*
X29713638Y56669010D01*
X30713638Y56716629D02*
X31046971Y56716629D01*
X31189828Y56192820D02*
X30713638Y56192820D01*
X30713638Y57192820D01*
X31189828Y57192820D01*
X31951733Y56716629D02*
X31618400Y56716629D01*
X31618400Y56192820D02*
X31618400Y57192820D01*
X32094590Y57192820D01*
X32618400Y57192820D02*
X32618400Y56954724D01*
X32380304Y57049962D02*
X32618400Y56954724D01*
X32856495Y57049962D01*
X32475542Y56764248D02*
X32618400Y56954724D01*
X32761257Y56764248D01*
X33380304Y57192820D02*
X33380304Y56954724D01*
X33142209Y57049962D02*
X33380304Y56954724D01*
X33618400Y57049962D01*
X33237447Y56764248D02*
X33380304Y56954724D01*
X33523161Y56764248D01*
M02*
