M48
;DRILL file {KiCad 5.0.2-bee76a0~70~ubuntu16.04.1} date Thu 30 May 2019 10:34:26 PM EDT
;FORMAT={-:-/ absolute / inch / decimal}
FMAT,2
INCH,TZ
T1C0.0256
T2C0.0689
T3C0.1200
T4C0.1570
%
G90
G05
T1
X8.2863Y2.8299
X8.5139Y2.8299
T2
X3.746Y1.1255
X4.146Y1.1255
X6.746Y1.1255
X7.146Y1.1255
X5.246Y1.1255
X5.646Y1.1255
X8.996Y0.3755
X9.396Y0.3755
X0.9335Y2.6255
X1.3335Y2.6255
X6.5585Y0.3755
X6.9585Y0.3755
X6.4647Y0.3755
X6.8647Y0.3755
X4.496Y1.1255
X4.896Y1.1255
X7.496Y1.1255
X7.896Y1.1255
X2.3397Y0.3755
X2.7397Y0.3755
X1.3085Y0.3755
X1.7085Y0.3755
X5.4335Y2.6255
X5.8335Y2.6255
X3.6522Y0.3755
X4.0522Y0.3755
X2.4335Y0.3755
X2.8335Y0.3755
X8.7148Y0.3755
X9.1147Y0.3755
X0.2772Y1.8755
X0.6773Y1.8755
X2.246Y1.1255
X2.646Y1.1255
X4.871Y1.8755
X5.271Y1.8755
X6.1835Y2.6255
X6.5835Y2.6255
X3.9335Y2.6255
X4.3335Y2.6255
X0.9335Y0.3755
X1.3335Y0.3755
X5.621Y1.8755
X6.021Y1.8755
X5.996Y1.1255
X6.396Y1.1255
X2.621Y1.8755
X3.021Y1.8755
X3.371Y1.8755
X3.771Y1.8755
X8.246Y1.1255
X8.646Y1.1255
X4.6835Y2.6255
X5.0835Y2.6255
X8.246Y0.3755
X8.646Y0.3755
X7.6835Y2.6255
X8.0835Y2.6255
X6.371Y1.8755
X6.771Y1.8755
X3.1835Y2.6255
X3.5835Y2.6255
X5.246Y0.3755
X5.646Y0.3755
X6.9335Y2.6255
X7.3335Y2.6255
X2.4335Y2.6255
X2.8335Y2.6255
X1.121Y1.8755
X1.521Y1.8755
X0.4647Y1.1255
X0.8648Y1.1255
X8.8085Y1.8755
X9.2085Y1.8755
X2.996Y1.1255
X3.396Y1.1255
X7.496Y0.3755
X7.896Y0.3755
X1.496Y1.1255
X1.896Y1.1255
X4.121Y1.8755
X4.521Y1.8755
X7.871Y1.8755
X8.271Y1.8755
X0.1835Y0.3755
X0.5835Y0.3755
X8.7148Y2.6255
X9.1147Y2.6255
X1.871Y1.8755
X2.271Y1.8755
X0.2772Y0.3755
X0.6773Y0.3755
X1.6835Y0.3755
X2.0835Y0.3755
X0.1835Y2.6255
X0.5835Y2.6255
X1.6835Y2.6255
X2.0835Y2.6255
X7.121Y1.8755
X7.521Y1.8755
X8.996Y1.1255
X9.396Y1.1255
T3
X3.3822Y0.1005
X4.3222Y0.1005
X4.976Y0.1005
X5.916Y0.1005
T4
X1.696Y1.1255
X4.321Y1.8755
X8.071Y1.8755
X0.3835Y0.3755
X8.9147Y2.6255
X2.071Y1.8755
X0.4773Y0.3755
X1.8835Y0.3755
X0.3835Y2.6255
X1.8835Y2.6255
X7.321Y1.8755
X9.196Y1.1255
X3.946Y1.1255
X6.946Y1.1255
X5.446Y1.1255
X9.196Y0.3755
X1.1335Y2.6255
X6.7585Y0.3755
X6.6647Y0.3755
X4.696Y1.1255
X7.696Y1.1255
X2.5397Y0.3755
X1.5085Y0.3755
X5.6335Y2.6255
X3.3822Y0.7005
X3.8522Y0.3755
X4.3222Y0.7005
X2.6335Y0.3755
X8.9147Y0.3755
X0.4773Y1.8755
X2.446Y1.1255
X5.071Y1.8755
X6.3835Y2.6255
X4.1335Y2.6255
X1.1335Y0.3755
X5.821Y1.8755
X6.196Y1.1255
X2.821Y1.8755
X3.571Y1.8755
X8.446Y1.1255
X4.8835Y2.6255
X8.446Y0.3755
X7.8835Y2.6255
X6.571Y1.8755
X3.3835Y2.6255
X4.976Y0.7005
X5.446Y0.3755
X5.916Y0.7005
X7.1335Y2.6255
X2.6335Y2.6255
X1.321Y1.8755
X0.6647Y1.1255
X9.0085Y1.8755
X3.196Y1.1255
X7.696Y0.3755
T0
M30
