G04 #@! TF.GenerationSoftware,KiCad,Pcbnew,5.0.2-bee76a0~70~ubuntu16.04.1*
G04 #@! TF.CreationDate,2019-05-09T21:54:23-04:00*
G04 #@! TF.ProjectId,steamvan,73746561-6d76-4616-9e2e-6b696361645f,rev?*
G04 #@! TF.SameCoordinates,PX43ec160PY7dabae0*
G04 #@! TF.FileFunction,Legend,Top*
G04 #@! TF.FilePolarity,Positive*
%FSLAX46Y46*%
G04 Gerber Fmt 4.6, Leading zero omitted, Abs format (unit mm)*
G04 Created by KiCad (PCBNEW 5.0.2-bee76a0~70~ubuntu16.04.1) date Thu 09 May 2019 09:54:23 PM EDT*
%MOMM*%
%LPD*%
G01*
G04 APERTURE LIST*
%ADD10C,0.150000*%
G04 APERTURE END LIST*
G04 #@! TO.C,REF\002A\002A*
D10*
X30285066Y56192820D02*
X29951733Y56669010D01*
X29713638Y56192820D02*
X29713638Y57192820D01*
X30094590Y57192820D01*
X30189828Y57145200D01*
X30237447Y57097581D01*
X30285066Y57002343D01*
X30285066Y56859486D01*
X30237447Y56764248D01*
X30189828Y56716629D01*
X30094590Y56669010D01*
X29713638Y56669010D01*
X30713638Y56716629D02*
X31046971Y56716629D01*
X31189828Y56192820D02*
X30713638Y56192820D01*
X30713638Y57192820D01*
X31189828Y57192820D01*
X31951733Y56716629D02*
X31618400Y56716629D01*
X31618400Y56192820D02*
X31618400Y57192820D01*
X32094590Y57192820D01*
X32618400Y57192820D02*
X32618400Y56954724D01*
X32380304Y57049962D02*
X32618400Y56954724D01*
X32856495Y57049962D01*
X32475542Y56764248D02*
X32618400Y56954724D01*
X32761257Y56764248D01*
X33380304Y57192820D02*
X33380304Y56954724D01*
X33142209Y57049962D02*
X33380304Y56954724D01*
X33618400Y57049962D01*
X33237447Y56764248D02*
X33380304Y56954724D01*
X33523161Y56764248D01*
G04 #@! TD*
M02*
