M48
;DRILL file {KiCad 5.0.2-bee76a0~70~ubuntu16.04.1} date Wed 15 May 2019 09:18:59 PM EDT
;FORMAT={-:-/ absolute / inch / decimal}
FMAT,2
INCH,TZ
T1C0.0157
T2C0.0236
T3C0.0394
T4C0.0409
T5C0.0579
T6C0.0787
%
G90
G05
T1
X0.226Y0.258
X0.3498Y1.6
X0.751Y0.733
X0.856Y2.088
X0.896Y1.893
X0.901Y0.598
X0.911Y0.188
X0.916Y0.668
X0.996Y1.688
X1.026Y0.833
X1.121Y0.573
X1.131Y2.303
X1.211Y0.698
X1.246Y0.315
X1.252Y1.558
X1.319Y2.452
X1.331Y0.938
X1.511Y1.703
X1.646Y2.433
X1.681Y0.173
X1.731Y0.603
X1.801Y1.673
X1.894Y0.953
X2.024Y1.552
X2.111Y0.938
X2.181Y0.328
X2.265Y1.698
X2.276Y0.168
X2.391Y0.603
X2.566Y1.678
X2.619Y0.959
X2.772Y1.534
X2.801Y2.208
X2.801Y0.138
X2.821Y0.743
X2.841Y0.958
X3.001Y0.798
X3.017Y1.706
X3.096Y0.573
X3.096Y0.163
X3.246Y0.398
X3.296Y1.683
X3.336Y0.808
X3.38Y0.952
X3.391Y0.528
X3.554Y1.516
X3.558Y2.423
X3.691Y0.923
X3.692Y0.306
X3.768Y1.704
X3.856Y2.428
X3.878Y2.568
X3.921Y0.808
X3.962Y1.774
X4.016Y0.203
X4.026Y1.844
X4.066Y0.948
X4.084Y0.806
X4.086Y1.673
X4.141Y1.028
X4.161Y0.098
X4.206Y0.551
X4.211Y1.048
X4.211Y0.483
X4.211Y0.358
X4.247Y1.087
X4.261Y0.248
X4.271Y0.488
X4.284Y0.4115
X4.296Y0.966
X4.301Y1.183
X4.351Y0.568
X4.403Y0.169
X4.4095Y0.36
X4.421Y0.483
X4.4285Y0.6415
X4.476Y2.198
X4.496Y1.008
X4.516Y2.088
X4.601Y0.423
X4.611Y0.843
X4.638Y0.521
X4.7033Y0.8079
X4.7238Y0.7741
X4.746Y0.5925
X4.751Y0.473
X4.816Y0.3167
X4.8515Y0.677
X4.901Y0.3167
X4.918Y0.4563
X4.9546Y0.4414
X5.037Y1.3737
X5.056Y1.303
X5.082Y2.451
X5.112Y0.741
X5.164Y1.301
X5.175Y0.432
X5.1873Y0.838
X5.192Y0.188
X5.194Y1.27
X5.201Y0.553
X5.258Y0.878
X5.261Y0.968
X5.276Y0.273
X5.296Y0.208
X5.366Y2.418
X5.42Y0.632
X5.4659Y0.7848
X5.5002Y0.7653
X5.511Y1.693
X5.5236Y0.7334
X5.562Y0.722
X5.588Y0.69
X5.605Y0.963
X5.691Y1.463
X5.7297Y1.3486
X5.766Y1.333
X5.791Y1.293
X5.791Y0.173
X5.828Y2.455
X5.831Y1.288
X5.891Y0.268
X5.896Y0.408
X5.966Y0.933
X5.976Y2.183
X6.014Y1.706
X6.021Y2.058
X6.091Y0.298
X6.156Y2.423
X6.196Y0.623
X6.221Y0.148
X6.306Y1.683
X6.381Y0.958
X6.486Y1.443
X6.551Y2.454
X6.751Y0.908
X6.756Y1.703
X6.841Y2.433
X6.946Y0.498
X6.971Y0.153
X7.031Y1.683
X7.134Y0.958
X7.246Y1.468
X7.311Y0.148
X7.323Y2.467
X7.406Y2.208
X7.426Y0.903
X7.49Y1.706
X7.521Y2.073
X7.5275Y2.429
X7.571Y1.712
X7.666Y2.428
X7.786Y1.5493
X7.811Y1.813
X7.8475Y0.9635
X7.856Y1.683
X7.886Y1.408
X7.911Y0.8028
X7.9425Y0.202
X7.981Y1.478
X7.991Y1.428
X8.0177Y1.9967
X8.036Y1.343
X8.151Y2.533
X8.156Y2.423
X8.166Y0.178
X8.1871Y2.4789
X8.188Y2.88
X8.206Y0.933
X8.262Y1.71
X8.339Y0.739
X8.346Y0.588
X8.35Y2.868
X8.3604Y1.596
X8.3607Y2.6693
X8.368Y2.063
X8.368Y1.785
X8.386Y2.438
X8.389Y1.5672
X8.4054Y2.1376
X8.426Y1.473
X8.456Y2.103
X8.468Y2.874
X8.5364Y2.6693
X8.581Y0.7977
X8.591Y2.313
X8.618Y2.874
X8.642Y0.95
X8.707Y2.257
X8.721Y2.533
X8.7297Y2.479
X8.731Y1.477
X8.746Y2.433
X8.751Y1.413
X8.753Y0.187
X8.786Y0.308
X8.801Y1.618
X8.884Y0.536
X8.916Y2.138
X8.951Y0.928
X9.166Y0.518
X9.197Y1.702
X9.291Y2.463
X9.336Y0.8
X9.346Y0.656
X9.356Y1.763
X9.362Y0.478
X9.373Y0.95
X9.386Y1.403
X9.4205Y0.837
X9.494Y0.769
T3
X9.436Y2.593
X9.436Y2.493
X9.436Y2.393
X9.436Y2.293
X9.436Y2.193
T4
X2.4897Y0.1755
X2.5897Y0.1755
X8.021Y1.6755
X8.121Y1.6755
X0.4272Y1.6755
X0.5272Y1.6755
X7.646Y0.9255
X7.746Y0.9255
X8.9585Y1.6755
X9.0585Y1.6755
X5.396Y0.1755
X5.496Y0.1755
X9.146Y0.1755
X9.246Y0.1755
X3.146Y0.9255
X3.246Y0.9255
X0.4272Y0.1755
X0.5272Y0.1755
X7.646Y0.1755
X7.746Y0.1755
X3.3335Y2.4255
X3.4335Y2.4255
X8.396Y0.1755
X8.496Y0.1755
X1.4585Y0.1755
X1.5585Y0.1755
X5.396Y0.9255
X5.496Y0.9255
X0.3335Y0.1755
X0.4335Y0.1755
X6.6147Y0.1755
X6.7147Y0.1755
X4.271Y1.6755
X4.371Y1.6755
X3.896Y0.9255
X3.996Y0.9255
X9.146Y0.9255
X9.246Y0.9255
X2.396Y0.9255
X2.496Y0.9255
X5.771Y1.6755
X5.871Y1.6755
X0.3335Y2.4255
X0.4335Y2.4255
X8.396Y0.9255
X8.496Y0.9255
X3.521Y1.6755
X3.621Y1.6755
X2.771Y1.6755
X2.871Y1.6755
X7.0835Y2.4255
X7.1835Y2.4255
X6.521Y1.6755
X6.621Y1.6755
X2.021Y1.6755
X2.121Y1.6755
X7.271Y1.6755
X7.371Y1.6755
X7.8335Y2.4255
X7.9335Y2.4255
X6.146Y0.9255
X6.246Y0.9255
X5.5835Y2.4255
X5.6835Y2.4255
X6.7085Y0.1755
X6.8085Y0.1755
X3.8022Y0.1755
X3.9022Y0.1755
X6.3335Y2.4255
X6.4335Y2.4255
X8.8647Y0.1755
X8.9648Y0.1755
X4.8335Y2.4255
X4.9335Y2.4255
X2.5835Y0.1755
X2.6835Y0.1755
X5.021Y1.6755
X5.121Y1.6755
X1.8335Y2.4255
X1.9335Y2.4255
X4.0835Y2.4255
X4.1835Y2.4255
X2.5835Y2.4255
X2.6835Y2.4255
X1.8335Y0.1755
X1.9335Y0.1755
X8.8647Y2.4255
X8.9648Y2.4255
X1.271Y1.6755
X1.371Y1.6755
X6.896Y0.9255
X6.996Y0.9255
X0.6148Y0.9255
X0.7147Y0.9255
X1.0835Y0.1755
X1.1835Y0.1755
X4.646Y0.9255
X4.746Y0.9255
X1.646Y0.9255
X1.746Y0.9255
X1.0835Y2.4255
X1.1835Y2.4255
T5
X4.171Y1.9755
X4.421Y2.0755
X3.796Y1.2255
X4.046Y1.3255
X9.046Y1.2255
X9.296Y1.3255
X2.296Y1.2255
X2.546Y1.3255
X5.671Y1.9755
X5.921Y2.0755
X0.2335Y2.7255
X0.4835Y2.8255
X8.296Y1.2255
X8.546Y1.3255
X3.421Y1.9755
X3.671Y2.0755
X2.671Y1.9755
X2.921Y2.0755
X6.9835Y2.7255
X7.2335Y2.8255
X6.421Y1.9755
X6.671Y2.0755
X1.921Y1.9755
X2.171Y2.0755
X7.171Y1.9755
X7.421Y2.0755
X7.7335Y2.7255
X7.9835Y2.8255
X6.046Y1.2255
X6.296Y1.3255
X5.4835Y2.7255
X5.7335Y2.8255
X6.6085Y0.4755
X6.8585Y0.5755
X3.7022Y0.4755
X3.9522Y0.5755
X6.2335Y2.7255
X6.4835Y2.8255
X8.7647Y0.4755
X9.0147Y0.5755
X4.7335Y2.7255
X4.9835Y2.8255
X2.4835Y0.4755
X2.7335Y0.5755
X4.921Y1.9755
X5.171Y2.0755
X1.7335Y2.7255
X1.9835Y2.8255
X3.9835Y2.7255
X4.2335Y2.8255
X2.4835Y2.7255
X2.7335Y2.8255
X1.7335Y0.4755
X1.9835Y0.5755
X8.7647Y2.7255
X9.0147Y2.8255
X1.171Y1.9755
X1.421Y2.0755
X6.796Y1.2255
X7.046Y1.3255
X0.5148Y1.2255
X0.7647Y1.3255
X0.9835Y0.4755
X1.2335Y0.5755
X4.546Y1.2255
X4.796Y1.3255
X1.546Y1.2255
X1.796Y1.3255
X0.9835Y2.7255
X1.2335Y2.8255
X2.3897Y0.4755
X2.6397Y0.5755
X7.921Y1.9755
X8.171Y2.0755
X0.3272Y1.9755
X0.5773Y2.0755
X7.546Y1.2255
X7.796Y1.3255
X8.8585Y1.9755
X9.1085Y2.0755
X5.296Y0.4755
X5.546Y0.5755
X9.046Y0.4755
X9.296Y0.5755
X3.046Y1.2255
X3.296Y1.3255
X0.3272Y0.4755
X0.5773Y0.5755
X7.546Y0.4755
X7.796Y0.5755
X3.2335Y2.7255
X3.4835Y2.8255
X8.296Y0.4755
X8.546Y0.5755
X1.3585Y0.4755
X1.6085Y0.5755
X5.296Y1.2255
X5.546Y1.3255
X0.2335Y0.4755
X0.4835Y0.5755
X6.5148Y0.4755
X6.7648Y0.5755
T6
X1.1838Y0.8817
X1.2448Y2.2498
X3.0303Y0.427
X4.2448Y2.2498
X5.4451Y1.4978
X7.1872Y0.4191
X8.3014Y2.3404
T2
X8.23Y2.9854G85X8.23Y2.9618
G05
X8.23Y2.8307G85X8.23Y2.7874
G05
X8.5702Y2.9854G85X8.5702Y2.9618
G05
X8.5702Y2.8307G85X8.5702Y2.7874
G05
T0
M30
