G04 #@! TF.GenerationSoftware,KiCad,Pcbnew,5.0.2-bee76a0~70~ubuntu16.04.1*
G04 #@! TF.CreationDate,2019-06-19T22:33:45-04:00*
G04 #@! TF.ProjectId,steamvan,73746561-6d76-4616-9e2e-6b696361645f,rev?*
G04 #@! TF.SameCoordinates,PX43ec160PY7dabae0*
G04 #@! TF.FileFunction,Legend,Bot*
G04 #@! TF.FilePolarity,Positive*
%FSLAX46Y46*%
G04 Gerber Fmt 4.6, Leading zero omitted, Abs format (unit mm)*
G04 Created by KiCad (PCBNEW 5.0.2-bee76a0~70~ubuntu16.04.1) date Wed 19 Jun 2019 10:33:45 PM EDT*
%MOMM*%
%LPD*%
G01*
G04 APERTURE LIST*
%ADD10C,0.125000*%
%ADD11C,0.120000*%
%ADD12C,0.100000*%
%ADD13C,0.150000*%
G04 APERTURE END LIST*
D10*
X237678647Y55424439D02*
X237535790Y55376820D01*
X237297695Y55376820D01*
X237202457Y55424439D01*
X237154838Y55472058D01*
X237107219Y55567296D01*
X237107219Y55662534D01*
X237154838Y55757772D01*
X237202457Y55805391D01*
X237297695Y55853010D01*
X237488171Y55900629D01*
X237583409Y55948248D01*
X237631028Y55995867D01*
X237678647Y56091105D01*
X237678647Y56186343D01*
X237631028Y56281581D01*
X237583409Y56329200D01*
X237488171Y56376820D01*
X237250076Y56376820D01*
X237107219Y56329200D01*
X236773885Y56376820D02*
X236535790Y55376820D01*
X236345314Y56091105D01*
X236154838Y55376820D01*
X235916742Y56376820D01*
X235535790Y55376820D02*
X235535790Y56376820D01*
X235297695Y56376820D01*
X235154838Y56329200D01*
X235059600Y56233962D01*
X235011980Y56138724D01*
X234964361Y55948248D01*
X234964361Y55805391D01*
X235011980Y55614915D01*
X235059600Y55519677D01*
X235154838Y55424439D01*
X235297695Y55376820D01*
X235535790Y55376820D01*
X234535790Y55376820D02*
X234535790Y56376820D01*
X233869123Y56376820D02*
X233678647Y56376820D01*
X233583409Y56329200D01*
X233488171Y56233962D01*
X233440552Y56043486D01*
X233440552Y55710153D01*
X233488171Y55519677D01*
X233583409Y55424439D01*
X233678647Y55376820D01*
X233869123Y55376820D01*
X233964361Y55424439D01*
X234059600Y55519677D01*
X234107219Y55710153D01*
X234107219Y56043486D01*
X234059600Y56233962D01*
X233964361Y56329200D01*
X233869123Y56376820D01*
X237185104Y58462800D02*
X237280342Y58510420D01*
X237423200Y58510420D01*
X237566057Y58462800D01*
X237661295Y58367562D01*
X237708914Y58272324D01*
X237756533Y58081848D01*
X237756533Y57938991D01*
X237708914Y57748515D01*
X237661295Y57653277D01*
X237566057Y57558039D01*
X237423200Y57510420D01*
X237327961Y57510420D01*
X237185104Y57558039D01*
X237137485Y57605658D01*
X237137485Y57938991D01*
X237327961Y57938991D01*
X236708914Y57510420D02*
X236708914Y58510420D01*
X236137485Y57510420D01*
X236137485Y58510420D01*
X235661295Y57510420D02*
X235661295Y58510420D01*
X235423200Y58510420D01*
X235280342Y58462800D01*
X235185104Y58367562D01*
X235137485Y58272324D01*
X235089866Y58081848D01*
X235089866Y57938991D01*
X235137485Y57748515D01*
X235185104Y57653277D01*
X235280342Y57558039D01*
X235423200Y57510420D01*
X235661295Y57510420D01*
X237821504Y59285239D02*
X237678647Y59237620D01*
X237440552Y59237620D01*
X237345314Y59285239D01*
X237297695Y59332858D01*
X237250076Y59428096D01*
X237250076Y59523334D01*
X237297695Y59618572D01*
X237345314Y59666191D01*
X237440552Y59713810D01*
X237631028Y59761429D01*
X237726266Y59809048D01*
X237773885Y59856667D01*
X237821504Y59951905D01*
X237821504Y60047143D01*
X237773885Y60142381D01*
X237726266Y60190000D01*
X237631028Y60237620D01*
X237392933Y60237620D01*
X237250076Y60190000D01*
X236916742Y60237620D02*
X236678647Y59237620D01*
X236488171Y59951905D01*
X236297695Y59237620D01*
X236059600Y60237620D01*
X235107219Y59332858D02*
X235154838Y59285239D01*
X235297695Y59237620D01*
X235392933Y59237620D01*
X235535790Y59285239D01*
X235631028Y59380477D01*
X235678647Y59475715D01*
X235726266Y59666191D01*
X235726266Y59809048D01*
X235678647Y59999524D01*
X235631028Y60094762D01*
X235535790Y60190000D01*
X235392933Y60237620D01*
X235297695Y60237620D01*
X235154838Y60190000D01*
X235107219Y60142381D01*
X234202457Y59237620D02*
X234678647Y59237620D01*
X234678647Y60237620D01*
X233869123Y59237620D02*
X233869123Y60237620D01*
X233297695Y59237620D02*
X233726266Y59809048D01*
X233297695Y60237620D02*
X233869123Y59666191D01*
X237862857Y63555620D02*
X237862857Y64555620D01*
X237291428Y63555620D01*
X237291428Y64555620D01*
X236243809Y63555620D02*
X236577142Y64031810D01*
X236815238Y63555620D02*
X236815238Y64555620D01*
X236434285Y64555620D01*
X236339047Y64508000D01*
X236291428Y64460381D01*
X236243809Y64365143D01*
X236243809Y64222286D01*
X236291428Y64127048D01*
X236339047Y64079429D01*
X236434285Y64031810D01*
X236815238Y64031810D01*
X235862857Y63603239D02*
X235720000Y63555620D01*
X235481904Y63555620D01*
X235386666Y63603239D01*
X235339047Y63650858D01*
X235291428Y63746096D01*
X235291428Y63841334D01*
X235339047Y63936572D01*
X235386666Y63984191D01*
X235481904Y64031810D01*
X235672380Y64079429D01*
X235767619Y64127048D01*
X235815238Y64174667D01*
X235862857Y64269905D01*
X235862857Y64365143D01*
X235815238Y64460381D01*
X235767619Y64508000D01*
X235672380Y64555620D01*
X235434285Y64555620D01*
X235291428Y64508000D01*
X235005714Y64555620D02*
X234434285Y64555620D01*
X234720000Y63555620D02*
X234720000Y64555620D01*
X241014095Y68568820D02*
X240395047Y68568820D01*
X240728380Y68187867D01*
X240585523Y68187867D01*
X240490285Y68140248D01*
X240442666Y68092629D01*
X240395047Y67997391D01*
X240395047Y67759296D01*
X240442666Y67664058D01*
X240490285Y67616439D01*
X240585523Y67568820D01*
X240871238Y67568820D01*
X240966476Y67616439D01*
X241014095Y67664058D01*
X240109333Y68568820D02*
X239776000Y67568820D01*
X239442666Y68568820D01*
X239204571Y68568820D02*
X238585523Y68568820D01*
X238918857Y68187867D01*
X238776000Y68187867D01*
X238680761Y68140248D01*
X238633142Y68092629D01*
X238585523Y67997391D01*
X238585523Y67759296D01*
X238633142Y67664058D01*
X238680761Y67616439D01*
X238776000Y67568820D01*
X239061714Y67568820D01*
X239156952Y67616439D01*
X239204571Y67664058D01*
D11*
G04 #@! TO.C,C1*
X113268400Y3794979D02*
X113268400Y3469421D01*
X114288400Y3794979D02*
X114288400Y3469421D01*
G04 #@! TO.C,C2*
X122832400Y4612421D02*
X122832400Y4937979D01*
X123852400Y4612421D02*
X123852400Y4937979D01*
G04 #@! TO.C,C3*
X126499080Y8137941D02*
X126499080Y8463499D01*
X125479080Y8137941D02*
X125479080Y8463499D01*
G04 #@! TO.C,C4*
X122616179Y18489200D02*
X122290621Y18489200D01*
X122616179Y19509200D02*
X122290621Y19509200D01*
G04 #@! TO.C,C5*
X122616179Y21287200D02*
X122290621Y21287200D01*
X122616179Y20267200D02*
X122290621Y20267200D01*
G04 #@! TO.C,C6*
X110132400Y7249479D02*
X110132400Y6923921D01*
X111152400Y7249479D02*
X111152400Y6923921D01*
G04 #@! TO.C,C7*
X113184400Y7223979D02*
X113184400Y6898421D01*
X112164400Y7223979D02*
X112164400Y6898421D01*
G04 #@! TO.C,C8*
X112422400Y14526479D02*
X112422400Y14200921D01*
X111402400Y14526479D02*
X111402400Y14200921D01*
G04 #@! TO.C,C9*
X127627920Y6213059D02*
X127627920Y5887501D01*
X128647920Y6213059D02*
X128647920Y5887501D01*
G04 #@! TO.C,C10*
X221591600Y52059621D02*
X221591600Y52385179D01*
X220571600Y52059621D02*
X220571600Y52385179D01*
G04 #@! TO.C,C11*
X217108821Y57152000D02*
X217434379Y57152000D01*
X217108821Y56132000D02*
X217434379Y56132000D01*
G04 #@! TO.C,F1*
X208634400Y66619622D02*
X208634400Y67136778D01*
X207214400Y66619622D02*
X207214400Y67136778D01*
G04 #@! TO.C,J1*
X238344400Y67192200D02*
X241004400Y67192200D01*
X238344400Y56972200D02*
X238344400Y67192200D01*
X241004400Y56972200D02*
X241004400Y67192200D01*
X238344400Y56972200D02*
X241004400Y56972200D01*
X238344400Y55702200D02*
X238344400Y54372200D01*
X238344400Y54372200D02*
X239674400Y54372200D01*
D12*
G04 #@! TO.C,Q1*
X216434400Y48587400D02*
X216434400Y48862400D01*
X216434400Y48862400D02*
X216709400Y49237400D01*
X216709400Y49237400D02*
X216759400Y49237400D01*
X216759400Y49237400D02*
X216759400Y50012400D01*
X219734400Y48762400D02*
X219734400Y49237400D01*
X219734400Y49237400D02*
X219384400Y49237400D01*
X219509400Y47587400D02*
X219384400Y47587400D01*
X219434400Y47587400D02*
X219734400Y47587400D01*
X219734400Y47587400D02*
X219734400Y48037400D01*
X216434400Y47962400D02*
X216434400Y47587400D01*
X216434400Y47587400D02*
X216734400Y47587400D01*
D11*
G04 #@! TO.C,R1*
X17168400Y61762421D02*
X17168400Y62087979D01*
X18188400Y61762421D02*
X18188400Y62087979D01*
G04 #@! TO.C,R2*
X36218400Y61762421D02*
X36218400Y62087979D01*
X37238400Y61762421D02*
X37238400Y62087979D01*
G04 #@! TO.C,R3*
X56288400Y61762421D02*
X56288400Y62087979D01*
X55268400Y61762421D02*
X55268400Y62087979D01*
G04 #@! TO.C,R4*
X74318400Y61762421D02*
X74318400Y62087979D01*
X75338400Y61762421D02*
X75338400Y62087979D01*
G04 #@! TO.C,R5*
X94388400Y61762421D02*
X94388400Y62087979D01*
X93368400Y61762421D02*
X93368400Y62087979D01*
G04 #@! TO.C,R6*
X112418400Y61762421D02*
X112418400Y62087979D01*
X113438400Y61762421D02*
X113438400Y62087979D01*
G04 #@! TO.C,R7*
X132488400Y61762421D02*
X132488400Y62087979D01*
X131468400Y61762421D02*
X131468400Y62087979D01*
G04 #@! TO.C,R8*
X150518400Y61762421D02*
X150518400Y62087979D01*
X151538400Y61762421D02*
X151538400Y62087979D01*
G04 #@! TO.C,R9*
X170588400Y61762421D02*
X170588400Y62087979D01*
X169568400Y61762421D02*
X169568400Y62087979D01*
G04 #@! TO.C,R10*
X188618400Y61762421D02*
X188618400Y62087979D01*
X189638400Y61762421D02*
X189638400Y62087979D01*
G04 #@! TO.C,R11*
X205894400Y63286421D02*
X205894400Y63611979D01*
X204874400Y63286421D02*
X204874400Y63611979D01*
G04 #@! TO.C,R12*
X233862150Y61762421D02*
X233862150Y62087979D01*
X234882150Y61762421D02*
X234882150Y62087979D01*
G04 #@! TO.C,R13*
X20525200Y41594821D02*
X20525200Y41920379D01*
X19505200Y41594821D02*
X19505200Y41920379D01*
G04 #@! TO.C,R14*
X40980900Y42712421D02*
X40980900Y43037979D01*
X42000900Y42712421D02*
X42000900Y43037979D01*
G04 #@! TO.C,R15*
X60962000Y41645621D02*
X60962000Y41971179D01*
X59942000Y41645621D02*
X59942000Y41971179D01*
G04 #@! TO.C,R16*
X79080900Y42712421D02*
X79080900Y43037979D01*
X80100900Y42712421D02*
X80100900Y43037979D01*
G04 #@! TO.C,R17*
X99150900Y42712421D02*
X99150900Y43037979D01*
X98130900Y42712421D02*
X98130900Y43037979D01*
G04 #@! TO.C,R18*
X118366000Y41188421D02*
X118366000Y41513979D01*
X117346000Y41188421D02*
X117346000Y41513979D01*
G04 #@! TO.C,R19*
X133754400Y42686921D02*
X133754400Y43012479D01*
X134774400Y42686921D02*
X134774400Y43012479D01*
G04 #@! TO.C,R20*
X153214800Y42763221D02*
X153214800Y43088779D01*
X152194800Y42763221D02*
X152194800Y43088779D01*
G04 #@! TO.C,R21*
X174330900Y42712421D02*
X174330900Y43037979D01*
X175350900Y42712421D02*
X175350900Y43037979D01*
G04 #@! TO.C,R22*
X191467200Y42814021D02*
X191467200Y43139579D01*
X190447200Y42814021D02*
X190447200Y43139579D01*
G04 #@! TO.C,R23*
X212430900Y42712421D02*
X212430900Y43037979D01*
X213450900Y42712421D02*
X213450900Y43037979D01*
G04 #@! TO.C,R24*
X237263400Y42712421D02*
X237263400Y43037979D01*
X236243400Y42712421D02*
X236243400Y43037979D01*
G04 #@! TO.C,R25*
X24312150Y23662421D02*
X24312150Y23987979D01*
X25332150Y23662421D02*
X25332150Y23987979D01*
G04 #@! TO.C,R26*
X51525900Y23662421D02*
X51525900Y23987979D01*
X50505900Y23662421D02*
X50505900Y23987979D01*
G04 #@! TO.C,R27*
X69555900Y23662421D02*
X69555900Y23987979D01*
X70575900Y23662421D02*
X70575900Y23987979D01*
G04 #@! TO.C,R28*
X89625900Y23662421D02*
X89625900Y23987979D01*
X88605900Y23662421D02*
X88605900Y23987979D01*
G04 #@! TO.C,R29*
X105564400Y23662421D02*
X105564400Y23987979D01*
X104544400Y23662421D02*
X104544400Y23987979D01*
G04 #@! TO.C,R30*
X127725900Y23662421D02*
X127725900Y23987979D01*
X126705900Y23662421D02*
X126705900Y23987979D01*
G04 #@! TO.C,R31*
X145755900Y23662421D02*
X145755900Y23987979D01*
X146775900Y23662421D02*
X146775900Y23987979D01*
G04 #@! TO.C,R32*
X165825900Y23662421D02*
X165825900Y23987979D01*
X164805900Y23662421D02*
X164805900Y23987979D01*
G04 #@! TO.C,R33*
X183855900Y23662421D02*
X183855900Y23987979D01*
X184875900Y23662421D02*
X184875900Y23987979D01*
G04 #@! TO.C,R34*
X203925900Y23662421D02*
X203925900Y23987979D01*
X202905900Y23662421D02*
X202905900Y23987979D01*
G04 #@! TO.C,R35*
X221955900Y23662421D02*
X221955900Y23987979D01*
X222975900Y23662421D02*
X222975900Y23987979D01*
G04 #@! TO.C,R36*
X240032000Y23916421D02*
X240032000Y24241979D01*
X239012000Y23916421D02*
X239012000Y24241979D01*
G04 #@! TO.C,R37*
X17962150Y4612421D02*
X17962150Y4937979D01*
X18982150Y4612421D02*
X18982150Y4937979D01*
G04 #@! TO.C,R38*
X33043400Y4612421D02*
X33043400Y4937979D01*
X34063400Y4612421D02*
X34063400Y4937979D01*
G04 #@! TO.C,R39*
X53113400Y4612421D02*
X53113400Y4937979D01*
X52093400Y4612421D02*
X52093400Y4937979D01*
G04 #@! TO.C,R40*
X73750900Y4612421D02*
X73750900Y4937979D01*
X72730900Y4612421D02*
X72730900Y4937979D01*
G04 #@! TO.C,R41*
X103687150Y4612421D02*
X103687150Y4937979D01*
X104707150Y4612421D02*
X104707150Y4937979D01*
G04 #@! TO.C,R42*
X145188400Y4612421D02*
X145188400Y4937979D01*
X144168400Y4612421D02*
X144168400Y4937979D01*
G04 #@! TO.C,R43*
X177188400Y4307621D02*
X177188400Y4633179D01*
X178208400Y4307621D02*
X178208400Y4633179D01*
G04 #@! TO.C,R44*
X202905900Y4612421D02*
X202905900Y4937979D01*
X203925900Y4612421D02*
X203925900Y4937979D01*
G04 #@! TO.C,R45*
X220594650Y4612421D02*
X220594650Y4937979D01*
X219574650Y4612421D02*
X219574650Y4937979D01*
G04 #@! TO.C,RC1*
X205132400Y52842479D02*
X205132400Y52516921D01*
X204112400Y52842479D02*
X204112400Y52516921D01*
G04 #@! TO.C,RC6*
X206808800Y73416379D02*
X206808800Y73090821D01*
X205788800Y73416379D02*
X205788800Y73090821D01*
G04 #@! TO.C,RC7*
X220063600Y73416379D02*
X220063600Y73090821D01*
X221083600Y73416379D02*
X221083600Y73090821D01*
G04 #@! TO.C,RC8*
X127785400Y10906979D02*
X127785400Y10581421D01*
X128805400Y10906979D02*
X128805400Y10581421D01*
G04 #@! TO.C,SW1*
X4304000Y23954000D02*
X3854000Y24404000D01*
X4304000Y27354000D02*
X3854000Y26904000D01*
X8904000Y27354000D02*
X9354000Y26904000D01*
X8904000Y23954000D02*
X9354000Y24404000D01*
X7604000Y28404000D02*
X5604000Y28404000D01*
X3854000Y24404000D02*
X3854000Y26904000D01*
X7604000Y22904000D02*
X5604000Y22904000D01*
X9354000Y24404000D02*
X9354000Y26904000D01*
G04 #@! TO.C,U1*
X122044650Y16272700D02*
X121624650Y16272700D01*
X114924650Y16272700D02*
X115344650Y16272700D01*
X114924650Y9152700D02*
X115344650Y9152700D01*
X122044650Y9152700D02*
X122044650Y9572700D01*
X114924650Y16272700D02*
X114924650Y15852700D01*
X122044650Y16272700D02*
X122044650Y15852700D01*
X121624650Y9152700D02*
X121624650Y7772700D01*
X122044650Y9152700D02*
X121624650Y9152700D01*
X114924650Y9152700D02*
X114924650Y9572700D01*
G04 #@! TO.C,U2*
X218628800Y51933200D02*
X216828800Y51933200D01*
X216828800Y55153200D02*
X219278800Y55153200D01*
D12*
G04 #@! TO.C,U3*
X215753400Y64800200D02*
X215453400Y64475200D01*
X215453400Y64475200D02*
X215453400Y64075200D01*
X215453400Y66075200D02*
X215753400Y66075200D01*
X215753400Y66075200D02*
X215753400Y65775200D01*
X213578400Y64475200D02*
X213303400Y64475200D01*
X213303400Y64475200D02*
X213303400Y64725200D01*
X213603400Y66075200D02*
X213303400Y66075200D01*
X213303400Y66075200D02*
X213303400Y65850200D01*
D11*
G04 #@! TO.C,Y1*
X115866400Y2544200D02*
X115866400Y6244200D01*
X115866400Y6244200D02*
X121166400Y6244200D01*
G04 #@! TO.C,D1*
X19472150Y65231450D02*
X17472150Y65231450D01*
X17472150Y65231450D02*
X17472150Y69131450D01*
X19472150Y65231450D02*
X19472150Y69131450D01*
G04 #@! TO.C,D2*
X38522150Y65231450D02*
X38522150Y69131450D01*
X36522150Y65231450D02*
X36522150Y69131450D01*
X38522150Y65231450D02*
X36522150Y65231450D01*
G04 #@! TO.C,D3*
X57572150Y65231450D02*
X55572150Y65231450D01*
X55572150Y65231450D02*
X55572150Y69131450D01*
X57572150Y65231450D02*
X57572150Y69131450D01*
G04 #@! TO.C,D4*
X76622150Y65231450D02*
X74622150Y65231450D01*
X74622150Y65231450D02*
X74622150Y69131450D01*
X76622150Y65231450D02*
X76622150Y69131450D01*
G04 #@! TO.C,D5*
X95672150Y65231450D02*
X95672150Y69131450D01*
X93672150Y65231450D02*
X93672150Y69131450D01*
X95672150Y65231450D02*
X93672150Y65231450D01*
G04 #@! TO.C,D6*
X114722150Y65231450D02*
X112722150Y65231450D01*
X112722150Y65231450D02*
X112722150Y69131450D01*
X114722150Y65231450D02*
X114722150Y69131450D01*
G04 #@! TO.C,D7*
X133772150Y65231450D02*
X133772150Y69131450D01*
X131772150Y65231450D02*
X131772150Y69131450D01*
X133772150Y65231450D02*
X131772150Y65231450D01*
G04 #@! TO.C,D8*
X152822150Y65231450D02*
X150822150Y65231450D01*
X150822150Y65231450D02*
X150822150Y69131450D01*
X152822150Y65231450D02*
X152822150Y69131450D01*
G04 #@! TO.C,D9*
X171872150Y65231450D02*
X171872150Y69131450D01*
X169872150Y65231450D02*
X169872150Y69131450D01*
X171872150Y65231450D02*
X169872150Y65231450D01*
G04 #@! TO.C,D10*
X190128400Y65231450D02*
X190128400Y69131450D01*
X188128400Y65231450D02*
X188128400Y69131450D01*
X190128400Y65231450D02*
X188128400Y65231450D01*
G04 #@! TO.C,D11*
X193430400Y65231180D02*
X191430400Y65231180D01*
X191430400Y65231180D02*
X191430400Y69131180D01*
X193430400Y65231180D02*
X193430400Y69131180D01*
G04 #@! TO.C,D12*
X236165900Y65231450D02*
X234165900Y65231450D01*
X234165900Y65231450D02*
X234165900Y69131450D01*
X236165900Y65231450D02*
X236165900Y69131450D01*
G04 #@! TO.C,D13*
X21675600Y43825600D02*
X21675600Y47725600D01*
X19675600Y43825600D02*
X19675600Y47725600D01*
X21675600Y43825600D02*
X19675600Y43825600D01*
G04 #@! TO.C,D14*
X43284650Y46181450D02*
X43284650Y50081450D01*
X41284650Y46181450D02*
X41284650Y50081450D01*
X43284650Y46181450D02*
X41284650Y46181450D01*
G04 #@! TO.C,D15*
X62569600Y43622400D02*
X60569600Y43622400D01*
X60569600Y43622400D02*
X60569600Y47522400D01*
X62569600Y43622400D02*
X62569600Y47522400D01*
G04 #@! TO.C,D16*
X81384650Y46181450D02*
X79384650Y46181450D01*
X79384650Y46181450D02*
X79384650Y50081450D01*
X81384650Y46181450D02*
X81384650Y50081450D01*
G04 #@! TO.C,D17*
X100434650Y46181450D02*
X100434650Y50081450D01*
X98434650Y46181450D02*
X98434650Y50081450D01*
X100434650Y46181450D02*
X98434650Y46181450D01*
G04 #@! TO.C,D18*
X119719600Y43520800D02*
X117719600Y43520800D01*
X117719600Y43520800D02*
X117719600Y47420800D01*
X119719600Y43520800D02*
X119719600Y47420800D01*
G04 #@! TO.C,D19*
X138534650Y46181450D02*
X138534650Y50081450D01*
X136534650Y46181450D02*
X136534650Y50081450D01*
X138534650Y46181450D02*
X136534650Y46181450D01*
G04 #@! TO.C,D20*
X157210000Y43622400D02*
X155210000Y43622400D01*
X155210000Y43622400D02*
X155210000Y47522400D01*
X157210000Y43622400D02*
X157210000Y47522400D01*
G04 #@! TO.C,D21*
X176634650Y46181450D02*
X176634650Y50081450D01*
X174634650Y46181450D02*
X174634650Y50081450D01*
X176634650Y46181450D02*
X174634650Y46181450D01*
G04 #@! TO.C,D22*
X195360800Y43520800D02*
X195360800Y47420800D01*
X193360800Y43520800D02*
X193360800Y47420800D01*
X195360800Y43520800D02*
X193360800Y43520800D01*
G04 #@! TO.C,D23*
X214734650Y46181450D02*
X214734650Y50081450D01*
X212734650Y46181450D02*
X212734650Y50081450D01*
X214734650Y46181450D02*
X212734650Y46181450D01*
G04 #@! TO.C,D24*
X238547150Y46181450D02*
X238547150Y50081450D01*
X236547150Y46181450D02*
X236547150Y50081450D01*
X238547150Y46181450D02*
X236547150Y46181450D01*
G04 #@! TO.C,D25*
X26615900Y27131450D02*
X26615900Y31031450D01*
X24615900Y27131450D02*
X24615900Y31031450D01*
X26615900Y27131450D02*
X24615900Y27131450D01*
G04 #@! TO.C,D26*
X52809650Y27131450D02*
X50809650Y27131450D01*
X50809650Y27131450D02*
X50809650Y31031450D01*
X52809650Y27131450D02*
X52809650Y31031450D01*
G04 #@! TO.C,D27*
X71859650Y27131450D02*
X71859650Y31031450D01*
X69859650Y27131450D02*
X69859650Y31031450D01*
X71859650Y27131450D02*
X69859650Y27131450D01*
G04 #@! TO.C,D28*
X90179400Y27163200D02*
X88179400Y27163200D01*
X88179400Y27163200D02*
X88179400Y31063200D01*
X90179400Y27163200D02*
X90179400Y31063200D01*
G04 #@! TO.C,D29*
X93100400Y27163200D02*
X93100400Y31063200D01*
X91100400Y27163200D02*
X91100400Y31063200D01*
X93100400Y27163200D02*
X91100400Y27163200D01*
G04 #@! TO.C,D30*
X129009650Y27131450D02*
X127009650Y27131450D01*
X127009650Y27131450D02*
X127009650Y31031450D01*
X129009650Y27131450D02*
X129009650Y31031450D01*
G04 #@! TO.C,D31*
X148059650Y27131450D02*
X148059650Y31031450D01*
X146059650Y27131450D02*
X146059650Y31031450D01*
X148059650Y27131450D02*
X146059650Y27131450D01*
G04 #@! TO.C,D32*
X167109650Y27131450D02*
X165109650Y27131450D01*
X165109650Y27131450D02*
X165109650Y31031450D01*
X167109650Y27131450D02*
X167109650Y31031450D01*
G04 #@! TO.C,D33*
X186159650Y27131450D02*
X186159650Y31031450D01*
X184159650Y27131450D02*
X184159650Y31031450D01*
X186159650Y27131450D02*
X184159650Y27131450D01*
G04 #@! TO.C,D34*
X205209650Y27131450D02*
X203209650Y27131450D01*
X203209650Y27131450D02*
X203209650Y31031450D01*
X205209650Y27131450D02*
X205209650Y31031450D01*
G04 #@! TO.C,D35*
X224259650Y27131450D02*
X224259650Y31031450D01*
X222259650Y27131450D02*
X222259650Y31031450D01*
X224259650Y27131450D02*
X222259650Y27131450D01*
G04 #@! TO.C,D36*
X240572800Y30262000D02*
X238572800Y30262000D01*
X238572800Y30262000D02*
X238572800Y34162000D01*
X240572800Y30262000D02*
X240572800Y34162000D01*
G04 #@! TO.C,D37*
X21059650Y8081450D02*
X21059650Y11981450D01*
X19059650Y8081450D02*
X19059650Y11981450D01*
X21059650Y8081450D02*
X19059650Y8081450D01*
G04 #@! TO.C,D38*
X37728400Y14431450D02*
X35728400Y14431450D01*
X35728400Y14431450D02*
X35728400Y18331450D01*
X37728400Y14431450D02*
X37728400Y18331450D01*
G04 #@! TO.C,D39*
X56778400Y11256450D02*
X56778400Y15156450D01*
X54778400Y11256450D02*
X54778400Y15156450D01*
X56778400Y11256450D02*
X54778400Y11256450D01*
G04 #@! TO.C,D40*
X74177400Y11237400D02*
X72177400Y11237400D01*
X72177400Y11237400D02*
X72177400Y15137400D01*
X74177400Y11237400D02*
X74177400Y15137400D01*
G04 #@! TO.C,D41*
X90115900Y8081450D02*
X90115900Y11981450D01*
X88115900Y8081450D02*
X88115900Y11981450D01*
X90115900Y8081450D02*
X88115900Y8081450D01*
G04 #@! TO.C,D42*
X148059650Y8081450D02*
X146059650Y8081450D01*
X146059650Y8081450D02*
X146059650Y11981450D01*
X148059650Y8081450D02*
X148059650Y11981450D01*
G04 #@! TO.C,D43*
X161299400Y8113200D02*
X161299400Y12013200D01*
X159299400Y8113200D02*
X159299400Y12013200D01*
X161299400Y8113200D02*
X159299400Y8113200D01*
G04 #@! TO.C,D44*
X205209650Y8081450D02*
X203209650Y8081450D01*
X203209650Y8081450D02*
X203209650Y11981450D01*
X205209650Y8081450D02*
X205209650Y11981450D01*
G04 #@! TO.C,D45*
X223465900Y14431450D02*
X223465900Y18331450D01*
X221465900Y14431450D02*
X221465900Y18331450D01*
X223465900Y14431450D02*
X221465900Y14431450D01*
G04 #@! TO.C,D46*
X240522000Y11567600D02*
X238522000Y11567600D01*
X238522000Y11567600D02*
X238522000Y15467600D01*
X240522000Y11567600D02*
X240522000Y15467600D01*
G04 #@! TO.C,R46*
X240438400Y4612421D02*
X240438400Y4937979D01*
X239418400Y4612421D02*
X239418400Y4937979D01*
G04 #@! TO.C,C12*
X81650621Y19759200D02*
X81976179Y19759200D01*
X81650621Y20779200D02*
X81976179Y20779200D01*
G04 #@! TO.C,C13*
X28471400Y18526979D02*
X28471400Y18201421D01*
X29491400Y18526979D02*
X29491400Y18201421D01*
G04 #@! TO.C,C14*
X27586400Y53705979D02*
X27586400Y53380421D01*
X26566400Y53705979D02*
X26566400Y53380421D01*
G04 #@! TO.C,C15*
X66571400Y53959979D02*
X66571400Y53634421D01*
X67591400Y53959979D02*
X67591400Y53634421D01*
G04 #@! TO.C,C16*
X124868400Y54086979D02*
X124868400Y53761421D01*
X123848400Y54086979D02*
X123848400Y53761421D01*
G04 #@! TO.C,C17*
X163311621Y52880800D02*
X163637179Y52880800D01*
X163311621Y53900800D02*
X163637179Y53900800D01*
G04 #@! TO.C,C18*
X201310021Y53748400D02*
X201635579Y53748400D01*
X201310021Y52728400D02*
X201635579Y52728400D01*
G04 #@! TO.C,C19*
X212875400Y18145979D02*
X212875400Y17820421D01*
X213895400Y18145979D02*
X213895400Y17820421D01*
G04 #@! TO.C,C20*
X160009621Y16334200D02*
X160335179Y16334200D01*
X160009621Y15314200D02*
X160335179Y15314200D01*
G04 #@! TO.C,RC9*
X95366621Y17092200D02*
X95692179Y17092200D01*
X95366621Y18112200D02*
X95692179Y18112200D01*
G04 #@! TO.C,RGB1*
X75115400Y13455200D02*
X75115400Y14605200D01*
X82415400Y13455200D02*
X75115400Y13455200D01*
X82415400Y18955200D02*
X75115400Y18955200D01*
G04 #@! TO.C,RGB2*
X19870400Y14217200D02*
X19870400Y15367200D01*
X27170400Y14217200D02*
X19870400Y14217200D01*
X27170400Y19717200D02*
X19870400Y19717200D01*
G04 #@! TO.C,RGB3*
X25341600Y54362800D02*
X18041600Y54362800D01*
X25341600Y48862800D02*
X18041600Y48862800D01*
X18041600Y48862800D02*
X18041600Y50012800D01*
G04 #@! TO.C,RGB4*
X65930800Y54312000D02*
X58630800Y54312000D01*
X65930800Y48812000D02*
X58630800Y48812000D01*
X58630800Y48812000D02*
X58630800Y49962000D01*
G04 #@! TO.C,RGB5*
X115628400Y48608800D02*
X115628400Y49758800D01*
X122928400Y48608800D02*
X115628400Y48608800D01*
X122928400Y54108800D02*
X115628400Y54108800D01*
G04 #@! TO.C,RGB6*
X161028400Y54210400D02*
X153728400Y54210400D01*
X161028400Y48710400D02*
X153728400Y48710400D01*
X153728400Y48710400D02*
X153728400Y49860400D01*
G04 #@! TO.C,RGB7*
X191828400Y48710400D02*
X191828400Y49860400D01*
X199128400Y48710400D02*
X191828400Y48710400D01*
X199128400Y54210400D02*
X191828400Y54210400D01*
G04 #@! TO.C,RGB8*
X203258400Y14725200D02*
X203258400Y15875200D01*
X210558400Y14725200D02*
X203258400Y14725200D01*
X210558400Y20225200D02*
X203258400Y20225200D01*
G04 #@! TO.C,RGB9*
X158361400Y15018200D02*
X151061400Y15018200D01*
X158361400Y9518200D02*
X151061400Y9518200D01*
X151061400Y9518200D02*
X151061400Y10668200D01*
G04 #@! TO.C,U4*
X103912400Y14317200D02*
X105812400Y14317200D01*
X105312400Y11997200D02*
X103912400Y11997200D01*
G04 #@! TO.C,C1*
D13*
X112705542Y3798867D02*
X112753161Y3846486D01*
X112800780Y3989343D01*
X112800780Y4084581D01*
X112753161Y4227439D01*
X112657923Y4322677D01*
X112562685Y4370296D01*
X112372209Y4417915D01*
X112229352Y4417915D01*
X112038876Y4370296D01*
X111943638Y4322677D01*
X111848400Y4227439D01*
X111800780Y4084581D01*
X111800780Y3989343D01*
X111848400Y3846486D01*
X111896019Y3798867D01*
X112800780Y2846486D02*
X112800780Y3417915D01*
X112800780Y3132200D02*
X111800780Y3132200D01*
X111943638Y3227439D01*
X112038876Y3322677D01*
X112086495Y3417915D01*
G04 #@! TO.C,C2*
X125129542Y4941867D02*
X125177161Y4989486D01*
X125224780Y5132343D01*
X125224780Y5227581D01*
X125177161Y5370439D01*
X125081923Y5465677D01*
X124986685Y5513296D01*
X124796209Y5560915D01*
X124653352Y5560915D01*
X124462876Y5513296D01*
X124367638Y5465677D01*
X124272400Y5370439D01*
X124224780Y5227581D01*
X124224780Y5132343D01*
X124272400Y4989486D01*
X124320019Y4941867D01*
X124320019Y4560915D02*
X124272400Y4513296D01*
X124224780Y4418058D01*
X124224780Y4179962D01*
X124272400Y4084724D01*
X124320019Y4037105D01*
X124415257Y3989486D01*
X124510495Y3989486D01*
X124653352Y4037105D01*
X125224780Y4608534D01*
X125224780Y3989486D01*
G04 #@! TO.C,C3*
X124969542Y9513867D02*
X125017161Y9561486D01*
X125064780Y9704343D01*
X125064780Y9799581D01*
X125017161Y9942439D01*
X124921923Y10037677D01*
X124826685Y10085296D01*
X124636209Y10132915D01*
X124493352Y10132915D01*
X124302876Y10085296D01*
X124207638Y10037677D01*
X124112400Y9942439D01*
X124064780Y9799581D01*
X124064780Y9704343D01*
X124112400Y9561486D01*
X124160019Y9513867D01*
X124064780Y9180534D02*
X124064780Y8561486D01*
X124445733Y8894820D01*
X124445733Y8751962D01*
X124493352Y8656724D01*
X124540971Y8609105D01*
X124636209Y8561486D01*
X124874304Y8561486D01*
X124969542Y8609105D01*
X125017161Y8656724D01*
X125064780Y8751962D01*
X125064780Y9037677D01*
X125017161Y9132915D01*
X124969542Y9180534D01*
G04 #@! TO.C,C4*
X120105466Y18286458D02*
X120153085Y18238839D01*
X120295942Y18191220D01*
X120391180Y18191220D01*
X120534038Y18238839D01*
X120629276Y18334077D01*
X120676895Y18429315D01*
X120724514Y18619791D01*
X120724514Y18762648D01*
X120676895Y18953124D01*
X120629276Y19048362D01*
X120534038Y19143600D01*
X120391180Y19191220D01*
X120295942Y19191220D01*
X120153085Y19143600D01*
X120105466Y19095981D01*
X119248323Y18857886D02*
X119248323Y18191220D01*
X119486419Y19238839D02*
X119724514Y18524553D01*
X119105466Y18524553D01*
G04 #@! TO.C,C5*
X122620066Y21850058D02*
X122667685Y21802439D01*
X122810542Y21754820D01*
X122905780Y21754820D01*
X123048638Y21802439D01*
X123143876Y21897677D01*
X123191495Y21992915D01*
X123239114Y22183391D01*
X123239114Y22326248D01*
X123191495Y22516724D01*
X123143876Y22611962D01*
X123048638Y22707200D01*
X122905780Y22754820D01*
X122810542Y22754820D01*
X122667685Y22707200D01*
X122620066Y22659581D01*
X121715304Y22754820D02*
X122191495Y22754820D01*
X122239114Y22278629D01*
X122191495Y22326248D01*
X122096257Y22373867D01*
X121858161Y22373867D01*
X121762923Y22326248D01*
X121715304Y22278629D01*
X121667685Y22183391D01*
X121667685Y21945296D01*
X121715304Y21850058D01*
X121762923Y21802439D01*
X121858161Y21754820D01*
X122096257Y21754820D01*
X122191495Y21802439D01*
X122239114Y21850058D01*
G04 #@! TO.C,C6*
X109569542Y7253367D02*
X109617161Y7300986D01*
X109664780Y7443843D01*
X109664780Y7539081D01*
X109617161Y7681939D01*
X109521923Y7777177D01*
X109426685Y7824796D01*
X109236209Y7872415D01*
X109093352Y7872415D01*
X108902876Y7824796D01*
X108807638Y7777177D01*
X108712400Y7681939D01*
X108664780Y7539081D01*
X108664780Y7443843D01*
X108712400Y7300986D01*
X108760019Y7253367D01*
X108664780Y6396224D02*
X108664780Y6586700D01*
X108712400Y6681939D01*
X108760019Y6729558D01*
X108902876Y6824796D01*
X109093352Y6872415D01*
X109474304Y6872415D01*
X109569542Y6824796D01*
X109617161Y6777177D01*
X109664780Y6681939D01*
X109664780Y6491462D01*
X109617161Y6396224D01*
X109569542Y6348605D01*
X109474304Y6300986D01*
X109236209Y6300986D01*
X109140971Y6348605D01*
X109093352Y6396224D01*
X109045733Y6491462D01*
X109045733Y6681939D01*
X109093352Y6777177D01*
X109140971Y6824796D01*
X109236209Y6872415D01*
G04 #@! TO.C,C7*
X114606342Y7278667D02*
X114653961Y7326286D01*
X114701580Y7469143D01*
X114701580Y7564381D01*
X114653961Y7707239D01*
X114558723Y7802477D01*
X114463485Y7850096D01*
X114273009Y7897715D01*
X114130152Y7897715D01*
X113939676Y7850096D01*
X113844438Y7802477D01*
X113749200Y7707239D01*
X113701580Y7564381D01*
X113701580Y7469143D01*
X113749200Y7326286D01*
X113796819Y7278667D01*
X113701580Y6945334D02*
X113701580Y6278667D01*
X114701580Y6707239D01*
G04 #@! TO.C,C8*
X110839542Y14530367D02*
X110887161Y14577986D01*
X110934780Y14720843D01*
X110934780Y14816081D01*
X110887161Y14958939D01*
X110791923Y15054177D01*
X110696685Y15101796D01*
X110506209Y15149415D01*
X110363352Y15149415D01*
X110172876Y15101796D01*
X110077638Y15054177D01*
X109982400Y14958939D01*
X109934780Y14816081D01*
X109934780Y14720843D01*
X109982400Y14577986D01*
X110030019Y14530367D01*
X110363352Y13958939D02*
X110315733Y14054177D01*
X110268114Y14101796D01*
X110172876Y14149415D01*
X110125257Y14149415D01*
X110030019Y14101796D01*
X109982400Y14054177D01*
X109934780Y13958939D01*
X109934780Y13768462D01*
X109982400Y13673224D01*
X110030019Y13625605D01*
X110125257Y13577986D01*
X110172876Y13577986D01*
X110268114Y13625605D01*
X110315733Y13673224D01*
X110363352Y13768462D01*
X110363352Y13958939D01*
X110410971Y14054177D01*
X110458590Y14101796D01*
X110553828Y14149415D01*
X110744304Y14149415D01*
X110839542Y14101796D01*
X110887161Y14054177D01*
X110934780Y13958939D01*
X110934780Y13768462D01*
X110887161Y13673224D01*
X110839542Y13625605D01*
X110744304Y13577986D01*
X110553828Y13577986D01*
X110458590Y13625605D01*
X110410971Y13673224D01*
X110363352Y13768462D01*
G04 #@! TO.C,C9*
X127065062Y6216947D02*
X127112681Y6264566D01*
X127160300Y6407423D01*
X127160300Y6502661D01*
X127112681Y6645519D01*
X127017443Y6740757D01*
X126922205Y6788376D01*
X126731729Y6835995D01*
X126588872Y6835995D01*
X126398396Y6788376D01*
X126303158Y6740757D01*
X126207920Y6645519D01*
X126160300Y6502661D01*
X126160300Y6407423D01*
X126207920Y6264566D01*
X126255539Y6216947D01*
X127160300Y5740757D02*
X127160300Y5550280D01*
X127112681Y5455042D01*
X127065062Y5407423D01*
X126922205Y5312185D01*
X126731729Y5264566D01*
X126350777Y5264566D01*
X126255539Y5312185D01*
X126207920Y5359804D01*
X126160300Y5455042D01*
X126160300Y5645519D01*
X126207920Y5740757D01*
X126255539Y5788376D01*
X126350777Y5835995D01*
X126588872Y5835995D01*
X126684110Y5788376D01*
X126731729Y5740757D01*
X126779348Y5645519D01*
X126779348Y5455042D01*
X126731729Y5359804D01*
X126684110Y5312185D01*
X126588872Y5264566D01*
G04 #@! TO.C,C10*
X223064342Y53068458D02*
X223111961Y53116077D01*
X223159580Y53258934D01*
X223159580Y53354172D01*
X223111961Y53497029D01*
X223016723Y53592267D01*
X222921485Y53639886D01*
X222731009Y53687505D01*
X222588152Y53687505D01*
X222397676Y53639886D01*
X222302438Y53592267D01*
X222207200Y53497029D01*
X222159580Y53354172D01*
X222159580Y53258934D01*
X222207200Y53116077D01*
X222254819Y53068458D01*
X223159580Y52116077D02*
X223159580Y52687505D01*
X223159580Y52401791D02*
X222159580Y52401791D01*
X222302438Y52497029D01*
X222397676Y52592267D01*
X222445295Y52687505D01*
X222159580Y51497029D02*
X222159580Y51401791D01*
X222207200Y51306553D01*
X222254819Y51258934D01*
X222350057Y51211315D01*
X222540533Y51163696D01*
X222778628Y51163696D01*
X222969104Y51211315D01*
X223064342Y51258934D01*
X223111961Y51306553D01*
X223159580Y51401791D01*
X223159580Y51497029D01*
X223111961Y51592267D01*
X223064342Y51639886D01*
X222969104Y51687505D01*
X222778628Y51735124D01*
X222540533Y51735124D01*
X222350057Y51687505D01*
X222254819Y51639886D01*
X222207200Y51592267D01*
X222159580Y51497029D01*
G04 #@! TO.C,C11*
X214999757Y56309258D02*
X215047376Y56261639D01*
X215190233Y56214020D01*
X215285471Y56214020D01*
X215428328Y56261639D01*
X215523566Y56356877D01*
X215571185Y56452115D01*
X215618804Y56642591D01*
X215618804Y56785448D01*
X215571185Y56975924D01*
X215523566Y57071162D01*
X215428328Y57166400D01*
X215285471Y57214020D01*
X215190233Y57214020D01*
X215047376Y57166400D01*
X214999757Y57118781D01*
X214047376Y56214020D02*
X214618804Y56214020D01*
X214333090Y56214020D02*
X214333090Y57214020D01*
X214428328Y57071162D01*
X214523566Y56975924D01*
X214618804Y56928305D01*
X213094995Y56214020D02*
X213666423Y56214020D01*
X213380709Y56214020D02*
X213380709Y57214020D01*
X213475947Y57071162D01*
X213571185Y56975924D01*
X213666423Y56928305D01*
G04 #@! TO.C,F1*
X209502971Y67211534D02*
X209502971Y67544867D01*
X210026780Y67544867D02*
X209026780Y67544867D01*
X209026780Y67068677D01*
X210026780Y66163915D02*
X210026780Y66735343D01*
X210026780Y66449629D02*
X209026780Y66449629D01*
X209169638Y66544867D01*
X209264876Y66640105D01*
X209312495Y66735343D01*
G04 #@! TO.C,J1*
X240007733Y53919820D02*
X240007733Y53205534D01*
X240055352Y53062677D01*
X240150590Y52967439D01*
X240293447Y52919820D01*
X240388685Y52919820D01*
X239007733Y52919820D02*
X239579161Y52919820D01*
X239293447Y52919820D02*
X239293447Y53919820D01*
X239388685Y53776962D01*
X239483923Y53681724D01*
X239579161Y53634105D01*
G04 #@! TO.C,Q1*
X219754438Y45629581D02*
X219849676Y45677200D01*
X219944914Y45772439D01*
X220087771Y45915296D01*
X220183009Y45962915D01*
X220278247Y45962915D01*
X220230628Y45724820D02*
X220325866Y45772439D01*
X220421104Y45867677D01*
X220468723Y46058153D01*
X220468723Y46391486D01*
X220421104Y46581962D01*
X220325866Y46677200D01*
X220230628Y46724820D01*
X220040152Y46724820D01*
X219944914Y46677200D01*
X219849676Y46581962D01*
X219802057Y46391486D01*
X219802057Y46058153D01*
X219849676Y45867677D01*
X219944914Y45772439D01*
X220040152Y45724820D01*
X220230628Y45724820D01*
X218849676Y45724820D02*
X219421104Y45724820D01*
X219135390Y45724820D02*
X219135390Y46724820D01*
X219230628Y46581962D01*
X219325866Y46486724D01*
X219421104Y46439105D01*
G04 #@! TO.C,R1*
X19560780Y62091867D02*
X19084590Y62425200D01*
X19560780Y62663296D02*
X18560780Y62663296D01*
X18560780Y62282343D01*
X18608400Y62187105D01*
X18656019Y62139486D01*
X18751257Y62091867D01*
X18894114Y62091867D01*
X18989352Y62139486D01*
X19036971Y62187105D01*
X19084590Y62282343D01*
X19084590Y62663296D01*
X19560780Y61139486D02*
X19560780Y61710915D01*
X19560780Y61425200D02*
X18560780Y61425200D01*
X18703638Y61520439D01*
X18798876Y61615677D01*
X18846495Y61710915D01*
G04 #@! TO.C,R2*
X38610780Y62091867D02*
X38134590Y62425200D01*
X38610780Y62663296D02*
X37610780Y62663296D01*
X37610780Y62282343D01*
X37658400Y62187105D01*
X37706019Y62139486D01*
X37801257Y62091867D01*
X37944114Y62091867D01*
X38039352Y62139486D01*
X38086971Y62187105D01*
X38134590Y62282343D01*
X38134590Y62663296D01*
X37706019Y61710915D02*
X37658400Y61663296D01*
X37610780Y61568058D01*
X37610780Y61329962D01*
X37658400Y61234724D01*
X37706019Y61187105D01*
X37801257Y61139486D01*
X37896495Y61139486D01*
X38039352Y61187105D01*
X38610780Y61758534D01*
X38610780Y61139486D01*
G04 #@! TO.C,R3*
X57660780Y62091867D02*
X57184590Y62425200D01*
X57660780Y62663296D02*
X56660780Y62663296D01*
X56660780Y62282343D01*
X56708400Y62187105D01*
X56756019Y62139486D01*
X56851257Y62091867D01*
X56994114Y62091867D01*
X57089352Y62139486D01*
X57136971Y62187105D01*
X57184590Y62282343D01*
X57184590Y62663296D01*
X56660780Y61758534D02*
X56660780Y61139486D01*
X57041733Y61472820D01*
X57041733Y61329962D01*
X57089352Y61234724D01*
X57136971Y61187105D01*
X57232209Y61139486D01*
X57470304Y61139486D01*
X57565542Y61187105D01*
X57613161Y61234724D01*
X57660780Y61329962D01*
X57660780Y61615677D01*
X57613161Y61710915D01*
X57565542Y61758534D01*
G04 #@! TO.C,R4*
X76710780Y62091867D02*
X76234590Y62425200D01*
X76710780Y62663296D02*
X75710780Y62663296D01*
X75710780Y62282343D01*
X75758400Y62187105D01*
X75806019Y62139486D01*
X75901257Y62091867D01*
X76044114Y62091867D01*
X76139352Y62139486D01*
X76186971Y62187105D01*
X76234590Y62282343D01*
X76234590Y62663296D01*
X76044114Y61234724D02*
X76710780Y61234724D01*
X75663161Y61472820D02*
X76377447Y61710915D01*
X76377447Y61091867D01*
G04 #@! TO.C,R5*
X95760780Y62091867D02*
X95284590Y62425200D01*
X95760780Y62663296D02*
X94760780Y62663296D01*
X94760780Y62282343D01*
X94808400Y62187105D01*
X94856019Y62139486D01*
X94951257Y62091867D01*
X95094114Y62091867D01*
X95189352Y62139486D01*
X95236971Y62187105D01*
X95284590Y62282343D01*
X95284590Y62663296D01*
X94760780Y61187105D02*
X94760780Y61663296D01*
X95236971Y61710915D01*
X95189352Y61663296D01*
X95141733Y61568058D01*
X95141733Y61329962D01*
X95189352Y61234724D01*
X95236971Y61187105D01*
X95332209Y61139486D01*
X95570304Y61139486D01*
X95665542Y61187105D01*
X95713161Y61234724D01*
X95760780Y61329962D01*
X95760780Y61568058D01*
X95713161Y61663296D01*
X95665542Y61710915D01*
G04 #@! TO.C,R6*
X114810780Y62091867D02*
X114334590Y62425200D01*
X114810780Y62663296D02*
X113810780Y62663296D01*
X113810780Y62282343D01*
X113858400Y62187105D01*
X113906019Y62139486D01*
X114001257Y62091867D01*
X114144114Y62091867D01*
X114239352Y62139486D01*
X114286971Y62187105D01*
X114334590Y62282343D01*
X114334590Y62663296D01*
X113810780Y61234724D02*
X113810780Y61425200D01*
X113858400Y61520439D01*
X113906019Y61568058D01*
X114048876Y61663296D01*
X114239352Y61710915D01*
X114620304Y61710915D01*
X114715542Y61663296D01*
X114763161Y61615677D01*
X114810780Y61520439D01*
X114810780Y61329962D01*
X114763161Y61234724D01*
X114715542Y61187105D01*
X114620304Y61139486D01*
X114382209Y61139486D01*
X114286971Y61187105D01*
X114239352Y61234724D01*
X114191733Y61329962D01*
X114191733Y61520439D01*
X114239352Y61615677D01*
X114286971Y61663296D01*
X114382209Y61710915D01*
G04 #@! TO.C,R7*
X133860780Y62091867D02*
X133384590Y62425200D01*
X133860780Y62663296D02*
X132860780Y62663296D01*
X132860780Y62282343D01*
X132908400Y62187105D01*
X132956019Y62139486D01*
X133051257Y62091867D01*
X133194114Y62091867D01*
X133289352Y62139486D01*
X133336971Y62187105D01*
X133384590Y62282343D01*
X133384590Y62663296D01*
X132860780Y61758534D02*
X132860780Y61091867D01*
X133860780Y61520439D01*
G04 #@! TO.C,R8*
X152910780Y62091867D02*
X152434590Y62425200D01*
X152910780Y62663296D02*
X151910780Y62663296D01*
X151910780Y62282343D01*
X151958400Y62187105D01*
X152006019Y62139486D01*
X152101257Y62091867D01*
X152244114Y62091867D01*
X152339352Y62139486D01*
X152386971Y62187105D01*
X152434590Y62282343D01*
X152434590Y62663296D01*
X152339352Y61520439D02*
X152291733Y61615677D01*
X152244114Y61663296D01*
X152148876Y61710915D01*
X152101257Y61710915D01*
X152006019Y61663296D01*
X151958400Y61615677D01*
X151910780Y61520439D01*
X151910780Y61329962D01*
X151958400Y61234724D01*
X152006019Y61187105D01*
X152101257Y61139486D01*
X152148876Y61139486D01*
X152244114Y61187105D01*
X152291733Y61234724D01*
X152339352Y61329962D01*
X152339352Y61520439D01*
X152386971Y61615677D01*
X152434590Y61663296D01*
X152529828Y61710915D01*
X152720304Y61710915D01*
X152815542Y61663296D01*
X152863161Y61615677D01*
X152910780Y61520439D01*
X152910780Y61329962D01*
X152863161Y61234724D01*
X152815542Y61187105D01*
X152720304Y61139486D01*
X152529828Y61139486D01*
X152434590Y61187105D01*
X152386971Y61234724D01*
X152339352Y61329962D01*
G04 #@! TO.C,R9*
X171960780Y62091867D02*
X171484590Y62425200D01*
X171960780Y62663296D02*
X170960780Y62663296D01*
X170960780Y62282343D01*
X171008400Y62187105D01*
X171056019Y62139486D01*
X171151257Y62091867D01*
X171294114Y62091867D01*
X171389352Y62139486D01*
X171436971Y62187105D01*
X171484590Y62282343D01*
X171484590Y62663296D01*
X171960780Y61615677D02*
X171960780Y61425200D01*
X171913161Y61329962D01*
X171865542Y61282343D01*
X171722685Y61187105D01*
X171532209Y61139486D01*
X171151257Y61139486D01*
X171056019Y61187105D01*
X171008400Y61234724D01*
X170960780Y61329962D01*
X170960780Y61520439D01*
X171008400Y61615677D01*
X171056019Y61663296D01*
X171151257Y61710915D01*
X171389352Y61710915D01*
X171484590Y61663296D01*
X171532209Y61615677D01*
X171579828Y61520439D01*
X171579828Y61329962D01*
X171532209Y61234724D01*
X171484590Y61187105D01*
X171389352Y61139486D01*
G04 #@! TO.C,R10*
X191010780Y62568058D02*
X190534590Y62901391D01*
X191010780Y63139486D02*
X190010780Y63139486D01*
X190010780Y62758534D01*
X190058400Y62663296D01*
X190106019Y62615677D01*
X190201257Y62568058D01*
X190344114Y62568058D01*
X190439352Y62615677D01*
X190486971Y62663296D01*
X190534590Y62758534D01*
X190534590Y63139486D01*
X191010780Y61615677D02*
X191010780Y62187105D01*
X191010780Y61901391D02*
X190010780Y61901391D01*
X190153638Y61996629D01*
X190248876Y62091867D01*
X190296495Y62187105D01*
X190010780Y60996629D02*
X190010780Y60901391D01*
X190058400Y60806153D01*
X190106019Y60758534D01*
X190201257Y60710915D01*
X190391733Y60663296D01*
X190629828Y60663296D01*
X190820304Y60710915D01*
X190915542Y60758534D01*
X190963161Y60806153D01*
X191010780Y60901391D01*
X191010780Y60996629D01*
X190963161Y61091867D01*
X190915542Y61139486D01*
X190820304Y61187105D01*
X190629828Y61234724D01*
X190391733Y61234724D01*
X190201257Y61187105D01*
X190106019Y61139486D01*
X190058400Y61091867D01*
X190010780Y60996629D01*
G04 #@! TO.C,R11*
X207266780Y64092058D02*
X206790590Y64425391D01*
X207266780Y64663486D02*
X206266780Y64663486D01*
X206266780Y64282534D01*
X206314400Y64187296D01*
X206362019Y64139677D01*
X206457257Y64092058D01*
X206600114Y64092058D01*
X206695352Y64139677D01*
X206742971Y64187296D01*
X206790590Y64282534D01*
X206790590Y64663486D01*
X207266780Y63139677D02*
X207266780Y63711105D01*
X207266780Y63425391D02*
X206266780Y63425391D01*
X206409638Y63520629D01*
X206504876Y63615867D01*
X206552495Y63711105D01*
X207266780Y62187296D02*
X207266780Y62758724D01*
X207266780Y62473010D02*
X206266780Y62473010D01*
X206409638Y62568248D01*
X206504876Y62663486D01*
X206552495Y62758724D01*
G04 #@! TO.C,R12*
X236254530Y62568058D02*
X235778340Y62901391D01*
X236254530Y63139486D02*
X235254530Y63139486D01*
X235254530Y62758534D01*
X235302150Y62663296D01*
X235349769Y62615677D01*
X235445007Y62568058D01*
X235587864Y62568058D01*
X235683102Y62615677D01*
X235730721Y62663296D01*
X235778340Y62758534D01*
X235778340Y63139486D01*
X236254530Y61615677D02*
X236254530Y62187105D01*
X236254530Y61901391D02*
X235254530Y61901391D01*
X235397388Y61996629D01*
X235492626Y62091867D01*
X235540245Y62187105D01*
X235349769Y61234724D02*
X235302150Y61187105D01*
X235254530Y61091867D01*
X235254530Y60853772D01*
X235302150Y60758534D01*
X235349769Y60710915D01*
X235445007Y60663296D01*
X235540245Y60663296D01*
X235683102Y60710915D01*
X236254530Y61282343D01*
X236254530Y60663296D01*
G04 #@! TO.C,R13*
X21897580Y42400458D02*
X21421390Y42733791D01*
X21897580Y42971886D02*
X20897580Y42971886D01*
X20897580Y42590934D01*
X20945200Y42495696D01*
X20992819Y42448077D01*
X21088057Y42400458D01*
X21230914Y42400458D01*
X21326152Y42448077D01*
X21373771Y42495696D01*
X21421390Y42590934D01*
X21421390Y42971886D01*
X21897580Y41448077D02*
X21897580Y42019505D01*
X21897580Y41733791D02*
X20897580Y41733791D01*
X21040438Y41829029D01*
X21135676Y41924267D01*
X21183295Y42019505D01*
X20897580Y41114743D02*
X20897580Y40495696D01*
X21278533Y40829029D01*
X21278533Y40686172D01*
X21326152Y40590934D01*
X21373771Y40543315D01*
X21469009Y40495696D01*
X21707104Y40495696D01*
X21802342Y40543315D01*
X21849961Y40590934D01*
X21897580Y40686172D01*
X21897580Y40971886D01*
X21849961Y41067124D01*
X21802342Y41114743D01*
G04 #@! TO.C,R14*
X43373280Y43518058D02*
X42897090Y43851391D01*
X43373280Y44089486D02*
X42373280Y44089486D01*
X42373280Y43708534D01*
X42420900Y43613296D01*
X42468519Y43565677D01*
X42563757Y43518058D01*
X42706614Y43518058D01*
X42801852Y43565677D01*
X42849471Y43613296D01*
X42897090Y43708534D01*
X42897090Y44089486D01*
X43373280Y42565677D02*
X43373280Y43137105D01*
X43373280Y42851391D02*
X42373280Y42851391D01*
X42516138Y42946629D01*
X42611376Y43041867D01*
X42658995Y43137105D01*
X42706614Y41708534D02*
X43373280Y41708534D01*
X42325661Y41946629D02*
X43039947Y42184724D01*
X43039947Y41565677D01*
G04 #@! TO.C,R15*
X62334380Y42451258D02*
X61858190Y42784591D01*
X62334380Y43022686D02*
X61334380Y43022686D01*
X61334380Y42641734D01*
X61382000Y42546496D01*
X61429619Y42498877D01*
X61524857Y42451258D01*
X61667714Y42451258D01*
X61762952Y42498877D01*
X61810571Y42546496D01*
X61858190Y42641734D01*
X61858190Y43022686D01*
X62334380Y41498877D02*
X62334380Y42070305D01*
X62334380Y41784591D02*
X61334380Y41784591D01*
X61477238Y41879829D01*
X61572476Y41975067D01*
X61620095Y42070305D01*
X61334380Y40594115D02*
X61334380Y41070305D01*
X61810571Y41117924D01*
X61762952Y41070305D01*
X61715333Y40975067D01*
X61715333Y40736972D01*
X61762952Y40641734D01*
X61810571Y40594115D01*
X61905809Y40546496D01*
X62143904Y40546496D01*
X62239142Y40594115D01*
X62286761Y40641734D01*
X62334380Y40736972D01*
X62334380Y40975067D01*
X62286761Y41070305D01*
X62239142Y41117924D01*
G04 #@! TO.C,R16*
X81473280Y43518058D02*
X80997090Y43851391D01*
X81473280Y44089486D02*
X80473280Y44089486D01*
X80473280Y43708534D01*
X80520900Y43613296D01*
X80568519Y43565677D01*
X80663757Y43518058D01*
X80806614Y43518058D01*
X80901852Y43565677D01*
X80949471Y43613296D01*
X80997090Y43708534D01*
X80997090Y44089486D01*
X81473280Y42565677D02*
X81473280Y43137105D01*
X81473280Y42851391D02*
X80473280Y42851391D01*
X80616138Y42946629D01*
X80711376Y43041867D01*
X80758995Y43137105D01*
X80473280Y41708534D02*
X80473280Y41899010D01*
X80520900Y41994248D01*
X80568519Y42041867D01*
X80711376Y42137105D01*
X80901852Y42184724D01*
X81282804Y42184724D01*
X81378042Y42137105D01*
X81425661Y42089486D01*
X81473280Y41994248D01*
X81473280Y41803772D01*
X81425661Y41708534D01*
X81378042Y41660915D01*
X81282804Y41613296D01*
X81044709Y41613296D01*
X80949471Y41660915D01*
X80901852Y41708534D01*
X80854233Y41803772D01*
X80854233Y41994248D01*
X80901852Y42089486D01*
X80949471Y42137105D01*
X81044709Y42184724D01*
G04 #@! TO.C,R17*
X100523280Y43518058D02*
X100047090Y43851391D01*
X100523280Y44089486D02*
X99523280Y44089486D01*
X99523280Y43708534D01*
X99570900Y43613296D01*
X99618519Y43565677D01*
X99713757Y43518058D01*
X99856614Y43518058D01*
X99951852Y43565677D01*
X99999471Y43613296D01*
X100047090Y43708534D01*
X100047090Y44089486D01*
X100523280Y42565677D02*
X100523280Y43137105D01*
X100523280Y42851391D02*
X99523280Y42851391D01*
X99666138Y42946629D01*
X99761376Y43041867D01*
X99808995Y43137105D01*
X99523280Y42232343D02*
X99523280Y41565677D01*
X100523280Y41994248D01*
G04 #@! TO.C,R18*
X119738380Y41994058D02*
X119262190Y42327391D01*
X119738380Y42565486D02*
X118738380Y42565486D01*
X118738380Y42184534D01*
X118786000Y42089296D01*
X118833619Y42041677D01*
X118928857Y41994058D01*
X119071714Y41994058D01*
X119166952Y42041677D01*
X119214571Y42089296D01*
X119262190Y42184534D01*
X119262190Y42565486D01*
X119738380Y41041677D02*
X119738380Y41613105D01*
X119738380Y41327391D02*
X118738380Y41327391D01*
X118881238Y41422629D01*
X118976476Y41517867D01*
X119024095Y41613105D01*
X119166952Y40470248D02*
X119119333Y40565486D01*
X119071714Y40613105D01*
X118976476Y40660724D01*
X118928857Y40660724D01*
X118833619Y40613105D01*
X118786000Y40565486D01*
X118738380Y40470248D01*
X118738380Y40279772D01*
X118786000Y40184534D01*
X118833619Y40136915D01*
X118928857Y40089296D01*
X118976476Y40089296D01*
X119071714Y40136915D01*
X119119333Y40184534D01*
X119166952Y40279772D01*
X119166952Y40470248D01*
X119214571Y40565486D01*
X119262190Y40613105D01*
X119357428Y40660724D01*
X119547904Y40660724D01*
X119643142Y40613105D01*
X119690761Y40565486D01*
X119738380Y40470248D01*
X119738380Y40279772D01*
X119690761Y40184534D01*
X119643142Y40136915D01*
X119547904Y40089296D01*
X119357428Y40089296D01*
X119262190Y40136915D01*
X119214571Y40184534D01*
X119166952Y40279772D01*
G04 #@! TO.C,R19*
X136146780Y43492558D02*
X135670590Y43825891D01*
X136146780Y44063986D02*
X135146780Y44063986D01*
X135146780Y43683034D01*
X135194400Y43587796D01*
X135242019Y43540177D01*
X135337257Y43492558D01*
X135480114Y43492558D01*
X135575352Y43540177D01*
X135622971Y43587796D01*
X135670590Y43683034D01*
X135670590Y44063986D01*
X136146780Y42540177D02*
X136146780Y43111605D01*
X136146780Y42825891D02*
X135146780Y42825891D01*
X135289638Y42921129D01*
X135384876Y43016367D01*
X135432495Y43111605D01*
X136146780Y42063986D02*
X136146780Y41873510D01*
X136099161Y41778272D01*
X136051542Y41730653D01*
X135908685Y41635415D01*
X135718209Y41587796D01*
X135337257Y41587796D01*
X135242019Y41635415D01*
X135194400Y41683034D01*
X135146780Y41778272D01*
X135146780Y41968748D01*
X135194400Y42063986D01*
X135242019Y42111605D01*
X135337257Y42159224D01*
X135575352Y42159224D01*
X135670590Y42111605D01*
X135718209Y42063986D01*
X135765828Y41968748D01*
X135765828Y41778272D01*
X135718209Y41683034D01*
X135670590Y41635415D01*
X135575352Y41587796D01*
G04 #@! TO.C,R20*
X154587180Y43568858D02*
X154110990Y43902191D01*
X154587180Y44140286D02*
X153587180Y44140286D01*
X153587180Y43759334D01*
X153634800Y43664096D01*
X153682419Y43616477D01*
X153777657Y43568858D01*
X153920514Y43568858D01*
X154015752Y43616477D01*
X154063371Y43664096D01*
X154110990Y43759334D01*
X154110990Y44140286D01*
X153682419Y43187905D02*
X153634800Y43140286D01*
X153587180Y43045048D01*
X153587180Y42806953D01*
X153634800Y42711715D01*
X153682419Y42664096D01*
X153777657Y42616477D01*
X153872895Y42616477D01*
X154015752Y42664096D01*
X154587180Y43235524D01*
X154587180Y42616477D01*
X153587180Y41997429D02*
X153587180Y41902191D01*
X153634800Y41806953D01*
X153682419Y41759334D01*
X153777657Y41711715D01*
X153968133Y41664096D01*
X154206228Y41664096D01*
X154396704Y41711715D01*
X154491942Y41759334D01*
X154539561Y41806953D01*
X154587180Y41902191D01*
X154587180Y41997429D01*
X154539561Y42092667D01*
X154491942Y42140286D01*
X154396704Y42187905D01*
X154206228Y42235524D01*
X153968133Y42235524D01*
X153777657Y42187905D01*
X153682419Y42140286D01*
X153634800Y42092667D01*
X153587180Y41997429D01*
G04 #@! TO.C,R21*
X176723280Y43518058D02*
X176247090Y43851391D01*
X176723280Y44089486D02*
X175723280Y44089486D01*
X175723280Y43708534D01*
X175770900Y43613296D01*
X175818519Y43565677D01*
X175913757Y43518058D01*
X176056614Y43518058D01*
X176151852Y43565677D01*
X176199471Y43613296D01*
X176247090Y43708534D01*
X176247090Y44089486D01*
X175818519Y43137105D02*
X175770900Y43089486D01*
X175723280Y42994248D01*
X175723280Y42756153D01*
X175770900Y42660915D01*
X175818519Y42613296D01*
X175913757Y42565677D01*
X176008995Y42565677D01*
X176151852Y42613296D01*
X176723280Y43184724D01*
X176723280Y42565677D01*
X176723280Y41613296D02*
X176723280Y42184724D01*
X176723280Y41899010D02*
X175723280Y41899010D01*
X175866138Y41994248D01*
X175961376Y42089486D01*
X176008995Y42184724D01*
G04 #@! TO.C,R22*
X192839580Y43619658D02*
X192363390Y43952991D01*
X192839580Y44191086D02*
X191839580Y44191086D01*
X191839580Y43810134D01*
X191887200Y43714896D01*
X191934819Y43667277D01*
X192030057Y43619658D01*
X192172914Y43619658D01*
X192268152Y43667277D01*
X192315771Y43714896D01*
X192363390Y43810134D01*
X192363390Y44191086D01*
X191934819Y43238705D02*
X191887200Y43191086D01*
X191839580Y43095848D01*
X191839580Y42857753D01*
X191887200Y42762515D01*
X191934819Y42714896D01*
X192030057Y42667277D01*
X192125295Y42667277D01*
X192268152Y42714896D01*
X192839580Y43286324D01*
X192839580Y42667277D01*
X191934819Y42286324D02*
X191887200Y42238705D01*
X191839580Y42143467D01*
X191839580Y41905372D01*
X191887200Y41810134D01*
X191934819Y41762515D01*
X192030057Y41714896D01*
X192125295Y41714896D01*
X192268152Y41762515D01*
X192839580Y42333943D01*
X192839580Y41714896D01*
G04 #@! TO.C,R23*
X214823280Y43518058D02*
X214347090Y43851391D01*
X214823280Y44089486D02*
X213823280Y44089486D01*
X213823280Y43708534D01*
X213870900Y43613296D01*
X213918519Y43565677D01*
X214013757Y43518058D01*
X214156614Y43518058D01*
X214251852Y43565677D01*
X214299471Y43613296D01*
X214347090Y43708534D01*
X214347090Y44089486D01*
X213918519Y43137105D02*
X213870900Y43089486D01*
X213823280Y42994248D01*
X213823280Y42756153D01*
X213870900Y42660915D01*
X213918519Y42613296D01*
X214013757Y42565677D01*
X214108995Y42565677D01*
X214251852Y42613296D01*
X214823280Y43184724D01*
X214823280Y42565677D01*
X213823280Y42232343D02*
X213823280Y41613296D01*
X214204233Y41946629D01*
X214204233Y41803772D01*
X214251852Y41708534D01*
X214299471Y41660915D01*
X214394709Y41613296D01*
X214632804Y41613296D01*
X214728042Y41660915D01*
X214775661Y41708534D01*
X214823280Y41803772D01*
X214823280Y42089486D01*
X214775661Y42184724D01*
X214728042Y42232343D01*
G04 #@! TO.C,R24*
X238635780Y43518058D02*
X238159590Y43851391D01*
X238635780Y44089486D02*
X237635780Y44089486D01*
X237635780Y43708534D01*
X237683400Y43613296D01*
X237731019Y43565677D01*
X237826257Y43518058D01*
X237969114Y43518058D01*
X238064352Y43565677D01*
X238111971Y43613296D01*
X238159590Y43708534D01*
X238159590Y44089486D01*
X237731019Y43137105D02*
X237683400Y43089486D01*
X237635780Y42994248D01*
X237635780Y42756153D01*
X237683400Y42660915D01*
X237731019Y42613296D01*
X237826257Y42565677D01*
X237921495Y42565677D01*
X238064352Y42613296D01*
X238635780Y43184724D01*
X238635780Y42565677D01*
X237969114Y41708534D02*
X238635780Y41708534D01*
X237588161Y41946629D02*
X238302447Y42184724D01*
X238302447Y41565677D01*
G04 #@! TO.C,R25*
X26704530Y24468058D02*
X26228340Y24801391D01*
X26704530Y25039486D02*
X25704530Y25039486D01*
X25704530Y24658534D01*
X25752150Y24563296D01*
X25799769Y24515677D01*
X25895007Y24468058D01*
X26037864Y24468058D01*
X26133102Y24515677D01*
X26180721Y24563296D01*
X26228340Y24658534D01*
X26228340Y25039486D01*
X25799769Y24087105D02*
X25752150Y24039486D01*
X25704530Y23944248D01*
X25704530Y23706153D01*
X25752150Y23610915D01*
X25799769Y23563296D01*
X25895007Y23515677D01*
X25990245Y23515677D01*
X26133102Y23563296D01*
X26704530Y24134724D01*
X26704530Y23515677D01*
X25704530Y22610915D02*
X25704530Y23087105D01*
X26180721Y23134724D01*
X26133102Y23087105D01*
X26085483Y22991867D01*
X26085483Y22753772D01*
X26133102Y22658534D01*
X26180721Y22610915D01*
X26275959Y22563296D01*
X26514054Y22563296D01*
X26609292Y22610915D01*
X26656911Y22658534D01*
X26704530Y22753772D01*
X26704530Y22991867D01*
X26656911Y23087105D01*
X26609292Y23134724D01*
G04 #@! TO.C,R26*
X52898280Y24468058D02*
X52422090Y24801391D01*
X52898280Y25039486D02*
X51898280Y25039486D01*
X51898280Y24658534D01*
X51945900Y24563296D01*
X51993519Y24515677D01*
X52088757Y24468058D01*
X52231614Y24468058D01*
X52326852Y24515677D01*
X52374471Y24563296D01*
X52422090Y24658534D01*
X52422090Y25039486D01*
X51993519Y24087105D02*
X51945900Y24039486D01*
X51898280Y23944248D01*
X51898280Y23706153D01*
X51945900Y23610915D01*
X51993519Y23563296D01*
X52088757Y23515677D01*
X52183995Y23515677D01*
X52326852Y23563296D01*
X52898280Y24134724D01*
X52898280Y23515677D01*
X51898280Y22658534D02*
X51898280Y22849010D01*
X51945900Y22944248D01*
X51993519Y22991867D01*
X52136376Y23087105D01*
X52326852Y23134724D01*
X52707804Y23134724D01*
X52803042Y23087105D01*
X52850661Y23039486D01*
X52898280Y22944248D01*
X52898280Y22753772D01*
X52850661Y22658534D01*
X52803042Y22610915D01*
X52707804Y22563296D01*
X52469709Y22563296D01*
X52374471Y22610915D01*
X52326852Y22658534D01*
X52279233Y22753772D01*
X52279233Y22944248D01*
X52326852Y23039486D01*
X52374471Y23087105D01*
X52469709Y23134724D01*
G04 #@! TO.C,R27*
X71948280Y24468058D02*
X71472090Y24801391D01*
X71948280Y25039486D02*
X70948280Y25039486D01*
X70948280Y24658534D01*
X70995900Y24563296D01*
X71043519Y24515677D01*
X71138757Y24468058D01*
X71281614Y24468058D01*
X71376852Y24515677D01*
X71424471Y24563296D01*
X71472090Y24658534D01*
X71472090Y25039486D01*
X71043519Y24087105D02*
X70995900Y24039486D01*
X70948280Y23944248D01*
X70948280Y23706153D01*
X70995900Y23610915D01*
X71043519Y23563296D01*
X71138757Y23515677D01*
X71233995Y23515677D01*
X71376852Y23563296D01*
X71948280Y24134724D01*
X71948280Y23515677D01*
X70948280Y23182343D02*
X70948280Y22515677D01*
X71948280Y22944248D01*
G04 #@! TO.C,R28*
X90998280Y24468058D02*
X90522090Y24801391D01*
X90998280Y25039486D02*
X89998280Y25039486D01*
X89998280Y24658534D01*
X90045900Y24563296D01*
X90093519Y24515677D01*
X90188757Y24468058D01*
X90331614Y24468058D01*
X90426852Y24515677D01*
X90474471Y24563296D01*
X90522090Y24658534D01*
X90522090Y25039486D01*
X90093519Y24087105D02*
X90045900Y24039486D01*
X89998280Y23944248D01*
X89998280Y23706153D01*
X90045900Y23610915D01*
X90093519Y23563296D01*
X90188757Y23515677D01*
X90283995Y23515677D01*
X90426852Y23563296D01*
X90998280Y24134724D01*
X90998280Y23515677D01*
X90426852Y22944248D02*
X90379233Y23039486D01*
X90331614Y23087105D01*
X90236376Y23134724D01*
X90188757Y23134724D01*
X90093519Y23087105D01*
X90045900Y23039486D01*
X89998280Y22944248D01*
X89998280Y22753772D01*
X90045900Y22658534D01*
X90093519Y22610915D01*
X90188757Y22563296D01*
X90236376Y22563296D01*
X90331614Y22610915D01*
X90379233Y22658534D01*
X90426852Y22753772D01*
X90426852Y22944248D01*
X90474471Y23039486D01*
X90522090Y23087105D01*
X90617328Y23134724D01*
X90807804Y23134724D01*
X90903042Y23087105D01*
X90950661Y23039486D01*
X90998280Y22944248D01*
X90998280Y22753772D01*
X90950661Y22658534D01*
X90903042Y22610915D01*
X90807804Y22563296D01*
X90617328Y22563296D01*
X90522090Y22610915D01*
X90474471Y22658534D01*
X90426852Y22753772D01*
G04 #@! TO.C,R29*
X106936780Y24468058D02*
X106460590Y24801391D01*
X106936780Y25039486D02*
X105936780Y25039486D01*
X105936780Y24658534D01*
X105984400Y24563296D01*
X106032019Y24515677D01*
X106127257Y24468058D01*
X106270114Y24468058D01*
X106365352Y24515677D01*
X106412971Y24563296D01*
X106460590Y24658534D01*
X106460590Y25039486D01*
X106032019Y24087105D02*
X105984400Y24039486D01*
X105936780Y23944248D01*
X105936780Y23706153D01*
X105984400Y23610915D01*
X106032019Y23563296D01*
X106127257Y23515677D01*
X106222495Y23515677D01*
X106365352Y23563296D01*
X106936780Y24134724D01*
X106936780Y23515677D01*
X106936780Y23039486D02*
X106936780Y22849010D01*
X106889161Y22753772D01*
X106841542Y22706153D01*
X106698685Y22610915D01*
X106508209Y22563296D01*
X106127257Y22563296D01*
X106032019Y22610915D01*
X105984400Y22658534D01*
X105936780Y22753772D01*
X105936780Y22944248D01*
X105984400Y23039486D01*
X106032019Y23087105D01*
X106127257Y23134724D01*
X106365352Y23134724D01*
X106460590Y23087105D01*
X106508209Y23039486D01*
X106555828Y22944248D01*
X106555828Y22753772D01*
X106508209Y22658534D01*
X106460590Y22610915D01*
X106365352Y22563296D01*
G04 #@! TO.C,R30*
X129098280Y24468058D02*
X128622090Y24801391D01*
X129098280Y25039486D02*
X128098280Y25039486D01*
X128098280Y24658534D01*
X128145900Y24563296D01*
X128193519Y24515677D01*
X128288757Y24468058D01*
X128431614Y24468058D01*
X128526852Y24515677D01*
X128574471Y24563296D01*
X128622090Y24658534D01*
X128622090Y25039486D01*
X128098280Y24134724D02*
X128098280Y23515677D01*
X128479233Y23849010D01*
X128479233Y23706153D01*
X128526852Y23610915D01*
X128574471Y23563296D01*
X128669709Y23515677D01*
X128907804Y23515677D01*
X129003042Y23563296D01*
X129050661Y23610915D01*
X129098280Y23706153D01*
X129098280Y23991867D01*
X129050661Y24087105D01*
X129003042Y24134724D01*
X128098280Y22896629D02*
X128098280Y22801391D01*
X128145900Y22706153D01*
X128193519Y22658534D01*
X128288757Y22610915D01*
X128479233Y22563296D01*
X128717328Y22563296D01*
X128907804Y22610915D01*
X129003042Y22658534D01*
X129050661Y22706153D01*
X129098280Y22801391D01*
X129098280Y22896629D01*
X129050661Y22991867D01*
X129003042Y23039486D01*
X128907804Y23087105D01*
X128717328Y23134724D01*
X128479233Y23134724D01*
X128288757Y23087105D01*
X128193519Y23039486D01*
X128145900Y22991867D01*
X128098280Y22896629D01*
G04 #@! TO.C,R31*
X148148280Y24468058D02*
X147672090Y24801391D01*
X148148280Y25039486D02*
X147148280Y25039486D01*
X147148280Y24658534D01*
X147195900Y24563296D01*
X147243519Y24515677D01*
X147338757Y24468058D01*
X147481614Y24468058D01*
X147576852Y24515677D01*
X147624471Y24563296D01*
X147672090Y24658534D01*
X147672090Y25039486D01*
X147148280Y24134724D02*
X147148280Y23515677D01*
X147529233Y23849010D01*
X147529233Y23706153D01*
X147576852Y23610915D01*
X147624471Y23563296D01*
X147719709Y23515677D01*
X147957804Y23515677D01*
X148053042Y23563296D01*
X148100661Y23610915D01*
X148148280Y23706153D01*
X148148280Y23991867D01*
X148100661Y24087105D01*
X148053042Y24134724D01*
X148148280Y22563296D02*
X148148280Y23134724D01*
X148148280Y22849010D02*
X147148280Y22849010D01*
X147291138Y22944248D01*
X147386376Y23039486D01*
X147433995Y23134724D01*
G04 #@! TO.C,R32*
X167198280Y24468058D02*
X166722090Y24801391D01*
X167198280Y25039486D02*
X166198280Y25039486D01*
X166198280Y24658534D01*
X166245900Y24563296D01*
X166293519Y24515677D01*
X166388757Y24468058D01*
X166531614Y24468058D01*
X166626852Y24515677D01*
X166674471Y24563296D01*
X166722090Y24658534D01*
X166722090Y25039486D01*
X166198280Y24134724D02*
X166198280Y23515677D01*
X166579233Y23849010D01*
X166579233Y23706153D01*
X166626852Y23610915D01*
X166674471Y23563296D01*
X166769709Y23515677D01*
X167007804Y23515677D01*
X167103042Y23563296D01*
X167150661Y23610915D01*
X167198280Y23706153D01*
X167198280Y23991867D01*
X167150661Y24087105D01*
X167103042Y24134724D01*
X166293519Y23134724D02*
X166245900Y23087105D01*
X166198280Y22991867D01*
X166198280Y22753772D01*
X166245900Y22658534D01*
X166293519Y22610915D01*
X166388757Y22563296D01*
X166483995Y22563296D01*
X166626852Y22610915D01*
X167198280Y23182343D01*
X167198280Y22563296D01*
G04 #@! TO.C,R33*
X186248280Y24468058D02*
X185772090Y24801391D01*
X186248280Y25039486D02*
X185248280Y25039486D01*
X185248280Y24658534D01*
X185295900Y24563296D01*
X185343519Y24515677D01*
X185438757Y24468058D01*
X185581614Y24468058D01*
X185676852Y24515677D01*
X185724471Y24563296D01*
X185772090Y24658534D01*
X185772090Y25039486D01*
X185248280Y24134724D02*
X185248280Y23515677D01*
X185629233Y23849010D01*
X185629233Y23706153D01*
X185676852Y23610915D01*
X185724471Y23563296D01*
X185819709Y23515677D01*
X186057804Y23515677D01*
X186153042Y23563296D01*
X186200661Y23610915D01*
X186248280Y23706153D01*
X186248280Y23991867D01*
X186200661Y24087105D01*
X186153042Y24134724D01*
X185248280Y23182343D02*
X185248280Y22563296D01*
X185629233Y22896629D01*
X185629233Y22753772D01*
X185676852Y22658534D01*
X185724471Y22610915D01*
X185819709Y22563296D01*
X186057804Y22563296D01*
X186153042Y22610915D01*
X186200661Y22658534D01*
X186248280Y22753772D01*
X186248280Y23039486D01*
X186200661Y23134724D01*
X186153042Y23182343D01*
G04 #@! TO.C,R34*
X205298280Y24468058D02*
X204822090Y24801391D01*
X205298280Y25039486D02*
X204298280Y25039486D01*
X204298280Y24658534D01*
X204345900Y24563296D01*
X204393519Y24515677D01*
X204488757Y24468058D01*
X204631614Y24468058D01*
X204726852Y24515677D01*
X204774471Y24563296D01*
X204822090Y24658534D01*
X204822090Y25039486D01*
X204298280Y24134724D02*
X204298280Y23515677D01*
X204679233Y23849010D01*
X204679233Y23706153D01*
X204726852Y23610915D01*
X204774471Y23563296D01*
X204869709Y23515677D01*
X205107804Y23515677D01*
X205203042Y23563296D01*
X205250661Y23610915D01*
X205298280Y23706153D01*
X205298280Y23991867D01*
X205250661Y24087105D01*
X205203042Y24134724D01*
X204631614Y22658534D02*
X205298280Y22658534D01*
X204250661Y22896629D02*
X204964947Y23134724D01*
X204964947Y22515677D01*
G04 #@! TO.C,R35*
X224348280Y24468058D02*
X223872090Y24801391D01*
X224348280Y25039486D02*
X223348280Y25039486D01*
X223348280Y24658534D01*
X223395900Y24563296D01*
X223443519Y24515677D01*
X223538757Y24468058D01*
X223681614Y24468058D01*
X223776852Y24515677D01*
X223824471Y24563296D01*
X223872090Y24658534D01*
X223872090Y25039486D01*
X223348280Y24134724D02*
X223348280Y23515677D01*
X223729233Y23849010D01*
X223729233Y23706153D01*
X223776852Y23610915D01*
X223824471Y23563296D01*
X223919709Y23515677D01*
X224157804Y23515677D01*
X224253042Y23563296D01*
X224300661Y23610915D01*
X224348280Y23706153D01*
X224348280Y23991867D01*
X224300661Y24087105D01*
X224253042Y24134724D01*
X223348280Y22610915D02*
X223348280Y23087105D01*
X223824471Y23134724D01*
X223776852Y23087105D01*
X223729233Y22991867D01*
X223729233Y22753772D01*
X223776852Y22658534D01*
X223824471Y22610915D01*
X223919709Y22563296D01*
X224157804Y22563296D01*
X224253042Y22610915D01*
X224300661Y22658534D01*
X224348280Y22753772D01*
X224348280Y22991867D01*
X224300661Y23087105D01*
X224253042Y23134724D01*
G04 #@! TO.C,R36*
X241803180Y24772858D02*
X241326990Y25106191D01*
X241803180Y25344286D02*
X240803180Y25344286D01*
X240803180Y24963334D01*
X240850800Y24868096D01*
X240898419Y24820477D01*
X240993657Y24772858D01*
X241136514Y24772858D01*
X241231752Y24820477D01*
X241279371Y24868096D01*
X241326990Y24963334D01*
X241326990Y25344286D01*
X240803180Y24439524D02*
X240803180Y23820477D01*
X241184133Y24153810D01*
X241184133Y24010953D01*
X241231752Y23915715D01*
X241279371Y23868096D01*
X241374609Y23820477D01*
X241612704Y23820477D01*
X241707942Y23868096D01*
X241755561Y23915715D01*
X241803180Y24010953D01*
X241803180Y24296667D01*
X241755561Y24391905D01*
X241707942Y24439524D01*
X240803180Y22963334D02*
X240803180Y23153810D01*
X240850800Y23249048D01*
X240898419Y23296667D01*
X241041276Y23391905D01*
X241231752Y23439524D01*
X241612704Y23439524D01*
X241707942Y23391905D01*
X241755561Y23344286D01*
X241803180Y23249048D01*
X241803180Y23058572D01*
X241755561Y22963334D01*
X241707942Y22915715D01*
X241612704Y22868096D01*
X241374609Y22868096D01*
X241279371Y22915715D01*
X241231752Y22963334D01*
X241184133Y23058572D01*
X241184133Y23249048D01*
X241231752Y23344286D01*
X241279371Y23391905D01*
X241374609Y23439524D01*
G04 #@! TO.C,R37*
X20354530Y5418058D02*
X19878340Y5751391D01*
X20354530Y5989486D02*
X19354530Y5989486D01*
X19354530Y5608534D01*
X19402150Y5513296D01*
X19449769Y5465677D01*
X19545007Y5418058D01*
X19687864Y5418058D01*
X19783102Y5465677D01*
X19830721Y5513296D01*
X19878340Y5608534D01*
X19878340Y5989486D01*
X19354530Y5084724D02*
X19354530Y4465677D01*
X19735483Y4799010D01*
X19735483Y4656153D01*
X19783102Y4560915D01*
X19830721Y4513296D01*
X19925959Y4465677D01*
X20164054Y4465677D01*
X20259292Y4513296D01*
X20306911Y4560915D01*
X20354530Y4656153D01*
X20354530Y4941867D01*
X20306911Y5037105D01*
X20259292Y5084724D01*
X19354530Y4132343D02*
X19354530Y3465677D01*
X20354530Y3894248D01*
G04 #@! TO.C,R38*
X35435780Y5418058D02*
X34959590Y5751391D01*
X35435780Y5989486D02*
X34435780Y5989486D01*
X34435780Y5608534D01*
X34483400Y5513296D01*
X34531019Y5465677D01*
X34626257Y5418058D01*
X34769114Y5418058D01*
X34864352Y5465677D01*
X34911971Y5513296D01*
X34959590Y5608534D01*
X34959590Y5989486D01*
X34435780Y5084724D02*
X34435780Y4465677D01*
X34816733Y4799010D01*
X34816733Y4656153D01*
X34864352Y4560915D01*
X34911971Y4513296D01*
X35007209Y4465677D01*
X35245304Y4465677D01*
X35340542Y4513296D01*
X35388161Y4560915D01*
X35435780Y4656153D01*
X35435780Y4941867D01*
X35388161Y5037105D01*
X35340542Y5084724D01*
X34864352Y3894248D02*
X34816733Y3989486D01*
X34769114Y4037105D01*
X34673876Y4084724D01*
X34626257Y4084724D01*
X34531019Y4037105D01*
X34483400Y3989486D01*
X34435780Y3894248D01*
X34435780Y3703772D01*
X34483400Y3608534D01*
X34531019Y3560915D01*
X34626257Y3513296D01*
X34673876Y3513296D01*
X34769114Y3560915D01*
X34816733Y3608534D01*
X34864352Y3703772D01*
X34864352Y3894248D01*
X34911971Y3989486D01*
X34959590Y4037105D01*
X35054828Y4084724D01*
X35245304Y4084724D01*
X35340542Y4037105D01*
X35388161Y3989486D01*
X35435780Y3894248D01*
X35435780Y3703772D01*
X35388161Y3608534D01*
X35340542Y3560915D01*
X35245304Y3513296D01*
X35054828Y3513296D01*
X34959590Y3560915D01*
X34911971Y3608534D01*
X34864352Y3703772D01*
G04 #@! TO.C,R39*
X54485780Y5418058D02*
X54009590Y5751391D01*
X54485780Y5989486D02*
X53485780Y5989486D01*
X53485780Y5608534D01*
X53533400Y5513296D01*
X53581019Y5465677D01*
X53676257Y5418058D01*
X53819114Y5418058D01*
X53914352Y5465677D01*
X53961971Y5513296D01*
X54009590Y5608534D01*
X54009590Y5989486D01*
X53485780Y5084724D02*
X53485780Y4465677D01*
X53866733Y4799010D01*
X53866733Y4656153D01*
X53914352Y4560915D01*
X53961971Y4513296D01*
X54057209Y4465677D01*
X54295304Y4465677D01*
X54390542Y4513296D01*
X54438161Y4560915D01*
X54485780Y4656153D01*
X54485780Y4941867D01*
X54438161Y5037105D01*
X54390542Y5084724D01*
X54485780Y3989486D02*
X54485780Y3799010D01*
X54438161Y3703772D01*
X54390542Y3656153D01*
X54247685Y3560915D01*
X54057209Y3513296D01*
X53676257Y3513296D01*
X53581019Y3560915D01*
X53533400Y3608534D01*
X53485780Y3703772D01*
X53485780Y3894248D01*
X53533400Y3989486D01*
X53581019Y4037105D01*
X53676257Y4084724D01*
X53914352Y4084724D01*
X54009590Y4037105D01*
X54057209Y3989486D01*
X54104828Y3894248D01*
X54104828Y3703772D01*
X54057209Y3608534D01*
X54009590Y3560915D01*
X53914352Y3513296D01*
G04 #@! TO.C,R40*
X75123280Y5418058D02*
X74647090Y5751391D01*
X75123280Y5989486D02*
X74123280Y5989486D01*
X74123280Y5608534D01*
X74170900Y5513296D01*
X74218519Y5465677D01*
X74313757Y5418058D01*
X74456614Y5418058D01*
X74551852Y5465677D01*
X74599471Y5513296D01*
X74647090Y5608534D01*
X74647090Y5989486D01*
X74456614Y4560915D02*
X75123280Y4560915D01*
X74075661Y4799010D02*
X74789947Y5037105D01*
X74789947Y4418058D01*
X74123280Y3846629D02*
X74123280Y3751391D01*
X74170900Y3656153D01*
X74218519Y3608534D01*
X74313757Y3560915D01*
X74504233Y3513296D01*
X74742328Y3513296D01*
X74932804Y3560915D01*
X75028042Y3608534D01*
X75075661Y3656153D01*
X75123280Y3751391D01*
X75123280Y3846629D01*
X75075661Y3941867D01*
X75028042Y3989486D01*
X74932804Y4037105D01*
X74742328Y4084724D01*
X74504233Y4084724D01*
X74313757Y4037105D01*
X74218519Y3989486D01*
X74170900Y3941867D01*
X74123280Y3846629D01*
G04 #@! TO.C,R41*
X106079530Y5418058D02*
X105603340Y5751391D01*
X106079530Y5989486D02*
X105079530Y5989486D01*
X105079530Y5608534D01*
X105127150Y5513296D01*
X105174769Y5465677D01*
X105270007Y5418058D01*
X105412864Y5418058D01*
X105508102Y5465677D01*
X105555721Y5513296D01*
X105603340Y5608534D01*
X105603340Y5989486D01*
X105412864Y4560915D02*
X106079530Y4560915D01*
X105031911Y4799010D02*
X105746197Y5037105D01*
X105746197Y4418058D01*
X106079530Y3513296D02*
X106079530Y4084724D01*
X106079530Y3799010D02*
X105079530Y3799010D01*
X105222388Y3894248D01*
X105317626Y3989486D01*
X105365245Y4084724D01*
G04 #@! TO.C,R42*
X146560780Y5418058D02*
X146084590Y5751391D01*
X146560780Y5989486D02*
X145560780Y5989486D01*
X145560780Y5608534D01*
X145608400Y5513296D01*
X145656019Y5465677D01*
X145751257Y5418058D01*
X145894114Y5418058D01*
X145989352Y5465677D01*
X146036971Y5513296D01*
X146084590Y5608534D01*
X146084590Y5989486D01*
X145894114Y4560915D02*
X146560780Y4560915D01*
X145513161Y4799010D02*
X146227447Y5037105D01*
X146227447Y4418058D01*
X145656019Y4084724D02*
X145608400Y4037105D01*
X145560780Y3941867D01*
X145560780Y3703772D01*
X145608400Y3608534D01*
X145656019Y3560915D01*
X145751257Y3513296D01*
X145846495Y3513296D01*
X145989352Y3560915D01*
X146560780Y4132343D01*
X146560780Y3513296D01*
G04 #@! TO.C,R43*
X179580780Y5113258D02*
X179104590Y5446591D01*
X179580780Y5684686D02*
X178580780Y5684686D01*
X178580780Y5303734D01*
X178628400Y5208496D01*
X178676019Y5160877D01*
X178771257Y5113258D01*
X178914114Y5113258D01*
X179009352Y5160877D01*
X179056971Y5208496D01*
X179104590Y5303734D01*
X179104590Y5684686D01*
X178914114Y4256115D02*
X179580780Y4256115D01*
X178533161Y4494210D02*
X179247447Y4732305D01*
X179247447Y4113258D01*
X178580780Y3827543D02*
X178580780Y3208496D01*
X178961733Y3541829D01*
X178961733Y3398972D01*
X179009352Y3303734D01*
X179056971Y3256115D01*
X179152209Y3208496D01*
X179390304Y3208496D01*
X179485542Y3256115D01*
X179533161Y3303734D01*
X179580780Y3398972D01*
X179580780Y3684686D01*
X179533161Y3779924D01*
X179485542Y3827543D01*
G04 #@! TO.C,R44*
X205298280Y5418058D02*
X204822090Y5751391D01*
X205298280Y5989486D02*
X204298280Y5989486D01*
X204298280Y5608534D01*
X204345900Y5513296D01*
X204393519Y5465677D01*
X204488757Y5418058D01*
X204631614Y5418058D01*
X204726852Y5465677D01*
X204774471Y5513296D01*
X204822090Y5608534D01*
X204822090Y5989486D01*
X204631614Y4560915D02*
X205298280Y4560915D01*
X204250661Y4799010D02*
X204964947Y5037105D01*
X204964947Y4418058D01*
X204631614Y3608534D02*
X205298280Y3608534D01*
X204250661Y3846629D02*
X204964947Y4084724D01*
X204964947Y3465677D01*
G04 #@! TO.C,R45*
X221967030Y5418058D02*
X221490840Y5751391D01*
X221967030Y5989486D02*
X220967030Y5989486D01*
X220967030Y5608534D01*
X221014650Y5513296D01*
X221062269Y5465677D01*
X221157507Y5418058D01*
X221300364Y5418058D01*
X221395602Y5465677D01*
X221443221Y5513296D01*
X221490840Y5608534D01*
X221490840Y5989486D01*
X221300364Y4560915D02*
X221967030Y4560915D01*
X220919411Y4799010D02*
X221633697Y5037105D01*
X221633697Y4418058D01*
X220967030Y3560915D02*
X220967030Y4037105D01*
X221443221Y4084724D01*
X221395602Y4037105D01*
X221347983Y3941867D01*
X221347983Y3703772D01*
X221395602Y3608534D01*
X221443221Y3560915D01*
X221538459Y3513296D01*
X221776554Y3513296D01*
X221871792Y3560915D01*
X221919411Y3608534D01*
X221967030Y3703772D01*
X221967030Y3941867D01*
X221919411Y4037105D01*
X221871792Y4084724D01*
G04 #@! TO.C,RC1*
X203644780Y53346367D02*
X203168590Y53679700D01*
X203644780Y53917796D02*
X202644780Y53917796D01*
X202644780Y53536843D01*
X202692400Y53441605D01*
X202740019Y53393986D01*
X202835257Y53346367D01*
X202978114Y53346367D01*
X203073352Y53393986D01*
X203120971Y53441605D01*
X203168590Y53536843D01*
X203168590Y53917796D01*
X203549542Y52346367D02*
X203597161Y52393986D01*
X203644780Y52536843D01*
X203644780Y52632081D01*
X203597161Y52774939D01*
X203501923Y52870177D01*
X203406685Y52917796D01*
X203216209Y52965415D01*
X203073352Y52965415D01*
X202882876Y52917796D01*
X202787638Y52870177D01*
X202692400Y52774939D01*
X202644780Y52632081D01*
X202644780Y52536843D01*
X202692400Y52393986D01*
X202740019Y52346367D01*
X203644780Y51393986D02*
X203644780Y51965415D01*
X203644780Y51679700D02*
X202644780Y51679700D01*
X202787638Y51774939D01*
X202882876Y51870177D01*
X202930495Y51965415D01*
G04 #@! TO.C,RC6*
X205321180Y73920267D02*
X204844990Y74253600D01*
X205321180Y74491696D02*
X204321180Y74491696D01*
X204321180Y74110743D01*
X204368800Y74015505D01*
X204416419Y73967886D01*
X204511657Y73920267D01*
X204654514Y73920267D01*
X204749752Y73967886D01*
X204797371Y74015505D01*
X204844990Y74110743D01*
X204844990Y74491696D01*
X205225942Y72920267D02*
X205273561Y72967886D01*
X205321180Y73110743D01*
X205321180Y73205981D01*
X205273561Y73348839D01*
X205178323Y73444077D01*
X205083085Y73491696D01*
X204892609Y73539315D01*
X204749752Y73539315D01*
X204559276Y73491696D01*
X204464038Y73444077D01*
X204368800Y73348839D01*
X204321180Y73205981D01*
X204321180Y73110743D01*
X204368800Y72967886D01*
X204416419Y72920267D01*
X204321180Y72063124D02*
X204321180Y72253600D01*
X204368800Y72348839D01*
X204416419Y72396458D01*
X204559276Y72491696D01*
X204749752Y72539315D01*
X205130704Y72539315D01*
X205225942Y72491696D01*
X205273561Y72444077D01*
X205321180Y72348839D01*
X205321180Y72158362D01*
X205273561Y72063124D01*
X205225942Y72015505D01*
X205130704Y71967886D01*
X204892609Y71967886D01*
X204797371Y72015505D01*
X204749752Y72063124D01*
X204702133Y72158362D01*
X204702133Y72348839D01*
X204749752Y72444077D01*
X204797371Y72491696D01*
X204892609Y72539315D01*
G04 #@! TO.C,RC7*
X222930980Y74047267D02*
X222454790Y74380600D01*
X222930980Y74618696D02*
X221930980Y74618696D01*
X221930980Y74237743D01*
X221978600Y74142505D01*
X222026219Y74094886D01*
X222121457Y74047267D01*
X222264314Y74047267D01*
X222359552Y74094886D01*
X222407171Y74142505D01*
X222454790Y74237743D01*
X222454790Y74618696D01*
X222835742Y73047267D02*
X222883361Y73094886D01*
X222930980Y73237743D01*
X222930980Y73332981D01*
X222883361Y73475839D01*
X222788123Y73571077D01*
X222692885Y73618696D01*
X222502409Y73666315D01*
X222359552Y73666315D01*
X222169076Y73618696D01*
X222073838Y73571077D01*
X221978600Y73475839D01*
X221930980Y73332981D01*
X221930980Y73237743D01*
X221978600Y73094886D01*
X222026219Y73047267D01*
X221930980Y72713934D02*
X221930980Y72047267D01*
X222930980Y72475839D01*
G04 #@! TO.C,RC8*
X130271780Y11347367D02*
X129795590Y11680700D01*
X130271780Y11918796D02*
X129271780Y11918796D01*
X129271780Y11537843D01*
X129319400Y11442605D01*
X129367019Y11394986D01*
X129462257Y11347367D01*
X129605114Y11347367D01*
X129700352Y11394986D01*
X129747971Y11442605D01*
X129795590Y11537843D01*
X129795590Y11918796D01*
X130176542Y10347367D02*
X130224161Y10394986D01*
X130271780Y10537843D01*
X130271780Y10633081D01*
X130224161Y10775939D01*
X130128923Y10871177D01*
X130033685Y10918796D01*
X129843209Y10966415D01*
X129700352Y10966415D01*
X129509876Y10918796D01*
X129414638Y10871177D01*
X129319400Y10775939D01*
X129271780Y10633081D01*
X129271780Y10537843D01*
X129319400Y10394986D01*
X129367019Y10347367D01*
X129700352Y9775939D02*
X129652733Y9871177D01*
X129605114Y9918796D01*
X129509876Y9966415D01*
X129462257Y9966415D01*
X129367019Y9918796D01*
X129319400Y9871177D01*
X129271780Y9775939D01*
X129271780Y9585462D01*
X129319400Y9490224D01*
X129367019Y9442605D01*
X129462257Y9394986D01*
X129509876Y9394986D01*
X129605114Y9442605D01*
X129652733Y9490224D01*
X129700352Y9585462D01*
X129700352Y9775939D01*
X129747971Y9871177D01*
X129795590Y9918796D01*
X129890828Y9966415D01*
X130081304Y9966415D01*
X130176542Y9918796D01*
X130224161Y9871177D01*
X130271780Y9775939D01*
X130271780Y9585462D01*
X130224161Y9490224D01*
X130176542Y9442605D01*
X130081304Y9394986D01*
X129890828Y9394986D01*
X129795590Y9442605D01*
X129747971Y9490224D01*
X129700352Y9585462D01*
G04 #@! TO.C,SW1*
X10758761Y26987334D02*
X10806380Y26844477D01*
X10806380Y26606381D01*
X10758761Y26511143D01*
X10711142Y26463524D01*
X10615904Y26415905D01*
X10520666Y26415905D01*
X10425428Y26463524D01*
X10377809Y26511143D01*
X10330190Y26606381D01*
X10282571Y26796858D01*
X10234952Y26892096D01*
X10187333Y26939715D01*
X10092095Y26987334D01*
X9996857Y26987334D01*
X9901619Y26939715D01*
X9854000Y26892096D01*
X9806380Y26796858D01*
X9806380Y26558762D01*
X9854000Y26415905D01*
X9806380Y26082572D02*
X10806380Y25844477D01*
X10092095Y25654000D01*
X10806380Y25463524D01*
X9806380Y25225429D01*
X10806380Y24320667D02*
X10806380Y24892096D01*
X10806380Y24606381D02*
X9806380Y24606381D01*
X9949238Y24701620D01*
X10044476Y24796858D01*
X10092095Y24892096D01*
G04 #@! TO.C,U1*
X123937030Y13474605D02*
X124746554Y13474605D01*
X124841792Y13426986D01*
X124889411Y13379367D01*
X124937030Y13284129D01*
X124937030Y13093653D01*
X124889411Y12998415D01*
X124841792Y12950796D01*
X124746554Y12903177D01*
X123937030Y12903177D01*
X124937030Y11903177D02*
X124937030Y12474605D01*
X124937030Y12188891D02*
X123937030Y12188891D01*
X124079888Y12284129D01*
X124175126Y12379367D01*
X124222745Y12474605D01*
G04 #@! TO.C,U2*
X221437104Y55665620D02*
X221437104Y54856096D01*
X221389485Y54760858D01*
X221341866Y54713239D01*
X221246628Y54665620D01*
X221056152Y54665620D01*
X220960914Y54713239D01*
X220913295Y54760858D01*
X220865676Y54856096D01*
X220865676Y55665620D01*
X220437104Y55570381D02*
X220389485Y55618000D01*
X220294247Y55665620D01*
X220056152Y55665620D01*
X219960914Y55618000D01*
X219913295Y55570381D01*
X219865676Y55475143D01*
X219865676Y55379905D01*
X219913295Y55237048D01*
X220484723Y54665620D01*
X219865676Y54665620D01*
G04 #@! TO.C,U3*
X215290304Y67981820D02*
X215290304Y67172296D01*
X215242685Y67077058D01*
X215195066Y67029439D01*
X215099828Y66981820D01*
X214909352Y66981820D01*
X214814114Y67029439D01*
X214766495Y67077058D01*
X214718876Y67172296D01*
X214718876Y67981820D01*
X214337923Y67981820D02*
X213718876Y67981820D01*
X214052209Y67600867D01*
X213909352Y67600867D01*
X213814114Y67553248D01*
X213766495Y67505629D01*
X213718876Y67410391D01*
X213718876Y67172296D01*
X213766495Y67077058D01*
X213814114Y67029439D01*
X213909352Y66981820D01*
X214195066Y66981820D01*
X214290304Y67029439D01*
X214337923Y67077058D01*
G04 #@! TO.C,USB1*
X215100495Y69426820D02*
X215100495Y68617296D01*
X215052876Y68522058D01*
X215005257Y68474439D01*
X214910019Y68426820D01*
X214719542Y68426820D01*
X214624304Y68474439D01*
X214576685Y68522058D01*
X214529066Y68617296D01*
X214529066Y69426820D01*
X214100495Y68474439D02*
X213957638Y68426820D01*
X213719542Y68426820D01*
X213624304Y68474439D01*
X213576685Y68522058D01*
X213529066Y68617296D01*
X213529066Y68712534D01*
X213576685Y68807772D01*
X213624304Y68855391D01*
X213719542Y68903010D01*
X213910019Y68950629D01*
X214005257Y68998248D01*
X214052876Y69045867D01*
X214100495Y69141105D01*
X214100495Y69236343D01*
X214052876Y69331581D01*
X214005257Y69379200D01*
X213910019Y69426820D01*
X213671923Y69426820D01*
X213529066Y69379200D01*
X212767161Y68950629D02*
X212624304Y68903010D01*
X212576685Y68855391D01*
X212529066Y68760153D01*
X212529066Y68617296D01*
X212576685Y68522058D01*
X212624304Y68474439D01*
X212719542Y68426820D01*
X213100495Y68426820D01*
X213100495Y69426820D01*
X212767161Y69426820D01*
X212671923Y69379200D01*
X212624304Y69331581D01*
X212576685Y69236343D01*
X212576685Y69141105D01*
X212624304Y69045867D01*
X212671923Y68998248D01*
X212767161Y68950629D01*
X213100495Y68950629D01*
X211576685Y68426820D02*
X212148114Y68426820D01*
X211862400Y68426820D02*
X211862400Y69426820D01*
X211957638Y69283962D01*
X212052876Y69188724D01*
X212148114Y69141105D01*
G04 #@! TO.C,Y1*
X118992590Y1618010D02*
X118992590Y1141820D01*
X119325923Y2141820D02*
X118992590Y1618010D01*
X118659257Y2141820D01*
X117802114Y1141820D02*
X118373542Y1141820D01*
X118087828Y1141820D02*
X118087828Y2141820D01*
X118183066Y1998962D01*
X118278304Y1903724D01*
X118373542Y1856105D01*
G04 #@! TO.C,D1*
X20924530Y68219546D02*
X19924530Y68219546D01*
X19924530Y67981450D01*
X19972150Y67838593D01*
X20067388Y67743355D01*
X20162626Y67695736D01*
X20353102Y67648117D01*
X20495959Y67648117D01*
X20686435Y67695736D01*
X20781673Y67743355D01*
X20876911Y67838593D01*
X20924530Y67981450D01*
X20924530Y68219546D01*
X20924530Y66695736D02*
X20924530Y67267165D01*
X20924530Y66981450D02*
X19924530Y66981450D01*
X20067388Y67076689D01*
X20162626Y67171927D01*
X20210245Y67267165D01*
G04 #@! TO.C,D2*
X39974530Y68219546D02*
X38974530Y68219546D01*
X38974530Y67981450D01*
X39022150Y67838593D01*
X39117388Y67743355D01*
X39212626Y67695736D01*
X39403102Y67648117D01*
X39545959Y67648117D01*
X39736435Y67695736D01*
X39831673Y67743355D01*
X39926911Y67838593D01*
X39974530Y67981450D01*
X39974530Y68219546D01*
X39069769Y67267165D02*
X39022150Y67219546D01*
X38974530Y67124308D01*
X38974530Y66886212D01*
X39022150Y66790974D01*
X39069769Y66743355D01*
X39165007Y66695736D01*
X39260245Y66695736D01*
X39403102Y66743355D01*
X39974530Y67314784D01*
X39974530Y66695736D01*
G04 #@! TO.C,D3*
X59024530Y68219546D02*
X58024530Y68219546D01*
X58024530Y67981450D01*
X58072150Y67838593D01*
X58167388Y67743355D01*
X58262626Y67695736D01*
X58453102Y67648117D01*
X58595959Y67648117D01*
X58786435Y67695736D01*
X58881673Y67743355D01*
X58976911Y67838593D01*
X59024530Y67981450D01*
X59024530Y68219546D01*
X58024530Y67314784D02*
X58024530Y66695736D01*
X58405483Y67029070D01*
X58405483Y66886212D01*
X58453102Y66790974D01*
X58500721Y66743355D01*
X58595959Y66695736D01*
X58834054Y66695736D01*
X58929292Y66743355D01*
X58976911Y66790974D01*
X59024530Y66886212D01*
X59024530Y67171927D01*
X58976911Y67267165D01*
X58929292Y67314784D01*
G04 #@! TO.C,D4*
X78074530Y68219546D02*
X77074530Y68219546D01*
X77074530Y67981450D01*
X77122150Y67838593D01*
X77217388Y67743355D01*
X77312626Y67695736D01*
X77503102Y67648117D01*
X77645959Y67648117D01*
X77836435Y67695736D01*
X77931673Y67743355D01*
X78026911Y67838593D01*
X78074530Y67981450D01*
X78074530Y68219546D01*
X77407864Y66790974D02*
X78074530Y66790974D01*
X77026911Y67029070D02*
X77741197Y67267165D01*
X77741197Y66648117D01*
G04 #@! TO.C,D5*
X97124530Y68219546D02*
X96124530Y68219546D01*
X96124530Y67981450D01*
X96172150Y67838593D01*
X96267388Y67743355D01*
X96362626Y67695736D01*
X96553102Y67648117D01*
X96695959Y67648117D01*
X96886435Y67695736D01*
X96981673Y67743355D01*
X97076911Y67838593D01*
X97124530Y67981450D01*
X97124530Y68219546D01*
X96124530Y66743355D02*
X96124530Y67219546D01*
X96600721Y67267165D01*
X96553102Y67219546D01*
X96505483Y67124308D01*
X96505483Y66886212D01*
X96553102Y66790974D01*
X96600721Y66743355D01*
X96695959Y66695736D01*
X96934054Y66695736D01*
X97029292Y66743355D01*
X97076911Y66790974D01*
X97124530Y66886212D01*
X97124530Y67124308D01*
X97076911Y67219546D01*
X97029292Y67267165D01*
G04 #@! TO.C,D6*
X116174530Y68219546D02*
X115174530Y68219546D01*
X115174530Y67981450D01*
X115222150Y67838593D01*
X115317388Y67743355D01*
X115412626Y67695736D01*
X115603102Y67648117D01*
X115745959Y67648117D01*
X115936435Y67695736D01*
X116031673Y67743355D01*
X116126911Y67838593D01*
X116174530Y67981450D01*
X116174530Y68219546D01*
X115174530Y66790974D02*
X115174530Y66981450D01*
X115222150Y67076689D01*
X115269769Y67124308D01*
X115412626Y67219546D01*
X115603102Y67267165D01*
X115984054Y67267165D01*
X116079292Y67219546D01*
X116126911Y67171927D01*
X116174530Y67076689D01*
X116174530Y66886212D01*
X116126911Y66790974D01*
X116079292Y66743355D01*
X115984054Y66695736D01*
X115745959Y66695736D01*
X115650721Y66743355D01*
X115603102Y66790974D01*
X115555483Y66886212D01*
X115555483Y67076689D01*
X115603102Y67171927D01*
X115650721Y67219546D01*
X115745959Y67267165D01*
G04 #@! TO.C,D7*
X135224530Y68219546D02*
X134224530Y68219546D01*
X134224530Y67981450D01*
X134272150Y67838593D01*
X134367388Y67743355D01*
X134462626Y67695736D01*
X134653102Y67648117D01*
X134795959Y67648117D01*
X134986435Y67695736D01*
X135081673Y67743355D01*
X135176911Y67838593D01*
X135224530Y67981450D01*
X135224530Y68219546D01*
X134224530Y67314784D02*
X134224530Y66648117D01*
X135224530Y67076689D01*
G04 #@! TO.C,D8*
X154274530Y68219546D02*
X153274530Y68219546D01*
X153274530Y67981450D01*
X153322150Y67838593D01*
X153417388Y67743355D01*
X153512626Y67695736D01*
X153703102Y67648117D01*
X153845959Y67648117D01*
X154036435Y67695736D01*
X154131673Y67743355D01*
X154226911Y67838593D01*
X154274530Y67981450D01*
X154274530Y68219546D01*
X153703102Y67076689D02*
X153655483Y67171927D01*
X153607864Y67219546D01*
X153512626Y67267165D01*
X153465007Y67267165D01*
X153369769Y67219546D01*
X153322150Y67171927D01*
X153274530Y67076689D01*
X153274530Y66886212D01*
X153322150Y66790974D01*
X153369769Y66743355D01*
X153465007Y66695736D01*
X153512626Y66695736D01*
X153607864Y66743355D01*
X153655483Y66790974D01*
X153703102Y66886212D01*
X153703102Y67076689D01*
X153750721Y67171927D01*
X153798340Y67219546D01*
X153893578Y67267165D01*
X154084054Y67267165D01*
X154179292Y67219546D01*
X154226911Y67171927D01*
X154274530Y67076689D01*
X154274530Y66886212D01*
X154226911Y66790974D01*
X154179292Y66743355D01*
X154084054Y66695736D01*
X153893578Y66695736D01*
X153798340Y66743355D01*
X153750721Y66790974D01*
X153703102Y66886212D01*
G04 #@! TO.C,D9*
X173324530Y68219546D02*
X172324530Y68219546D01*
X172324530Y67981450D01*
X172372150Y67838593D01*
X172467388Y67743355D01*
X172562626Y67695736D01*
X172753102Y67648117D01*
X172895959Y67648117D01*
X173086435Y67695736D01*
X173181673Y67743355D01*
X173276911Y67838593D01*
X173324530Y67981450D01*
X173324530Y68219546D01*
X173324530Y67171927D02*
X173324530Y66981450D01*
X173276911Y66886212D01*
X173229292Y66838593D01*
X173086435Y66743355D01*
X172895959Y66695736D01*
X172515007Y66695736D01*
X172419769Y66743355D01*
X172372150Y66790974D01*
X172324530Y66886212D01*
X172324530Y67076689D01*
X172372150Y67171927D01*
X172419769Y67219546D01*
X172515007Y67267165D01*
X172753102Y67267165D01*
X172848340Y67219546D01*
X172895959Y67171927D01*
X172943578Y67076689D01*
X172943578Y66886212D01*
X172895959Y66790974D01*
X172848340Y66743355D01*
X172753102Y66695736D01*
G04 #@! TO.C,D10*
X191104685Y70312020D02*
X191104685Y71312020D01*
X190866590Y71312020D01*
X190723733Y71264400D01*
X190628495Y71169162D01*
X190580876Y71073924D01*
X190533257Y70883448D01*
X190533257Y70740591D01*
X190580876Y70550115D01*
X190628495Y70454877D01*
X190723733Y70359639D01*
X190866590Y70312020D01*
X191104685Y70312020D01*
X189580876Y70312020D02*
X190152304Y70312020D01*
X189866590Y70312020D02*
X189866590Y71312020D01*
X189961828Y71169162D01*
X190057066Y71073924D01*
X190152304Y71026305D01*
X188961828Y71312020D02*
X188866590Y71312020D01*
X188771352Y71264400D01*
X188723733Y71216781D01*
X188676114Y71121543D01*
X188628495Y70931067D01*
X188628495Y70692972D01*
X188676114Y70502496D01*
X188723733Y70407258D01*
X188771352Y70359639D01*
X188866590Y70312020D01*
X188961828Y70312020D01*
X189057066Y70359639D01*
X189104685Y70407258D01*
X189152304Y70502496D01*
X189199923Y70692972D01*
X189199923Y70931067D01*
X189152304Y71121543D01*
X189104685Y71216781D01*
X189057066Y71264400D01*
X188961828Y71312020D01*
G04 #@! TO.C,D11*
X194762380Y71673886D02*
X193762380Y71673886D01*
X193762380Y71435791D01*
X193810000Y71292934D01*
X193905238Y71197696D01*
X194000476Y71150077D01*
X194190952Y71102458D01*
X194333809Y71102458D01*
X194524285Y71150077D01*
X194619523Y71197696D01*
X194714761Y71292934D01*
X194762380Y71435791D01*
X194762380Y71673886D01*
X194762380Y70150077D02*
X194762380Y70721505D01*
X194762380Y70435791D02*
X193762380Y70435791D01*
X193905238Y70531029D01*
X194000476Y70626267D01*
X194048095Y70721505D01*
X194762380Y69197696D02*
X194762380Y69769124D01*
X194762380Y69483410D02*
X193762380Y69483410D01*
X193905238Y69578648D01*
X194000476Y69673886D01*
X194048095Y69769124D01*
G04 #@! TO.C,D12*
X237618280Y68695736D02*
X236618280Y68695736D01*
X236618280Y68457641D01*
X236665900Y68314784D01*
X236761138Y68219546D01*
X236856376Y68171927D01*
X237046852Y68124308D01*
X237189709Y68124308D01*
X237380185Y68171927D01*
X237475423Y68219546D01*
X237570661Y68314784D01*
X237618280Y68457641D01*
X237618280Y68695736D01*
X237618280Y67171927D02*
X237618280Y67743355D01*
X237618280Y67457641D02*
X236618280Y67457641D01*
X236761138Y67552879D01*
X236856376Y67648117D01*
X236903995Y67743355D01*
X236713519Y66790974D02*
X236665900Y66743355D01*
X236618280Y66648117D01*
X236618280Y66410022D01*
X236665900Y66314784D01*
X236713519Y66267165D01*
X236808757Y66219546D01*
X236903995Y66219546D01*
X237046852Y66267165D01*
X237618280Y66838593D01*
X237618280Y66219546D01*
G04 #@! TO.C,D13*
X23127980Y47289886D02*
X22127980Y47289886D01*
X22127980Y47051791D01*
X22175600Y46908934D01*
X22270838Y46813696D01*
X22366076Y46766077D01*
X22556552Y46718458D01*
X22699409Y46718458D01*
X22889885Y46766077D01*
X22985123Y46813696D01*
X23080361Y46908934D01*
X23127980Y47051791D01*
X23127980Y47289886D01*
X23127980Y45766077D02*
X23127980Y46337505D01*
X23127980Y46051791D02*
X22127980Y46051791D01*
X22270838Y46147029D01*
X22366076Y46242267D01*
X22413695Y46337505D01*
X22127980Y45432743D02*
X22127980Y44813696D01*
X22508933Y45147029D01*
X22508933Y45004172D01*
X22556552Y44908934D01*
X22604171Y44861315D01*
X22699409Y44813696D01*
X22937504Y44813696D01*
X23032742Y44861315D01*
X23080361Y44908934D01*
X23127980Y45004172D01*
X23127980Y45289886D01*
X23080361Y45385124D01*
X23032742Y45432743D01*
G04 #@! TO.C,D14*
X44737030Y49645736D02*
X43737030Y49645736D01*
X43737030Y49407641D01*
X43784650Y49264784D01*
X43879888Y49169546D01*
X43975126Y49121927D01*
X44165602Y49074308D01*
X44308459Y49074308D01*
X44498935Y49121927D01*
X44594173Y49169546D01*
X44689411Y49264784D01*
X44737030Y49407641D01*
X44737030Y49645736D01*
X44737030Y48121927D02*
X44737030Y48693355D01*
X44737030Y48407641D02*
X43737030Y48407641D01*
X43879888Y48502879D01*
X43975126Y48598117D01*
X44022745Y48693355D01*
X44070364Y47264784D02*
X44737030Y47264784D01*
X43689411Y47502879D02*
X44403697Y47740974D01*
X44403697Y47121927D01*
G04 #@! TO.C,D15*
X64021980Y47086686D02*
X63021980Y47086686D01*
X63021980Y46848591D01*
X63069600Y46705734D01*
X63164838Y46610496D01*
X63260076Y46562877D01*
X63450552Y46515258D01*
X63593409Y46515258D01*
X63783885Y46562877D01*
X63879123Y46610496D01*
X63974361Y46705734D01*
X64021980Y46848591D01*
X64021980Y47086686D01*
X64021980Y45562877D02*
X64021980Y46134305D01*
X64021980Y45848591D02*
X63021980Y45848591D01*
X63164838Y45943829D01*
X63260076Y46039067D01*
X63307695Y46134305D01*
X63021980Y44658115D02*
X63021980Y45134305D01*
X63498171Y45181924D01*
X63450552Y45134305D01*
X63402933Y45039067D01*
X63402933Y44800972D01*
X63450552Y44705734D01*
X63498171Y44658115D01*
X63593409Y44610496D01*
X63831504Y44610496D01*
X63926742Y44658115D01*
X63974361Y44705734D01*
X64021980Y44800972D01*
X64021980Y45039067D01*
X63974361Y45134305D01*
X63926742Y45181924D01*
G04 #@! TO.C,D16*
X82837030Y49645736D02*
X81837030Y49645736D01*
X81837030Y49407641D01*
X81884650Y49264784D01*
X81979888Y49169546D01*
X82075126Y49121927D01*
X82265602Y49074308D01*
X82408459Y49074308D01*
X82598935Y49121927D01*
X82694173Y49169546D01*
X82789411Y49264784D01*
X82837030Y49407641D01*
X82837030Y49645736D01*
X82837030Y48121927D02*
X82837030Y48693355D01*
X82837030Y48407641D02*
X81837030Y48407641D01*
X81979888Y48502879D01*
X82075126Y48598117D01*
X82122745Y48693355D01*
X81837030Y47264784D02*
X81837030Y47455260D01*
X81884650Y47550498D01*
X81932269Y47598117D01*
X82075126Y47693355D01*
X82265602Y47740974D01*
X82646554Y47740974D01*
X82741792Y47693355D01*
X82789411Y47645736D01*
X82837030Y47550498D01*
X82837030Y47360022D01*
X82789411Y47264784D01*
X82741792Y47217165D01*
X82646554Y47169546D01*
X82408459Y47169546D01*
X82313221Y47217165D01*
X82265602Y47264784D01*
X82217983Y47360022D01*
X82217983Y47550498D01*
X82265602Y47645736D01*
X82313221Y47693355D01*
X82408459Y47740974D01*
G04 #@! TO.C,D17*
X101887030Y49645736D02*
X100887030Y49645736D01*
X100887030Y49407641D01*
X100934650Y49264784D01*
X101029888Y49169546D01*
X101125126Y49121927D01*
X101315602Y49074308D01*
X101458459Y49074308D01*
X101648935Y49121927D01*
X101744173Y49169546D01*
X101839411Y49264784D01*
X101887030Y49407641D01*
X101887030Y49645736D01*
X101887030Y48121927D02*
X101887030Y48693355D01*
X101887030Y48407641D02*
X100887030Y48407641D01*
X101029888Y48502879D01*
X101125126Y48598117D01*
X101172745Y48693355D01*
X100887030Y47788593D02*
X100887030Y47121927D01*
X101887030Y47550498D01*
G04 #@! TO.C,D18*
X121171980Y46985086D02*
X120171980Y46985086D01*
X120171980Y46746991D01*
X120219600Y46604134D01*
X120314838Y46508896D01*
X120410076Y46461277D01*
X120600552Y46413658D01*
X120743409Y46413658D01*
X120933885Y46461277D01*
X121029123Y46508896D01*
X121124361Y46604134D01*
X121171980Y46746991D01*
X121171980Y46985086D01*
X121171980Y45461277D02*
X121171980Y46032705D01*
X121171980Y45746991D02*
X120171980Y45746991D01*
X120314838Y45842229D01*
X120410076Y45937467D01*
X120457695Y46032705D01*
X120600552Y44889848D02*
X120552933Y44985086D01*
X120505314Y45032705D01*
X120410076Y45080324D01*
X120362457Y45080324D01*
X120267219Y45032705D01*
X120219600Y44985086D01*
X120171980Y44889848D01*
X120171980Y44699372D01*
X120219600Y44604134D01*
X120267219Y44556515D01*
X120362457Y44508896D01*
X120410076Y44508896D01*
X120505314Y44556515D01*
X120552933Y44604134D01*
X120600552Y44699372D01*
X120600552Y44889848D01*
X120648171Y44985086D01*
X120695790Y45032705D01*
X120791028Y45080324D01*
X120981504Y45080324D01*
X121076742Y45032705D01*
X121124361Y44985086D01*
X121171980Y44889848D01*
X121171980Y44699372D01*
X121124361Y44604134D01*
X121076742Y44556515D01*
X120981504Y44508896D01*
X120791028Y44508896D01*
X120695790Y44556515D01*
X120648171Y44604134D01*
X120600552Y44699372D01*
G04 #@! TO.C,D19*
X139987030Y49645736D02*
X138987030Y49645736D01*
X138987030Y49407641D01*
X139034650Y49264784D01*
X139129888Y49169546D01*
X139225126Y49121927D01*
X139415602Y49074308D01*
X139558459Y49074308D01*
X139748935Y49121927D01*
X139844173Y49169546D01*
X139939411Y49264784D01*
X139987030Y49407641D01*
X139987030Y49645736D01*
X139987030Y48121927D02*
X139987030Y48693355D01*
X139987030Y48407641D02*
X138987030Y48407641D01*
X139129888Y48502879D01*
X139225126Y48598117D01*
X139272745Y48693355D01*
X139987030Y47645736D02*
X139987030Y47455260D01*
X139939411Y47360022D01*
X139891792Y47312403D01*
X139748935Y47217165D01*
X139558459Y47169546D01*
X139177507Y47169546D01*
X139082269Y47217165D01*
X139034650Y47264784D01*
X138987030Y47360022D01*
X138987030Y47550498D01*
X139034650Y47645736D01*
X139082269Y47693355D01*
X139177507Y47740974D01*
X139415602Y47740974D01*
X139510840Y47693355D01*
X139558459Y47645736D01*
X139606078Y47550498D01*
X139606078Y47360022D01*
X139558459Y47264784D01*
X139510840Y47217165D01*
X139415602Y47169546D01*
G04 #@! TO.C,D20*
X158662380Y47086686D02*
X157662380Y47086686D01*
X157662380Y46848591D01*
X157710000Y46705734D01*
X157805238Y46610496D01*
X157900476Y46562877D01*
X158090952Y46515258D01*
X158233809Y46515258D01*
X158424285Y46562877D01*
X158519523Y46610496D01*
X158614761Y46705734D01*
X158662380Y46848591D01*
X158662380Y47086686D01*
X157757619Y46134305D02*
X157710000Y46086686D01*
X157662380Y45991448D01*
X157662380Y45753353D01*
X157710000Y45658115D01*
X157757619Y45610496D01*
X157852857Y45562877D01*
X157948095Y45562877D01*
X158090952Y45610496D01*
X158662380Y46181924D01*
X158662380Y45562877D01*
X157662380Y44943829D02*
X157662380Y44848591D01*
X157710000Y44753353D01*
X157757619Y44705734D01*
X157852857Y44658115D01*
X158043333Y44610496D01*
X158281428Y44610496D01*
X158471904Y44658115D01*
X158567142Y44705734D01*
X158614761Y44753353D01*
X158662380Y44848591D01*
X158662380Y44943829D01*
X158614761Y45039067D01*
X158567142Y45086686D01*
X158471904Y45134305D01*
X158281428Y45181924D01*
X158043333Y45181924D01*
X157852857Y45134305D01*
X157757619Y45086686D01*
X157710000Y45039067D01*
X157662380Y44943829D01*
G04 #@! TO.C,D21*
X178087030Y49645736D02*
X177087030Y49645736D01*
X177087030Y49407641D01*
X177134650Y49264784D01*
X177229888Y49169546D01*
X177325126Y49121927D01*
X177515602Y49074308D01*
X177658459Y49074308D01*
X177848935Y49121927D01*
X177944173Y49169546D01*
X178039411Y49264784D01*
X178087030Y49407641D01*
X178087030Y49645736D01*
X177182269Y48693355D02*
X177134650Y48645736D01*
X177087030Y48550498D01*
X177087030Y48312403D01*
X177134650Y48217165D01*
X177182269Y48169546D01*
X177277507Y48121927D01*
X177372745Y48121927D01*
X177515602Y48169546D01*
X178087030Y48740974D01*
X178087030Y48121927D01*
X178087030Y47169546D02*
X178087030Y47740974D01*
X178087030Y47455260D02*
X177087030Y47455260D01*
X177229888Y47550498D01*
X177325126Y47645736D01*
X177372745Y47740974D01*
G04 #@! TO.C,D22*
X196813180Y46985086D02*
X195813180Y46985086D01*
X195813180Y46746991D01*
X195860800Y46604134D01*
X195956038Y46508896D01*
X196051276Y46461277D01*
X196241752Y46413658D01*
X196384609Y46413658D01*
X196575085Y46461277D01*
X196670323Y46508896D01*
X196765561Y46604134D01*
X196813180Y46746991D01*
X196813180Y46985086D01*
X195908419Y46032705D02*
X195860800Y45985086D01*
X195813180Y45889848D01*
X195813180Y45651753D01*
X195860800Y45556515D01*
X195908419Y45508896D01*
X196003657Y45461277D01*
X196098895Y45461277D01*
X196241752Y45508896D01*
X196813180Y46080324D01*
X196813180Y45461277D01*
X195908419Y45080324D02*
X195860800Y45032705D01*
X195813180Y44937467D01*
X195813180Y44699372D01*
X195860800Y44604134D01*
X195908419Y44556515D01*
X196003657Y44508896D01*
X196098895Y44508896D01*
X196241752Y44556515D01*
X196813180Y45127943D01*
X196813180Y44508896D01*
G04 #@! TO.C,D23*
X212339180Y49728286D02*
X211339180Y49728286D01*
X211339180Y49490191D01*
X211386800Y49347334D01*
X211482038Y49252096D01*
X211577276Y49204477D01*
X211767752Y49156858D01*
X211910609Y49156858D01*
X212101085Y49204477D01*
X212196323Y49252096D01*
X212291561Y49347334D01*
X212339180Y49490191D01*
X212339180Y49728286D01*
X211434419Y48775905D02*
X211386800Y48728286D01*
X211339180Y48633048D01*
X211339180Y48394953D01*
X211386800Y48299715D01*
X211434419Y48252096D01*
X211529657Y48204477D01*
X211624895Y48204477D01*
X211767752Y48252096D01*
X212339180Y48823524D01*
X212339180Y48204477D01*
X211339180Y47871143D02*
X211339180Y47252096D01*
X211720133Y47585429D01*
X211720133Y47442572D01*
X211767752Y47347334D01*
X211815371Y47299715D01*
X211910609Y47252096D01*
X212148704Y47252096D01*
X212243942Y47299715D01*
X212291561Y47347334D01*
X212339180Y47442572D01*
X212339180Y47728286D01*
X212291561Y47823524D01*
X212243942Y47871143D01*
G04 #@! TO.C,D24*
X239999530Y49645736D02*
X238999530Y49645736D01*
X238999530Y49407641D01*
X239047150Y49264784D01*
X239142388Y49169546D01*
X239237626Y49121927D01*
X239428102Y49074308D01*
X239570959Y49074308D01*
X239761435Y49121927D01*
X239856673Y49169546D01*
X239951911Y49264784D01*
X239999530Y49407641D01*
X239999530Y49645736D01*
X239094769Y48693355D02*
X239047150Y48645736D01*
X238999530Y48550498D01*
X238999530Y48312403D01*
X239047150Y48217165D01*
X239094769Y48169546D01*
X239190007Y48121927D01*
X239285245Y48121927D01*
X239428102Y48169546D01*
X239999530Y48740974D01*
X239999530Y48121927D01*
X239332864Y47264784D02*
X239999530Y47264784D01*
X238951911Y47502879D02*
X239666197Y47740974D01*
X239666197Y47121927D01*
G04 #@! TO.C,D25*
X28068280Y30595736D02*
X27068280Y30595736D01*
X27068280Y30357641D01*
X27115900Y30214784D01*
X27211138Y30119546D01*
X27306376Y30071927D01*
X27496852Y30024308D01*
X27639709Y30024308D01*
X27830185Y30071927D01*
X27925423Y30119546D01*
X28020661Y30214784D01*
X28068280Y30357641D01*
X28068280Y30595736D01*
X27163519Y29643355D02*
X27115900Y29595736D01*
X27068280Y29500498D01*
X27068280Y29262403D01*
X27115900Y29167165D01*
X27163519Y29119546D01*
X27258757Y29071927D01*
X27353995Y29071927D01*
X27496852Y29119546D01*
X28068280Y29690974D01*
X28068280Y29071927D01*
X27068280Y28167165D02*
X27068280Y28643355D01*
X27544471Y28690974D01*
X27496852Y28643355D01*
X27449233Y28548117D01*
X27449233Y28310022D01*
X27496852Y28214784D01*
X27544471Y28167165D01*
X27639709Y28119546D01*
X27877804Y28119546D01*
X27973042Y28167165D01*
X28020661Y28214784D01*
X28068280Y28310022D01*
X28068280Y28548117D01*
X28020661Y28643355D01*
X27973042Y28690974D01*
G04 #@! TO.C,D26*
X54262030Y30595736D02*
X53262030Y30595736D01*
X53262030Y30357641D01*
X53309650Y30214784D01*
X53404888Y30119546D01*
X53500126Y30071927D01*
X53690602Y30024308D01*
X53833459Y30024308D01*
X54023935Y30071927D01*
X54119173Y30119546D01*
X54214411Y30214784D01*
X54262030Y30357641D01*
X54262030Y30595736D01*
X53357269Y29643355D02*
X53309650Y29595736D01*
X53262030Y29500498D01*
X53262030Y29262403D01*
X53309650Y29167165D01*
X53357269Y29119546D01*
X53452507Y29071927D01*
X53547745Y29071927D01*
X53690602Y29119546D01*
X54262030Y29690974D01*
X54262030Y29071927D01*
X53262030Y28214784D02*
X53262030Y28405260D01*
X53309650Y28500498D01*
X53357269Y28548117D01*
X53500126Y28643355D01*
X53690602Y28690974D01*
X54071554Y28690974D01*
X54166792Y28643355D01*
X54214411Y28595736D01*
X54262030Y28500498D01*
X54262030Y28310022D01*
X54214411Y28214784D01*
X54166792Y28167165D01*
X54071554Y28119546D01*
X53833459Y28119546D01*
X53738221Y28167165D01*
X53690602Y28214784D01*
X53642983Y28310022D01*
X53642983Y28500498D01*
X53690602Y28595736D01*
X53738221Y28643355D01*
X53833459Y28690974D01*
G04 #@! TO.C,D27*
X73312030Y30595736D02*
X72312030Y30595736D01*
X72312030Y30357641D01*
X72359650Y30214784D01*
X72454888Y30119546D01*
X72550126Y30071927D01*
X72740602Y30024308D01*
X72883459Y30024308D01*
X73073935Y30071927D01*
X73169173Y30119546D01*
X73264411Y30214784D01*
X73312030Y30357641D01*
X73312030Y30595736D01*
X72407269Y29643355D02*
X72359650Y29595736D01*
X72312030Y29500498D01*
X72312030Y29262403D01*
X72359650Y29167165D01*
X72407269Y29119546D01*
X72502507Y29071927D01*
X72597745Y29071927D01*
X72740602Y29119546D01*
X73312030Y29690974D01*
X73312030Y29071927D01*
X72312030Y28738593D02*
X72312030Y28071927D01*
X73312030Y28500498D01*
G04 #@! TO.C,D28*
X90825485Y32262820D02*
X90825485Y33262820D01*
X90587390Y33262820D01*
X90444533Y33215200D01*
X90349295Y33119962D01*
X90301676Y33024724D01*
X90254057Y32834248D01*
X90254057Y32691391D01*
X90301676Y32500915D01*
X90349295Y32405677D01*
X90444533Y32310439D01*
X90587390Y32262820D01*
X90825485Y32262820D01*
X89873104Y33167581D02*
X89825485Y33215200D01*
X89730247Y33262820D01*
X89492152Y33262820D01*
X89396914Y33215200D01*
X89349295Y33167581D01*
X89301676Y33072343D01*
X89301676Y32977105D01*
X89349295Y32834248D01*
X89920723Y32262820D01*
X89301676Y32262820D01*
X88730247Y32834248D02*
X88825485Y32881867D01*
X88873104Y32929486D01*
X88920723Y33024724D01*
X88920723Y33072343D01*
X88873104Y33167581D01*
X88825485Y33215200D01*
X88730247Y33262820D01*
X88539771Y33262820D01*
X88444533Y33215200D01*
X88396914Y33167581D01*
X88349295Y33072343D01*
X88349295Y33024724D01*
X88396914Y32929486D01*
X88444533Y32881867D01*
X88539771Y32834248D01*
X88730247Y32834248D01*
X88825485Y32786629D01*
X88873104Y32739010D01*
X88920723Y32643772D01*
X88920723Y32453296D01*
X88873104Y32358058D01*
X88825485Y32310439D01*
X88730247Y32262820D01*
X88539771Y32262820D01*
X88444533Y32310439D01*
X88396914Y32358058D01*
X88349295Y32453296D01*
X88349295Y32643772D01*
X88396914Y32739010D01*
X88444533Y32786629D01*
X88539771Y32834248D01*
G04 #@! TO.C,D29*
X94483180Y32253086D02*
X93483180Y32253086D01*
X93483180Y32014991D01*
X93530800Y31872134D01*
X93626038Y31776896D01*
X93721276Y31729277D01*
X93911752Y31681658D01*
X94054609Y31681658D01*
X94245085Y31729277D01*
X94340323Y31776896D01*
X94435561Y31872134D01*
X94483180Y32014991D01*
X94483180Y32253086D01*
X93578419Y31300705D02*
X93530800Y31253086D01*
X93483180Y31157848D01*
X93483180Y30919753D01*
X93530800Y30824515D01*
X93578419Y30776896D01*
X93673657Y30729277D01*
X93768895Y30729277D01*
X93911752Y30776896D01*
X94483180Y31348324D01*
X94483180Y30729277D01*
X94483180Y30253086D02*
X94483180Y30062610D01*
X94435561Y29967372D01*
X94387942Y29919753D01*
X94245085Y29824515D01*
X94054609Y29776896D01*
X93673657Y29776896D01*
X93578419Y29824515D01*
X93530800Y29872134D01*
X93483180Y29967372D01*
X93483180Y30157848D01*
X93530800Y30253086D01*
X93578419Y30300705D01*
X93673657Y30348324D01*
X93911752Y30348324D01*
X94006990Y30300705D01*
X94054609Y30253086D01*
X94102228Y30157848D01*
X94102228Y29967372D01*
X94054609Y29872134D01*
X94006990Y29824515D01*
X93911752Y29776896D01*
G04 #@! TO.C,D30*
X130462030Y30595736D02*
X129462030Y30595736D01*
X129462030Y30357641D01*
X129509650Y30214784D01*
X129604888Y30119546D01*
X129700126Y30071927D01*
X129890602Y30024308D01*
X130033459Y30024308D01*
X130223935Y30071927D01*
X130319173Y30119546D01*
X130414411Y30214784D01*
X130462030Y30357641D01*
X130462030Y30595736D01*
X129462030Y29690974D02*
X129462030Y29071927D01*
X129842983Y29405260D01*
X129842983Y29262403D01*
X129890602Y29167165D01*
X129938221Y29119546D01*
X130033459Y29071927D01*
X130271554Y29071927D01*
X130366792Y29119546D01*
X130414411Y29167165D01*
X130462030Y29262403D01*
X130462030Y29548117D01*
X130414411Y29643355D01*
X130366792Y29690974D01*
X129462030Y28452879D02*
X129462030Y28357641D01*
X129509650Y28262403D01*
X129557269Y28214784D01*
X129652507Y28167165D01*
X129842983Y28119546D01*
X130081078Y28119546D01*
X130271554Y28167165D01*
X130366792Y28214784D01*
X130414411Y28262403D01*
X130462030Y28357641D01*
X130462030Y28452879D01*
X130414411Y28548117D01*
X130366792Y28595736D01*
X130271554Y28643355D01*
X130081078Y28690974D01*
X129842983Y28690974D01*
X129652507Y28643355D01*
X129557269Y28595736D01*
X129509650Y28548117D01*
X129462030Y28452879D01*
G04 #@! TO.C,D31*
X149512030Y30595736D02*
X148512030Y30595736D01*
X148512030Y30357641D01*
X148559650Y30214784D01*
X148654888Y30119546D01*
X148750126Y30071927D01*
X148940602Y30024308D01*
X149083459Y30024308D01*
X149273935Y30071927D01*
X149369173Y30119546D01*
X149464411Y30214784D01*
X149512030Y30357641D01*
X149512030Y30595736D01*
X148512030Y29690974D02*
X148512030Y29071927D01*
X148892983Y29405260D01*
X148892983Y29262403D01*
X148940602Y29167165D01*
X148988221Y29119546D01*
X149083459Y29071927D01*
X149321554Y29071927D01*
X149416792Y29119546D01*
X149464411Y29167165D01*
X149512030Y29262403D01*
X149512030Y29548117D01*
X149464411Y29643355D01*
X149416792Y29690974D01*
X149512030Y28119546D02*
X149512030Y28690974D01*
X149512030Y28405260D02*
X148512030Y28405260D01*
X148654888Y28500498D01*
X148750126Y28595736D01*
X148797745Y28690974D01*
G04 #@! TO.C,D32*
X168562030Y30595736D02*
X167562030Y30595736D01*
X167562030Y30357641D01*
X167609650Y30214784D01*
X167704888Y30119546D01*
X167800126Y30071927D01*
X167990602Y30024308D01*
X168133459Y30024308D01*
X168323935Y30071927D01*
X168419173Y30119546D01*
X168514411Y30214784D01*
X168562030Y30357641D01*
X168562030Y30595736D01*
X167562030Y29690974D02*
X167562030Y29071927D01*
X167942983Y29405260D01*
X167942983Y29262403D01*
X167990602Y29167165D01*
X168038221Y29119546D01*
X168133459Y29071927D01*
X168371554Y29071927D01*
X168466792Y29119546D01*
X168514411Y29167165D01*
X168562030Y29262403D01*
X168562030Y29548117D01*
X168514411Y29643355D01*
X168466792Y29690974D01*
X167657269Y28690974D02*
X167609650Y28643355D01*
X167562030Y28548117D01*
X167562030Y28310022D01*
X167609650Y28214784D01*
X167657269Y28167165D01*
X167752507Y28119546D01*
X167847745Y28119546D01*
X167990602Y28167165D01*
X168562030Y28738593D01*
X168562030Y28119546D01*
G04 #@! TO.C,D33*
X187612030Y30595736D02*
X186612030Y30595736D01*
X186612030Y30357641D01*
X186659650Y30214784D01*
X186754888Y30119546D01*
X186850126Y30071927D01*
X187040602Y30024308D01*
X187183459Y30024308D01*
X187373935Y30071927D01*
X187469173Y30119546D01*
X187564411Y30214784D01*
X187612030Y30357641D01*
X187612030Y30595736D01*
X186612030Y29690974D02*
X186612030Y29071927D01*
X186992983Y29405260D01*
X186992983Y29262403D01*
X187040602Y29167165D01*
X187088221Y29119546D01*
X187183459Y29071927D01*
X187421554Y29071927D01*
X187516792Y29119546D01*
X187564411Y29167165D01*
X187612030Y29262403D01*
X187612030Y29548117D01*
X187564411Y29643355D01*
X187516792Y29690974D01*
X186612030Y28738593D02*
X186612030Y28119546D01*
X186992983Y28452879D01*
X186992983Y28310022D01*
X187040602Y28214784D01*
X187088221Y28167165D01*
X187183459Y28119546D01*
X187421554Y28119546D01*
X187516792Y28167165D01*
X187564411Y28214784D01*
X187612030Y28310022D01*
X187612030Y28595736D01*
X187564411Y28690974D01*
X187516792Y28738593D01*
G04 #@! TO.C,D34*
X206662030Y30595736D02*
X205662030Y30595736D01*
X205662030Y30357641D01*
X205709650Y30214784D01*
X205804888Y30119546D01*
X205900126Y30071927D01*
X206090602Y30024308D01*
X206233459Y30024308D01*
X206423935Y30071927D01*
X206519173Y30119546D01*
X206614411Y30214784D01*
X206662030Y30357641D01*
X206662030Y30595736D01*
X205662030Y29690974D02*
X205662030Y29071927D01*
X206042983Y29405260D01*
X206042983Y29262403D01*
X206090602Y29167165D01*
X206138221Y29119546D01*
X206233459Y29071927D01*
X206471554Y29071927D01*
X206566792Y29119546D01*
X206614411Y29167165D01*
X206662030Y29262403D01*
X206662030Y29548117D01*
X206614411Y29643355D01*
X206566792Y29690974D01*
X205995364Y28214784D02*
X206662030Y28214784D01*
X205614411Y28452879D02*
X206328697Y28690974D01*
X206328697Y28071927D01*
G04 #@! TO.C,D35*
X225712030Y30595736D02*
X224712030Y30595736D01*
X224712030Y30357641D01*
X224759650Y30214784D01*
X224854888Y30119546D01*
X224950126Y30071927D01*
X225140602Y30024308D01*
X225283459Y30024308D01*
X225473935Y30071927D01*
X225569173Y30119546D01*
X225664411Y30214784D01*
X225712030Y30357641D01*
X225712030Y30595736D01*
X224712030Y29690974D02*
X224712030Y29071927D01*
X225092983Y29405260D01*
X225092983Y29262403D01*
X225140602Y29167165D01*
X225188221Y29119546D01*
X225283459Y29071927D01*
X225521554Y29071927D01*
X225616792Y29119546D01*
X225664411Y29167165D01*
X225712030Y29262403D01*
X225712030Y29548117D01*
X225664411Y29643355D01*
X225616792Y29690974D01*
X224712030Y28167165D02*
X224712030Y28643355D01*
X225188221Y28690974D01*
X225140602Y28643355D01*
X225092983Y28548117D01*
X225092983Y28310022D01*
X225140602Y28214784D01*
X225188221Y28167165D01*
X225283459Y28119546D01*
X225521554Y28119546D01*
X225616792Y28167165D01*
X225664411Y28214784D01*
X225712030Y28310022D01*
X225712030Y28548117D01*
X225664411Y28643355D01*
X225616792Y28690974D01*
G04 #@! TO.C,D36*
X240710980Y37485486D02*
X239710980Y37485486D01*
X239710980Y37247391D01*
X239758600Y37104534D01*
X239853838Y37009296D01*
X239949076Y36961677D01*
X240139552Y36914058D01*
X240282409Y36914058D01*
X240472885Y36961677D01*
X240568123Y37009296D01*
X240663361Y37104534D01*
X240710980Y37247391D01*
X240710980Y37485486D01*
X239710980Y36580724D02*
X239710980Y35961677D01*
X240091933Y36295010D01*
X240091933Y36152153D01*
X240139552Y36056915D01*
X240187171Y36009296D01*
X240282409Y35961677D01*
X240520504Y35961677D01*
X240615742Y36009296D01*
X240663361Y36056915D01*
X240710980Y36152153D01*
X240710980Y36437867D01*
X240663361Y36533105D01*
X240615742Y36580724D01*
X239710980Y35104534D02*
X239710980Y35295010D01*
X239758600Y35390248D01*
X239806219Y35437867D01*
X239949076Y35533105D01*
X240139552Y35580724D01*
X240520504Y35580724D01*
X240615742Y35533105D01*
X240663361Y35485486D01*
X240710980Y35390248D01*
X240710980Y35199772D01*
X240663361Y35104534D01*
X240615742Y35056915D01*
X240520504Y35009296D01*
X240282409Y35009296D01*
X240187171Y35056915D01*
X240139552Y35104534D01*
X240091933Y35199772D01*
X240091933Y35390248D01*
X240139552Y35485486D01*
X240187171Y35533105D01*
X240282409Y35580724D01*
G04 #@! TO.C,D37*
X22512030Y11545736D02*
X21512030Y11545736D01*
X21512030Y11307641D01*
X21559650Y11164784D01*
X21654888Y11069546D01*
X21750126Y11021927D01*
X21940602Y10974308D01*
X22083459Y10974308D01*
X22273935Y11021927D01*
X22369173Y11069546D01*
X22464411Y11164784D01*
X22512030Y11307641D01*
X22512030Y11545736D01*
X21512030Y10640974D02*
X21512030Y10021927D01*
X21892983Y10355260D01*
X21892983Y10212403D01*
X21940602Y10117165D01*
X21988221Y10069546D01*
X22083459Y10021927D01*
X22321554Y10021927D01*
X22416792Y10069546D01*
X22464411Y10117165D01*
X22512030Y10212403D01*
X22512030Y10498117D01*
X22464411Y10593355D01*
X22416792Y10640974D01*
X21512030Y9688593D02*
X21512030Y9021927D01*
X22512030Y9450498D01*
G04 #@! TO.C,D38*
X39180780Y17895736D02*
X38180780Y17895736D01*
X38180780Y17657641D01*
X38228400Y17514784D01*
X38323638Y17419546D01*
X38418876Y17371927D01*
X38609352Y17324308D01*
X38752209Y17324308D01*
X38942685Y17371927D01*
X39037923Y17419546D01*
X39133161Y17514784D01*
X39180780Y17657641D01*
X39180780Y17895736D01*
X38180780Y16990974D02*
X38180780Y16371927D01*
X38561733Y16705260D01*
X38561733Y16562403D01*
X38609352Y16467165D01*
X38656971Y16419546D01*
X38752209Y16371927D01*
X38990304Y16371927D01*
X39085542Y16419546D01*
X39133161Y16467165D01*
X39180780Y16562403D01*
X39180780Y16848117D01*
X39133161Y16943355D01*
X39085542Y16990974D01*
X38609352Y15800498D02*
X38561733Y15895736D01*
X38514114Y15943355D01*
X38418876Y15990974D01*
X38371257Y15990974D01*
X38276019Y15943355D01*
X38228400Y15895736D01*
X38180780Y15800498D01*
X38180780Y15610022D01*
X38228400Y15514784D01*
X38276019Y15467165D01*
X38371257Y15419546D01*
X38418876Y15419546D01*
X38514114Y15467165D01*
X38561733Y15514784D01*
X38609352Y15610022D01*
X38609352Y15800498D01*
X38656971Y15895736D01*
X38704590Y15943355D01*
X38799828Y15990974D01*
X38990304Y15990974D01*
X39085542Y15943355D01*
X39133161Y15895736D01*
X39180780Y15800498D01*
X39180780Y15610022D01*
X39133161Y15514784D01*
X39085542Y15467165D01*
X38990304Y15419546D01*
X38799828Y15419546D01*
X38704590Y15467165D01*
X38656971Y15514784D01*
X38609352Y15610022D01*
G04 #@! TO.C,D39*
X58230780Y14720736D02*
X57230780Y14720736D01*
X57230780Y14482641D01*
X57278400Y14339784D01*
X57373638Y14244546D01*
X57468876Y14196927D01*
X57659352Y14149308D01*
X57802209Y14149308D01*
X57992685Y14196927D01*
X58087923Y14244546D01*
X58183161Y14339784D01*
X58230780Y14482641D01*
X58230780Y14720736D01*
X57230780Y13815974D02*
X57230780Y13196927D01*
X57611733Y13530260D01*
X57611733Y13387403D01*
X57659352Y13292165D01*
X57706971Y13244546D01*
X57802209Y13196927D01*
X58040304Y13196927D01*
X58135542Y13244546D01*
X58183161Y13292165D01*
X58230780Y13387403D01*
X58230780Y13673117D01*
X58183161Y13768355D01*
X58135542Y13815974D01*
X58230780Y12720736D02*
X58230780Y12530260D01*
X58183161Y12435022D01*
X58135542Y12387403D01*
X57992685Y12292165D01*
X57802209Y12244546D01*
X57421257Y12244546D01*
X57326019Y12292165D01*
X57278400Y12339784D01*
X57230780Y12435022D01*
X57230780Y12625498D01*
X57278400Y12720736D01*
X57326019Y12768355D01*
X57421257Y12815974D01*
X57659352Y12815974D01*
X57754590Y12768355D01*
X57802209Y12720736D01*
X57849828Y12625498D01*
X57849828Y12435022D01*
X57802209Y12339784D01*
X57754590Y12292165D01*
X57659352Y12244546D01*
G04 #@! TO.C,D40*
X74213885Y16260820D02*
X74213885Y17260820D01*
X73975790Y17260820D01*
X73832933Y17213200D01*
X73737695Y17117962D01*
X73690076Y17022724D01*
X73642457Y16832248D01*
X73642457Y16689391D01*
X73690076Y16498915D01*
X73737695Y16403677D01*
X73832933Y16308439D01*
X73975790Y16260820D01*
X74213885Y16260820D01*
X72785314Y16927486D02*
X72785314Y16260820D01*
X73023409Y17308439D02*
X73261504Y16594153D01*
X72642457Y16594153D01*
X72071028Y17260820D02*
X71975790Y17260820D01*
X71880552Y17213200D01*
X71832933Y17165581D01*
X71785314Y17070343D01*
X71737695Y16879867D01*
X71737695Y16641772D01*
X71785314Y16451296D01*
X71832933Y16356058D01*
X71880552Y16308439D01*
X71975790Y16260820D01*
X72071028Y16260820D01*
X72166266Y16308439D01*
X72213885Y16356058D01*
X72261504Y16451296D01*
X72309123Y16641772D01*
X72309123Y16879867D01*
X72261504Y17070343D01*
X72213885Y17165581D01*
X72166266Y17213200D01*
X72071028Y17260820D01*
G04 #@! TO.C,D41*
X91568280Y11545736D02*
X90568280Y11545736D01*
X90568280Y11307641D01*
X90615900Y11164784D01*
X90711138Y11069546D01*
X90806376Y11021927D01*
X90996852Y10974308D01*
X91139709Y10974308D01*
X91330185Y11021927D01*
X91425423Y11069546D01*
X91520661Y11164784D01*
X91568280Y11307641D01*
X91568280Y11545736D01*
X90901614Y10117165D02*
X91568280Y10117165D01*
X90520661Y10355260D02*
X91234947Y10593355D01*
X91234947Y9974308D01*
X91568280Y9069546D02*
X91568280Y9640974D01*
X91568280Y9355260D02*
X90568280Y9355260D01*
X90711138Y9450498D01*
X90806376Y9545736D01*
X90853995Y9640974D01*
G04 #@! TO.C,D42*
X149512030Y11545736D02*
X148512030Y11545736D01*
X148512030Y11307641D01*
X148559650Y11164784D01*
X148654888Y11069546D01*
X148750126Y11021927D01*
X148940602Y10974308D01*
X149083459Y10974308D01*
X149273935Y11021927D01*
X149369173Y11069546D01*
X149464411Y11164784D01*
X149512030Y11307641D01*
X149512030Y11545736D01*
X148845364Y10117165D02*
X149512030Y10117165D01*
X148464411Y10355260D02*
X149178697Y10593355D01*
X149178697Y9974308D01*
X148607269Y9640974D02*
X148559650Y9593355D01*
X148512030Y9498117D01*
X148512030Y9260022D01*
X148559650Y9164784D01*
X148607269Y9117165D01*
X148702507Y9069546D01*
X148797745Y9069546D01*
X148940602Y9117165D01*
X149512030Y9688593D01*
X149512030Y9069546D01*
G04 #@! TO.C,D43*
X162751780Y11577486D02*
X161751780Y11577486D01*
X161751780Y11339391D01*
X161799400Y11196534D01*
X161894638Y11101296D01*
X161989876Y11053677D01*
X162180352Y11006058D01*
X162323209Y11006058D01*
X162513685Y11053677D01*
X162608923Y11101296D01*
X162704161Y11196534D01*
X162751780Y11339391D01*
X162751780Y11577486D01*
X162085114Y10148915D02*
X162751780Y10148915D01*
X161704161Y10387010D02*
X162418447Y10625105D01*
X162418447Y10006058D01*
X161751780Y9720343D02*
X161751780Y9101296D01*
X162132733Y9434629D01*
X162132733Y9291772D01*
X162180352Y9196534D01*
X162227971Y9148915D01*
X162323209Y9101296D01*
X162561304Y9101296D01*
X162656542Y9148915D01*
X162704161Y9196534D01*
X162751780Y9291772D01*
X162751780Y9577486D01*
X162704161Y9672724D01*
X162656542Y9720343D01*
G04 #@! TO.C,D44*
X206662030Y11545736D02*
X205662030Y11545736D01*
X205662030Y11307641D01*
X205709650Y11164784D01*
X205804888Y11069546D01*
X205900126Y11021927D01*
X206090602Y10974308D01*
X206233459Y10974308D01*
X206423935Y11021927D01*
X206519173Y11069546D01*
X206614411Y11164784D01*
X206662030Y11307641D01*
X206662030Y11545736D01*
X205995364Y10117165D02*
X206662030Y10117165D01*
X205614411Y10355260D02*
X206328697Y10593355D01*
X206328697Y9974308D01*
X205995364Y9164784D02*
X206662030Y9164784D01*
X205614411Y9402879D02*
X206328697Y9640974D01*
X206328697Y9021927D01*
G04 #@! TO.C,D45*
X224918280Y17895736D02*
X223918280Y17895736D01*
X223918280Y17657641D01*
X223965900Y17514784D01*
X224061138Y17419546D01*
X224156376Y17371927D01*
X224346852Y17324308D01*
X224489709Y17324308D01*
X224680185Y17371927D01*
X224775423Y17419546D01*
X224870661Y17514784D01*
X224918280Y17657641D01*
X224918280Y17895736D01*
X224251614Y16467165D02*
X224918280Y16467165D01*
X223870661Y16705260D02*
X224584947Y16943355D01*
X224584947Y16324308D01*
X223918280Y15467165D02*
X223918280Y15943355D01*
X224394471Y15990974D01*
X224346852Y15943355D01*
X224299233Y15848117D01*
X224299233Y15610022D01*
X224346852Y15514784D01*
X224394471Y15467165D01*
X224489709Y15419546D01*
X224727804Y15419546D01*
X224823042Y15467165D01*
X224870661Y15514784D01*
X224918280Y15610022D01*
X224918280Y15848117D01*
X224870661Y15943355D01*
X224823042Y15990974D01*
G04 #@! TO.C,D46*
X240152180Y19095886D02*
X239152180Y19095886D01*
X239152180Y18857791D01*
X239199800Y18714934D01*
X239295038Y18619696D01*
X239390276Y18572077D01*
X239580752Y18524458D01*
X239723609Y18524458D01*
X239914085Y18572077D01*
X240009323Y18619696D01*
X240104561Y18714934D01*
X240152180Y18857791D01*
X240152180Y19095886D01*
X239485514Y17667315D02*
X240152180Y17667315D01*
X239104561Y17905410D02*
X239818847Y18143505D01*
X239818847Y17524458D01*
X239152180Y16714934D02*
X239152180Y16905410D01*
X239199800Y17000648D01*
X239247419Y17048267D01*
X239390276Y17143505D01*
X239580752Y17191124D01*
X239961704Y17191124D01*
X240056942Y17143505D01*
X240104561Y17095886D01*
X240152180Y17000648D01*
X240152180Y16810172D01*
X240104561Y16714934D01*
X240056942Y16667315D01*
X239961704Y16619696D01*
X239723609Y16619696D01*
X239628371Y16667315D01*
X239580752Y16714934D01*
X239533133Y16810172D01*
X239533133Y17000648D01*
X239580752Y17095886D01*
X239628371Y17143505D01*
X239723609Y17191124D01*
G04 #@! TO.C,R46*
X241810780Y5418058D02*
X241334590Y5751391D01*
X241810780Y5989486D02*
X240810780Y5989486D01*
X240810780Y5608534D01*
X240858400Y5513296D01*
X240906019Y5465677D01*
X241001257Y5418058D01*
X241144114Y5418058D01*
X241239352Y5465677D01*
X241286971Y5513296D01*
X241334590Y5608534D01*
X241334590Y5989486D01*
X241144114Y4560915D02*
X241810780Y4560915D01*
X240763161Y4799010D02*
X241477447Y5037105D01*
X241477447Y4418058D01*
X240810780Y3608534D02*
X240810780Y3799010D01*
X240858400Y3894248D01*
X240906019Y3941867D01*
X241048876Y4037105D01*
X241239352Y4084724D01*
X241620304Y4084724D01*
X241715542Y4037105D01*
X241763161Y3989486D01*
X241810780Y3894248D01*
X241810780Y3703772D01*
X241763161Y3608534D01*
X241715542Y3560915D01*
X241620304Y3513296D01*
X241382209Y3513296D01*
X241286971Y3560915D01*
X241239352Y3608534D01*
X241191733Y3703772D01*
X241191733Y3894248D01*
X241239352Y3989486D01*
X241286971Y4037105D01*
X241382209Y4084724D01*
G04 #@! TO.C,C12*
X85504257Y20547058D02*
X85551876Y20499439D01*
X85694733Y20451820D01*
X85789971Y20451820D01*
X85932828Y20499439D01*
X86028066Y20594677D01*
X86075685Y20689915D01*
X86123304Y20880391D01*
X86123304Y21023248D01*
X86075685Y21213724D01*
X86028066Y21308962D01*
X85932828Y21404200D01*
X85789971Y21451820D01*
X85694733Y21451820D01*
X85551876Y21404200D01*
X85504257Y21356581D01*
X84551876Y20451820D02*
X85123304Y20451820D01*
X84837590Y20451820D02*
X84837590Y21451820D01*
X84932828Y21308962D01*
X85028066Y21213724D01*
X85123304Y21166105D01*
X84170923Y21356581D02*
X84123304Y21404200D01*
X84028066Y21451820D01*
X83789971Y21451820D01*
X83694733Y21404200D01*
X83647114Y21356581D01*
X83599495Y21261343D01*
X83599495Y21166105D01*
X83647114Y21023248D01*
X84218542Y20451820D01*
X83599495Y20451820D01*
G04 #@! TO.C,C13*
X31116542Y19642058D02*
X31164161Y19689677D01*
X31211780Y19832534D01*
X31211780Y19927772D01*
X31164161Y20070629D01*
X31068923Y20165867D01*
X30973685Y20213486D01*
X30783209Y20261105D01*
X30640352Y20261105D01*
X30449876Y20213486D01*
X30354638Y20165867D01*
X30259400Y20070629D01*
X30211780Y19927772D01*
X30211780Y19832534D01*
X30259400Y19689677D01*
X30307019Y19642058D01*
X31211780Y18689677D02*
X31211780Y19261105D01*
X31211780Y18975391D02*
X30211780Y18975391D01*
X30354638Y19070629D01*
X30449876Y19165867D01*
X30497495Y19261105D01*
X30211780Y18356343D02*
X30211780Y17737296D01*
X30592733Y18070629D01*
X30592733Y17927772D01*
X30640352Y17832534D01*
X30687971Y17784915D01*
X30783209Y17737296D01*
X31021304Y17737296D01*
X31116542Y17784915D01*
X31164161Y17832534D01*
X31211780Y17927772D01*
X31211780Y18213486D01*
X31164161Y18308724D01*
X31116542Y18356343D01*
G04 #@! TO.C,C14*
X29084542Y54313058D02*
X29132161Y54360677D01*
X29179780Y54503534D01*
X29179780Y54598772D01*
X29132161Y54741629D01*
X29036923Y54836867D01*
X28941685Y54884486D01*
X28751209Y54932105D01*
X28608352Y54932105D01*
X28417876Y54884486D01*
X28322638Y54836867D01*
X28227400Y54741629D01*
X28179780Y54598772D01*
X28179780Y54503534D01*
X28227400Y54360677D01*
X28275019Y54313058D01*
X29179780Y53360677D02*
X29179780Y53932105D01*
X29179780Y53646391D02*
X28179780Y53646391D01*
X28322638Y53741629D01*
X28417876Y53836867D01*
X28465495Y53932105D01*
X28513114Y52503534D02*
X29179780Y52503534D01*
X28132161Y52741629D02*
X28846447Y52979724D01*
X28846447Y52360677D01*
G04 #@! TO.C,C15*
X69089542Y54567058D02*
X69137161Y54614677D01*
X69184780Y54757534D01*
X69184780Y54852772D01*
X69137161Y54995629D01*
X69041923Y55090867D01*
X68946685Y55138486D01*
X68756209Y55186105D01*
X68613352Y55186105D01*
X68422876Y55138486D01*
X68327638Y55090867D01*
X68232400Y54995629D01*
X68184780Y54852772D01*
X68184780Y54757534D01*
X68232400Y54614677D01*
X68280019Y54567058D01*
X69184780Y53614677D02*
X69184780Y54186105D01*
X69184780Y53900391D02*
X68184780Y53900391D01*
X68327638Y53995629D01*
X68422876Y54090867D01*
X68470495Y54186105D01*
X68184780Y52709915D02*
X68184780Y53186105D01*
X68660971Y53233724D01*
X68613352Y53186105D01*
X68565733Y53090867D01*
X68565733Y52852772D01*
X68613352Y52757534D01*
X68660971Y52709915D01*
X68756209Y52662296D01*
X68994304Y52662296D01*
X69089542Y52709915D01*
X69137161Y52757534D01*
X69184780Y52852772D01*
X69184780Y53090867D01*
X69137161Y53186105D01*
X69089542Y53233724D01*
G04 #@! TO.C,C16*
X126366542Y54694058D02*
X126414161Y54741677D01*
X126461780Y54884534D01*
X126461780Y54979772D01*
X126414161Y55122629D01*
X126318923Y55217867D01*
X126223685Y55265486D01*
X126033209Y55313105D01*
X125890352Y55313105D01*
X125699876Y55265486D01*
X125604638Y55217867D01*
X125509400Y55122629D01*
X125461780Y54979772D01*
X125461780Y54884534D01*
X125509400Y54741677D01*
X125557019Y54694058D01*
X126461780Y53741677D02*
X126461780Y54313105D01*
X126461780Y54027391D02*
X125461780Y54027391D01*
X125604638Y54122629D01*
X125699876Y54217867D01*
X125747495Y54313105D01*
X125461780Y52884534D02*
X125461780Y53075010D01*
X125509400Y53170248D01*
X125557019Y53217867D01*
X125699876Y53313105D01*
X125890352Y53360724D01*
X126271304Y53360724D01*
X126366542Y53313105D01*
X126414161Y53265486D01*
X126461780Y53170248D01*
X126461780Y52979772D01*
X126414161Y52884534D01*
X126366542Y52836915D01*
X126271304Y52789296D01*
X126033209Y52789296D01*
X125937971Y52836915D01*
X125890352Y52884534D01*
X125842733Y52979772D01*
X125842733Y53170248D01*
X125890352Y53265486D01*
X125937971Y53313105D01*
X126033209Y53360724D01*
G04 #@! TO.C,C17*
X165641257Y51509658D02*
X165688876Y51462039D01*
X165831733Y51414420D01*
X165926971Y51414420D01*
X166069828Y51462039D01*
X166165066Y51557277D01*
X166212685Y51652515D01*
X166260304Y51842991D01*
X166260304Y51985848D01*
X166212685Y52176324D01*
X166165066Y52271562D01*
X166069828Y52366800D01*
X165926971Y52414420D01*
X165831733Y52414420D01*
X165688876Y52366800D01*
X165641257Y52319181D01*
X164688876Y51414420D02*
X165260304Y51414420D01*
X164974590Y51414420D02*
X164974590Y52414420D01*
X165069828Y52271562D01*
X165165066Y52176324D01*
X165260304Y52128705D01*
X164355542Y52414420D02*
X163688876Y52414420D01*
X164117447Y51414420D01*
G04 #@! TO.C,C18*
X202217257Y54557658D02*
X202264876Y54510039D01*
X202407733Y54462420D01*
X202502971Y54462420D01*
X202645828Y54510039D01*
X202741066Y54605277D01*
X202788685Y54700515D01*
X202836304Y54890991D01*
X202836304Y55033848D01*
X202788685Y55224324D01*
X202741066Y55319562D01*
X202645828Y55414800D01*
X202502971Y55462420D01*
X202407733Y55462420D01*
X202264876Y55414800D01*
X202217257Y55367181D01*
X201264876Y54462420D02*
X201836304Y54462420D01*
X201550590Y54462420D02*
X201550590Y55462420D01*
X201645828Y55319562D01*
X201741066Y55224324D01*
X201836304Y55176705D01*
X200693447Y55033848D02*
X200788685Y55081467D01*
X200836304Y55129086D01*
X200883923Y55224324D01*
X200883923Y55271943D01*
X200836304Y55367181D01*
X200788685Y55414800D01*
X200693447Y55462420D01*
X200502971Y55462420D01*
X200407733Y55414800D01*
X200360114Y55367181D01*
X200312495Y55271943D01*
X200312495Y55224324D01*
X200360114Y55129086D01*
X200407733Y55081467D01*
X200502971Y55033848D01*
X200693447Y55033848D01*
X200788685Y54986229D01*
X200836304Y54938610D01*
X200883923Y54843372D01*
X200883923Y54652896D01*
X200836304Y54557658D01*
X200788685Y54510039D01*
X200693447Y54462420D01*
X200502971Y54462420D01*
X200407733Y54510039D01*
X200360114Y54557658D01*
X200312495Y54652896D01*
X200312495Y54843372D01*
X200360114Y54938610D01*
X200407733Y54986229D01*
X200502971Y55033848D01*
G04 #@! TO.C,C19*
X215266542Y19261058D02*
X215314161Y19308677D01*
X215361780Y19451534D01*
X215361780Y19546772D01*
X215314161Y19689629D01*
X215218923Y19784867D01*
X215123685Y19832486D01*
X214933209Y19880105D01*
X214790352Y19880105D01*
X214599876Y19832486D01*
X214504638Y19784867D01*
X214409400Y19689629D01*
X214361780Y19546772D01*
X214361780Y19451534D01*
X214409400Y19308677D01*
X214457019Y19261058D01*
X215361780Y18308677D02*
X215361780Y18880105D01*
X215361780Y18594391D02*
X214361780Y18594391D01*
X214504638Y18689629D01*
X214599876Y18784867D01*
X214647495Y18880105D01*
X215361780Y17832486D02*
X215361780Y17642010D01*
X215314161Y17546772D01*
X215266542Y17499153D01*
X215123685Y17403915D01*
X214933209Y17356296D01*
X214552257Y17356296D01*
X214457019Y17403915D01*
X214409400Y17451534D01*
X214361780Y17546772D01*
X214361780Y17737248D01*
X214409400Y17832486D01*
X214457019Y17880105D01*
X214552257Y17927724D01*
X214790352Y17927724D01*
X214885590Y17880105D01*
X214933209Y17832486D01*
X214980828Y17737248D01*
X214980828Y17546772D01*
X214933209Y17451534D01*
X214885590Y17403915D01*
X214790352Y17356296D01*
G04 #@! TO.C,C20*
X160815257Y14037058D02*
X160862876Y13989439D01*
X161005733Y13941820D01*
X161100971Y13941820D01*
X161243828Y13989439D01*
X161339066Y14084677D01*
X161386685Y14179915D01*
X161434304Y14370391D01*
X161434304Y14513248D01*
X161386685Y14703724D01*
X161339066Y14798962D01*
X161243828Y14894200D01*
X161100971Y14941820D01*
X161005733Y14941820D01*
X160862876Y14894200D01*
X160815257Y14846581D01*
X160434304Y14846581D02*
X160386685Y14894200D01*
X160291447Y14941820D01*
X160053352Y14941820D01*
X159958114Y14894200D01*
X159910495Y14846581D01*
X159862876Y14751343D01*
X159862876Y14656105D01*
X159910495Y14513248D01*
X160481923Y13941820D01*
X159862876Y13941820D01*
X159243828Y14941820D02*
X159148590Y14941820D01*
X159053352Y14894200D01*
X159005733Y14846581D01*
X158958114Y14751343D01*
X158910495Y14560867D01*
X158910495Y14322772D01*
X158958114Y14132296D01*
X159005733Y14037058D01*
X159053352Y13989439D01*
X159148590Y13941820D01*
X159243828Y13941820D01*
X159339066Y13989439D01*
X159386685Y14037058D01*
X159434304Y14132296D01*
X159481923Y14322772D01*
X159481923Y14560867D01*
X159434304Y14751343D01*
X159386685Y14846581D01*
X159339066Y14894200D01*
X159243828Y14941820D01*
G04 #@! TO.C,RC9*
X96196066Y15719820D02*
X96529400Y16196010D01*
X96767495Y15719820D02*
X96767495Y16719820D01*
X96386542Y16719820D01*
X96291304Y16672200D01*
X96243685Y16624581D01*
X96196066Y16529343D01*
X96196066Y16386486D01*
X96243685Y16291248D01*
X96291304Y16243629D01*
X96386542Y16196010D01*
X96767495Y16196010D01*
X95196066Y15815058D02*
X95243685Y15767439D01*
X95386542Y15719820D01*
X95481780Y15719820D01*
X95624638Y15767439D01*
X95719876Y15862677D01*
X95767495Y15957915D01*
X95815114Y16148391D01*
X95815114Y16291248D01*
X95767495Y16481724D01*
X95719876Y16576962D01*
X95624638Y16672200D01*
X95481780Y16719820D01*
X95386542Y16719820D01*
X95243685Y16672200D01*
X95196066Y16624581D01*
X94719876Y15719820D02*
X94529400Y15719820D01*
X94434161Y15767439D01*
X94386542Y15815058D01*
X94291304Y15957915D01*
X94243685Y16148391D01*
X94243685Y16529343D01*
X94291304Y16624581D01*
X94338923Y16672200D01*
X94434161Y16719820D01*
X94624638Y16719820D01*
X94719876Y16672200D01*
X94767495Y16624581D01*
X94815114Y16529343D01*
X94815114Y16291248D01*
X94767495Y16196010D01*
X94719876Y16148391D01*
X94624638Y16100772D01*
X94434161Y16100772D01*
X94338923Y16148391D01*
X94291304Y16196010D01*
X94243685Y16291248D01*
G04 #@! TO.C,RGB1*
X79932066Y19252820D02*
X80265400Y19729010D01*
X80503495Y19252820D02*
X80503495Y20252820D01*
X80122542Y20252820D01*
X80027304Y20205200D01*
X79979685Y20157581D01*
X79932066Y20062343D01*
X79932066Y19919486D01*
X79979685Y19824248D01*
X80027304Y19776629D01*
X80122542Y19729010D01*
X80503495Y19729010D01*
X78979685Y20205200D02*
X79074923Y20252820D01*
X79217780Y20252820D01*
X79360638Y20205200D01*
X79455876Y20109962D01*
X79503495Y20014724D01*
X79551114Y19824248D01*
X79551114Y19681391D01*
X79503495Y19490915D01*
X79455876Y19395677D01*
X79360638Y19300439D01*
X79217780Y19252820D01*
X79122542Y19252820D01*
X78979685Y19300439D01*
X78932066Y19348058D01*
X78932066Y19681391D01*
X79122542Y19681391D01*
X78170161Y19776629D02*
X78027304Y19729010D01*
X77979685Y19681391D01*
X77932066Y19586153D01*
X77932066Y19443296D01*
X77979685Y19348058D01*
X78027304Y19300439D01*
X78122542Y19252820D01*
X78503495Y19252820D01*
X78503495Y20252820D01*
X78170161Y20252820D01*
X78074923Y20205200D01*
X78027304Y20157581D01*
X77979685Y20062343D01*
X77979685Y19967105D01*
X78027304Y19871867D01*
X78074923Y19824248D01*
X78170161Y19776629D01*
X78503495Y19776629D01*
X76979685Y19252820D02*
X77551114Y19252820D01*
X77265400Y19252820D02*
X77265400Y20252820D01*
X77360638Y20109962D01*
X77455876Y20014724D01*
X77551114Y19967105D01*
X82629685Y17352820D02*
X83201114Y17352820D01*
X82915400Y17352820D02*
X82915400Y18352820D01*
X83010638Y18209962D01*
X83105876Y18114724D01*
X83201114Y18067105D01*
G04 #@! TO.C,RGB2*
X24687066Y20014820D02*
X25020400Y20491010D01*
X25258495Y20014820D02*
X25258495Y21014820D01*
X24877542Y21014820D01*
X24782304Y20967200D01*
X24734685Y20919581D01*
X24687066Y20824343D01*
X24687066Y20681486D01*
X24734685Y20586248D01*
X24782304Y20538629D01*
X24877542Y20491010D01*
X25258495Y20491010D01*
X23734685Y20967200D02*
X23829923Y21014820D01*
X23972780Y21014820D01*
X24115638Y20967200D01*
X24210876Y20871962D01*
X24258495Y20776724D01*
X24306114Y20586248D01*
X24306114Y20443391D01*
X24258495Y20252915D01*
X24210876Y20157677D01*
X24115638Y20062439D01*
X23972780Y20014820D01*
X23877542Y20014820D01*
X23734685Y20062439D01*
X23687066Y20110058D01*
X23687066Y20443391D01*
X23877542Y20443391D01*
X22925161Y20538629D02*
X22782304Y20491010D01*
X22734685Y20443391D01*
X22687066Y20348153D01*
X22687066Y20205296D01*
X22734685Y20110058D01*
X22782304Y20062439D01*
X22877542Y20014820D01*
X23258495Y20014820D01*
X23258495Y21014820D01*
X22925161Y21014820D01*
X22829923Y20967200D01*
X22782304Y20919581D01*
X22734685Y20824343D01*
X22734685Y20729105D01*
X22782304Y20633867D01*
X22829923Y20586248D01*
X22925161Y20538629D01*
X23258495Y20538629D01*
X22306114Y20919581D02*
X22258495Y20967200D01*
X22163257Y21014820D01*
X21925161Y21014820D01*
X21829923Y20967200D01*
X21782304Y20919581D01*
X21734685Y20824343D01*
X21734685Y20729105D01*
X21782304Y20586248D01*
X22353733Y20014820D01*
X21734685Y20014820D01*
X27384685Y18114820D02*
X27956114Y18114820D01*
X27670400Y18114820D02*
X27670400Y19114820D01*
X27765638Y18971962D01*
X27860876Y18876724D01*
X27956114Y18829105D01*
G04 #@! TO.C,RGB3*
X22858266Y54660420D02*
X23191600Y55136610D01*
X23429695Y54660420D02*
X23429695Y55660420D01*
X23048742Y55660420D01*
X22953504Y55612800D01*
X22905885Y55565181D01*
X22858266Y55469943D01*
X22858266Y55327086D01*
X22905885Y55231848D01*
X22953504Y55184229D01*
X23048742Y55136610D01*
X23429695Y55136610D01*
X21905885Y55612800D02*
X22001123Y55660420D01*
X22143980Y55660420D01*
X22286838Y55612800D01*
X22382076Y55517562D01*
X22429695Y55422324D01*
X22477314Y55231848D01*
X22477314Y55088991D01*
X22429695Y54898515D01*
X22382076Y54803277D01*
X22286838Y54708039D01*
X22143980Y54660420D01*
X22048742Y54660420D01*
X21905885Y54708039D01*
X21858266Y54755658D01*
X21858266Y55088991D01*
X22048742Y55088991D01*
X21096361Y55184229D02*
X20953504Y55136610D01*
X20905885Y55088991D01*
X20858266Y54993753D01*
X20858266Y54850896D01*
X20905885Y54755658D01*
X20953504Y54708039D01*
X21048742Y54660420D01*
X21429695Y54660420D01*
X21429695Y55660420D01*
X21096361Y55660420D01*
X21001123Y55612800D01*
X20953504Y55565181D01*
X20905885Y55469943D01*
X20905885Y55374705D01*
X20953504Y55279467D01*
X21001123Y55231848D01*
X21096361Y55184229D01*
X21429695Y55184229D01*
X20524933Y55660420D02*
X19905885Y55660420D01*
X20239219Y55279467D01*
X20096361Y55279467D01*
X20001123Y55231848D01*
X19953504Y55184229D01*
X19905885Y55088991D01*
X19905885Y54850896D01*
X19953504Y54755658D01*
X20001123Y54708039D01*
X20096361Y54660420D01*
X20382076Y54660420D01*
X20477314Y54708039D01*
X20524933Y54755658D01*
X25555885Y52760420D02*
X26127314Y52760420D01*
X25841600Y52760420D02*
X25841600Y53760420D01*
X25936838Y53617562D01*
X26032076Y53522324D01*
X26127314Y53474705D01*
G04 #@! TO.C,RGB4*
X63447466Y54609620D02*
X63780800Y55085810D01*
X64018895Y54609620D02*
X64018895Y55609620D01*
X63637942Y55609620D01*
X63542704Y55562000D01*
X63495085Y55514381D01*
X63447466Y55419143D01*
X63447466Y55276286D01*
X63495085Y55181048D01*
X63542704Y55133429D01*
X63637942Y55085810D01*
X64018895Y55085810D01*
X62495085Y55562000D02*
X62590323Y55609620D01*
X62733180Y55609620D01*
X62876038Y55562000D01*
X62971276Y55466762D01*
X63018895Y55371524D01*
X63066514Y55181048D01*
X63066514Y55038191D01*
X63018895Y54847715D01*
X62971276Y54752477D01*
X62876038Y54657239D01*
X62733180Y54609620D01*
X62637942Y54609620D01*
X62495085Y54657239D01*
X62447466Y54704858D01*
X62447466Y55038191D01*
X62637942Y55038191D01*
X61685561Y55133429D02*
X61542704Y55085810D01*
X61495085Y55038191D01*
X61447466Y54942953D01*
X61447466Y54800096D01*
X61495085Y54704858D01*
X61542704Y54657239D01*
X61637942Y54609620D01*
X62018895Y54609620D01*
X62018895Y55609620D01*
X61685561Y55609620D01*
X61590323Y55562000D01*
X61542704Y55514381D01*
X61495085Y55419143D01*
X61495085Y55323905D01*
X61542704Y55228667D01*
X61590323Y55181048D01*
X61685561Y55133429D01*
X62018895Y55133429D01*
X60590323Y55276286D02*
X60590323Y54609620D01*
X60828419Y55657239D02*
X61066514Y54942953D01*
X60447466Y54942953D01*
X66145085Y52709620D02*
X66716514Y52709620D01*
X66430800Y52709620D02*
X66430800Y53709620D01*
X66526038Y53566762D01*
X66621276Y53471524D01*
X66716514Y53423905D01*
G04 #@! TO.C,RGB5*
X120445066Y54406420D02*
X120778400Y54882610D01*
X121016495Y54406420D02*
X121016495Y55406420D01*
X120635542Y55406420D01*
X120540304Y55358800D01*
X120492685Y55311181D01*
X120445066Y55215943D01*
X120445066Y55073086D01*
X120492685Y54977848D01*
X120540304Y54930229D01*
X120635542Y54882610D01*
X121016495Y54882610D01*
X119492685Y55358800D02*
X119587923Y55406420D01*
X119730780Y55406420D01*
X119873638Y55358800D01*
X119968876Y55263562D01*
X120016495Y55168324D01*
X120064114Y54977848D01*
X120064114Y54834991D01*
X120016495Y54644515D01*
X119968876Y54549277D01*
X119873638Y54454039D01*
X119730780Y54406420D01*
X119635542Y54406420D01*
X119492685Y54454039D01*
X119445066Y54501658D01*
X119445066Y54834991D01*
X119635542Y54834991D01*
X118683161Y54930229D02*
X118540304Y54882610D01*
X118492685Y54834991D01*
X118445066Y54739753D01*
X118445066Y54596896D01*
X118492685Y54501658D01*
X118540304Y54454039D01*
X118635542Y54406420D01*
X119016495Y54406420D01*
X119016495Y55406420D01*
X118683161Y55406420D01*
X118587923Y55358800D01*
X118540304Y55311181D01*
X118492685Y55215943D01*
X118492685Y55120705D01*
X118540304Y55025467D01*
X118587923Y54977848D01*
X118683161Y54930229D01*
X119016495Y54930229D01*
X117540304Y55406420D02*
X118016495Y55406420D01*
X118064114Y54930229D01*
X118016495Y54977848D01*
X117921257Y55025467D01*
X117683161Y55025467D01*
X117587923Y54977848D01*
X117540304Y54930229D01*
X117492685Y54834991D01*
X117492685Y54596896D01*
X117540304Y54501658D01*
X117587923Y54454039D01*
X117683161Y54406420D01*
X117921257Y54406420D01*
X118016495Y54454039D01*
X118064114Y54501658D01*
X123142685Y52506420D02*
X123714114Y52506420D01*
X123428400Y52506420D02*
X123428400Y53506420D01*
X123523638Y53363562D01*
X123618876Y53268324D01*
X123714114Y53220705D01*
G04 #@! TO.C,RGB6*
X158545066Y54508020D02*
X158878400Y54984210D01*
X159116495Y54508020D02*
X159116495Y55508020D01*
X158735542Y55508020D01*
X158640304Y55460400D01*
X158592685Y55412781D01*
X158545066Y55317543D01*
X158545066Y55174686D01*
X158592685Y55079448D01*
X158640304Y55031829D01*
X158735542Y54984210D01*
X159116495Y54984210D01*
X157592685Y55460400D02*
X157687923Y55508020D01*
X157830780Y55508020D01*
X157973638Y55460400D01*
X158068876Y55365162D01*
X158116495Y55269924D01*
X158164114Y55079448D01*
X158164114Y54936591D01*
X158116495Y54746115D01*
X158068876Y54650877D01*
X157973638Y54555639D01*
X157830780Y54508020D01*
X157735542Y54508020D01*
X157592685Y54555639D01*
X157545066Y54603258D01*
X157545066Y54936591D01*
X157735542Y54936591D01*
X156783161Y55031829D02*
X156640304Y54984210D01*
X156592685Y54936591D01*
X156545066Y54841353D01*
X156545066Y54698496D01*
X156592685Y54603258D01*
X156640304Y54555639D01*
X156735542Y54508020D01*
X157116495Y54508020D01*
X157116495Y55508020D01*
X156783161Y55508020D01*
X156687923Y55460400D01*
X156640304Y55412781D01*
X156592685Y55317543D01*
X156592685Y55222305D01*
X156640304Y55127067D01*
X156687923Y55079448D01*
X156783161Y55031829D01*
X157116495Y55031829D01*
X155687923Y55508020D02*
X155878400Y55508020D01*
X155973638Y55460400D01*
X156021257Y55412781D01*
X156116495Y55269924D01*
X156164114Y55079448D01*
X156164114Y54698496D01*
X156116495Y54603258D01*
X156068876Y54555639D01*
X155973638Y54508020D01*
X155783161Y54508020D01*
X155687923Y54555639D01*
X155640304Y54603258D01*
X155592685Y54698496D01*
X155592685Y54936591D01*
X155640304Y55031829D01*
X155687923Y55079448D01*
X155783161Y55127067D01*
X155973638Y55127067D01*
X156068876Y55079448D01*
X156116495Y55031829D01*
X156164114Y54936591D01*
X161242685Y52608020D02*
X161814114Y52608020D01*
X161528400Y52608020D02*
X161528400Y53608020D01*
X161623638Y53465162D01*
X161718876Y53369924D01*
X161814114Y53322305D01*
G04 #@! TO.C,RGB7*
X196645066Y54508020D02*
X196978400Y54984210D01*
X197216495Y54508020D02*
X197216495Y55508020D01*
X196835542Y55508020D01*
X196740304Y55460400D01*
X196692685Y55412781D01*
X196645066Y55317543D01*
X196645066Y55174686D01*
X196692685Y55079448D01*
X196740304Y55031829D01*
X196835542Y54984210D01*
X197216495Y54984210D01*
X195692685Y55460400D02*
X195787923Y55508020D01*
X195930780Y55508020D01*
X196073638Y55460400D01*
X196168876Y55365162D01*
X196216495Y55269924D01*
X196264114Y55079448D01*
X196264114Y54936591D01*
X196216495Y54746115D01*
X196168876Y54650877D01*
X196073638Y54555639D01*
X195930780Y54508020D01*
X195835542Y54508020D01*
X195692685Y54555639D01*
X195645066Y54603258D01*
X195645066Y54936591D01*
X195835542Y54936591D01*
X194883161Y55031829D02*
X194740304Y54984210D01*
X194692685Y54936591D01*
X194645066Y54841353D01*
X194645066Y54698496D01*
X194692685Y54603258D01*
X194740304Y54555639D01*
X194835542Y54508020D01*
X195216495Y54508020D01*
X195216495Y55508020D01*
X194883161Y55508020D01*
X194787923Y55460400D01*
X194740304Y55412781D01*
X194692685Y55317543D01*
X194692685Y55222305D01*
X194740304Y55127067D01*
X194787923Y55079448D01*
X194883161Y55031829D01*
X195216495Y55031829D01*
X194311733Y55508020D02*
X193645066Y55508020D01*
X194073638Y54508020D01*
X199342685Y52608020D02*
X199914114Y52608020D01*
X199628400Y52608020D02*
X199628400Y53608020D01*
X199723638Y53465162D01*
X199818876Y53369924D01*
X199914114Y53322305D01*
G04 #@! TO.C,RGB8*
X208075066Y20522820D02*
X208408400Y20999010D01*
X208646495Y20522820D02*
X208646495Y21522820D01*
X208265542Y21522820D01*
X208170304Y21475200D01*
X208122685Y21427581D01*
X208075066Y21332343D01*
X208075066Y21189486D01*
X208122685Y21094248D01*
X208170304Y21046629D01*
X208265542Y20999010D01*
X208646495Y20999010D01*
X207122685Y21475200D02*
X207217923Y21522820D01*
X207360780Y21522820D01*
X207503638Y21475200D01*
X207598876Y21379962D01*
X207646495Y21284724D01*
X207694114Y21094248D01*
X207694114Y20951391D01*
X207646495Y20760915D01*
X207598876Y20665677D01*
X207503638Y20570439D01*
X207360780Y20522820D01*
X207265542Y20522820D01*
X207122685Y20570439D01*
X207075066Y20618058D01*
X207075066Y20951391D01*
X207265542Y20951391D01*
X206313161Y21046629D02*
X206170304Y20999010D01*
X206122685Y20951391D01*
X206075066Y20856153D01*
X206075066Y20713296D01*
X206122685Y20618058D01*
X206170304Y20570439D01*
X206265542Y20522820D01*
X206646495Y20522820D01*
X206646495Y21522820D01*
X206313161Y21522820D01*
X206217923Y21475200D01*
X206170304Y21427581D01*
X206122685Y21332343D01*
X206122685Y21237105D01*
X206170304Y21141867D01*
X206217923Y21094248D01*
X206313161Y21046629D01*
X206646495Y21046629D01*
X205503638Y21094248D02*
X205598876Y21141867D01*
X205646495Y21189486D01*
X205694114Y21284724D01*
X205694114Y21332343D01*
X205646495Y21427581D01*
X205598876Y21475200D01*
X205503638Y21522820D01*
X205313161Y21522820D01*
X205217923Y21475200D01*
X205170304Y21427581D01*
X205122685Y21332343D01*
X205122685Y21284724D01*
X205170304Y21189486D01*
X205217923Y21141867D01*
X205313161Y21094248D01*
X205503638Y21094248D01*
X205598876Y21046629D01*
X205646495Y20999010D01*
X205694114Y20903772D01*
X205694114Y20713296D01*
X205646495Y20618058D01*
X205598876Y20570439D01*
X205503638Y20522820D01*
X205313161Y20522820D01*
X205217923Y20570439D01*
X205170304Y20618058D01*
X205122685Y20713296D01*
X205122685Y20903772D01*
X205170304Y20999010D01*
X205217923Y21046629D01*
X205313161Y21094248D01*
X210772685Y18622820D02*
X211344114Y18622820D01*
X211058400Y18622820D02*
X211058400Y19622820D01*
X211153638Y19479962D01*
X211248876Y19384724D01*
X211344114Y19337105D01*
G04 #@! TO.C,RGB9*
X155878066Y15315820D02*
X156211400Y15792010D01*
X156449495Y15315820D02*
X156449495Y16315820D01*
X156068542Y16315820D01*
X155973304Y16268200D01*
X155925685Y16220581D01*
X155878066Y16125343D01*
X155878066Y15982486D01*
X155925685Y15887248D01*
X155973304Y15839629D01*
X156068542Y15792010D01*
X156449495Y15792010D01*
X154925685Y16268200D02*
X155020923Y16315820D01*
X155163780Y16315820D01*
X155306638Y16268200D01*
X155401876Y16172962D01*
X155449495Y16077724D01*
X155497114Y15887248D01*
X155497114Y15744391D01*
X155449495Y15553915D01*
X155401876Y15458677D01*
X155306638Y15363439D01*
X155163780Y15315820D01*
X155068542Y15315820D01*
X154925685Y15363439D01*
X154878066Y15411058D01*
X154878066Y15744391D01*
X155068542Y15744391D01*
X154116161Y15839629D02*
X153973304Y15792010D01*
X153925685Y15744391D01*
X153878066Y15649153D01*
X153878066Y15506296D01*
X153925685Y15411058D01*
X153973304Y15363439D01*
X154068542Y15315820D01*
X154449495Y15315820D01*
X154449495Y16315820D01*
X154116161Y16315820D01*
X154020923Y16268200D01*
X153973304Y16220581D01*
X153925685Y16125343D01*
X153925685Y16030105D01*
X153973304Y15934867D01*
X154020923Y15887248D01*
X154116161Y15839629D01*
X154449495Y15839629D01*
X153401876Y15315820D02*
X153211400Y15315820D01*
X153116161Y15363439D01*
X153068542Y15411058D01*
X152973304Y15553915D01*
X152925685Y15744391D01*
X152925685Y16125343D01*
X152973304Y16220581D01*
X153020923Y16268200D01*
X153116161Y16315820D01*
X153306638Y16315820D01*
X153401876Y16268200D01*
X153449495Y16220581D01*
X153497114Y16125343D01*
X153497114Y15887248D01*
X153449495Y15792010D01*
X153401876Y15744391D01*
X153306638Y15696772D01*
X153116161Y15696772D01*
X153020923Y15744391D01*
X152973304Y15792010D01*
X152925685Y15887248D01*
X158575685Y13415820D02*
X159147114Y13415820D01*
X158861400Y13415820D02*
X158861400Y14415820D01*
X158956638Y14272962D01*
X159051876Y14177724D01*
X159147114Y14130105D01*
G04 #@! TO.C,U4*
X105374304Y15704820D02*
X105374304Y14895296D01*
X105326685Y14800058D01*
X105279066Y14752439D01*
X105183828Y14704820D01*
X104993352Y14704820D01*
X104898114Y14752439D01*
X104850495Y14800058D01*
X104802876Y14895296D01*
X104802876Y15704820D01*
X103898114Y15371486D02*
X103898114Y14704820D01*
X104136209Y15752439D02*
X104374304Y15038153D01*
X103755257Y15038153D01*
G04 #@! TD*
M02*
