G04 #@! TF.GenerationSoftware,KiCad,Pcbnew,5.0.2-bee76a0~70~ubuntu16.04.1*
G04 #@! TF.CreationDate,2019-05-31T21:30:10-04:00*
G04 #@! TF.ProjectId,steamvan,73746561-6d76-4616-9e2e-6b696361645f,rev?*
G04 #@! TF.SameCoordinates,PX43ec160PY7dabae0*
G04 #@! TF.FileFunction,Soldermask,Top*
G04 #@! TF.FilePolarity,Negative*
%FSLAX46Y46*%
G04 Gerber Fmt 4.6, Leading zero omitted, Abs format (unit mm)*
G04 Created by KiCad (PCBNEW 5.0.2-bee76a0~70~ubuntu16.04.1) date Fri 31 May 2019 09:30:10 PM EDT*
%MOMM*%
%LPD*%
G01*
G04 APERTURE LIST*
%ADD10C,0.100000*%
G04 APERTURE END LIST*
D10*
G36*
X110288022Y4210448D02*
X110601769Y4080490D01*
X110884139Y3891816D01*
X111124266Y3651689D01*
X111312940Y3369319D01*
X111442898Y3055572D01*
X111509150Y2722501D01*
X111509150Y2382899D01*
X111442898Y2049828D01*
X111312940Y1736081D01*
X111124266Y1453711D01*
X110884139Y1213584D01*
X110601769Y1024910D01*
X110288022Y894952D01*
X109954951Y828700D01*
X109615349Y828700D01*
X109282278Y894952D01*
X108968531Y1024910D01*
X108686161Y1213584D01*
X108446034Y1453711D01*
X108257360Y1736081D01*
X108127402Y2049828D01*
X108061150Y2382899D01*
X108061150Y2722501D01*
X108127402Y3055572D01*
X108257360Y3369319D01*
X108446034Y3651689D01*
X108686161Y3891816D01*
X108968531Y4080490D01*
X109282278Y4210448D01*
X109615349Y4276700D01*
X109954951Y4276700D01*
X110288022Y4210448D01*
X110288022Y4210448D01*
G37*
G36*
X86412022Y4210448D02*
X86725769Y4080490D01*
X87008139Y3891816D01*
X87248266Y3651689D01*
X87436940Y3369319D01*
X87566898Y3055572D01*
X87633150Y2722501D01*
X87633150Y2382899D01*
X87566898Y2049828D01*
X87436940Y1736081D01*
X87248266Y1453711D01*
X87008139Y1213584D01*
X86725769Y1024910D01*
X86412022Y894952D01*
X86078951Y828700D01*
X85739349Y828700D01*
X85406278Y894952D01*
X85092531Y1024910D01*
X84810161Y1213584D01*
X84570034Y1453711D01*
X84381360Y1736081D01*
X84251402Y2049828D01*
X84185150Y2382899D01*
X84185150Y2722501D01*
X84251402Y3055572D01*
X84381360Y3369319D01*
X84570034Y3651689D01*
X84810161Y3891816D01*
X85092531Y4080490D01*
X85406278Y4210448D01*
X85739349Y4276700D01*
X86078951Y4276700D01*
X86412022Y4210448D01*
X86412022Y4210448D01*
G37*
G36*
X150769272Y4210448D02*
X151083019Y4080490D01*
X151365389Y3891816D01*
X151605516Y3651689D01*
X151794190Y3369319D01*
X151924148Y3055572D01*
X151990400Y2722501D01*
X151990400Y2382899D01*
X151924148Y2049828D01*
X151794190Y1736081D01*
X151605516Y1453711D01*
X151365389Y1213584D01*
X151083019Y1024910D01*
X150769272Y894952D01*
X150436201Y828700D01*
X150096599Y828700D01*
X149763528Y894952D01*
X149449781Y1024910D01*
X149167411Y1213584D01*
X148927284Y1453711D01*
X148738610Y1736081D01*
X148608652Y2049828D01*
X148542400Y2382899D01*
X148542400Y2722501D01*
X148608652Y3055572D01*
X148738610Y3369319D01*
X148927284Y3651689D01*
X149167411Y3891816D01*
X149449781Y4080490D01*
X149763528Y4210448D01*
X150096599Y4276700D01*
X150436201Y4276700D01*
X150769272Y4210448D01*
X150769272Y4210448D01*
G37*
G36*
X126893272Y4210448D02*
X127207019Y4080490D01*
X127489389Y3891816D01*
X127729516Y3651689D01*
X127918190Y3369319D01*
X128048148Y3055572D01*
X128114400Y2722501D01*
X128114400Y2382899D01*
X128048148Y2049828D01*
X127918190Y1736081D01*
X127729516Y1453711D01*
X127489389Y1213584D01*
X127207019Y1024910D01*
X126893272Y894952D01*
X126560201Y828700D01*
X126220599Y828700D01*
X125887528Y894952D01*
X125573781Y1024910D01*
X125291411Y1213584D01*
X125051284Y1453711D01*
X124862610Y1736081D01*
X124732652Y2049828D01*
X124666400Y2382899D01*
X124666400Y2722501D01*
X124732652Y3055572D01*
X124862610Y3369319D01*
X125051284Y3651689D01*
X125291411Y3891816D01*
X125573781Y4080490D01*
X125887528Y4210448D01*
X126220599Y4276700D01*
X126560201Y4276700D01*
X126893272Y4210448D01*
X126893272Y4210448D01*
G37*
G36*
X10380834Y11647290D02*
X10380836Y11647289D01*
X10380837Y11647289D01*
X10780101Y11481909D01*
X10780102Y11481908D01*
X10862079Y11427133D01*
X10883690Y11415582D01*
X10907139Y11408469D01*
X10931525Y11406067D01*
X10955912Y11408469D01*
X10979361Y11415582D01*
X11000971Y11427133D01*
X11082948Y11481908D01*
X11082949Y11481909D01*
X11482213Y11647289D01*
X11482214Y11647289D01*
X11482216Y11647290D01*
X11906068Y11731600D01*
X12338232Y11731600D01*
X12762084Y11647290D01*
X12762086Y11647289D01*
X12762087Y11647289D01*
X13161351Y11481909D01*
X13520680Y11241813D01*
X13826263Y10936230D01*
X14066359Y10576901D01*
X14089332Y10521438D01*
X14100883Y10499827D01*
X14116429Y10480885D01*
X14135371Y10465340D01*
X14156982Y10453789D01*
X14180431Y10446676D01*
X14204817Y10444274D01*
X14229204Y10446676D01*
X14252653Y10453789D01*
X14274263Y10465340D01*
X14311697Y10490353D01*
X14507334Y10571388D01*
X14715022Y10612700D01*
X14926778Y10612700D01*
X15134466Y10571388D01*
X15330103Y10490353D01*
X15506175Y10372705D01*
X15655905Y10222975D01*
X15773553Y10046903D01*
X15854588Y9851266D01*
X15888927Y9678634D01*
X15896040Y9655185D01*
X15907592Y9633574D01*
X15923137Y9614632D01*
X15942079Y9599087D01*
X15963690Y9587536D01*
X15987139Y9580423D01*
X16011525Y9578021D01*
X16035912Y9580423D01*
X16059361Y9587536D01*
X16080972Y9599088D01*
X16099914Y9614633D01*
X16115459Y9633575D01*
X16127010Y9655186D01*
X16134123Y9678634D01*
X16168462Y9851266D01*
X16249497Y10046903D01*
X16367145Y10222975D01*
X16516875Y10372705D01*
X16692947Y10490353D01*
X16888584Y10571388D01*
X17096272Y10612700D01*
X17308028Y10612700D01*
X17515716Y10571388D01*
X17711353Y10490353D01*
X17887425Y10372705D01*
X18037155Y10222975D01*
X18154803Y10046903D01*
X18235838Y9851266D01*
X18277150Y9643578D01*
X18277150Y9431822D01*
X18235838Y9224134D01*
X18154803Y9028497D01*
X18037155Y8852425D01*
X17887425Y8702695D01*
X17711353Y8585047D01*
X17578080Y8529844D01*
X17515716Y8504012D01*
X17308028Y8462700D01*
X17096272Y8462700D01*
X16888584Y8504012D01*
X16826220Y8529844D01*
X16692947Y8585047D01*
X16516875Y8702695D01*
X16367145Y8852425D01*
X16249497Y9028497D01*
X16168462Y9224134D01*
X16134123Y9396766D01*
X16127010Y9420215D01*
X16115458Y9441826D01*
X16099913Y9460768D01*
X16080971Y9476313D01*
X16059360Y9487864D01*
X16035911Y9494977D01*
X16011525Y9497379D01*
X15987138Y9494977D01*
X15963689Y9487864D01*
X15942078Y9476312D01*
X15923136Y9460767D01*
X15907591Y9441825D01*
X15896040Y9420214D01*
X15888927Y9396766D01*
X15854588Y9224134D01*
X15773553Y9028497D01*
X15655905Y8852425D01*
X15506175Y8702695D01*
X15330103Y8585047D01*
X15196830Y8529844D01*
X15134466Y8504012D01*
X14926778Y8462700D01*
X14715022Y8462700D01*
X14507334Y8504012D01*
X14444970Y8529844D01*
X14311697Y8585047D01*
X14274263Y8610060D01*
X14252652Y8621611D01*
X14229203Y8628724D01*
X14204817Y8631126D01*
X14180431Y8628724D01*
X14156981Y8621611D01*
X14135371Y8610060D01*
X14116429Y8594514D01*
X14100883Y8575572D01*
X14089334Y8553966D01*
X14066359Y8498499D01*
X13826263Y8139170D01*
X13520680Y7833587D01*
X13161351Y7593491D01*
X12762087Y7428111D01*
X12762086Y7428111D01*
X12762084Y7428110D01*
X12338232Y7343800D01*
X11906068Y7343800D01*
X11482216Y7428110D01*
X11482214Y7428111D01*
X11482213Y7428111D01*
X11082949Y7593491D01*
X11000971Y7648267D01*
X10979360Y7659818D01*
X10955911Y7666931D01*
X10931525Y7669333D01*
X10907138Y7666931D01*
X10883689Y7659818D01*
X10862079Y7648267D01*
X10780101Y7593491D01*
X10380837Y7428111D01*
X10380836Y7428111D01*
X10380834Y7428110D01*
X9956982Y7343800D01*
X9524818Y7343800D01*
X9100966Y7428110D01*
X9100964Y7428111D01*
X9100963Y7428111D01*
X8701699Y7593491D01*
X8342370Y7833587D01*
X8036787Y8139170D01*
X7796691Y8498499D01*
X7773716Y8553966D01*
X7762167Y8575573D01*
X7746621Y8594515D01*
X7727679Y8610060D01*
X7706068Y8621611D01*
X7682619Y8628724D01*
X7658233Y8631126D01*
X7633846Y8628724D01*
X7610397Y8621611D01*
X7588787Y8610060D01*
X7551353Y8585047D01*
X7355716Y8504012D01*
X7148028Y8462700D01*
X6936272Y8462700D01*
X6728584Y8504012D01*
X6532947Y8585047D01*
X6356875Y8702695D01*
X6207145Y8852425D01*
X6089497Y9028497D01*
X6008462Y9224134D01*
X5974123Y9396766D01*
X5967010Y9420215D01*
X5955458Y9441826D01*
X5939913Y9460768D01*
X5920971Y9476313D01*
X5899360Y9487864D01*
X5875911Y9494977D01*
X5851525Y9497379D01*
X5827138Y9494977D01*
X5803689Y9487864D01*
X5782078Y9476312D01*
X5763136Y9460767D01*
X5747591Y9441825D01*
X5736040Y9420214D01*
X5728927Y9396766D01*
X5694588Y9224134D01*
X5613553Y9028497D01*
X5495905Y8852425D01*
X5346175Y8702695D01*
X5170103Y8585047D01*
X4974466Y8504012D01*
X4766778Y8462700D01*
X4555022Y8462700D01*
X4347334Y8504012D01*
X4151697Y8585047D01*
X3975625Y8702695D01*
X3825895Y8852425D01*
X3708247Y9028497D01*
X3627212Y9224134D01*
X3585900Y9431822D01*
X3585900Y9643578D01*
X3627212Y9851266D01*
X3708247Y10046903D01*
X3825895Y10222975D01*
X3975625Y10372705D01*
X4151697Y10490353D01*
X4347334Y10571388D01*
X4555022Y10612700D01*
X4766778Y10612700D01*
X4974466Y10571388D01*
X5170103Y10490353D01*
X5346175Y10372705D01*
X5495905Y10222975D01*
X5613553Y10046903D01*
X5694588Y9851266D01*
X5728927Y9678634D01*
X5736040Y9655185D01*
X5747592Y9633574D01*
X5763137Y9614632D01*
X5782079Y9599087D01*
X5803690Y9587536D01*
X5827139Y9580423D01*
X5851525Y9578021D01*
X5875912Y9580423D01*
X5899361Y9587536D01*
X5920972Y9599088D01*
X5939914Y9614633D01*
X5955459Y9633575D01*
X5967010Y9655186D01*
X5974123Y9678634D01*
X6008462Y9851266D01*
X6089497Y10046903D01*
X6207145Y10222975D01*
X6356875Y10372705D01*
X6532947Y10490353D01*
X6728584Y10571388D01*
X6936272Y10612700D01*
X7148028Y10612700D01*
X7355716Y10571388D01*
X7551353Y10490353D01*
X7588787Y10465340D01*
X7610398Y10453789D01*
X7633847Y10446676D01*
X7658233Y10444274D01*
X7682619Y10446676D01*
X7706069Y10453789D01*
X7727679Y10465340D01*
X7746621Y10480886D01*
X7762167Y10499828D01*
X7773718Y10521438D01*
X7796691Y10576901D01*
X8036787Y10936230D01*
X8342370Y11241813D01*
X8701699Y11481909D01*
X9100963Y11647289D01*
X9100964Y11647289D01*
X9100966Y11647290D01*
X9524818Y11731600D01*
X9956982Y11731600D01*
X10380834Y11647290D01*
X10380834Y11647290D01*
G37*
G36*
X169924584Y11647290D02*
X169924586Y11647289D01*
X169924587Y11647289D01*
X170323851Y11481909D01*
X170323852Y11481908D01*
X170405829Y11427133D01*
X170427440Y11415582D01*
X170450889Y11408469D01*
X170475275Y11406067D01*
X170499662Y11408469D01*
X170523111Y11415582D01*
X170544721Y11427133D01*
X170626698Y11481908D01*
X170626699Y11481909D01*
X171025963Y11647289D01*
X171025964Y11647289D01*
X171025966Y11647290D01*
X171449818Y11731600D01*
X171881982Y11731600D01*
X172305834Y11647290D01*
X172305836Y11647289D01*
X172305837Y11647289D01*
X172705101Y11481909D01*
X173064430Y11241813D01*
X173370013Y10936230D01*
X173610109Y10576901D01*
X173633082Y10521438D01*
X173644633Y10499827D01*
X173660179Y10480885D01*
X173679121Y10465340D01*
X173700732Y10453789D01*
X173724181Y10446676D01*
X173748567Y10444274D01*
X173772954Y10446676D01*
X173796403Y10453789D01*
X173818013Y10465340D01*
X173855447Y10490353D01*
X174051084Y10571388D01*
X174258772Y10612700D01*
X174470528Y10612700D01*
X174678216Y10571388D01*
X174873853Y10490353D01*
X175049925Y10372705D01*
X175199655Y10222975D01*
X175317303Y10046903D01*
X175398338Y9851266D01*
X175432677Y9678634D01*
X175439790Y9655185D01*
X175451342Y9633574D01*
X175466887Y9614632D01*
X175485829Y9599087D01*
X175507440Y9587536D01*
X175530889Y9580423D01*
X175555275Y9578021D01*
X175579662Y9580423D01*
X175603111Y9587536D01*
X175624722Y9599088D01*
X175643664Y9614633D01*
X175659209Y9633575D01*
X175670760Y9655186D01*
X175677873Y9678634D01*
X175712212Y9851266D01*
X175793247Y10046903D01*
X175910895Y10222975D01*
X176060625Y10372705D01*
X176236697Y10490353D01*
X176432334Y10571388D01*
X176640022Y10612700D01*
X176851778Y10612700D01*
X177059466Y10571388D01*
X177255103Y10490353D01*
X177431175Y10372705D01*
X177580905Y10222975D01*
X177698553Y10046903D01*
X177779588Y9851266D01*
X177820900Y9643578D01*
X177820900Y9431822D01*
X177779588Y9224134D01*
X177698553Y9028497D01*
X177580905Y8852425D01*
X177431175Y8702695D01*
X177255103Y8585047D01*
X177059466Y8504012D01*
X176851778Y8462700D01*
X176640022Y8462700D01*
X176432334Y8504012D01*
X176236697Y8585047D01*
X176060625Y8702695D01*
X175910895Y8852425D01*
X175793247Y9028497D01*
X175712212Y9224134D01*
X175677873Y9396766D01*
X175670760Y9420215D01*
X175659208Y9441826D01*
X175643663Y9460768D01*
X175624721Y9476313D01*
X175603110Y9487864D01*
X175579661Y9494977D01*
X175555275Y9497379D01*
X175530888Y9494977D01*
X175507439Y9487864D01*
X175485828Y9476312D01*
X175466886Y9460767D01*
X175451341Y9441825D01*
X175439790Y9420214D01*
X175432677Y9396766D01*
X175398338Y9224134D01*
X175317303Y9028497D01*
X175199655Y8852425D01*
X175049925Y8702695D01*
X174873853Y8585047D01*
X174678216Y8504012D01*
X174470528Y8462700D01*
X174258772Y8462700D01*
X174051084Y8504012D01*
X173855447Y8585047D01*
X173818013Y8610060D01*
X173796402Y8621611D01*
X173772953Y8628724D01*
X173748567Y8631126D01*
X173724181Y8628724D01*
X173700731Y8621611D01*
X173679121Y8610060D01*
X173660179Y8594514D01*
X173644633Y8575572D01*
X173633084Y8553966D01*
X173610109Y8498499D01*
X173370013Y8139170D01*
X173064430Y7833587D01*
X172705101Y7593491D01*
X172305837Y7428111D01*
X172305836Y7428111D01*
X172305834Y7428110D01*
X171881982Y7343800D01*
X171449818Y7343800D01*
X171025966Y7428110D01*
X171025964Y7428111D01*
X171025963Y7428111D01*
X170626699Y7593491D01*
X170544721Y7648267D01*
X170523110Y7659818D01*
X170499661Y7666931D01*
X170475275Y7669333D01*
X170450888Y7666931D01*
X170427439Y7659818D01*
X170405829Y7648267D01*
X170323851Y7593491D01*
X169924587Y7428111D01*
X169924586Y7428111D01*
X169924584Y7428110D01*
X169500732Y7343800D01*
X169068568Y7343800D01*
X168644716Y7428110D01*
X168644714Y7428111D01*
X168644713Y7428111D01*
X168245449Y7593491D01*
X167886120Y7833587D01*
X167580537Y8139170D01*
X167340441Y8498499D01*
X167317466Y8553966D01*
X167305917Y8575573D01*
X167290371Y8594515D01*
X167271429Y8610060D01*
X167249818Y8621611D01*
X167226369Y8628724D01*
X167201983Y8631126D01*
X167177596Y8628724D01*
X167154147Y8621611D01*
X167132537Y8610060D01*
X167095103Y8585047D01*
X166899466Y8504012D01*
X166691778Y8462700D01*
X166480022Y8462700D01*
X166272334Y8504012D01*
X166076697Y8585047D01*
X165900625Y8702695D01*
X165750895Y8852425D01*
X165633247Y9028497D01*
X165552212Y9224134D01*
X165517873Y9396766D01*
X165510760Y9420215D01*
X165499208Y9441826D01*
X165483663Y9460768D01*
X165464721Y9476313D01*
X165443110Y9487864D01*
X165419661Y9494977D01*
X165395275Y9497379D01*
X165370888Y9494977D01*
X165347439Y9487864D01*
X165325828Y9476312D01*
X165306886Y9460767D01*
X165291341Y9441825D01*
X165279790Y9420214D01*
X165272677Y9396766D01*
X165238338Y9224134D01*
X165157303Y9028497D01*
X165039655Y8852425D01*
X164889925Y8702695D01*
X164713853Y8585047D01*
X164518216Y8504012D01*
X164310528Y8462700D01*
X164098772Y8462700D01*
X163891084Y8504012D01*
X163695447Y8585047D01*
X163519375Y8702695D01*
X163369645Y8852425D01*
X163251997Y9028497D01*
X163170962Y9224134D01*
X163129650Y9431822D01*
X163129650Y9643578D01*
X163170962Y9851266D01*
X163251997Y10046903D01*
X163369645Y10222975D01*
X163519375Y10372705D01*
X163695447Y10490353D01*
X163891084Y10571388D01*
X164098772Y10612700D01*
X164310528Y10612700D01*
X164518216Y10571388D01*
X164713853Y10490353D01*
X164889925Y10372705D01*
X165039655Y10222975D01*
X165157303Y10046903D01*
X165238338Y9851266D01*
X165272677Y9678634D01*
X165279790Y9655185D01*
X165291342Y9633574D01*
X165306887Y9614632D01*
X165325829Y9599087D01*
X165347440Y9587536D01*
X165370889Y9580423D01*
X165395275Y9578021D01*
X165419662Y9580423D01*
X165443111Y9587536D01*
X165464722Y9599088D01*
X165483664Y9614633D01*
X165499209Y9633575D01*
X165510760Y9655186D01*
X165517873Y9678634D01*
X165552212Y9851266D01*
X165633247Y10046903D01*
X165750895Y10222975D01*
X165900625Y10372705D01*
X166076697Y10490353D01*
X166272334Y10571388D01*
X166480022Y10612700D01*
X166691778Y10612700D01*
X166899466Y10571388D01*
X167095103Y10490353D01*
X167132537Y10465340D01*
X167154148Y10453789D01*
X167177597Y10446676D01*
X167201983Y10444274D01*
X167226369Y10446676D01*
X167249819Y10453789D01*
X167271429Y10465340D01*
X167290371Y10480886D01*
X167305917Y10499828D01*
X167317468Y10521438D01*
X167340441Y10576901D01*
X167580537Y10936230D01*
X167886120Y11241813D01*
X168245449Y11481909D01*
X168644713Y11647289D01*
X168644714Y11647289D01*
X168644716Y11647290D01*
X169068568Y11731600D01*
X169500732Y11731600D01*
X169924584Y11647290D01*
X169924584Y11647290D01*
G37*
G36*
X98487084Y11647290D02*
X98487086Y11647289D01*
X98487087Y11647289D01*
X98886351Y11481909D01*
X99245680Y11241813D01*
X99551263Y10936230D01*
X99791359Y10576901D01*
X99945991Y10203584D01*
X99956740Y10177634D01*
X100041050Y9753782D01*
X100041050Y9321618D01*
X99964435Y8936450D01*
X99956739Y8897763D01*
X99791359Y8498499D01*
X99551263Y8139170D01*
X99245680Y7833587D01*
X98886351Y7593491D01*
X98487087Y7428111D01*
X98487086Y7428111D01*
X98487084Y7428110D01*
X98063232Y7343800D01*
X97631068Y7343800D01*
X97207216Y7428110D01*
X97207214Y7428111D01*
X97207213Y7428111D01*
X96807949Y7593491D01*
X96448620Y7833587D01*
X96143037Y8139170D01*
X95902941Y8498499D01*
X95737561Y8897763D01*
X95729866Y8936450D01*
X95653250Y9321618D01*
X95653250Y9753782D01*
X95737560Y10177634D01*
X95748309Y10203584D01*
X95902941Y10576901D01*
X96143037Y10936230D01*
X96448620Y11241813D01*
X96807949Y11481909D01*
X97207213Y11647289D01*
X97207214Y11647289D01*
X97207216Y11647290D01*
X97631068Y11731600D01*
X98063232Y11731600D01*
X98487084Y11647290D01*
X98487084Y11647290D01*
G37*
G36*
X65149584Y11647290D02*
X65149586Y11647289D01*
X65149587Y11647289D01*
X65548851Y11481909D01*
X65548852Y11481908D01*
X65630829Y11427133D01*
X65652440Y11415582D01*
X65675889Y11408469D01*
X65700275Y11406067D01*
X65724662Y11408469D01*
X65748111Y11415582D01*
X65769721Y11427133D01*
X65851698Y11481908D01*
X65851699Y11481909D01*
X66250963Y11647289D01*
X66250964Y11647289D01*
X66250966Y11647290D01*
X66674818Y11731600D01*
X67106982Y11731600D01*
X67530834Y11647290D01*
X67530836Y11647289D01*
X67530837Y11647289D01*
X67930101Y11481909D01*
X68289430Y11241813D01*
X68595013Y10936230D01*
X68835109Y10576901D01*
X68858082Y10521438D01*
X68869633Y10499827D01*
X68885179Y10480885D01*
X68904121Y10465340D01*
X68925732Y10453789D01*
X68949181Y10446676D01*
X68973567Y10444274D01*
X68997954Y10446676D01*
X69021403Y10453789D01*
X69043013Y10465340D01*
X69080447Y10490353D01*
X69276084Y10571388D01*
X69483772Y10612700D01*
X69695528Y10612700D01*
X69903216Y10571388D01*
X70098853Y10490353D01*
X70274925Y10372705D01*
X70424655Y10222975D01*
X70542303Y10046903D01*
X70623338Y9851266D01*
X70657677Y9678634D01*
X70664790Y9655185D01*
X70676342Y9633574D01*
X70691887Y9614632D01*
X70710829Y9599087D01*
X70732440Y9587536D01*
X70755889Y9580423D01*
X70780275Y9578021D01*
X70804662Y9580423D01*
X70828111Y9587536D01*
X70849722Y9599088D01*
X70868664Y9614633D01*
X70884209Y9633575D01*
X70895760Y9655186D01*
X70902873Y9678634D01*
X70937212Y9851266D01*
X71018247Y10046903D01*
X71135895Y10222975D01*
X71285625Y10372705D01*
X71461697Y10490353D01*
X71657334Y10571388D01*
X71865022Y10612700D01*
X72076778Y10612700D01*
X72284466Y10571388D01*
X72480103Y10490353D01*
X72656175Y10372705D01*
X72805905Y10222975D01*
X72923553Y10046903D01*
X73004588Y9851266D01*
X73045900Y9643578D01*
X73045900Y9431822D01*
X73004588Y9224134D01*
X72923553Y9028497D01*
X72805905Y8852425D01*
X72656175Y8702695D01*
X72480103Y8585047D01*
X72346830Y8529844D01*
X72284466Y8504012D01*
X72076778Y8462700D01*
X71865022Y8462700D01*
X71657334Y8504012D01*
X71594970Y8529844D01*
X71461697Y8585047D01*
X71285625Y8702695D01*
X71135895Y8852425D01*
X71018247Y9028497D01*
X70937212Y9224134D01*
X70902873Y9396766D01*
X70895760Y9420215D01*
X70884208Y9441826D01*
X70868663Y9460768D01*
X70849721Y9476313D01*
X70828110Y9487864D01*
X70804661Y9494977D01*
X70780275Y9497379D01*
X70755888Y9494977D01*
X70732439Y9487864D01*
X70710828Y9476312D01*
X70691886Y9460767D01*
X70676341Y9441825D01*
X70664790Y9420214D01*
X70657677Y9396766D01*
X70623338Y9224134D01*
X70542303Y9028497D01*
X70424655Y8852425D01*
X70274925Y8702695D01*
X70098853Y8585047D01*
X69903216Y8504012D01*
X69695528Y8462700D01*
X69483772Y8462700D01*
X69276084Y8504012D01*
X69080447Y8585047D01*
X69043013Y8610060D01*
X69021402Y8621611D01*
X68997953Y8628724D01*
X68973567Y8631126D01*
X68949181Y8628724D01*
X68925731Y8621611D01*
X68904121Y8610060D01*
X68885179Y8594514D01*
X68869633Y8575572D01*
X68858084Y8553966D01*
X68835109Y8498499D01*
X68595013Y8139170D01*
X68289430Y7833587D01*
X67930101Y7593491D01*
X67530837Y7428111D01*
X67530836Y7428111D01*
X67530834Y7428110D01*
X67106982Y7343800D01*
X66674818Y7343800D01*
X66250966Y7428110D01*
X66250964Y7428111D01*
X66250963Y7428111D01*
X65851699Y7593491D01*
X65769721Y7648267D01*
X65748110Y7659818D01*
X65724661Y7666931D01*
X65700275Y7669333D01*
X65675888Y7666931D01*
X65652439Y7659818D01*
X65630829Y7648267D01*
X65548851Y7593491D01*
X65149587Y7428111D01*
X65149586Y7428111D01*
X65149584Y7428110D01*
X64725732Y7343800D01*
X64293568Y7343800D01*
X63869716Y7428110D01*
X63869714Y7428111D01*
X63869713Y7428111D01*
X63470449Y7593491D01*
X63111120Y7833587D01*
X62805537Y8139170D01*
X62565441Y8498499D01*
X62542466Y8553966D01*
X62530917Y8575573D01*
X62515371Y8594515D01*
X62496429Y8610060D01*
X62474818Y8621611D01*
X62451369Y8628724D01*
X62426983Y8631126D01*
X62402596Y8628724D01*
X62379147Y8621611D01*
X62357537Y8610060D01*
X62320103Y8585047D01*
X62186830Y8529844D01*
X62124466Y8504012D01*
X61916778Y8462700D01*
X61705022Y8462700D01*
X61497334Y8504012D01*
X61434970Y8529844D01*
X61301697Y8585047D01*
X61125625Y8702695D01*
X60975895Y8852425D01*
X60858247Y9028497D01*
X60777212Y9224134D01*
X60742873Y9396766D01*
X60735760Y9420215D01*
X60724208Y9441826D01*
X60708663Y9460768D01*
X60689721Y9476313D01*
X60668110Y9487864D01*
X60644661Y9494977D01*
X60620275Y9497379D01*
X60595888Y9494977D01*
X60572439Y9487864D01*
X60550828Y9476312D01*
X60531886Y9460767D01*
X60516341Y9441825D01*
X60504790Y9420214D01*
X60497677Y9396766D01*
X60463338Y9224134D01*
X60382303Y9028497D01*
X60264655Y8852425D01*
X60114925Y8702695D01*
X59938853Y8585047D01*
X59743216Y8504012D01*
X59535528Y8462700D01*
X59323772Y8462700D01*
X59116084Y8504012D01*
X58920447Y8585047D01*
X58744375Y8702695D01*
X58594645Y8852425D01*
X58476997Y9028497D01*
X58395962Y9224134D01*
X58354650Y9431822D01*
X58354650Y9643578D01*
X58395962Y9851266D01*
X58476997Y10046903D01*
X58594645Y10222975D01*
X58744375Y10372705D01*
X58920447Y10490353D01*
X59116084Y10571388D01*
X59323772Y10612700D01*
X59535528Y10612700D01*
X59743216Y10571388D01*
X59938853Y10490353D01*
X60114925Y10372705D01*
X60264655Y10222975D01*
X60382303Y10046903D01*
X60463338Y9851266D01*
X60497677Y9678634D01*
X60504790Y9655185D01*
X60516342Y9633574D01*
X60531887Y9614632D01*
X60550829Y9599087D01*
X60572440Y9587536D01*
X60595889Y9580423D01*
X60620275Y9578021D01*
X60644662Y9580423D01*
X60668111Y9587536D01*
X60689722Y9599088D01*
X60708664Y9614633D01*
X60724209Y9633575D01*
X60735760Y9655186D01*
X60742873Y9678634D01*
X60777212Y9851266D01*
X60858247Y10046903D01*
X60975895Y10222975D01*
X61125625Y10372705D01*
X61301697Y10490353D01*
X61497334Y10571388D01*
X61705022Y10612700D01*
X61916778Y10612700D01*
X62124466Y10571388D01*
X62320103Y10490353D01*
X62357537Y10465340D01*
X62379148Y10453789D01*
X62402597Y10446676D01*
X62426983Y10444274D01*
X62451369Y10446676D01*
X62474819Y10453789D01*
X62496429Y10465340D01*
X62515371Y10480886D01*
X62530917Y10499828D01*
X62542468Y10521438D01*
X62565441Y10576901D01*
X62805537Y10936230D01*
X63111120Y11241813D01*
X63470449Y11481909D01*
X63869713Y11647289D01*
X63869714Y11647289D01*
X63869716Y11647290D01*
X64293568Y11731600D01*
X64725732Y11731600D01*
X65149584Y11647290D01*
X65149584Y11647290D01*
G37*
G36*
X138968334Y11647290D02*
X138968336Y11647289D01*
X138968337Y11647289D01*
X139367601Y11481909D01*
X139726930Y11241813D01*
X140032513Y10936230D01*
X140272609Y10576901D01*
X140427241Y10203584D01*
X140437990Y10177634D01*
X140522300Y9753782D01*
X140522300Y9321618D01*
X140445685Y8936450D01*
X140437989Y8897763D01*
X140272609Y8498499D01*
X140032513Y8139170D01*
X139726930Y7833587D01*
X139367601Y7593491D01*
X138968337Y7428111D01*
X138968336Y7428111D01*
X138968334Y7428110D01*
X138544482Y7343800D01*
X138112318Y7343800D01*
X137688466Y7428110D01*
X137688464Y7428111D01*
X137688463Y7428111D01*
X137289199Y7593491D01*
X136929870Y7833587D01*
X136624287Y8139170D01*
X136384191Y8498499D01*
X136218811Y8897763D01*
X136211116Y8936450D01*
X136134500Y9321618D01*
X136134500Y9753782D01*
X136218810Y10177634D01*
X136229559Y10203584D01*
X136384191Y10576901D01*
X136624287Y10936230D01*
X136929870Y11241813D01*
X137289199Y11481909D01*
X137688463Y11647289D01*
X137688464Y11647289D01*
X137688466Y11647290D01*
X138112318Y11731600D01*
X138544482Y11731600D01*
X138968334Y11647290D01*
X138968334Y11647290D01*
G37*
G36*
X38955834Y11647290D02*
X38955836Y11647289D01*
X38955837Y11647289D01*
X39355101Y11481909D01*
X39714430Y11241813D01*
X40020013Y10936230D01*
X40260109Y10576901D01*
X40414741Y10203584D01*
X40425490Y10177634D01*
X40509800Y9753782D01*
X40509800Y9321618D01*
X40433185Y8936450D01*
X40425489Y8897763D01*
X40260109Y8498499D01*
X40020013Y8139170D01*
X39714430Y7833587D01*
X39355101Y7593491D01*
X38955837Y7428111D01*
X38955836Y7428111D01*
X38955834Y7428110D01*
X38531982Y7343800D01*
X38099818Y7343800D01*
X37675966Y7428110D01*
X37675964Y7428111D01*
X37675963Y7428111D01*
X37276699Y7593491D01*
X36917370Y7833587D01*
X36611787Y8139170D01*
X36371691Y8498499D01*
X36206311Y8897763D01*
X36198616Y8936450D01*
X36122000Y9321618D01*
X36122000Y9753782D01*
X36206310Y10177634D01*
X36217059Y10203584D01*
X36371691Y10576901D01*
X36611787Y10936230D01*
X36917370Y11241813D01*
X37276699Y11481909D01*
X37675963Y11647289D01*
X37675964Y11647289D01*
X37675966Y11647290D01*
X38099818Y11731600D01*
X38531982Y11731600D01*
X38955834Y11647290D01*
X38955834Y11647290D01*
G37*
G36*
X29430834Y11647290D02*
X29430836Y11647289D01*
X29430837Y11647289D01*
X29830101Y11481909D01*
X30189430Y11241813D01*
X30495013Y10936230D01*
X30735109Y10576901D01*
X30889741Y10203584D01*
X30900490Y10177634D01*
X30984800Y9753782D01*
X30984800Y9321618D01*
X30908185Y8936450D01*
X30900489Y8897763D01*
X30735109Y8498499D01*
X30495013Y8139170D01*
X30189430Y7833587D01*
X29830101Y7593491D01*
X29430837Y7428111D01*
X29430836Y7428111D01*
X29430834Y7428110D01*
X29006982Y7343800D01*
X28574818Y7343800D01*
X28150966Y7428110D01*
X28150964Y7428111D01*
X28150963Y7428111D01*
X27751699Y7593491D01*
X27392370Y7833587D01*
X27086787Y8139170D01*
X26846691Y8498499D01*
X26681311Y8897763D01*
X26673616Y8936450D01*
X26597000Y9321618D01*
X26597000Y9753782D01*
X26681310Y10177634D01*
X26692059Y10203584D01*
X26846691Y10576901D01*
X27086787Y10936230D01*
X27392370Y11241813D01*
X27751699Y11481909D01*
X28150963Y11647289D01*
X28150964Y11647289D01*
X28150966Y11647290D01*
X28574818Y11731600D01*
X29006982Y11731600D01*
X29430834Y11647290D01*
X29430834Y11647290D01*
G37*
G36*
X196118334Y11647290D02*
X196118336Y11647289D01*
X196118337Y11647289D01*
X196517601Y11481909D01*
X196876930Y11241813D01*
X197182513Y10936230D01*
X197422609Y10576901D01*
X197577241Y10203584D01*
X197587990Y10177634D01*
X197672300Y9753782D01*
X197672300Y9321618D01*
X197595685Y8936450D01*
X197587989Y8897763D01*
X197422609Y8498499D01*
X197182513Y8139170D01*
X196876930Y7833587D01*
X196517601Y7593491D01*
X196118337Y7428111D01*
X196118336Y7428111D01*
X196118334Y7428110D01*
X195694482Y7343800D01*
X195262318Y7343800D01*
X194838466Y7428110D01*
X194838464Y7428111D01*
X194838463Y7428111D01*
X194439199Y7593491D01*
X194079870Y7833587D01*
X193774287Y8139170D01*
X193534191Y8498499D01*
X193368811Y8897763D01*
X193361116Y8936450D01*
X193284500Y9321618D01*
X193284500Y9753782D01*
X193368810Y10177634D01*
X193379559Y10203584D01*
X193534191Y10576901D01*
X193774287Y10936230D01*
X194079870Y11241813D01*
X194439199Y11481909D01*
X194838463Y11647289D01*
X194838464Y11647289D01*
X194838466Y11647290D01*
X195262318Y11731600D01*
X195694482Y11731600D01*
X196118334Y11647290D01*
X196118334Y11647290D01*
G37*
G36*
X48480834Y11647290D02*
X48480836Y11647289D01*
X48480837Y11647289D01*
X48880101Y11481909D01*
X49239430Y11241813D01*
X49545013Y10936230D01*
X49785109Y10576901D01*
X49939741Y10203584D01*
X49950490Y10177634D01*
X50034800Y9753782D01*
X50034800Y9321618D01*
X49958185Y8936450D01*
X49950489Y8897763D01*
X49785109Y8498499D01*
X49545013Y8139170D01*
X49239430Y7833587D01*
X48880101Y7593491D01*
X48480837Y7428111D01*
X48480836Y7428111D01*
X48480834Y7428110D01*
X48056982Y7343800D01*
X47624818Y7343800D01*
X47200966Y7428110D01*
X47200964Y7428111D01*
X47200963Y7428111D01*
X46801699Y7593491D01*
X46442370Y7833587D01*
X46136787Y8139170D01*
X45896691Y8498499D01*
X45731311Y8897763D01*
X45723616Y8936450D01*
X45647000Y9321618D01*
X45647000Y9753782D01*
X45731310Y10177634D01*
X45742059Y10203584D01*
X45896691Y10576901D01*
X46136787Y10936230D01*
X46442370Y11241813D01*
X46801699Y11481909D01*
X47200963Y11647289D01*
X47200964Y11647289D01*
X47200966Y11647290D01*
X47624818Y11731600D01*
X48056982Y11731600D01*
X48480834Y11647290D01*
X48480834Y11647290D01*
G37*
G36*
X234218334Y11647290D02*
X234218336Y11647289D01*
X234218337Y11647289D01*
X234617601Y11481909D01*
X234976930Y11241813D01*
X235282513Y10936230D01*
X235522609Y10576901D01*
X235677241Y10203584D01*
X235687990Y10177634D01*
X235772300Y9753782D01*
X235772300Y9321618D01*
X235695685Y8936450D01*
X235687989Y8897763D01*
X235522609Y8498499D01*
X235282513Y8139170D01*
X234976930Y7833587D01*
X234617601Y7593491D01*
X234218337Y7428111D01*
X234218336Y7428111D01*
X234218334Y7428110D01*
X233794482Y7343800D01*
X233362318Y7343800D01*
X232938466Y7428110D01*
X232938464Y7428111D01*
X232938463Y7428111D01*
X232539199Y7593491D01*
X232179870Y7833587D01*
X231874287Y8139170D01*
X231695227Y8407152D01*
X231679686Y8426088D01*
X231660744Y8441634D01*
X231639134Y8453185D01*
X231615684Y8460298D01*
X231591298Y8462700D01*
X231408772Y8462700D01*
X231201084Y8504012D01*
X231005447Y8585047D01*
X230829375Y8702695D01*
X230679645Y8852425D01*
X230561997Y9028497D01*
X230480962Y9224134D01*
X230439650Y9431822D01*
X230439650Y9643578D01*
X230480962Y9851266D01*
X230561997Y10046903D01*
X230679645Y10222975D01*
X230829375Y10372705D01*
X231005447Y10490353D01*
X231201084Y10571388D01*
X231408772Y10612700D01*
X231591298Y10612700D01*
X231615684Y10615102D01*
X231639133Y10622215D01*
X231660744Y10633766D01*
X231679686Y10649312D01*
X231695227Y10668248D01*
X231874287Y10936230D01*
X232179870Y11241813D01*
X232539199Y11481909D01*
X232938463Y11647289D01*
X232938464Y11647289D01*
X232938466Y11647290D01*
X233362318Y11731600D01*
X233794482Y11731600D01*
X234218334Y11647290D01*
X234218334Y11647290D01*
G37*
G36*
X227074584Y11647290D02*
X227074586Y11647289D01*
X227074587Y11647289D01*
X227473851Y11481909D01*
X227833180Y11241813D01*
X228138763Y10936230D01*
X228317823Y10668248D01*
X228333364Y10649312D01*
X228352306Y10633766D01*
X228373916Y10622215D01*
X228397366Y10615102D01*
X228421752Y10612700D01*
X228604278Y10612700D01*
X228811966Y10571388D01*
X229007603Y10490353D01*
X229183675Y10372705D01*
X229333405Y10222975D01*
X229451053Y10046903D01*
X229532088Y9851266D01*
X229573400Y9643578D01*
X229573400Y9431822D01*
X229532088Y9224134D01*
X229451053Y9028497D01*
X229333405Y8852425D01*
X229183675Y8702695D01*
X229007603Y8585047D01*
X228874330Y8529844D01*
X228811966Y8504012D01*
X228604278Y8462700D01*
X228421752Y8462700D01*
X228397366Y8460298D01*
X228373917Y8453185D01*
X228352306Y8441634D01*
X228333364Y8426088D01*
X228317823Y8407152D01*
X228138763Y8139170D01*
X227833180Y7833587D01*
X227473851Y7593491D01*
X227074587Y7428111D01*
X227074586Y7428111D01*
X227074584Y7428110D01*
X226650732Y7343800D01*
X226218568Y7343800D01*
X225794716Y7428110D01*
X225794714Y7428111D01*
X225794713Y7428111D01*
X225395449Y7593491D01*
X225036120Y7833587D01*
X224730537Y8139170D01*
X224490441Y8498499D01*
X224325061Y8897763D01*
X224317366Y8936450D01*
X224240750Y9321618D01*
X224240750Y9753782D01*
X224325060Y10177634D01*
X224335809Y10203584D01*
X224490441Y10576901D01*
X224730537Y10936230D01*
X225036120Y11241813D01*
X225395449Y11481909D01*
X225794713Y11647289D01*
X225794714Y11647289D01*
X225794716Y11647290D01*
X226218568Y11731600D01*
X226650732Y11731600D01*
X227074584Y11647290D01*
X227074584Y11647290D01*
G37*
G36*
X215168334Y11647290D02*
X215168336Y11647289D01*
X215168337Y11647289D01*
X215567601Y11481909D01*
X215926930Y11241813D01*
X216232513Y10936230D01*
X216472609Y10576901D01*
X216627241Y10203584D01*
X216637990Y10177634D01*
X216722300Y9753782D01*
X216722300Y9321618D01*
X216645685Y8936450D01*
X216637989Y8897763D01*
X216472609Y8498499D01*
X216232513Y8139170D01*
X215926930Y7833587D01*
X215567601Y7593491D01*
X215168337Y7428111D01*
X215168336Y7428111D01*
X215168334Y7428110D01*
X214744482Y7343800D01*
X214312318Y7343800D01*
X213888466Y7428110D01*
X213888464Y7428111D01*
X213888463Y7428111D01*
X213489199Y7593491D01*
X213129870Y7833587D01*
X212824287Y8139170D01*
X212584191Y8498499D01*
X212418811Y8897763D01*
X212411116Y8936450D01*
X212334500Y9321618D01*
X212334500Y9753782D01*
X212418810Y10177634D01*
X212429559Y10203584D01*
X212584191Y10576901D01*
X212824287Y10936230D01*
X213129870Y11241813D01*
X213489199Y11481909D01*
X213888463Y11647289D01*
X213888464Y11647289D01*
X213888466Y11647290D01*
X214312318Y11731600D01*
X214744482Y11731600D01*
X215168334Y11647290D01*
X215168334Y11647290D01*
G37*
G36*
X183197416Y12760756D02*
X183597790Y12594916D01*
X183958121Y12354150D01*
X184264550Y12047721D01*
X184505316Y11687390D01*
X184671156Y11287016D01*
X184755700Y10861983D01*
X184755700Y10428617D01*
X184671156Y10003584D01*
X184505316Y9603210D01*
X184264550Y9242879D01*
X183958121Y8936450D01*
X183597790Y8695684D01*
X183197416Y8529844D01*
X182772383Y8445300D01*
X182339017Y8445300D01*
X181913984Y8529844D01*
X181513610Y8695684D01*
X181153279Y8936450D01*
X180846850Y9242879D01*
X180606084Y9603210D01*
X180440244Y10003584D01*
X180355700Y10428617D01*
X180355700Y10861983D01*
X180440244Y11287016D01*
X180606084Y11687390D01*
X180846850Y12047721D01*
X181153279Y12354150D01*
X181513610Y12594916D01*
X181913984Y12760756D01*
X182339017Y12845300D01*
X182772383Y12845300D01*
X183197416Y12760756D01*
X183197416Y12760756D01*
G37*
G36*
X43054017Y10575456D02*
X43078400Y10573054D01*
X43102783Y10575456D01*
X43290022Y10612700D01*
X43501778Y10612700D01*
X43709466Y10571388D01*
X43905103Y10490353D01*
X44081175Y10372705D01*
X44230905Y10222975D01*
X44348553Y10046903D01*
X44429588Y9851266D01*
X44470900Y9643578D01*
X44470900Y9431822D01*
X44429588Y9224134D01*
X44348553Y9028497D01*
X44230905Y8852425D01*
X44081175Y8702695D01*
X43905103Y8585047D01*
X43771830Y8529844D01*
X43709466Y8504012D01*
X43501778Y8462700D01*
X43290022Y8462700D01*
X43102783Y8499944D01*
X43078400Y8502346D01*
X43054017Y8499944D01*
X42866778Y8462700D01*
X42655022Y8462700D01*
X42447334Y8504012D01*
X42384970Y8529844D01*
X42251697Y8585047D01*
X42075625Y8702695D01*
X41925895Y8852425D01*
X41808247Y9028497D01*
X41727212Y9224134D01*
X41685900Y9431822D01*
X41685900Y9643578D01*
X41727212Y9851266D01*
X41808247Y10046903D01*
X41925895Y10222975D01*
X42075625Y10372705D01*
X42251697Y10490353D01*
X42447334Y10571388D01*
X42655022Y10612700D01*
X42866778Y10612700D01*
X43054017Y10575456D01*
X43054017Y10575456D01*
G37*
G36*
X33529017Y10575456D02*
X33553400Y10573054D01*
X33577783Y10575456D01*
X33765022Y10612700D01*
X33976778Y10612700D01*
X34184466Y10571388D01*
X34380103Y10490353D01*
X34556175Y10372705D01*
X34705905Y10222975D01*
X34823553Y10046903D01*
X34904588Y9851266D01*
X34945900Y9643578D01*
X34945900Y9431822D01*
X34904588Y9224134D01*
X34823553Y9028497D01*
X34705905Y8852425D01*
X34556175Y8702695D01*
X34380103Y8585047D01*
X34246830Y8529844D01*
X34184466Y8504012D01*
X33976778Y8462700D01*
X33765022Y8462700D01*
X33577783Y8499944D01*
X33553400Y8502346D01*
X33529017Y8499944D01*
X33341778Y8462700D01*
X33130022Y8462700D01*
X32922334Y8504012D01*
X32859970Y8529844D01*
X32726697Y8585047D01*
X32550625Y8702695D01*
X32400895Y8852425D01*
X32283247Y9028497D01*
X32202212Y9224134D01*
X32160900Y9431822D01*
X32160900Y9643578D01*
X32202212Y9851266D01*
X32283247Y10046903D01*
X32400895Y10222975D01*
X32550625Y10372705D01*
X32726697Y10490353D01*
X32922334Y10571388D01*
X33130022Y10612700D01*
X33341778Y10612700D01*
X33529017Y10575456D01*
X33529017Y10575456D01*
G37*
G36*
X133561966Y10571388D02*
X133757603Y10490353D01*
X133933675Y10372705D01*
X134083405Y10222975D01*
X134201053Y10046903D01*
X134282088Y9851266D01*
X134323400Y9643578D01*
X134323400Y9431822D01*
X134282088Y9224134D01*
X134201053Y9028497D01*
X134083405Y8852425D01*
X133933675Y8702695D01*
X133757603Y8585047D01*
X133624330Y8529844D01*
X133561966Y8504012D01*
X133354278Y8462700D01*
X133142522Y8462700D01*
X132934834Y8504012D01*
X132872470Y8529844D01*
X132739197Y8585047D01*
X132563125Y8702695D01*
X132413395Y8852425D01*
X132295747Y9028497D01*
X132214712Y9224134D01*
X132173400Y9431822D01*
X132173400Y9643578D01*
X132214712Y9851266D01*
X132295747Y10046903D01*
X132413395Y10222975D01*
X132563125Y10372705D01*
X132739197Y10490353D01*
X132934834Y10571388D01*
X133142522Y10612700D01*
X133354278Y10612700D01*
X133561966Y10571388D01*
X133561966Y10571388D01*
G37*
G36*
X143721966Y10571388D02*
X143917603Y10490353D01*
X144093675Y10372705D01*
X144243405Y10222975D01*
X144361053Y10046903D01*
X144442088Y9851266D01*
X144483400Y9643578D01*
X144483400Y9431822D01*
X144442088Y9224134D01*
X144361053Y9028497D01*
X144243405Y8852425D01*
X144093675Y8702695D01*
X143917603Y8585047D01*
X143784330Y8529844D01*
X143721966Y8504012D01*
X143514278Y8462700D01*
X143302522Y8462700D01*
X143094834Y8504012D01*
X143032470Y8529844D01*
X142899197Y8585047D01*
X142723125Y8702695D01*
X142573395Y8852425D01*
X142455747Y9028497D01*
X142374712Y9224134D01*
X142333400Y9431822D01*
X142333400Y9643578D01*
X142374712Y9851266D01*
X142455747Y10046903D01*
X142573395Y10222975D01*
X142723125Y10372705D01*
X142899197Y10490353D01*
X143094834Y10571388D01*
X143302522Y10612700D01*
X143514278Y10612700D01*
X143721966Y10571388D01*
X143721966Y10571388D01*
G37*
G36*
X190711966Y10571388D02*
X190907603Y10490353D01*
X191083675Y10372705D01*
X191233405Y10222975D01*
X191351053Y10046903D01*
X191432088Y9851266D01*
X191473400Y9643578D01*
X191473400Y9431822D01*
X191432088Y9224134D01*
X191351053Y9028497D01*
X191233405Y8852425D01*
X191083675Y8702695D01*
X190907603Y8585047D01*
X190774330Y8529844D01*
X190711966Y8504012D01*
X190504278Y8462700D01*
X190292522Y8462700D01*
X190084834Y8504012D01*
X190022470Y8529844D01*
X189889197Y8585047D01*
X189713125Y8702695D01*
X189563395Y8852425D01*
X189445747Y9028497D01*
X189364712Y9224134D01*
X189323400Y9431822D01*
X189323400Y9643578D01*
X189364712Y9851266D01*
X189445747Y10046903D01*
X189563395Y10222975D01*
X189713125Y10372705D01*
X189889197Y10490353D01*
X190084834Y10571388D01*
X190292522Y10612700D01*
X190504278Y10612700D01*
X190711966Y10571388D01*
X190711966Y10571388D01*
G37*
G36*
X219921966Y10571388D02*
X220117603Y10490353D01*
X220293675Y10372705D01*
X220393137Y10273243D01*
X220412079Y10257697D01*
X220433690Y10246146D01*
X220457139Y10239033D01*
X220481525Y10236631D01*
X220505911Y10239033D01*
X220529360Y10246146D01*
X220550971Y10257697D01*
X220569913Y10273243D01*
X220669375Y10372705D01*
X220845447Y10490353D01*
X221041084Y10571388D01*
X221248772Y10612700D01*
X221460528Y10612700D01*
X221668216Y10571388D01*
X221863853Y10490353D01*
X222039925Y10372705D01*
X222189655Y10222975D01*
X222307303Y10046903D01*
X222388338Y9851266D01*
X222429650Y9643578D01*
X222429650Y9431822D01*
X222388338Y9224134D01*
X222307303Y9028497D01*
X222189655Y8852425D01*
X222039925Y8702695D01*
X221863853Y8585047D01*
X221730580Y8529844D01*
X221668216Y8504012D01*
X221460528Y8462700D01*
X221248772Y8462700D01*
X221041084Y8504012D01*
X220978720Y8529844D01*
X220845447Y8585047D01*
X220669375Y8702695D01*
X220569913Y8802157D01*
X220550971Y8817703D01*
X220529360Y8829254D01*
X220505911Y8836367D01*
X220481525Y8838769D01*
X220457139Y8836367D01*
X220433690Y8829254D01*
X220412079Y8817703D01*
X220393137Y8802157D01*
X220293675Y8702695D01*
X220117603Y8585047D01*
X219984330Y8529844D01*
X219921966Y8504012D01*
X219714278Y8462700D01*
X219502522Y8462700D01*
X219294834Y8504012D01*
X219232470Y8529844D01*
X219099197Y8585047D01*
X218923125Y8702695D01*
X218773395Y8852425D01*
X218655747Y9028497D01*
X218574712Y9224134D01*
X218533400Y9431822D01*
X218533400Y9643578D01*
X218574712Y9851266D01*
X218655747Y10046903D01*
X218773395Y10222975D01*
X218923125Y10372705D01*
X219099197Y10490353D01*
X219294834Y10571388D01*
X219502522Y10612700D01*
X219714278Y10612700D01*
X219921966Y10571388D01*
X219921966Y10571388D01*
G37*
G36*
X238971966Y10571388D02*
X239167603Y10490353D01*
X239343675Y10372705D01*
X239493405Y10222975D01*
X239611053Y10046903D01*
X239692088Y9851266D01*
X239733400Y9643578D01*
X239733400Y9431822D01*
X239692088Y9224134D01*
X239611053Y9028497D01*
X239493405Y8852425D01*
X239343675Y8702695D01*
X239167603Y8585047D01*
X239034330Y8529844D01*
X238971966Y8504012D01*
X238764278Y8462700D01*
X238552522Y8462700D01*
X238344834Y8504012D01*
X238282470Y8529844D01*
X238149197Y8585047D01*
X237973125Y8702695D01*
X237823395Y8852425D01*
X237705747Y9028497D01*
X237624712Y9224134D01*
X237583400Y9431822D01*
X237583400Y9643578D01*
X237624712Y9851266D01*
X237705747Y10046903D01*
X237823395Y10222975D01*
X237973125Y10372705D01*
X238149197Y10490353D01*
X238344834Y10571388D01*
X238552522Y10612700D01*
X238764278Y10612700D01*
X238971966Y10571388D01*
X238971966Y10571388D01*
G37*
G36*
X200871966Y10571388D02*
X201067603Y10490353D01*
X201243675Y10372705D01*
X201393405Y10222975D01*
X201511053Y10046903D01*
X201592088Y9851266D01*
X201633400Y9643578D01*
X201633400Y9431822D01*
X201592088Y9224134D01*
X201511053Y9028497D01*
X201393405Y8852425D01*
X201243675Y8702695D01*
X201067603Y8585047D01*
X200934330Y8529844D01*
X200871966Y8504012D01*
X200664278Y8462700D01*
X200452522Y8462700D01*
X200244834Y8504012D01*
X200182470Y8529844D01*
X200049197Y8585047D01*
X199873125Y8702695D01*
X199723395Y8852425D01*
X199605747Y9028497D01*
X199524712Y9224134D01*
X199483400Y9431822D01*
X199483400Y9643578D01*
X199524712Y9851266D01*
X199605747Y10046903D01*
X199723395Y10222975D01*
X199873125Y10372705D01*
X200049197Y10490353D01*
X200244834Y10571388D01*
X200452522Y10612700D01*
X200664278Y10612700D01*
X200871966Y10571388D01*
X200871966Y10571388D01*
G37*
G36*
X24024466Y10571388D02*
X24220103Y10490353D01*
X24396175Y10372705D01*
X24545905Y10222975D01*
X24663553Y10046903D01*
X24744588Y9851266D01*
X24785900Y9643578D01*
X24785900Y9431822D01*
X24744588Y9224134D01*
X24663553Y9028497D01*
X24545905Y8852425D01*
X24396175Y8702695D01*
X24220103Y8585047D01*
X24086830Y8529844D01*
X24024466Y8504012D01*
X23816778Y8462700D01*
X23605022Y8462700D01*
X23397334Y8504012D01*
X23334970Y8529844D01*
X23201697Y8585047D01*
X23025625Y8702695D01*
X22875895Y8852425D01*
X22758247Y9028497D01*
X22677212Y9224134D01*
X22635900Y9431822D01*
X22635900Y9643578D01*
X22677212Y9851266D01*
X22758247Y10046903D01*
X22875895Y10222975D01*
X23025625Y10372705D01*
X23201697Y10490353D01*
X23397334Y10571388D01*
X23605022Y10612700D01*
X23816778Y10612700D01*
X24024466Y10571388D01*
X24024466Y10571388D01*
G37*
G36*
X53234466Y10571388D02*
X53430103Y10490353D01*
X53606175Y10372705D01*
X53755905Y10222975D01*
X53873553Y10046903D01*
X53954588Y9851266D01*
X53995900Y9643578D01*
X53995900Y9431822D01*
X53954588Y9224134D01*
X53873553Y9028497D01*
X53755905Y8852425D01*
X53606175Y8702695D01*
X53430103Y8585047D01*
X53296830Y8529844D01*
X53234466Y8504012D01*
X53026778Y8462700D01*
X52815022Y8462700D01*
X52607334Y8504012D01*
X52544970Y8529844D01*
X52411697Y8585047D01*
X52235625Y8702695D01*
X52085895Y8852425D01*
X51968247Y9028497D01*
X51887212Y9224134D01*
X51845900Y9431822D01*
X51845900Y9643578D01*
X51887212Y9851266D01*
X51968247Y10046903D01*
X52085895Y10222975D01*
X52235625Y10372705D01*
X52411697Y10490353D01*
X52607334Y10571388D01*
X52815022Y10612700D01*
X53026778Y10612700D01*
X53234466Y10571388D01*
X53234466Y10571388D01*
G37*
G36*
X103240716Y10571388D02*
X103436353Y10490353D01*
X103612425Y10372705D01*
X103762155Y10222975D01*
X103879803Y10046903D01*
X103960838Y9851266D01*
X104002150Y9643578D01*
X104002150Y9431822D01*
X103960838Y9224134D01*
X103879803Y9028497D01*
X103762155Y8852425D01*
X103612425Y8702695D01*
X103436353Y8585047D01*
X103303080Y8529844D01*
X103240716Y8504012D01*
X103033028Y8462700D01*
X102821272Y8462700D01*
X102613584Y8504012D01*
X102551220Y8529844D01*
X102417947Y8585047D01*
X102241875Y8702695D01*
X102092145Y8852425D01*
X101974497Y9028497D01*
X101893462Y9224134D01*
X101852150Y9431822D01*
X101852150Y9643578D01*
X101893462Y9851266D01*
X101974497Y10046903D01*
X102092145Y10222975D01*
X102241875Y10372705D01*
X102417947Y10490353D01*
X102613584Y10571388D01*
X102821272Y10612700D01*
X103033028Y10612700D01*
X103240716Y10571388D01*
X103240716Y10571388D01*
G37*
G36*
X93080716Y10571388D02*
X93276353Y10490353D01*
X93452425Y10372705D01*
X93602155Y10222975D01*
X93719803Y10046903D01*
X93800838Y9851266D01*
X93842150Y9643578D01*
X93842150Y9431822D01*
X93800838Y9224134D01*
X93719803Y9028497D01*
X93602155Y8852425D01*
X93452425Y8702695D01*
X93276353Y8585047D01*
X93143080Y8529844D01*
X93080716Y8504012D01*
X92873028Y8462700D01*
X92661272Y8462700D01*
X92453584Y8504012D01*
X92391220Y8529844D01*
X92257947Y8585047D01*
X92081875Y8702695D01*
X91932145Y8852425D01*
X91814497Y9028497D01*
X91733462Y9224134D01*
X91692150Y9431822D01*
X91692150Y9643578D01*
X91733462Y9851266D01*
X91814497Y10046903D01*
X91932145Y10222975D01*
X92081875Y10372705D01*
X92257947Y10490353D01*
X92453584Y10571388D01*
X92661272Y10612700D01*
X92873028Y10612700D01*
X93080716Y10571388D01*
X93080716Y10571388D01*
G37*
G36*
X209761966Y10571388D02*
X209957603Y10490353D01*
X210133675Y10372705D01*
X210283405Y10222975D01*
X210401053Y10046903D01*
X210482088Y9851266D01*
X210523400Y9643578D01*
X210523400Y9431822D01*
X210482088Y9224134D01*
X210401053Y9028497D01*
X210283405Y8852425D01*
X210133675Y8702695D01*
X209957603Y8585047D01*
X209824330Y8529844D01*
X209761966Y8504012D01*
X209554278Y8462700D01*
X209342522Y8462700D01*
X209134834Y8504012D01*
X209072470Y8529844D01*
X208939197Y8585047D01*
X208763125Y8702695D01*
X208613395Y8852425D01*
X208495747Y9028497D01*
X208414712Y9224134D01*
X208373400Y9431822D01*
X208373400Y9643578D01*
X208414712Y9851266D01*
X208495747Y10046903D01*
X208613395Y10222975D01*
X208763125Y10372705D01*
X208939197Y10490353D01*
X209134834Y10571388D01*
X209342522Y10612700D01*
X209554278Y10612700D01*
X209761966Y10571388D01*
X209761966Y10571388D01*
G37*
G36*
X77610116Y12960756D02*
X78010490Y12794916D01*
X78370821Y12554150D01*
X78677250Y12247721D01*
X78918016Y11887390D01*
X79083856Y11487016D01*
X79168400Y11061983D01*
X79168400Y10628617D01*
X79083856Y10203584D01*
X78918016Y9803210D01*
X78677250Y9442879D01*
X78370821Y9136450D01*
X78010490Y8895684D01*
X77610116Y8729844D01*
X77185083Y8645300D01*
X76751717Y8645300D01*
X76326684Y8729844D01*
X75926310Y8895684D01*
X75565979Y9136450D01*
X75259550Y9442879D01*
X75018784Y9803210D01*
X74852944Y10203584D01*
X74768400Y10628617D01*
X74768400Y11061983D01*
X74852944Y11487016D01*
X75018784Y11887390D01*
X75259550Y12247721D01*
X75565979Y12554150D01*
X75926310Y12794916D01*
X76326684Y12960756D01*
X76751717Y13045300D01*
X77185083Y13045300D01*
X77610116Y12960756D01*
X77610116Y12960756D01*
G37*
G36*
X127030334Y19902290D02*
X127030336Y19902289D01*
X127030337Y19902289D01*
X127429601Y19736909D01*
X127788930Y19496813D01*
X128094513Y19191230D01*
X128334609Y18831901D01*
X128499989Y18432637D01*
X128584300Y18008780D01*
X128584300Y17576620D01*
X128499989Y17152763D01*
X128334609Y16753499D01*
X128094513Y16394170D01*
X127788930Y16088587D01*
X127429601Y15848491D01*
X127030337Y15683111D01*
X127030336Y15683111D01*
X127030334Y15683110D01*
X126606482Y15598800D01*
X126174318Y15598800D01*
X125750466Y15683110D01*
X125750464Y15683111D01*
X125750463Y15683111D01*
X125351199Y15848491D01*
X124991870Y16088587D01*
X124686287Y16394170D01*
X124446191Y16753499D01*
X124280811Y17152763D01*
X124196500Y17576620D01*
X124196500Y18008780D01*
X124280811Y18432637D01*
X124446191Y18831901D01*
X124686287Y19191230D01*
X124991870Y19496813D01*
X125351199Y19736909D01*
X125750463Y19902289D01*
X125750464Y19902289D01*
X125750466Y19902290D01*
X126174318Y19986600D01*
X126606482Y19986600D01*
X127030334Y19902290D01*
X127030334Y19902290D01*
G37*
G36*
X150906334Y19902290D02*
X150906336Y19902289D01*
X150906337Y19902289D01*
X151305601Y19736909D01*
X151664930Y19496813D01*
X151970513Y19191230D01*
X152210609Y18831901D01*
X152375989Y18432637D01*
X152460300Y18008780D01*
X152460300Y17576620D01*
X152375989Y17152763D01*
X152210609Y16753499D01*
X151970513Y16394170D01*
X151664930Y16088587D01*
X151305601Y15848491D01*
X150906337Y15683111D01*
X150906336Y15683111D01*
X150906334Y15683110D01*
X150482482Y15598800D01*
X150050318Y15598800D01*
X149626466Y15683110D01*
X149626464Y15683111D01*
X149626463Y15683111D01*
X149227199Y15848491D01*
X148867870Y16088587D01*
X148562287Y16394170D01*
X148322191Y16753499D01*
X148156811Y17152763D01*
X148072500Y17576620D01*
X148072500Y18008780D01*
X148156811Y18432637D01*
X148322191Y18831901D01*
X148562287Y19191230D01*
X148867870Y19496813D01*
X149227199Y19736909D01*
X149626463Y19902289D01*
X149626464Y19902289D01*
X149626466Y19902290D01*
X150050318Y19986600D01*
X150482482Y19986600D01*
X150906334Y19902290D01*
X150906334Y19902290D01*
G37*
G36*
X86549084Y19902290D02*
X86549086Y19902289D01*
X86549087Y19902289D01*
X86948351Y19736909D01*
X87307680Y19496813D01*
X87613263Y19191230D01*
X87853359Y18831901D01*
X88018739Y18432637D01*
X88103050Y18008780D01*
X88103050Y17576620D01*
X88018739Y17152763D01*
X87853359Y16753499D01*
X87613263Y16394170D01*
X87307680Y16088587D01*
X86948351Y15848491D01*
X86549087Y15683111D01*
X86549086Y15683111D01*
X86549084Y15683110D01*
X86125232Y15598800D01*
X85693068Y15598800D01*
X85269216Y15683110D01*
X85269214Y15683111D01*
X85269213Y15683111D01*
X84869949Y15848491D01*
X84510620Y16088587D01*
X84205037Y16394170D01*
X83964941Y16753499D01*
X83799561Y17152763D01*
X83715250Y17576620D01*
X83715250Y18008780D01*
X83799561Y18432637D01*
X83964941Y18831901D01*
X84205037Y19191230D01*
X84510620Y19496813D01*
X84869949Y19736909D01*
X85269213Y19902289D01*
X85269214Y19902289D01*
X85269216Y19902290D01*
X85693068Y19986600D01*
X86125232Y19986600D01*
X86549084Y19902290D01*
X86549084Y19902290D01*
G37*
G36*
X110425084Y19902290D02*
X110425086Y19902289D01*
X110425087Y19902289D01*
X110824351Y19736909D01*
X111183680Y19496813D01*
X111489263Y19191230D01*
X111729359Y18831901D01*
X111894739Y18432637D01*
X111979050Y18008780D01*
X111979050Y17576620D01*
X111894739Y17152763D01*
X111729359Y16753499D01*
X111489263Y16394170D01*
X111183680Y16088587D01*
X110824351Y15848491D01*
X110425087Y15683111D01*
X110425086Y15683111D01*
X110425084Y15683110D01*
X110001232Y15598800D01*
X109569068Y15598800D01*
X109145216Y15683110D01*
X109145214Y15683111D01*
X109145213Y15683111D01*
X108745949Y15848491D01*
X108386620Y16088587D01*
X108081037Y16394170D01*
X107840941Y16753499D01*
X107675561Y17152763D01*
X107591250Y17576620D01*
X107591250Y18008780D01*
X107675561Y18432637D01*
X107840941Y18831901D01*
X108081037Y19191230D01*
X108386620Y19496813D01*
X108745949Y19736909D01*
X109145213Y19902289D01*
X109145214Y19902289D01*
X109145216Y19902290D01*
X109569068Y19986600D01*
X110001232Y19986600D01*
X110425084Y19902290D01*
X110425084Y19902290D01*
G37*
G36*
X30710116Y24510756D02*
X31110490Y24344916D01*
X31470821Y24104150D01*
X31777250Y23797721D01*
X32018016Y23437390D01*
X32183856Y23037016D01*
X32268400Y22611983D01*
X32268400Y22178617D01*
X32183856Y21753584D01*
X32018016Y21353210D01*
X31777250Y20992879D01*
X31470821Y20686450D01*
X31110490Y20445684D01*
X30710116Y20279844D01*
X30285083Y20195300D01*
X29851717Y20195300D01*
X29426684Y20279844D01*
X29026310Y20445684D01*
X28665979Y20686450D01*
X28359550Y20992879D01*
X28118784Y21353210D01*
X27952944Y21753584D01*
X27868400Y22178617D01*
X27868400Y22611983D01*
X27952944Y23037016D01*
X28118784Y23437390D01*
X28359550Y23797721D01*
X28665979Y24104150D01*
X29026310Y24344916D01*
X29426684Y24510756D01*
X29851717Y24595300D01*
X30285083Y24595300D01*
X30710116Y24510756D01*
X30710116Y24510756D01*
G37*
G36*
X215168334Y30697290D02*
X215168336Y30697289D01*
X215168337Y30697289D01*
X215567601Y30531909D01*
X215926930Y30291813D01*
X216232513Y29986230D01*
X216472609Y29626901D01*
X216637989Y29227637D01*
X216722300Y28803780D01*
X216722300Y28371620D01*
X216637989Y27947763D01*
X216472609Y27548499D01*
X216232513Y27189170D01*
X215926930Y26883587D01*
X215567601Y26643491D01*
X215168337Y26478111D01*
X215168336Y26478111D01*
X215168334Y26478110D01*
X214744482Y26393800D01*
X214312318Y26393800D01*
X213888466Y26478110D01*
X213888464Y26478111D01*
X213888463Y26478111D01*
X213489199Y26643491D01*
X213129870Y26883587D01*
X212824287Y27189170D01*
X212584191Y27548499D01*
X212418811Y27947763D01*
X212334500Y28371620D01*
X212334500Y28803780D01*
X212418811Y29227637D01*
X212584191Y29626901D01*
X212824287Y29986230D01*
X213129870Y30291813D01*
X213489199Y30531909D01*
X213888463Y30697289D01*
X213888464Y30697289D01*
X213888466Y30697290D01*
X214312318Y30781600D01*
X214744482Y30781600D01*
X215168334Y30697290D01*
X215168334Y30697290D01*
G37*
G36*
X234218334Y30697290D02*
X234218336Y30697289D01*
X234218337Y30697289D01*
X234617601Y30531909D01*
X234976930Y30291813D01*
X235282513Y29986230D01*
X235522609Y29626901D01*
X235687989Y29227637D01*
X235772300Y28803780D01*
X235772300Y28371620D01*
X235687989Y27947763D01*
X235522609Y27548499D01*
X235282513Y27189170D01*
X234976930Y26883587D01*
X234617601Y26643491D01*
X234218337Y26478111D01*
X234218336Y26478111D01*
X234218334Y26478110D01*
X233794482Y26393800D01*
X233362318Y26393800D01*
X232938466Y26478110D01*
X232938464Y26478111D01*
X232938463Y26478111D01*
X232539199Y26643491D01*
X232179870Y26883587D01*
X231874287Y27189170D01*
X231634191Y27548499D01*
X231468811Y27947763D01*
X231384500Y28371620D01*
X231384500Y28803780D01*
X231468811Y29227637D01*
X231634191Y29626901D01*
X231874287Y29986230D01*
X232179870Y30291813D01*
X232539199Y30531909D01*
X232938463Y30697289D01*
X232938464Y30697289D01*
X232938466Y30697290D01*
X233362318Y30781600D01*
X233794482Y30781600D01*
X234218334Y30697290D01*
X234218334Y30697290D01*
G37*
G36*
X177068334Y30697290D02*
X177068336Y30697289D01*
X177068337Y30697289D01*
X177467601Y30531909D01*
X177826930Y30291813D01*
X178132513Y29986230D01*
X178372609Y29626901D01*
X178537989Y29227637D01*
X178622300Y28803780D01*
X178622300Y28371620D01*
X178537989Y27947763D01*
X178372609Y27548499D01*
X178132513Y27189170D01*
X177826930Y26883587D01*
X177467601Y26643491D01*
X177068337Y26478111D01*
X177068336Y26478111D01*
X177068334Y26478110D01*
X176644482Y26393800D01*
X176212318Y26393800D01*
X175788466Y26478110D01*
X175788464Y26478111D01*
X175788463Y26478111D01*
X175389199Y26643491D01*
X175029870Y26883587D01*
X174724287Y27189170D01*
X174484191Y27548499D01*
X174318811Y27947763D01*
X174234500Y28371620D01*
X174234500Y28803780D01*
X174318811Y29227637D01*
X174484191Y29626901D01*
X174724287Y29986230D01*
X175029870Y30291813D01*
X175389199Y30531909D01*
X175788463Y30697289D01*
X175788464Y30697289D01*
X175788466Y30697290D01*
X176212318Y30781600D01*
X176644482Y30781600D01*
X177068334Y30697290D01*
X177068334Y30697290D01*
G37*
G36*
X196118334Y30697290D02*
X196118336Y30697289D01*
X196118337Y30697289D01*
X196517601Y30531909D01*
X196876930Y30291813D01*
X197182513Y29986230D01*
X197422609Y29626901D01*
X197587989Y29227637D01*
X197672300Y28803780D01*
X197672300Y28371620D01*
X197587989Y27947763D01*
X197422609Y27548499D01*
X197182513Y27189170D01*
X196876930Y26883587D01*
X196517601Y26643491D01*
X196118337Y26478111D01*
X196118336Y26478111D01*
X196118334Y26478110D01*
X195694482Y26393800D01*
X195262318Y26393800D01*
X194838466Y26478110D01*
X194838464Y26478111D01*
X194838463Y26478111D01*
X194439199Y26643491D01*
X194079870Y26883587D01*
X193774287Y27189170D01*
X193534191Y27548499D01*
X193368811Y27947763D01*
X193284500Y28371620D01*
X193284500Y28803780D01*
X193368811Y29227637D01*
X193534191Y29626901D01*
X193774287Y29986230D01*
X194079870Y30291813D01*
X194439199Y30531909D01*
X194838463Y30697289D01*
X194838464Y30697289D01*
X194838466Y30697290D01*
X195262318Y30781600D01*
X195694482Y30781600D01*
X196118334Y30697290D01*
X196118334Y30697290D01*
G37*
G36*
X119918334Y30697290D02*
X119918336Y30697289D01*
X119918337Y30697289D01*
X120317601Y30531909D01*
X120676930Y30291813D01*
X120982513Y29986230D01*
X121222609Y29626901D01*
X121387989Y29227637D01*
X121472300Y28803780D01*
X121472300Y28371620D01*
X121387989Y27947763D01*
X121222609Y27548499D01*
X120982513Y27189170D01*
X120676930Y26883587D01*
X120317601Y26643491D01*
X119918337Y26478111D01*
X119918336Y26478111D01*
X119918334Y26478110D01*
X119494482Y26393800D01*
X119062318Y26393800D01*
X118638466Y26478110D01*
X118638464Y26478111D01*
X118638463Y26478111D01*
X118239199Y26643491D01*
X117879870Y26883587D01*
X117574287Y27189170D01*
X117334191Y27548499D01*
X117168811Y27947763D01*
X117084500Y28371620D01*
X117084500Y28803780D01*
X117168811Y29227637D01*
X117334191Y29626901D01*
X117574287Y29986230D01*
X117879870Y30291813D01*
X118239199Y30531909D01*
X118638463Y30697289D01*
X118638464Y30697289D01*
X118638466Y30697290D01*
X119062318Y30781600D01*
X119494482Y30781600D01*
X119918334Y30697290D01*
X119918334Y30697290D01*
G37*
G36*
X17524584Y30697290D02*
X17524586Y30697289D01*
X17524587Y30697289D01*
X17923851Y30531909D01*
X18283180Y30291813D01*
X18588763Y29986230D01*
X18828859Y29626901D01*
X18994239Y29227637D01*
X19078550Y28803780D01*
X19078550Y28371620D01*
X18994239Y27947763D01*
X18828859Y27548499D01*
X18588763Y27189170D01*
X18283180Y26883587D01*
X17923851Y26643491D01*
X17524587Y26478111D01*
X17524586Y26478111D01*
X17524584Y26478110D01*
X17100732Y26393800D01*
X16668568Y26393800D01*
X16244716Y26478110D01*
X16244714Y26478111D01*
X16244713Y26478111D01*
X15845449Y26643491D01*
X15486120Y26883587D01*
X15180537Y27189170D01*
X14940441Y27548499D01*
X14775061Y27947763D01*
X14690750Y28371620D01*
X14690750Y28803780D01*
X14775061Y29227637D01*
X14940441Y29626901D01*
X15180537Y29986230D01*
X15486120Y30291813D01*
X15845449Y30531909D01*
X16244713Y30697289D01*
X16244714Y30697289D01*
X16244716Y30697290D01*
X16668568Y30781600D01*
X17100732Y30781600D01*
X17524584Y30697290D01*
X17524584Y30697290D01*
G37*
G36*
X100868334Y30697290D02*
X100868336Y30697289D01*
X100868337Y30697289D01*
X101267601Y30531909D01*
X101626930Y30291813D01*
X101932513Y29986230D01*
X102172609Y29626901D01*
X102337989Y29227637D01*
X102422300Y28803780D01*
X102422300Y28371620D01*
X102337989Y27947763D01*
X102172609Y27548499D01*
X101932513Y27189170D01*
X101626930Y26883587D01*
X101267601Y26643491D01*
X100868337Y26478111D01*
X100868336Y26478111D01*
X100868334Y26478110D01*
X100444482Y26393800D01*
X100012318Y26393800D01*
X99588466Y26478110D01*
X99588464Y26478111D01*
X99588463Y26478111D01*
X99189199Y26643491D01*
X98829870Y26883587D01*
X98524287Y27189170D01*
X98284191Y27548499D01*
X98118811Y27947763D01*
X98034500Y28371620D01*
X98034500Y28803780D01*
X98118811Y29227637D01*
X98284191Y29626901D01*
X98524287Y29986230D01*
X98829870Y30291813D01*
X99189199Y30531909D01*
X99588463Y30697289D01*
X99588464Y30697289D01*
X99588466Y30697290D01*
X100012318Y30781600D01*
X100444482Y30781600D01*
X100868334Y30697290D01*
X100868334Y30697290D01*
G37*
G36*
X62768334Y30697290D02*
X62768336Y30697289D01*
X62768337Y30697289D01*
X63167601Y30531909D01*
X63526930Y30291813D01*
X63832513Y29986230D01*
X64072609Y29626901D01*
X64237989Y29227637D01*
X64322300Y28803780D01*
X64322300Y28371620D01*
X64237989Y27947763D01*
X64072609Y27548499D01*
X63832513Y27189170D01*
X63526930Y26883587D01*
X63167601Y26643491D01*
X62768337Y26478111D01*
X62768336Y26478111D01*
X62768334Y26478110D01*
X62344482Y26393800D01*
X61912318Y26393800D01*
X61488466Y26478110D01*
X61488464Y26478111D01*
X61488463Y26478111D01*
X61089199Y26643491D01*
X60729870Y26883587D01*
X60424287Y27189170D01*
X60184191Y27548499D01*
X60018811Y27947763D01*
X59934500Y28371620D01*
X59934500Y28803780D01*
X60018811Y29227637D01*
X60184191Y29626901D01*
X60424287Y29986230D01*
X60729870Y30291813D01*
X61089199Y30531909D01*
X61488463Y30697289D01*
X61488464Y30697289D01*
X61488466Y30697290D01*
X61912318Y30781600D01*
X62344482Y30781600D01*
X62768334Y30697290D01*
X62768334Y30697290D01*
G37*
G36*
X43718334Y30697290D02*
X43718336Y30697289D01*
X43718337Y30697289D01*
X44117601Y30531909D01*
X44476930Y30291813D01*
X44782513Y29986230D01*
X45022609Y29626901D01*
X45187989Y29227637D01*
X45272300Y28803780D01*
X45272300Y28371620D01*
X45187989Y27947763D01*
X45022609Y27548499D01*
X44782513Y27189170D01*
X44476930Y26883587D01*
X44117601Y26643491D01*
X43718337Y26478111D01*
X43718336Y26478111D01*
X43718334Y26478110D01*
X43294482Y26393800D01*
X42862318Y26393800D01*
X42438466Y26478110D01*
X42438464Y26478111D01*
X42438463Y26478111D01*
X42039199Y26643491D01*
X41679870Y26883587D01*
X41374287Y27189170D01*
X41134191Y27548499D01*
X40968811Y27947763D01*
X40884500Y28371620D01*
X40884500Y28803780D01*
X40968811Y29227637D01*
X41134191Y29626901D01*
X41374287Y29986230D01*
X41679870Y30291813D01*
X42039199Y30531909D01*
X42438463Y30697289D01*
X42438464Y30697289D01*
X42438466Y30697290D01*
X42862318Y30781600D01*
X43294482Y30781600D01*
X43718334Y30697290D01*
X43718334Y30697290D01*
G37*
G36*
X81818334Y30697290D02*
X81818336Y30697289D01*
X81818337Y30697289D01*
X82217601Y30531909D01*
X82576930Y30291813D01*
X82882513Y29986230D01*
X83122609Y29626901D01*
X83287989Y29227637D01*
X83372300Y28803780D01*
X83372300Y28371620D01*
X83287989Y27947763D01*
X83122609Y27548499D01*
X82882513Y27189170D01*
X82576930Y26883587D01*
X82217601Y26643491D01*
X81818337Y26478111D01*
X81818336Y26478111D01*
X81818334Y26478110D01*
X81394482Y26393800D01*
X80962318Y26393800D01*
X80538466Y26478110D01*
X80538464Y26478111D01*
X80538463Y26478111D01*
X80139199Y26643491D01*
X79779870Y26883587D01*
X79474287Y27189170D01*
X79234191Y27548499D01*
X79068811Y27947763D01*
X78984500Y28371620D01*
X78984500Y28803780D01*
X79068811Y29227637D01*
X79234191Y29626901D01*
X79474287Y29986230D01*
X79779870Y30291813D01*
X80139199Y30531909D01*
X80538463Y30697289D01*
X80538464Y30697289D01*
X80538466Y30697290D01*
X80962318Y30781600D01*
X81394482Y30781600D01*
X81818334Y30697290D01*
X81818334Y30697290D01*
G37*
G36*
X158018334Y30697290D02*
X158018336Y30697289D01*
X158018337Y30697289D01*
X158417601Y30531909D01*
X158776930Y30291813D01*
X159082513Y29986230D01*
X159322609Y29626901D01*
X159487989Y29227637D01*
X159572300Y28803780D01*
X159572300Y28371620D01*
X159487989Y27947763D01*
X159322609Y27548499D01*
X159082513Y27189170D01*
X158776930Y26883587D01*
X158417601Y26643491D01*
X158018337Y26478111D01*
X158018336Y26478111D01*
X158018334Y26478110D01*
X157594482Y26393800D01*
X157162318Y26393800D01*
X156738466Y26478110D01*
X156738464Y26478111D01*
X156738463Y26478111D01*
X156339199Y26643491D01*
X155979870Y26883587D01*
X155674287Y27189170D01*
X155434191Y27548499D01*
X155268811Y27947763D01*
X155184500Y28371620D01*
X155184500Y28803780D01*
X155268811Y29227637D01*
X155434191Y29626901D01*
X155674287Y29986230D01*
X155979870Y30291813D01*
X156339199Y30531909D01*
X156738463Y30697289D01*
X156738464Y30697289D01*
X156738466Y30697290D01*
X157162318Y30781600D01*
X157594482Y30781600D01*
X158018334Y30697290D01*
X158018334Y30697290D01*
G37*
G36*
X138968334Y30697290D02*
X138968336Y30697289D01*
X138968337Y30697289D01*
X139367601Y30531909D01*
X139726930Y30291813D01*
X140032513Y29986230D01*
X140272609Y29626901D01*
X140437989Y29227637D01*
X140522300Y28803780D01*
X140522300Y28371620D01*
X140437989Y27947763D01*
X140272609Y27548499D01*
X140032513Y27189170D01*
X139726930Y26883587D01*
X139367601Y26643491D01*
X138968337Y26478111D01*
X138968336Y26478111D01*
X138968334Y26478110D01*
X138544482Y26393800D01*
X138112318Y26393800D01*
X137688466Y26478110D01*
X137688464Y26478111D01*
X137688463Y26478111D01*
X137289199Y26643491D01*
X136929870Y26883587D01*
X136624287Y27189170D01*
X136384191Y27548499D01*
X136218811Y27947763D01*
X136134500Y28371620D01*
X136134500Y28803780D01*
X136218811Y29227637D01*
X136384191Y29626901D01*
X136624287Y29986230D01*
X136929870Y30291813D01*
X137289199Y30531909D01*
X137688463Y30697289D01*
X137688464Y30697289D01*
X137688466Y30697290D01*
X138112318Y30781600D01*
X138544482Y30781600D01*
X138968334Y30697290D01*
X138968334Y30697290D01*
G37*
G36*
X133561966Y29621388D02*
X133757603Y29540353D01*
X133933675Y29422705D01*
X134083405Y29272975D01*
X134201053Y29096903D01*
X134282088Y28901266D01*
X134323400Y28693578D01*
X134323400Y28481822D01*
X134282088Y28274134D01*
X134201053Y28078497D01*
X134083405Y27902425D01*
X133933675Y27752695D01*
X133757603Y27635047D01*
X133561966Y27554012D01*
X133354278Y27512700D01*
X133142522Y27512700D01*
X132934834Y27554012D01*
X132739197Y27635047D01*
X132563125Y27752695D01*
X132413395Y27902425D01*
X132295747Y28078497D01*
X132214712Y28274134D01*
X132173400Y28481822D01*
X132173400Y28693578D01*
X132214712Y28901266D01*
X132295747Y29096903D01*
X132413395Y29272975D01*
X132563125Y29422705D01*
X132739197Y29540353D01*
X132934834Y29621388D01*
X133142522Y29662700D01*
X133354278Y29662700D01*
X133561966Y29621388D01*
X133561966Y29621388D01*
G37*
G36*
X124671966Y29621388D02*
X124867603Y29540353D01*
X125043675Y29422705D01*
X125193405Y29272975D01*
X125311053Y29096903D01*
X125392088Y28901266D01*
X125433400Y28693578D01*
X125433400Y28481822D01*
X125392088Y28274134D01*
X125311053Y28078497D01*
X125193405Y27902425D01*
X125043675Y27752695D01*
X124867603Y27635047D01*
X124671966Y27554012D01*
X124464278Y27512700D01*
X124252522Y27512700D01*
X124044834Y27554012D01*
X123849197Y27635047D01*
X123673125Y27752695D01*
X123523395Y27902425D01*
X123405747Y28078497D01*
X123324712Y28274134D01*
X123283400Y28481822D01*
X123283400Y28693578D01*
X123324712Y28901266D01*
X123405747Y29096903D01*
X123523395Y29272975D01*
X123673125Y29422705D01*
X123849197Y29540353D01*
X124044834Y29621388D01*
X124252522Y29662700D01*
X124464278Y29662700D01*
X124671966Y29621388D01*
X124671966Y29621388D01*
G37*
G36*
X114511966Y29621388D02*
X114707603Y29540353D01*
X114883675Y29422705D01*
X115033405Y29272975D01*
X115151053Y29096903D01*
X115232088Y28901266D01*
X115273400Y28693578D01*
X115273400Y28481822D01*
X115232088Y28274134D01*
X115151053Y28078497D01*
X115033405Y27902425D01*
X114883675Y27752695D01*
X114707603Y27635047D01*
X114511966Y27554012D01*
X114304278Y27512700D01*
X114092522Y27512700D01*
X113884834Y27554012D01*
X113689197Y27635047D01*
X113513125Y27752695D01*
X113363395Y27902425D01*
X113245747Y28078497D01*
X113164712Y28274134D01*
X113123400Y28481822D01*
X113123400Y28693578D01*
X113164712Y28901266D01*
X113245747Y29096903D01*
X113363395Y29272975D01*
X113513125Y29422705D01*
X113689197Y29540353D01*
X113884834Y29621388D01*
X114092522Y29662700D01*
X114304278Y29662700D01*
X114511966Y29621388D01*
X114511966Y29621388D01*
G37*
G36*
X105621966Y29621388D02*
X105817603Y29540353D01*
X105993675Y29422705D01*
X106143405Y29272975D01*
X106261053Y29096903D01*
X106342088Y28901266D01*
X106383400Y28693578D01*
X106383400Y28481822D01*
X106342088Y28274134D01*
X106261053Y28078497D01*
X106143405Y27902425D01*
X105993675Y27752695D01*
X105817603Y27635047D01*
X105621966Y27554012D01*
X105414278Y27512700D01*
X105202522Y27512700D01*
X104994834Y27554012D01*
X104799197Y27635047D01*
X104623125Y27752695D01*
X104473395Y27902425D01*
X104355747Y28078497D01*
X104274712Y28274134D01*
X104233400Y28481822D01*
X104233400Y28693578D01*
X104274712Y28901266D01*
X104355747Y29096903D01*
X104473395Y29272975D01*
X104623125Y29422705D01*
X104799197Y29540353D01*
X104994834Y29621388D01*
X105202522Y29662700D01*
X105414278Y29662700D01*
X105621966Y29621388D01*
X105621966Y29621388D01*
G37*
G36*
X95461966Y29621388D02*
X95657603Y29540353D01*
X95833675Y29422705D01*
X95983405Y29272975D01*
X96101053Y29096903D01*
X96182088Y28901266D01*
X96223400Y28693578D01*
X96223400Y28481822D01*
X96182088Y28274134D01*
X96101053Y28078497D01*
X95983405Y27902425D01*
X95833675Y27752695D01*
X95657603Y27635047D01*
X95461966Y27554012D01*
X95254278Y27512700D01*
X95042522Y27512700D01*
X94834834Y27554012D01*
X94639197Y27635047D01*
X94463125Y27752695D01*
X94313395Y27902425D01*
X94195747Y28078497D01*
X94114712Y28274134D01*
X94073400Y28481822D01*
X94073400Y28693578D01*
X94114712Y28901266D01*
X94195747Y29096903D01*
X94313395Y29272975D01*
X94463125Y29422705D01*
X94639197Y29540353D01*
X94834834Y29621388D01*
X95042522Y29662700D01*
X95254278Y29662700D01*
X95461966Y29621388D01*
X95461966Y29621388D01*
G37*
G36*
X86571966Y29621388D02*
X86767603Y29540353D01*
X86943675Y29422705D01*
X87093405Y29272975D01*
X87211053Y29096903D01*
X87292088Y28901266D01*
X87333400Y28693578D01*
X87333400Y28481822D01*
X87292088Y28274134D01*
X87211053Y28078497D01*
X87093405Y27902425D01*
X86943675Y27752695D01*
X86767603Y27635047D01*
X86571966Y27554012D01*
X86364278Y27512700D01*
X86152522Y27512700D01*
X85944834Y27554012D01*
X85749197Y27635047D01*
X85573125Y27752695D01*
X85423395Y27902425D01*
X85305747Y28078497D01*
X85224712Y28274134D01*
X85183400Y28481822D01*
X85183400Y28693578D01*
X85224712Y28901266D01*
X85305747Y29096903D01*
X85423395Y29272975D01*
X85573125Y29422705D01*
X85749197Y29540353D01*
X85944834Y29621388D01*
X86152522Y29662700D01*
X86364278Y29662700D01*
X86571966Y29621388D01*
X86571966Y29621388D01*
G37*
G36*
X76411966Y29621388D02*
X76607603Y29540353D01*
X76783675Y29422705D01*
X76933405Y29272975D01*
X77051053Y29096903D01*
X77132088Y28901266D01*
X77173400Y28693578D01*
X77173400Y28481822D01*
X77132088Y28274134D01*
X77051053Y28078497D01*
X76933405Y27902425D01*
X76783675Y27752695D01*
X76607603Y27635047D01*
X76411966Y27554012D01*
X76204278Y27512700D01*
X75992522Y27512700D01*
X75784834Y27554012D01*
X75589197Y27635047D01*
X75413125Y27752695D01*
X75263395Y27902425D01*
X75145747Y28078497D01*
X75064712Y28274134D01*
X75023400Y28481822D01*
X75023400Y28693578D01*
X75064712Y28901266D01*
X75145747Y29096903D01*
X75263395Y29272975D01*
X75413125Y29422705D01*
X75589197Y29540353D01*
X75784834Y29621388D01*
X75992522Y29662700D01*
X76204278Y29662700D01*
X76411966Y29621388D01*
X76411966Y29621388D01*
G37*
G36*
X67521966Y29621388D02*
X67717603Y29540353D01*
X67893675Y29422705D01*
X68043405Y29272975D01*
X68161053Y29096903D01*
X68242088Y28901266D01*
X68283400Y28693578D01*
X68283400Y28481822D01*
X68242088Y28274134D01*
X68161053Y28078497D01*
X68043405Y27902425D01*
X67893675Y27752695D01*
X67717603Y27635047D01*
X67521966Y27554012D01*
X67314278Y27512700D01*
X67102522Y27512700D01*
X66894834Y27554012D01*
X66699197Y27635047D01*
X66523125Y27752695D01*
X66373395Y27902425D01*
X66255747Y28078497D01*
X66174712Y28274134D01*
X66133400Y28481822D01*
X66133400Y28693578D01*
X66174712Y28901266D01*
X66255747Y29096903D01*
X66373395Y29272975D01*
X66523125Y29422705D01*
X66699197Y29540353D01*
X66894834Y29621388D01*
X67102522Y29662700D01*
X67314278Y29662700D01*
X67521966Y29621388D01*
X67521966Y29621388D01*
G37*
G36*
X38311966Y29621388D02*
X38507603Y29540353D01*
X38683675Y29422705D01*
X38833405Y29272975D01*
X38951053Y29096903D01*
X39032088Y28901266D01*
X39073400Y28693578D01*
X39073400Y28481822D01*
X39032088Y28274134D01*
X38951053Y28078497D01*
X38833405Y27902425D01*
X38683675Y27752695D01*
X38507603Y27635047D01*
X38311966Y27554012D01*
X38104278Y27512700D01*
X37892522Y27512700D01*
X37684834Y27554012D01*
X37489197Y27635047D01*
X37313125Y27752695D01*
X37163395Y27902425D01*
X37045747Y28078497D01*
X36964712Y28274134D01*
X36923400Y28481822D01*
X36923400Y28693578D01*
X36964712Y28901266D01*
X37045747Y29096903D01*
X37163395Y29272975D01*
X37313125Y29422705D01*
X37489197Y29540353D01*
X37684834Y29621388D01*
X37892522Y29662700D01*
X38104278Y29662700D01*
X38311966Y29621388D01*
X38311966Y29621388D01*
G37*
G36*
X22278216Y29621388D02*
X22473853Y29540353D01*
X22649925Y29422705D01*
X22799655Y29272975D01*
X22917303Y29096903D01*
X22998338Y28901266D01*
X23039650Y28693578D01*
X23039650Y28481822D01*
X22998338Y28274134D01*
X22917303Y28078497D01*
X22799655Y27902425D01*
X22649925Y27752695D01*
X22473853Y27635047D01*
X22278216Y27554012D01*
X22070528Y27512700D01*
X21858772Y27512700D01*
X21651084Y27554012D01*
X21455447Y27635047D01*
X21279375Y27752695D01*
X21129645Y27902425D01*
X21011997Y28078497D01*
X20930962Y28274134D01*
X20889650Y28481822D01*
X20889650Y28693578D01*
X20930962Y28901266D01*
X21011997Y29096903D01*
X21129645Y29272975D01*
X21279375Y29422705D01*
X21455447Y29540353D01*
X21651084Y29621388D01*
X21858772Y29662700D01*
X22070528Y29662700D01*
X22278216Y29621388D01*
X22278216Y29621388D01*
G37*
G36*
X12118216Y29621388D02*
X12313853Y29540353D01*
X12489925Y29422705D01*
X12639655Y29272975D01*
X12757303Y29096903D01*
X12838338Y28901266D01*
X12879650Y28693578D01*
X12879650Y28481822D01*
X12838338Y28274134D01*
X12757303Y28078497D01*
X12639655Y27902425D01*
X12489925Y27752695D01*
X12313853Y27635047D01*
X12118216Y27554012D01*
X11910528Y27512700D01*
X11698772Y27512700D01*
X11491084Y27554012D01*
X11295447Y27635047D01*
X11119375Y27752695D01*
X10969645Y27902425D01*
X10851997Y28078497D01*
X10770962Y28274134D01*
X10729650Y28481822D01*
X10729650Y28693578D01*
X10770962Y28901266D01*
X10851997Y29096903D01*
X10969645Y29272975D01*
X11119375Y29422705D01*
X11295447Y29540353D01*
X11491084Y29621388D01*
X11698772Y29662700D01*
X11910528Y29662700D01*
X12118216Y29621388D01*
X12118216Y29621388D01*
G37*
G36*
X57361966Y29621388D02*
X57557603Y29540353D01*
X57733675Y29422705D01*
X57883405Y29272975D01*
X58001053Y29096903D01*
X58082088Y28901266D01*
X58123400Y28693578D01*
X58123400Y28481822D01*
X58082088Y28274134D01*
X58001053Y28078497D01*
X57883405Y27902425D01*
X57733675Y27752695D01*
X57557603Y27635047D01*
X57361966Y27554012D01*
X57154278Y27512700D01*
X56942522Y27512700D01*
X56734834Y27554012D01*
X56539197Y27635047D01*
X56363125Y27752695D01*
X56213395Y27902425D01*
X56095747Y28078497D01*
X56014712Y28274134D01*
X55973400Y28481822D01*
X55973400Y28693578D01*
X56014712Y28901266D01*
X56095747Y29096903D01*
X56213395Y29272975D01*
X56363125Y29422705D01*
X56539197Y29540353D01*
X56734834Y29621388D01*
X56942522Y29662700D01*
X57154278Y29662700D01*
X57361966Y29621388D01*
X57361966Y29621388D01*
G37*
G36*
X152611966Y29621388D02*
X152807603Y29540353D01*
X152983675Y29422705D01*
X153133405Y29272975D01*
X153251053Y29096903D01*
X153332088Y28901266D01*
X153373400Y28693578D01*
X153373400Y28481822D01*
X153332088Y28274134D01*
X153251053Y28078497D01*
X153133405Y27902425D01*
X152983675Y27752695D01*
X152807603Y27635047D01*
X152611966Y27554012D01*
X152404278Y27512700D01*
X152192522Y27512700D01*
X151984834Y27554012D01*
X151789197Y27635047D01*
X151613125Y27752695D01*
X151463395Y27902425D01*
X151345747Y28078497D01*
X151264712Y28274134D01*
X151223400Y28481822D01*
X151223400Y28693578D01*
X151264712Y28901266D01*
X151345747Y29096903D01*
X151463395Y29272975D01*
X151613125Y29422705D01*
X151789197Y29540353D01*
X151984834Y29621388D01*
X152192522Y29662700D01*
X152404278Y29662700D01*
X152611966Y29621388D01*
X152611966Y29621388D01*
G37*
G36*
X143721966Y29621388D02*
X143917603Y29540353D01*
X144093675Y29422705D01*
X144243405Y29272975D01*
X144361053Y29096903D01*
X144442088Y28901266D01*
X144483400Y28693578D01*
X144483400Y28481822D01*
X144442088Y28274134D01*
X144361053Y28078497D01*
X144243405Y27902425D01*
X144093675Y27752695D01*
X143917603Y27635047D01*
X143721966Y27554012D01*
X143514278Y27512700D01*
X143302522Y27512700D01*
X143094834Y27554012D01*
X142899197Y27635047D01*
X142723125Y27752695D01*
X142573395Y27902425D01*
X142455747Y28078497D01*
X142374712Y28274134D01*
X142333400Y28481822D01*
X142333400Y28693578D01*
X142374712Y28901266D01*
X142455747Y29096903D01*
X142573395Y29272975D01*
X142723125Y29422705D01*
X142899197Y29540353D01*
X143094834Y29621388D01*
X143302522Y29662700D01*
X143514278Y29662700D01*
X143721966Y29621388D01*
X143721966Y29621388D01*
G37*
G36*
X171661966Y29621388D02*
X171857603Y29540353D01*
X172033675Y29422705D01*
X172183405Y29272975D01*
X172301053Y29096903D01*
X172382088Y28901266D01*
X172423400Y28693578D01*
X172423400Y28481822D01*
X172382088Y28274134D01*
X172301053Y28078497D01*
X172183405Y27902425D01*
X172033675Y27752695D01*
X171857603Y27635047D01*
X171661966Y27554012D01*
X171454278Y27512700D01*
X171242522Y27512700D01*
X171034834Y27554012D01*
X170839197Y27635047D01*
X170663125Y27752695D01*
X170513395Y27902425D01*
X170395747Y28078497D01*
X170314712Y28274134D01*
X170273400Y28481822D01*
X170273400Y28693578D01*
X170314712Y28901266D01*
X170395747Y29096903D01*
X170513395Y29272975D01*
X170663125Y29422705D01*
X170839197Y29540353D01*
X171034834Y29621388D01*
X171242522Y29662700D01*
X171454278Y29662700D01*
X171661966Y29621388D01*
X171661966Y29621388D01*
G37*
G36*
X181821966Y29621388D02*
X182017603Y29540353D01*
X182193675Y29422705D01*
X182343405Y29272975D01*
X182461053Y29096903D01*
X182542088Y28901266D01*
X182583400Y28693578D01*
X182583400Y28481822D01*
X182542088Y28274134D01*
X182461053Y28078497D01*
X182343405Y27902425D01*
X182193675Y27752695D01*
X182017603Y27635047D01*
X181821966Y27554012D01*
X181614278Y27512700D01*
X181402522Y27512700D01*
X181194834Y27554012D01*
X180999197Y27635047D01*
X180823125Y27752695D01*
X180673395Y27902425D01*
X180555747Y28078497D01*
X180474712Y28274134D01*
X180433400Y28481822D01*
X180433400Y28693578D01*
X180474712Y28901266D01*
X180555747Y29096903D01*
X180673395Y29272975D01*
X180823125Y29422705D01*
X180999197Y29540353D01*
X181194834Y29621388D01*
X181402522Y29662700D01*
X181614278Y29662700D01*
X181821966Y29621388D01*
X181821966Y29621388D01*
G37*
G36*
X200871966Y29621388D02*
X201067603Y29540353D01*
X201243675Y29422705D01*
X201393405Y29272975D01*
X201511053Y29096903D01*
X201592088Y28901266D01*
X201633400Y28693578D01*
X201633400Y28481822D01*
X201592088Y28274134D01*
X201511053Y28078497D01*
X201393405Y27902425D01*
X201243675Y27752695D01*
X201067603Y27635047D01*
X200871966Y27554012D01*
X200664278Y27512700D01*
X200452522Y27512700D01*
X200244834Y27554012D01*
X200049197Y27635047D01*
X199873125Y27752695D01*
X199723395Y27902425D01*
X199605747Y28078497D01*
X199524712Y28274134D01*
X199483400Y28481822D01*
X199483400Y28693578D01*
X199524712Y28901266D01*
X199605747Y29096903D01*
X199723395Y29272975D01*
X199873125Y29422705D01*
X200049197Y29540353D01*
X200244834Y29621388D01*
X200452522Y29662700D01*
X200664278Y29662700D01*
X200871966Y29621388D01*
X200871966Y29621388D01*
G37*
G36*
X190711966Y29621388D02*
X190907603Y29540353D01*
X191083675Y29422705D01*
X191233405Y29272975D01*
X191351053Y29096903D01*
X191432088Y28901266D01*
X191473400Y28693578D01*
X191473400Y28481822D01*
X191432088Y28274134D01*
X191351053Y28078497D01*
X191233405Y27902425D01*
X191083675Y27752695D01*
X190907603Y27635047D01*
X190711966Y27554012D01*
X190504278Y27512700D01*
X190292522Y27512700D01*
X190084834Y27554012D01*
X189889197Y27635047D01*
X189713125Y27752695D01*
X189563395Y27902425D01*
X189445747Y28078497D01*
X189364712Y28274134D01*
X189323400Y28481822D01*
X189323400Y28693578D01*
X189364712Y28901266D01*
X189445747Y29096903D01*
X189563395Y29272975D01*
X189713125Y29422705D01*
X189889197Y29540353D01*
X190084834Y29621388D01*
X190292522Y29662700D01*
X190504278Y29662700D01*
X190711966Y29621388D01*
X190711966Y29621388D01*
G37*
G36*
X48471966Y29621388D02*
X48667603Y29540353D01*
X48843675Y29422705D01*
X48993405Y29272975D01*
X49111053Y29096903D01*
X49192088Y28901266D01*
X49233400Y28693578D01*
X49233400Y28481822D01*
X49192088Y28274134D01*
X49111053Y28078497D01*
X48993405Y27902425D01*
X48843675Y27752695D01*
X48667603Y27635047D01*
X48471966Y27554012D01*
X48264278Y27512700D01*
X48052522Y27512700D01*
X47844834Y27554012D01*
X47649197Y27635047D01*
X47473125Y27752695D01*
X47323395Y27902425D01*
X47205747Y28078497D01*
X47124712Y28274134D01*
X47083400Y28481822D01*
X47083400Y28693578D01*
X47124712Y28901266D01*
X47205747Y29096903D01*
X47323395Y29272975D01*
X47473125Y29422705D01*
X47649197Y29540353D01*
X47844834Y29621388D01*
X48052522Y29662700D01*
X48264278Y29662700D01*
X48471966Y29621388D01*
X48471966Y29621388D01*
G37*
G36*
X228811966Y29621388D02*
X229007603Y29540353D01*
X229183675Y29422705D01*
X229333405Y29272975D01*
X229451053Y29096903D01*
X229532088Y28901266D01*
X229573400Y28693578D01*
X229573400Y28481822D01*
X229532088Y28274134D01*
X229451053Y28078497D01*
X229333405Y27902425D01*
X229183675Y27752695D01*
X229007603Y27635047D01*
X228811966Y27554012D01*
X228604278Y27512700D01*
X228392522Y27512700D01*
X228184834Y27554012D01*
X227989197Y27635047D01*
X227813125Y27752695D01*
X227663395Y27902425D01*
X227545747Y28078497D01*
X227464712Y28274134D01*
X227423400Y28481822D01*
X227423400Y28693578D01*
X227464712Y28901266D01*
X227545747Y29096903D01*
X227663395Y29272975D01*
X227813125Y29422705D01*
X227989197Y29540353D01*
X228184834Y29621388D01*
X228392522Y29662700D01*
X228604278Y29662700D01*
X228811966Y29621388D01*
X228811966Y29621388D01*
G37*
G36*
X219921966Y29621388D02*
X220117603Y29540353D01*
X220293675Y29422705D01*
X220443405Y29272975D01*
X220561053Y29096903D01*
X220642088Y28901266D01*
X220683400Y28693578D01*
X220683400Y28481822D01*
X220642088Y28274134D01*
X220561053Y28078497D01*
X220443405Y27902425D01*
X220293675Y27752695D01*
X220117603Y27635047D01*
X219921966Y27554012D01*
X219714278Y27512700D01*
X219502522Y27512700D01*
X219294834Y27554012D01*
X219099197Y27635047D01*
X218923125Y27752695D01*
X218773395Y27902425D01*
X218655747Y28078497D01*
X218574712Y28274134D01*
X218533400Y28481822D01*
X218533400Y28693578D01*
X218574712Y28901266D01*
X218655747Y29096903D01*
X218773395Y29272975D01*
X218923125Y29422705D01*
X219099197Y29540353D01*
X219294834Y29621388D01*
X219502522Y29662700D01*
X219714278Y29662700D01*
X219921966Y29621388D01*
X219921966Y29621388D01*
G37*
G36*
X209761966Y29621388D02*
X209957603Y29540353D01*
X210133675Y29422705D01*
X210283405Y29272975D01*
X210401053Y29096903D01*
X210482088Y28901266D01*
X210523400Y28693578D01*
X210523400Y28481822D01*
X210482088Y28274134D01*
X210401053Y28078497D01*
X210283405Y27902425D01*
X210133675Y27752695D01*
X209957603Y27635047D01*
X209761966Y27554012D01*
X209554278Y27512700D01*
X209342522Y27512700D01*
X209134834Y27554012D01*
X208939197Y27635047D01*
X208763125Y27752695D01*
X208613395Y27902425D01*
X208495747Y28078497D01*
X208414712Y28274134D01*
X208373400Y28481822D01*
X208373400Y28693578D01*
X208414712Y28901266D01*
X208495747Y29096903D01*
X208613395Y29272975D01*
X208763125Y29422705D01*
X208939197Y29540353D01*
X209134834Y29621388D01*
X209342522Y29662700D01*
X209554278Y29662700D01*
X209761966Y29621388D01*
X209761966Y29621388D01*
G37*
G36*
X162771966Y29621388D02*
X162967603Y29540353D01*
X163143675Y29422705D01*
X163293405Y29272975D01*
X163411053Y29096903D01*
X163492088Y28901266D01*
X163533400Y28693578D01*
X163533400Y28481822D01*
X163492088Y28274134D01*
X163411053Y28078497D01*
X163293405Y27902425D01*
X163143675Y27752695D01*
X162967603Y27635047D01*
X162771966Y27554012D01*
X162564278Y27512700D01*
X162352522Y27512700D01*
X162144834Y27554012D01*
X161949197Y27635047D01*
X161773125Y27752695D01*
X161623395Y27902425D01*
X161505747Y28078497D01*
X161424712Y28274134D01*
X161383400Y28481822D01*
X161383400Y28693578D01*
X161424712Y28901266D01*
X161505747Y29096903D01*
X161623395Y29272975D01*
X161773125Y29422705D01*
X161949197Y29540353D01*
X162144834Y29621388D01*
X162352522Y29662700D01*
X162564278Y29662700D01*
X162771966Y29621388D01*
X162771966Y29621388D01*
G37*
G36*
X238971966Y29621388D02*
X239167603Y29540353D01*
X239343675Y29422705D01*
X239493405Y29272975D01*
X239611053Y29096903D01*
X239692088Y28901266D01*
X239733400Y28693578D01*
X239733400Y28481822D01*
X239692088Y28274134D01*
X239611053Y28078497D01*
X239493405Y27902425D01*
X239343675Y27752695D01*
X239167603Y27635047D01*
X238971966Y27554012D01*
X238764278Y27512700D01*
X238552522Y27512700D01*
X238344834Y27554012D01*
X238149197Y27635047D01*
X237973125Y27752695D01*
X237823395Y27902425D01*
X237705747Y28078497D01*
X237624712Y28274134D01*
X237583400Y28481822D01*
X237583400Y28693578D01*
X237624712Y28901266D01*
X237705747Y29096903D01*
X237823395Y29272975D01*
X237973125Y29422705D01*
X238149197Y29540353D01*
X238344834Y29621388D01*
X238552522Y29662700D01*
X238764278Y29662700D01*
X238971966Y29621388D01*
X238971966Y29621388D01*
G37*
G36*
X138947416Y40160656D02*
X139347790Y39994816D01*
X139708121Y39754050D01*
X140014550Y39447621D01*
X140255316Y39087290D01*
X140421156Y38686916D01*
X140505700Y38261883D01*
X140505700Y37828517D01*
X140421156Y37403484D01*
X140255316Y37003110D01*
X140014550Y36642779D01*
X139708121Y36336350D01*
X139347790Y36095584D01*
X138947416Y35929744D01*
X138522383Y35845200D01*
X138089017Y35845200D01*
X137663984Y35929744D01*
X137263610Y36095584D01*
X136903279Y36336350D01*
X136596850Y36642779D01*
X136356084Y37003110D01*
X136190244Y37403484D01*
X136105700Y37828517D01*
X136105700Y38261883D01*
X136190244Y38686916D01*
X136356084Y39087290D01*
X136596850Y39447621D01*
X136903279Y39754050D01*
X137263610Y39994816D01*
X137663984Y40160656D01*
X138089017Y40245200D01*
X138522383Y40245200D01*
X138947416Y40160656D01*
X138947416Y40160656D01*
G37*
G36*
X53243334Y49747290D02*
X53243336Y49747289D01*
X53243337Y49747289D01*
X53642601Y49581909D01*
X54001930Y49341813D01*
X54307513Y49036230D01*
X54547609Y48676901D01*
X54712989Y48277637D01*
X54797300Y47853780D01*
X54797300Y47421620D01*
X54712989Y46997763D01*
X54547609Y46598499D01*
X54307513Y46239170D01*
X54001930Y45933587D01*
X53642601Y45693491D01*
X53243337Y45528111D01*
X53243336Y45528111D01*
X53243334Y45528110D01*
X52819482Y45443800D01*
X52387318Y45443800D01*
X51963466Y45528110D01*
X51963464Y45528111D01*
X51963463Y45528111D01*
X51564199Y45693491D01*
X51204870Y45933587D01*
X50899287Y46239170D01*
X50659191Y46598499D01*
X50493811Y46997763D01*
X50409500Y47421620D01*
X50409500Y47853780D01*
X50493811Y48277637D01*
X50659191Y48676901D01*
X50899287Y49036230D01*
X51204870Y49341813D01*
X51564199Y49581909D01*
X51963463Y49747289D01*
X51963464Y49747289D01*
X51963466Y49747290D01*
X52387318Y49831600D01*
X52819482Y49831600D01*
X53243334Y49747290D01*
X53243334Y49747290D01*
G37*
G36*
X205643334Y49747290D02*
X205643336Y49747289D01*
X205643337Y49747289D01*
X206042601Y49581909D01*
X206401930Y49341813D01*
X206707513Y49036230D01*
X206947609Y48676901D01*
X207112989Y48277637D01*
X207197300Y47853780D01*
X207197300Y47421620D01*
X207112989Y46997763D01*
X206947609Y46598499D01*
X206707513Y46239170D01*
X206401930Y45933587D01*
X206042601Y45693491D01*
X205643337Y45528111D01*
X205643336Y45528111D01*
X205643334Y45528110D01*
X205219482Y45443800D01*
X204787318Y45443800D01*
X204363466Y45528110D01*
X204363464Y45528111D01*
X204363463Y45528111D01*
X203964199Y45693491D01*
X203604870Y45933587D01*
X203299287Y46239170D01*
X203059191Y46598499D01*
X202893811Y46997763D01*
X202809500Y47421620D01*
X202809500Y47853780D01*
X202893811Y48277637D01*
X203059191Y48676901D01*
X203299287Y49036230D01*
X203604870Y49341813D01*
X203964199Y49581909D01*
X204363463Y49747289D01*
X204363464Y49747289D01*
X204363466Y49747290D01*
X204787318Y49831600D01*
X205219482Y49831600D01*
X205643334Y49747290D01*
X205643334Y49747290D01*
G37*
G36*
X34193334Y49747290D02*
X34193336Y49747289D01*
X34193337Y49747289D01*
X34592601Y49581909D01*
X34951930Y49341813D01*
X35257513Y49036230D01*
X35497609Y48676901D01*
X35662989Y48277637D01*
X35747300Y47853780D01*
X35747300Y47421620D01*
X35662989Y46997763D01*
X35497609Y46598499D01*
X35257513Y46239170D01*
X34951930Y45933587D01*
X34592601Y45693491D01*
X34193337Y45528111D01*
X34193336Y45528111D01*
X34193334Y45528110D01*
X33769482Y45443800D01*
X33337318Y45443800D01*
X32913466Y45528110D01*
X32913464Y45528111D01*
X32913463Y45528111D01*
X32514199Y45693491D01*
X32154870Y45933587D01*
X31849287Y46239170D01*
X31609191Y46598499D01*
X31443811Y46997763D01*
X31359500Y47421620D01*
X31359500Y47853780D01*
X31443811Y48277637D01*
X31609191Y48676901D01*
X31849287Y49036230D01*
X32154870Y49341813D01*
X32514199Y49581909D01*
X32913463Y49747289D01*
X32913464Y49747289D01*
X32913466Y49747290D01*
X33337318Y49831600D01*
X33769482Y49831600D01*
X34193334Y49747290D01*
X34193334Y49747290D01*
G37*
G36*
X12762084Y49747290D02*
X12762086Y49747289D01*
X12762087Y49747289D01*
X13161351Y49581909D01*
X13520680Y49341813D01*
X13826263Y49036230D01*
X14066359Y48676901D01*
X14231739Y48277637D01*
X14316050Y47853780D01*
X14316050Y47421620D01*
X14231739Y46997763D01*
X14066359Y46598499D01*
X13826263Y46239170D01*
X13520680Y45933587D01*
X13161351Y45693491D01*
X12762087Y45528111D01*
X12762086Y45528111D01*
X12762084Y45528110D01*
X12338232Y45443800D01*
X11906068Y45443800D01*
X11482216Y45528110D01*
X11482214Y45528111D01*
X11482213Y45528111D01*
X11082949Y45693491D01*
X10723620Y45933587D01*
X10418037Y46239170D01*
X10177941Y46598499D01*
X10012561Y46997763D01*
X9928250Y47421620D01*
X9928250Y47853780D01*
X10012561Y48277637D01*
X10177941Y48676901D01*
X10418037Y49036230D01*
X10723620Y49341813D01*
X11082949Y49581909D01*
X11482213Y49747289D01*
X11482214Y49747289D01*
X11482216Y49747290D01*
X11906068Y49831600D01*
X12338232Y49831600D01*
X12762084Y49747290D01*
X12762084Y49747290D01*
G37*
G36*
X229455834Y49747290D02*
X229455836Y49747289D01*
X229455837Y49747289D01*
X229855101Y49581909D01*
X230214430Y49341813D01*
X230520013Y49036230D01*
X230760109Y48676901D01*
X230925489Y48277637D01*
X231009800Y47853780D01*
X231009800Y47421620D01*
X230925489Y46997763D01*
X230760109Y46598499D01*
X230520013Y46239170D01*
X230214430Y45933587D01*
X229855101Y45693491D01*
X229455837Y45528111D01*
X229455836Y45528111D01*
X229455834Y45528110D01*
X229031982Y45443800D01*
X228599818Y45443800D01*
X228175966Y45528110D01*
X228175964Y45528111D01*
X228175963Y45528111D01*
X227776699Y45693491D01*
X227417370Y45933587D01*
X227111787Y46239170D01*
X226871691Y46598499D01*
X226706311Y46997763D01*
X226622000Y47421620D01*
X226622000Y47853780D01*
X226706311Y48277637D01*
X226871691Y48676901D01*
X227111787Y49036230D01*
X227417370Y49341813D01*
X227776699Y49581909D01*
X228175963Y49747289D01*
X228175964Y49747289D01*
X228175966Y49747290D01*
X228599818Y49831600D01*
X229031982Y49831600D01*
X229455834Y49747290D01*
X229455834Y49747290D01*
G37*
G36*
X91343334Y49747290D02*
X91343336Y49747289D01*
X91343337Y49747289D01*
X91742601Y49581909D01*
X92101930Y49341813D01*
X92407513Y49036230D01*
X92647609Y48676901D01*
X92812989Y48277637D01*
X92897300Y47853780D01*
X92897300Y47421620D01*
X92812989Y46997763D01*
X92647609Y46598499D01*
X92407513Y46239170D01*
X92101930Y45933587D01*
X91742601Y45693491D01*
X91343337Y45528111D01*
X91343336Y45528111D01*
X91343334Y45528110D01*
X90919482Y45443800D01*
X90487318Y45443800D01*
X90063466Y45528110D01*
X90063464Y45528111D01*
X90063463Y45528111D01*
X89664199Y45693491D01*
X89304870Y45933587D01*
X88999287Y46239170D01*
X88759191Y46598499D01*
X88593811Y46997763D01*
X88509500Y47421620D01*
X88509500Y47853780D01*
X88593811Y48277637D01*
X88759191Y48676901D01*
X88999287Y49036230D01*
X89304870Y49341813D01*
X89664199Y49581909D01*
X90063463Y49747289D01*
X90063464Y49747289D01*
X90063466Y49747290D01*
X90487318Y49831600D01*
X90919482Y49831600D01*
X91343334Y49747290D01*
X91343334Y49747290D01*
G37*
G36*
X129443334Y49747290D02*
X129443336Y49747289D01*
X129443337Y49747289D01*
X129842601Y49581909D01*
X130201930Y49341813D01*
X130507513Y49036230D01*
X130747609Y48676901D01*
X130912989Y48277637D01*
X130997300Y47853780D01*
X130997300Y47421620D01*
X130912989Y46997763D01*
X130747609Y46598499D01*
X130507513Y46239170D01*
X130201930Y45933587D01*
X129842601Y45693491D01*
X129443337Y45528111D01*
X129443336Y45528111D01*
X129443334Y45528110D01*
X129019482Y45443800D01*
X128587318Y45443800D01*
X128163466Y45528110D01*
X128163464Y45528111D01*
X128163463Y45528111D01*
X127764199Y45693491D01*
X127404870Y45933587D01*
X127099287Y46239170D01*
X126859191Y46598499D01*
X126693811Y46997763D01*
X126609500Y47421620D01*
X126609500Y47853780D01*
X126693811Y48277637D01*
X126859191Y48676901D01*
X127099287Y49036230D01*
X127404870Y49341813D01*
X127764199Y49581909D01*
X128163463Y49747289D01*
X128163464Y49747289D01*
X128163466Y49747290D01*
X128587318Y49831600D01*
X129019482Y49831600D01*
X129443334Y49747290D01*
X129443334Y49747290D01*
G37*
G36*
X186593334Y49747290D02*
X186593336Y49747289D01*
X186593337Y49747289D01*
X186992601Y49581909D01*
X187351930Y49341813D01*
X187657513Y49036230D01*
X187897609Y48676901D01*
X188062989Y48277637D01*
X188147300Y47853780D01*
X188147300Y47421620D01*
X188062989Y46997763D01*
X187897609Y46598499D01*
X187657513Y46239170D01*
X187351930Y45933587D01*
X186992601Y45693491D01*
X186593337Y45528111D01*
X186593336Y45528111D01*
X186593334Y45528110D01*
X186169482Y45443800D01*
X185737318Y45443800D01*
X185313466Y45528110D01*
X185313464Y45528111D01*
X185313463Y45528111D01*
X184914199Y45693491D01*
X184554870Y45933587D01*
X184249287Y46239170D01*
X184009191Y46598499D01*
X183843811Y46997763D01*
X183759500Y47421620D01*
X183759500Y47853780D01*
X183843811Y48277637D01*
X184009191Y48676901D01*
X184249287Y49036230D01*
X184554870Y49341813D01*
X184914199Y49581909D01*
X185313463Y49747289D01*
X185313464Y49747289D01*
X185313466Y49747290D01*
X185737318Y49831600D01*
X186169482Y49831600D01*
X186593334Y49747290D01*
X186593334Y49747290D01*
G37*
G36*
X110393334Y49747290D02*
X110393336Y49747289D01*
X110393337Y49747289D01*
X110792601Y49581909D01*
X111151930Y49341813D01*
X111457513Y49036230D01*
X111697609Y48676901D01*
X111862989Y48277637D01*
X111947300Y47853780D01*
X111947300Y47421620D01*
X111862989Y46997763D01*
X111697609Y46598499D01*
X111457513Y46239170D01*
X111151930Y45933587D01*
X110792601Y45693491D01*
X110393337Y45528111D01*
X110393336Y45528111D01*
X110393334Y45528110D01*
X109969482Y45443800D01*
X109537318Y45443800D01*
X109113466Y45528110D01*
X109113464Y45528111D01*
X109113463Y45528111D01*
X108714199Y45693491D01*
X108354870Y45933587D01*
X108049287Y46239170D01*
X107809191Y46598499D01*
X107643811Y46997763D01*
X107559500Y47421620D01*
X107559500Y47853780D01*
X107643811Y48277637D01*
X107809191Y48676901D01*
X108049287Y49036230D01*
X108354870Y49341813D01*
X108714199Y49581909D01*
X109113463Y49747289D01*
X109113464Y49747289D01*
X109113466Y49747290D01*
X109537318Y49831600D01*
X109969482Y49831600D01*
X110393334Y49747290D01*
X110393334Y49747290D01*
G37*
G36*
X148493334Y49747290D02*
X148493336Y49747289D01*
X148493337Y49747289D01*
X148892601Y49581909D01*
X149251930Y49341813D01*
X149557513Y49036230D01*
X149797609Y48676901D01*
X149962989Y48277637D01*
X150047300Y47853780D01*
X150047300Y47421620D01*
X149962989Y46997763D01*
X149797609Y46598499D01*
X149557513Y46239170D01*
X149251930Y45933587D01*
X148892601Y45693491D01*
X148493337Y45528111D01*
X148493336Y45528111D01*
X148493334Y45528110D01*
X148069482Y45443800D01*
X147637318Y45443800D01*
X147213466Y45528110D01*
X147213464Y45528111D01*
X147213463Y45528111D01*
X146814199Y45693491D01*
X146454870Y45933587D01*
X146149287Y46239170D01*
X145909191Y46598499D01*
X145743811Y46997763D01*
X145659500Y47421620D01*
X145659500Y47853780D01*
X145743811Y48277637D01*
X145909191Y48676901D01*
X146149287Y49036230D01*
X146454870Y49341813D01*
X146814199Y49581909D01*
X147213463Y49747289D01*
X147213464Y49747289D01*
X147213466Y49747290D01*
X147637318Y49831600D01*
X148069482Y49831600D01*
X148493334Y49747290D01*
X148493334Y49747290D01*
G37*
G36*
X167543334Y49747290D02*
X167543336Y49747289D01*
X167543337Y49747289D01*
X167942601Y49581909D01*
X168301930Y49341813D01*
X168607513Y49036230D01*
X168847609Y48676901D01*
X169012989Y48277637D01*
X169097300Y47853780D01*
X169097300Y47421620D01*
X169012989Y46997763D01*
X168847609Y46598499D01*
X168607513Y46239170D01*
X168301930Y45933587D01*
X167942601Y45693491D01*
X167543337Y45528111D01*
X167543336Y45528111D01*
X167543334Y45528110D01*
X167119482Y45443800D01*
X166687318Y45443800D01*
X166263466Y45528110D01*
X166263464Y45528111D01*
X166263463Y45528111D01*
X165864199Y45693491D01*
X165504870Y45933587D01*
X165199287Y46239170D01*
X164959191Y46598499D01*
X164793811Y46997763D01*
X164709500Y47421620D01*
X164709500Y47853780D01*
X164793811Y48277637D01*
X164959191Y48676901D01*
X165199287Y49036230D01*
X165504870Y49341813D01*
X165864199Y49581909D01*
X166263463Y49747289D01*
X166263464Y49747289D01*
X166263466Y49747290D01*
X166687318Y49831600D01*
X167119482Y49831600D01*
X167543334Y49747290D01*
X167543334Y49747290D01*
G37*
G36*
X72293334Y49747290D02*
X72293336Y49747289D01*
X72293337Y49747289D01*
X72692601Y49581909D01*
X73051930Y49341813D01*
X73357513Y49036230D01*
X73597609Y48676901D01*
X73762989Y48277637D01*
X73847300Y47853780D01*
X73847300Y47421620D01*
X73762989Y46997763D01*
X73597609Y46598499D01*
X73357513Y46239170D01*
X73051930Y45933587D01*
X72692601Y45693491D01*
X72293337Y45528111D01*
X72293336Y45528111D01*
X72293334Y45528110D01*
X71869482Y45443800D01*
X71437318Y45443800D01*
X71013466Y45528110D01*
X71013464Y45528111D01*
X71013463Y45528111D01*
X70614199Y45693491D01*
X70254870Y45933587D01*
X69949287Y46239170D01*
X69709191Y46598499D01*
X69543811Y46997763D01*
X69459500Y47421620D01*
X69459500Y47853780D01*
X69543811Y48277637D01*
X69709191Y48676901D01*
X69949287Y49036230D01*
X70254870Y49341813D01*
X70614199Y49581909D01*
X71013463Y49747289D01*
X71013464Y49747289D01*
X71013466Y49747290D01*
X71437318Y49831600D01*
X71869482Y49831600D01*
X72293334Y49747290D01*
X72293334Y49747290D01*
G37*
G36*
X143086966Y48671388D02*
X143282603Y48590353D01*
X143458675Y48472705D01*
X143608405Y48322975D01*
X143726053Y48146903D01*
X143807088Y47951266D01*
X143848400Y47743578D01*
X143848400Y47531822D01*
X143807088Y47324134D01*
X143726053Y47128497D01*
X143608405Y46952425D01*
X143458675Y46802695D01*
X143282603Y46685047D01*
X143086966Y46604012D01*
X142879278Y46562700D01*
X142667522Y46562700D01*
X142459834Y46604012D01*
X142264197Y46685047D01*
X142088125Y46802695D01*
X141938395Y46952425D01*
X141820747Y47128497D01*
X141739712Y47324134D01*
X141698400Y47531822D01*
X141698400Y47743578D01*
X141739712Y47951266D01*
X141820747Y48146903D01*
X141938395Y48322975D01*
X142088125Y48472705D01*
X142264197Y48590353D01*
X142459834Y48671388D01*
X142667522Y48712700D01*
X142879278Y48712700D01*
X143086966Y48671388D01*
X143086966Y48671388D01*
G37*
G36*
X104986966Y48671388D02*
X105182603Y48590353D01*
X105358675Y48472705D01*
X105508405Y48322975D01*
X105626053Y48146903D01*
X105707088Y47951266D01*
X105748400Y47743578D01*
X105748400Y47531822D01*
X105707088Y47324134D01*
X105626053Y47128497D01*
X105508405Y46952425D01*
X105358675Y46802695D01*
X105182603Y46685047D01*
X104986966Y46604012D01*
X104779278Y46562700D01*
X104567522Y46562700D01*
X104359834Y46604012D01*
X104164197Y46685047D01*
X103988125Y46802695D01*
X103838395Y46952425D01*
X103720747Y47128497D01*
X103639712Y47324134D01*
X103598400Y47531822D01*
X103598400Y47743578D01*
X103639712Y47951266D01*
X103720747Y48146903D01*
X103838395Y48322975D01*
X103988125Y48472705D01*
X104164197Y48590353D01*
X104359834Y48671388D01*
X104567522Y48712700D01*
X104779278Y48712700D01*
X104986966Y48671388D01*
X104986966Y48671388D01*
G37*
G36*
X96096966Y48671388D02*
X96292603Y48590353D01*
X96468675Y48472705D01*
X96618405Y48322975D01*
X96736053Y48146903D01*
X96817088Y47951266D01*
X96858400Y47743578D01*
X96858400Y47531822D01*
X96817088Y47324134D01*
X96736053Y47128497D01*
X96618405Y46952425D01*
X96468675Y46802695D01*
X96292603Y46685047D01*
X96096966Y46604012D01*
X95889278Y46562700D01*
X95677522Y46562700D01*
X95469834Y46604012D01*
X95274197Y46685047D01*
X95098125Y46802695D01*
X94948395Y46952425D01*
X94830747Y47128497D01*
X94749712Y47324134D01*
X94708400Y47531822D01*
X94708400Y47743578D01*
X94749712Y47951266D01*
X94830747Y48146903D01*
X94948395Y48322975D01*
X95098125Y48472705D01*
X95274197Y48590353D01*
X95469834Y48671388D01*
X95677522Y48712700D01*
X95889278Y48712700D01*
X96096966Y48671388D01*
X96096966Y48671388D01*
G37*
G36*
X28786966Y48671388D02*
X28982603Y48590353D01*
X29158675Y48472705D01*
X29308405Y48322975D01*
X29426053Y48146903D01*
X29507088Y47951266D01*
X29548400Y47743578D01*
X29548400Y47531822D01*
X29507088Y47324134D01*
X29426053Y47128497D01*
X29308405Y46952425D01*
X29158675Y46802695D01*
X28982603Y46685047D01*
X28786966Y46604012D01*
X28579278Y46562700D01*
X28367522Y46562700D01*
X28159834Y46604012D01*
X27964197Y46685047D01*
X27788125Y46802695D01*
X27638395Y46952425D01*
X27520747Y47128497D01*
X27439712Y47324134D01*
X27398400Y47531822D01*
X27398400Y47743578D01*
X27439712Y47951266D01*
X27520747Y48146903D01*
X27638395Y48322975D01*
X27788125Y48472705D01*
X27964197Y48590353D01*
X28159834Y48671388D01*
X28367522Y48712700D01*
X28579278Y48712700D01*
X28786966Y48671388D01*
X28786966Y48671388D01*
G37*
G36*
X124036966Y48671388D02*
X124232603Y48590353D01*
X124408675Y48472705D01*
X124558405Y48322975D01*
X124676053Y48146903D01*
X124757088Y47951266D01*
X124798400Y47743578D01*
X124798400Y47531822D01*
X124757088Y47324134D01*
X124676053Y47128497D01*
X124558405Y46952425D01*
X124408675Y46802695D01*
X124232603Y46685047D01*
X124036966Y46604012D01*
X123829278Y46562700D01*
X123617522Y46562700D01*
X123409834Y46604012D01*
X123214197Y46685047D01*
X123038125Y46802695D01*
X122888395Y46952425D01*
X122770747Y47128497D01*
X122689712Y47324134D01*
X122648400Y47531822D01*
X122648400Y47743578D01*
X122689712Y47951266D01*
X122770747Y48146903D01*
X122888395Y48322975D01*
X123038125Y48472705D01*
X123214197Y48590353D01*
X123409834Y48671388D01*
X123617522Y48712700D01*
X123829278Y48712700D01*
X124036966Y48671388D01*
X124036966Y48671388D01*
G37*
G36*
X181186966Y48671388D02*
X181382603Y48590353D01*
X181558675Y48472705D01*
X181708405Y48322975D01*
X181826053Y48146903D01*
X181907088Y47951266D01*
X181948400Y47743578D01*
X181948400Y47531822D01*
X181907088Y47324134D01*
X181826053Y47128497D01*
X181708405Y46952425D01*
X181558675Y46802695D01*
X181382603Y46685047D01*
X181186966Y46604012D01*
X180979278Y46562700D01*
X180767522Y46562700D01*
X180559834Y46604012D01*
X180364197Y46685047D01*
X180188125Y46802695D01*
X180038395Y46952425D01*
X179920747Y47128497D01*
X179839712Y47324134D01*
X179798400Y47531822D01*
X179798400Y47743578D01*
X179839712Y47951266D01*
X179920747Y48146903D01*
X180038395Y48322975D01*
X180188125Y48472705D01*
X180364197Y48590353D01*
X180559834Y48671388D01*
X180767522Y48712700D01*
X180979278Y48712700D01*
X181186966Y48671388D01*
X181186966Y48671388D01*
G37*
G36*
X17515716Y48671388D02*
X17711353Y48590353D01*
X17887425Y48472705D01*
X18037155Y48322975D01*
X18154803Y48146903D01*
X18235838Y47951266D01*
X18277150Y47743578D01*
X18277150Y47531822D01*
X18235838Y47324134D01*
X18154803Y47128497D01*
X18037155Y46952425D01*
X17887425Y46802695D01*
X17711353Y46685047D01*
X17515716Y46604012D01*
X17308028Y46562700D01*
X17096272Y46562700D01*
X16888584Y46604012D01*
X16692947Y46685047D01*
X16516875Y46802695D01*
X16367145Y46952425D01*
X16249497Y47128497D01*
X16168462Y47324134D01*
X16127150Y47531822D01*
X16127150Y47743578D01*
X16168462Y47951266D01*
X16249497Y48146903D01*
X16367145Y48322975D01*
X16516875Y48472705D01*
X16692947Y48590353D01*
X16888584Y48671388D01*
X17096272Y48712700D01*
X17308028Y48712700D01*
X17515716Y48671388D01*
X17515716Y48671388D01*
G37*
G36*
X7355716Y48671388D02*
X7551353Y48590353D01*
X7727425Y48472705D01*
X7877155Y48322975D01*
X7994803Y48146903D01*
X8075838Y47951266D01*
X8117150Y47743578D01*
X8117150Y47531822D01*
X8075838Y47324134D01*
X7994803Y47128497D01*
X7877155Y46952425D01*
X7727425Y46802695D01*
X7551353Y46685047D01*
X7355716Y46604012D01*
X7148028Y46562700D01*
X6936272Y46562700D01*
X6728584Y46604012D01*
X6532947Y46685047D01*
X6356875Y46802695D01*
X6207145Y46952425D01*
X6089497Y47128497D01*
X6008462Y47324134D01*
X5967150Y47531822D01*
X5967150Y47743578D01*
X6008462Y47951266D01*
X6089497Y48146903D01*
X6207145Y48322975D01*
X6356875Y48472705D01*
X6532947Y48590353D01*
X6728584Y48671388D01*
X6936272Y48712700D01*
X7148028Y48712700D01*
X7355716Y48671388D01*
X7355716Y48671388D01*
G37*
G36*
X57996966Y48671388D02*
X58192603Y48590353D01*
X58368675Y48472705D01*
X58518405Y48322975D01*
X58636053Y48146903D01*
X58717088Y47951266D01*
X58758400Y47743578D01*
X58758400Y47531822D01*
X58717088Y47324134D01*
X58636053Y47128497D01*
X58518405Y46952425D01*
X58368675Y46802695D01*
X58192603Y46685047D01*
X57996966Y46604012D01*
X57789278Y46562700D01*
X57577522Y46562700D01*
X57369834Y46604012D01*
X57174197Y46685047D01*
X56998125Y46802695D01*
X56848395Y46952425D01*
X56730747Y47128497D01*
X56649712Y47324134D01*
X56608400Y47531822D01*
X56608400Y47743578D01*
X56649712Y47951266D01*
X56730747Y48146903D01*
X56848395Y48322975D01*
X56998125Y48472705D01*
X57174197Y48590353D01*
X57369834Y48671388D01*
X57577522Y48712700D01*
X57789278Y48712700D01*
X57996966Y48671388D01*
X57996966Y48671388D01*
G37*
G36*
X47836966Y48671388D02*
X48032603Y48590353D01*
X48208675Y48472705D01*
X48358405Y48322975D01*
X48476053Y48146903D01*
X48557088Y47951266D01*
X48598400Y47743578D01*
X48598400Y47531822D01*
X48557088Y47324134D01*
X48476053Y47128497D01*
X48358405Y46952425D01*
X48208675Y46802695D01*
X48032603Y46685047D01*
X47836966Y46604012D01*
X47629278Y46562700D01*
X47417522Y46562700D01*
X47209834Y46604012D01*
X47014197Y46685047D01*
X46838125Y46802695D01*
X46688395Y46952425D01*
X46570747Y47128497D01*
X46489712Y47324134D01*
X46448400Y47531822D01*
X46448400Y47743578D01*
X46489712Y47951266D01*
X46570747Y48146903D01*
X46688395Y48322975D01*
X46838125Y48472705D01*
X47014197Y48590353D01*
X47209834Y48671388D01*
X47417522Y48712700D01*
X47629278Y48712700D01*
X47836966Y48671388D01*
X47836966Y48671388D01*
G37*
G36*
X38946966Y48671388D02*
X39142603Y48590353D01*
X39318675Y48472705D01*
X39468405Y48322975D01*
X39586053Y48146903D01*
X39667088Y47951266D01*
X39708400Y47743578D01*
X39708400Y47531822D01*
X39667088Y47324134D01*
X39586053Y47128497D01*
X39468405Y46952425D01*
X39318675Y46802695D01*
X39142603Y46685047D01*
X38946966Y46604012D01*
X38739278Y46562700D01*
X38527522Y46562700D01*
X38319834Y46604012D01*
X38124197Y46685047D01*
X37948125Y46802695D01*
X37798395Y46952425D01*
X37680747Y47128497D01*
X37599712Y47324134D01*
X37558400Y47531822D01*
X37558400Y47743578D01*
X37599712Y47951266D01*
X37680747Y48146903D01*
X37798395Y48322975D01*
X37948125Y48472705D01*
X38124197Y48590353D01*
X38319834Y48671388D01*
X38527522Y48712700D01*
X38739278Y48712700D01*
X38946966Y48671388D01*
X38946966Y48671388D01*
G37*
G36*
X66886966Y48671388D02*
X67082603Y48590353D01*
X67258675Y48472705D01*
X67408405Y48322975D01*
X67526053Y48146903D01*
X67607088Y47951266D01*
X67648400Y47743578D01*
X67648400Y47531822D01*
X67607088Y47324134D01*
X67526053Y47128497D01*
X67408405Y46952425D01*
X67258675Y46802695D01*
X67082603Y46685047D01*
X66886966Y46604012D01*
X66679278Y46562700D01*
X66467522Y46562700D01*
X66259834Y46604012D01*
X66064197Y46685047D01*
X65888125Y46802695D01*
X65738395Y46952425D01*
X65620747Y47128497D01*
X65539712Y47324134D01*
X65498400Y47531822D01*
X65498400Y47743578D01*
X65539712Y47951266D01*
X65620747Y48146903D01*
X65738395Y48322975D01*
X65888125Y48472705D01*
X66064197Y48590353D01*
X66259834Y48671388D01*
X66467522Y48712700D01*
X66679278Y48712700D01*
X66886966Y48671388D01*
X66886966Y48671388D01*
G37*
G36*
X153246966Y48671388D02*
X153442603Y48590353D01*
X153618675Y48472705D01*
X153768405Y48322975D01*
X153886053Y48146903D01*
X153967088Y47951266D01*
X154008400Y47743578D01*
X154008400Y47531822D01*
X153967088Y47324134D01*
X153886053Y47128497D01*
X153768405Y46952425D01*
X153618675Y46802695D01*
X153442603Y46685047D01*
X153246966Y46604012D01*
X153039278Y46562700D01*
X152827522Y46562700D01*
X152619834Y46604012D01*
X152424197Y46685047D01*
X152248125Y46802695D01*
X152098395Y46952425D01*
X151980747Y47128497D01*
X151899712Y47324134D01*
X151858400Y47531822D01*
X151858400Y47743578D01*
X151899712Y47951266D01*
X151980747Y48146903D01*
X152098395Y48322975D01*
X152248125Y48472705D01*
X152424197Y48590353D01*
X152619834Y48671388D01*
X152827522Y48712700D01*
X153039278Y48712700D01*
X153246966Y48671388D01*
X153246966Y48671388D01*
G37*
G36*
X162136966Y48671388D02*
X162332603Y48590353D01*
X162508675Y48472705D01*
X162658405Y48322975D01*
X162776053Y48146903D01*
X162857088Y47951266D01*
X162898400Y47743578D01*
X162898400Y47531822D01*
X162857088Y47324134D01*
X162776053Y47128497D01*
X162658405Y46952425D01*
X162508675Y46802695D01*
X162332603Y46685047D01*
X162136966Y46604012D01*
X161929278Y46562700D01*
X161717522Y46562700D01*
X161509834Y46604012D01*
X161314197Y46685047D01*
X161138125Y46802695D01*
X160988395Y46952425D01*
X160870747Y47128497D01*
X160789712Y47324134D01*
X160748400Y47531822D01*
X160748400Y47743578D01*
X160789712Y47951266D01*
X160870747Y48146903D01*
X160988395Y48322975D01*
X161138125Y48472705D01*
X161314197Y48590353D01*
X161509834Y48671388D01*
X161717522Y48712700D01*
X161929278Y48712700D01*
X162136966Y48671388D01*
X162136966Y48671388D01*
G37*
G36*
X172296966Y48671388D02*
X172492603Y48590353D01*
X172668675Y48472705D01*
X172818405Y48322975D01*
X172936053Y48146903D01*
X173017088Y47951266D01*
X173058400Y47743578D01*
X173058400Y47531822D01*
X173017088Y47324134D01*
X172936053Y47128497D01*
X172818405Y46952425D01*
X172668675Y46802695D01*
X172492603Y46685047D01*
X172296966Y46604012D01*
X172089278Y46562700D01*
X171877522Y46562700D01*
X171669834Y46604012D01*
X171474197Y46685047D01*
X171298125Y46802695D01*
X171148395Y46952425D01*
X171030747Y47128497D01*
X170949712Y47324134D01*
X170908400Y47531822D01*
X170908400Y47743578D01*
X170949712Y47951266D01*
X171030747Y48146903D01*
X171148395Y48322975D01*
X171298125Y48472705D01*
X171474197Y48590353D01*
X171669834Y48671388D01*
X171877522Y48712700D01*
X172089278Y48712700D01*
X172296966Y48671388D01*
X172296966Y48671388D01*
G37*
G36*
X234209466Y48671388D02*
X234405103Y48590353D01*
X234581175Y48472705D01*
X234730905Y48322975D01*
X234848553Y48146903D01*
X234929588Y47951266D01*
X234970900Y47743578D01*
X234970900Y47531822D01*
X234929588Y47324134D01*
X234848553Y47128497D01*
X234730905Y46952425D01*
X234581175Y46802695D01*
X234405103Y46685047D01*
X234209466Y46604012D01*
X234001778Y46562700D01*
X233790022Y46562700D01*
X233582334Y46604012D01*
X233386697Y46685047D01*
X233210625Y46802695D01*
X233060895Y46952425D01*
X232943247Y47128497D01*
X232862212Y47324134D01*
X232820900Y47531822D01*
X232820900Y47743578D01*
X232862212Y47951266D01*
X232943247Y48146903D01*
X233060895Y48322975D01*
X233210625Y48472705D01*
X233386697Y48590353D01*
X233582334Y48671388D01*
X233790022Y48712700D01*
X234001778Y48712700D01*
X234209466Y48671388D01*
X234209466Y48671388D01*
G37*
G36*
X224049466Y48671388D02*
X224245103Y48590353D01*
X224421175Y48472705D01*
X224570905Y48322975D01*
X224688553Y48146903D01*
X224769588Y47951266D01*
X224810900Y47743578D01*
X224810900Y47531822D01*
X224769588Y47324134D01*
X224688553Y47128497D01*
X224570905Y46952425D01*
X224421175Y46802695D01*
X224245103Y46685047D01*
X224049466Y46604012D01*
X223841778Y46562700D01*
X223630022Y46562700D01*
X223422334Y46604012D01*
X223226697Y46685047D01*
X223050625Y46802695D01*
X222900895Y46952425D01*
X222783247Y47128497D01*
X222702212Y47324134D01*
X222660900Y47531822D01*
X222660900Y47743578D01*
X222702212Y47951266D01*
X222783247Y48146903D01*
X222900895Y48322975D01*
X223050625Y48472705D01*
X223226697Y48590353D01*
X223422334Y48671388D01*
X223630022Y48712700D01*
X223841778Y48712700D01*
X224049466Y48671388D01*
X224049466Y48671388D01*
G37*
G36*
X115146966Y48671388D02*
X115342603Y48590353D01*
X115518675Y48472705D01*
X115668405Y48322975D01*
X115786053Y48146903D01*
X115867088Y47951266D01*
X115908400Y47743578D01*
X115908400Y47531822D01*
X115867088Y47324134D01*
X115786053Y47128497D01*
X115668405Y46952425D01*
X115518675Y46802695D01*
X115342603Y46685047D01*
X115146966Y46604012D01*
X114939278Y46562700D01*
X114727522Y46562700D01*
X114519834Y46604012D01*
X114324197Y46685047D01*
X114148125Y46802695D01*
X113998395Y46952425D01*
X113880747Y47128497D01*
X113799712Y47324134D01*
X113758400Y47531822D01*
X113758400Y47743578D01*
X113799712Y47951266D01*
X113880747Y48146903D01*
X113998395Y48322975D01*
X114148125Y48472705D01*
X114324197Y48590353D01*
X114519834Y48671388D01*
X114727522Y48712700D01*
X114939278Y48712700D01*
X115146966Y48671388D01*
X115146966Y48671388D01*
G37*
G36*
X191346966Y48671388D02*
X191542603Y48590353D01*
X191718675Y48472705D01*
X191868405Y48322975D01*
X191986053Y48146903D01*
X192067088Y47951266D01*
X192108400Y47743578D01*
X192108400Y47531822D01*
X192067088Y47324134D01*
X191986053Y47128497D01*
X191868405Y46952425D01*
X191718675Y46802695D01*
X191542603Y46685047D01*
X191346966Y46604012D01*
X191139278Y46562700D01*
X190927522Y46562700D01*
X190719834Y46604012D01*
X190524197Y46685047D01*
X190348125Y46802695D01*
X190198395Y46952425D01*
X190080747Y47128497D01*
X189999712Y47324134D01*
X189958400Y47531822D01*
X189958400Y47743578D01*
X189999712Y47951266D01*
X190080747Y48146903D01*
X190198395Y48322975D01*
X190348125Y48472705D01*
X190524197Y48590353D01*
X190719834Y48671388D01*
X190927522Y48712700D01*
X191139278Y48712700D01*
X191346966Y48671388D01*
X191346966Y48671388D01*
G37*
G36*
X77046966Y48671388D02*
X77242603Y48590353D01*
X77418675Y48472705D01*
X77568405Y48322975D01*
X77686053Y48146903D01*
X77767088Y47951266D01*
X77808400Y47743578D01*
X77808400Y47531822D01*
X77767088Y47324134D01*
X77686053Y47128497D01*
X77568405Y46952425D01*
X77418675Y46802695D01*
X77242603Y46685047D01*
X77046966Y46604012D01*
X76839278Y46562700D01*
X76627522Y46562700D01*
X76419834Y46604012D01*
X76224197Y46685047D01*
X76048125Y46802695D01*
X75898395Y46952425D01*
X75780747Y47128497D01*
X75699712Y47324134D01*
X75658400Y47531822D01*
X75658400Y47743578D01*
X75699712Y47951266D01*
X75780747Y48146903D01*
X75898395Y48322975D01*
X76048125Y48472705D01*
X76224197Y48590353D01*
X76419834Y48671388D01*
X76627522Y48712700D01*
X76839278Y48712700D01*
X77046966Y48671388D01*
X77046966Y48671388D01*
G37*
G36*
X134196966Y48671388D02*
X134392603Y48590353D01*
X134568675Y48472705D01*
X134718405Y48322975D01*
X134836053Y48146903D01*
X134917088Y47951266D01*
X134958400Y47743578D01*
X134958400Y47531822D01*
X134917088Y47324134D01*
X134836053Y47128497D01*
X134718405Y46952425D01*
X134568675Y46802695D01*
X134392603Y46685047D01*
X134196966Y46604012D01*
X133989278Y46562700D01*
X133777522Y46562700D01*
X133569834Y46604012D01*
X133374197Y46685047D01*
X133198125Y46802695D01*
X133048395Y46952425D01*
X132930747Y47128497D01*
X132849712Y47324134D01*
X132808400Y47531822D01*
X132808400Y47743578D01*
X132849712Y47951266D01*
X132930747Y48146903D01*
X133048395Y48322975D01*
X133198125Y48472705D01*
X133374197Y48590353D01*
X133569834Y48671388D01*
X133777522Y48712700D01*
X133989278Y48712700D01*
X134196966Y48671388D01*
X134196966Y48671388D01*
G37*
G36*
X210396966Y48671388D02*
X210592603Y48590353D01*
X210768675Y48472705D01*
X210918405Y48322975D01*
X211036053Y48146903D01*
X211117088Y47951266D01*
X211158400Y47743578D01*
X211158400Y47531822D01*
X211117088Y47324134D01*
X211036053Y47128497D01*
X210918405Y46952425D01*
X210768675Y46802695D01*
X210592603Y46685047D01*
X210396966Y46604012D01*
X210189278Y46562700D01*
X209977522Y46562700D01*
X209769834Y46604012D01*
X209574197Y46685047D01*
X209398125Y46802695D01*
X209248395Y46952425D01*
X209130747Y47128497D01*
X209049712Y47324134D01*
X209008400Y47531822D01*
X209008400Y47743578D01*
X209049712Y47951266D01*
X209130747Y48146903D01*
X209248395Y48322975D01*
X209398125Y48472705D01*
X209574197Y48590353D01*
X209769834Y48671388D01*
X209977522Y48712700D01*
X210189278Y48712700D01*
X210396966Y48671388D01*
X210396966Y48671388D01*
G37*
G36*
X85936966Y48671388D02*
X86132603Y48590353D01*
X86308675Y48472705D01*
X86458405Y48322975D01*
X86576053Y48146903D01*
X86657088Y47951266D01*
X86698400Y47743578D01*
X86698400Y47531822D01*
X86657088Y47324134D01*
X86576053Y47128497D01*
X86458405Y46952425D01*
X86308675Y46802695D01*
X86132603Y46685047D01*
X85936966Y46604012D01*
X85729278Y46562700D01*
X85517522Y46562700D01*
X85309834Y46604012D01*
X85114197Y46685047D01*
X84938125Y46802695D01*
X84788395Y46952425D01*
X84670747Y47128497D01*
X84589712Y47324134D01*
X84548400Y47531822D01*
X84548400Y47743578D01*
X84589712Y47951266D01*
X84670747Y48146903D01*
X84788395Y48322975D01*
X84938125Y48472705D01*
X85114197Y48590353D01*
X85309834Y48671388D01*
X85517522Y48712700D01*
X85729278Y48712700D01*
X85936966Y48671388D01*
X85936966Y48671388D01*
G37*
G36*
X200236966Y48671388D02*
X200432603Y48590353D01*
X200608675Y48472705D01*
X200758405Y48322975D01*
X200876053Y48146903D01*
X200957088Y47951266D01*
X200998400Y47743578D01*
X200998400Y47531822D01*
X200957088Y47324134D01*
X200876053Y47128497D01*
X200758405Y46952425D01*
X200608675Y46802695D01*
X200432603Y46685047D01*
X200236966Y46604012D01*
X200029278Y46562700D01*
X199817522Y46562700D01*
X199609834Y46604012D01*
X199414197Y46685047D01*
X199238125Y46802695D01*
X199088395Y46952425D01*
X198970747Y47128497D01*
X198889712Y47324134D01*
X198848400Y47531822D01*
X198848400Y47743578D01*
X198889712Y47951266D01*
X198970747Y48146903D01*
X199088395Y48322975D01*
X199238125Y48472705D01*
X199414197Y48590353D01*
X199609834Y48671388D01*
X199817522Y48712700D01*
X200029278Y48712700D01*
X200236966Y48671388D01*
X200236966Y48671388D01*
G37*
G36*
X240724400Y54652200D02*
X238624400Y54652200D01*
X238624400Y56752200D01*
X240724400Y56752200D01*
X240724400Y54652200D01*
X240724400Y54652200D01*
G37*
G36*
X108460116Y59260656D02*
X108860490Y59094816D01*
X109220821Y58854050D01*
X109527250Y58547621D01*
X109768016Y58187290D01*
X109933856Y57786916D01*
X110018400Y57361883D01*
X110018400Y56928517D01*
X109933856Y56503484D01*
X109768016Y56103110D01*
X109527250Y55742779D01*
X109220821Y55436350D01*
X108860490Y55195584D01*
X108460116Y55029744D01*
X108035083Y54945200D01*
X107601717Y54945200D01*
X107176684Y55029744D01*
X106776310Y55195584D01*
X106415979Y55436350D01*
X106109550Y55742779D01*
X105868784Y56103110D01*
X105702944Y56503484D01*
X105618400Y56928517D01*
X105618400Y57361883D01*
X105702944Y57786916D01*
X105868784Y58187290D01*
X106109550Y58547621D01*
X106415979Y58854050D01*
X106776310Y59094816D01*
X107176684Y59260656D01*
X107601717Y59345200D01*
X108035083Y59345200D01*
X108460116Y59260656D01*
X108460116Y59260656D01*
G37*
G36*
X32260116Y59260656D02*
X32660490Y59094816D01*
X33020821Y58854050D01*
X33327250Y58547621D01*
X33568016Y58187290D01*
X33733856Y57786916D01*
X33818400Y57361883D01*
X33818400Y56928517D01*
X33733856Y56503484D01*
X33568016Y56103110D01*
X33327250Y55742779D01*
X33020821Y55436350D01*
X32660490Y55195584D01*
X32260116Y55029744D01*
X31835083Y54945200D01*
X31401717Y54945200D01*
X30976684Y55029744D01*
X30576310Y55195584D01*
X30215979Y55436350D01*
X29909550Y55742779D01*
X29668784Y56103110D01*
X29502944Y56503484D01*
X29418400Y56928517D01*
X29418400Y57361883D01*
X29502944Y57786916D01*
X29668784Y58187290D01*
X29909550Y58547621D01*
X30215979Y58854050D01*
X30576310Y59094816D01*
X30976684Y59260656D01*
X31401717Y59345200D01*
X31835083Y59345200D01*
X32260116Y59260656D01*
X32260116Y59260656D01*
G37*
G36*
X239803107Y59284603D02*
X239880236Y59277007D01*
X240012187Y59236980D01*
X240078163Y59216967D01*
X240260572Y59119467D01*
X240420454Y58988254D01*
X240551667Y58828372D01*
X240649167Y58645963D01*
X240649167Y58645962D01*
X240709207Y58448036D01*
X240729480Y58242200D01*
X240709207Y58036364D01*
X240669180Y57904413D01*
X240649167Y57838437D01*
X240551667Y57656028D01*
X240420454Y57496146D01*
X240260572Y57364933D01*
X240078163Y57267433D01*
X240012187Y57247420D01*
X239880236Y57207393D01*
X239803107Y57199796D01*
X239725980Y57192200D01*
X239622820Y57192200D01*
X239545693Y57199796D01*
X239468564Y57207393D01*
X239336613Y57247420D01*
X239270637Y57267433D01*
X239088228Y57364933D01*
X238928346Y57496146D01*
X238797133Y57656028D01*
X238699633Y57838437D01*
X238679620Y57904413D01*
X238639593Y58036364D01*
X238619320Y58242200D01*
X238639593Y58448036D01*
X238699633Y58645962D01*
X238699633Y58645963D01*
X238797133Y58828372D01*
X238928346Y58988254D01*
X239088228Y59119467D01*
X239270637Y59216967D01*
X239336613Y59236980D01*
X239468564Y59277007D01*
X239545693Y59284603D01*
X239622820Y59292200D01*
X239725980Y59292200D01*
X239803107Y59284603D01*
X239803107Y59284603D01*
G37*
G36*
X211497416Y61560656D02*
X211897790Y61394816D01*
X212258121Y61154050D01*
X212564550Y60847621D01*
X212805316Y60487290D01*
X212971156Y60086916D01*
X213055700Y59661883D01*
X213055700Y59228517D01*
X212971156Y58803484D01*
X212805316Y58403110D01*
X212564550Y58042779D01*
X212258121Y57736350D01*
X211897790Y57495584D01*
X211497416Y57329744D01*
X211072383Y57245200D01*
X210639017Y57245200D01*
X210213984Y57329744D01*
X209813610Y57495584D01*
X209453279Y57736350D01*
X209146850Y58042779D01*
X208906084Y58403110D01*
X208740244Y58803484D01*
X208655700Y59228517D01*
X208655700Y59661883D01*
X208740244Y60086916D01*
X208906084Y60487290D01*
X209146850Y60847621D01*
X209453279Y61154050D01*
X209813610Y61394816D01*
X210213984Y61560656D01*
X210639017Y61645200D01*
X211072383Y61645200D01*
X211497416Y61560656D01*
X211497416Y61560656D01*
G37*
G36*
X239803107Y61824603D02*
X239880236Y61817007D01*
X240012187Y61776980D01*
X240078163Y61756967D01*
X240260572Y61659467D01*
X240420454Y61528254D01*
X240551667Y61368372D01*
X240649167Y61185963D01*
X240669180Y61119987D01*
X240709207Y60988036D01*
X240729480Y60782200D01*
X240709207Y60576364D01*
X240682187Y60487291D01*
X240649167Y60378437D01*
X240551667Y60196028D01*
X240420454Y60036146D01*
X240260572Y59904933D01*
X240078163Y59807433D01*
X240012187Y59787420D01*
X239880236Y59747393D01*
X239803107Y59739796D01*
X239725980Y59732200D01*
X239622820Y59732200D01*
X239545693Y59739796D01*
X239468564Y59747393D01*
X239336613Y59787420D01*
X239270637Y59807433D01*
X239088228Y59904933D01*
X238928346Y60036146D01*
X238797133Y60196028D01*
X238699633Y60378437D01*
X238666613Y60487291D01*
X238639593Y60576364D01*
X238619320Y60782200D01*
X238639593Y60988036D01*
X238679620Y61119987D01*
X238699633Y61185963D01*
X238797133Y61368372D01*
X238928346Y61528254D01*
X239088228Y61659467D01*
X239270637Y61756967D01*
X239336613Y61776980D01*
X239468564Y61817007D01*
X239545693Y61824603D01*
X239622820Y61832200D01*
X239725980Y61832200D01*
X239803107Y61824603D01*
X239803107Y61824603D01*
G37*
G36*
X239803107Y64364604D02*
X239880236Y64357007D01*
X240012187Y64316980D01*
X240078163Y64296967D01*
X240260572Y64199467D01*
X240420454Y64068254D01*
X240551667Y63908372D01*
X240649167Y63725963D01*
X240649167Y63725962D01*
X240709207Y63528036D01*
X240729480Y63322200D01*
X240709207Y63116364D01*
X240669180Y62984413D01*
X240649167Y62918437D01*
X240551667Y62736028D01*
X240420454Y62576146D01*
X240260572Y62444933D01*
X240078163Y62347433D01*
X240012187Y62327420D01*
X239880236Y62287393D01*
X239803107Y62279796D01*
X239725980Y62272200D01*
X239622820Y62272200D01*
X239545693Y62279796D01*
X239468564Y62287393D01*
X239336613Y62327420D01*
X239270637Y62347433D01*
X239088228Y62444933D01*
X238928346Y62576146D01*
X238797133Y62736028D01*
X238699633Y62918437D01*
X238679620Y62984413D01*
X238639593Y63116364D01*
X238619320Y63322200D01*
X238639593Y63528036D01*
X238699633Y63725962D01*
X238699633Y63725963D01*
X238797133Y63908372D01*
X238928346Y64068254D01*
X239088228Y64199467D01*
X239270637Y64296967D01*
X239336613Y64316980D01*
X239468564Y64357007D01*
X239545693Y64364604D01*
X239622820Y64372200D01*
X239725980Y64372200D01*
X239803107Y64364604D01*
X239803107Y64364604D01*
G37*
G36*
X200880834Y68797290D02*
X200880836Y68797289D01*
X200880837Y68797289D01*
X201280101Y68631909D01*
X201639430Y68391813D01*
X201945013Y68086230D01*
X202185109Y67726901D01*
X202350489Y67327637D01*
X202350490Y67327634D01*
X202434800Y66903782D01*
X202434800Y66471618D01*
X202354522Y66068034D01*
X202350489Y66047763D01*
X202185109Y65648499D01*
X201945013Y65289170D01*
X201639430Y64983587D01*
X201280101Y64743491D01*
X200880837Y64578111D01*
X200880836Y64578111D01*
X200880834Y64578110D01*
X200456982Y64493800D01*
X200024818Y64493800D01*
X199600966Y64578110D01*
X199600964Y64578111D01*
X199600963Y64578111D01*
X199201699Y64743491D01*
X198842370Y64983587D01*
X198536787Y65289170D01*
X198296691Y65648499D01*
X198131311Y66047763D01*
X198127279Y66068034D01*
X198047000Y66471618D01*
X198047000Y66903782D01*
X198131310Y67327634D01*
X198131311Y67327637D01*
X198296691Y67726901D01*
X198536787Y68086230D01*
X198842370Y68391813D01*
X199201699Y68631909D01*
X199600963Y68797289D01*
X199600964Y68797289D01*
X199600966Y68797290D01*
X200024818Y68881600D01*
X200456982Y68881600D01*
X200880834Y68797290D01*
X200880834Y68797290D01*
G37*
G36*
X227074584Y68797290D02*
X227074586Y68797289D01*
X227074587Y68797289D01*
X227473851Y68631909D01*
X227833180Y68391813D01*
X228138763Y68086230D01*
X228378859Y67726901D01*
X228544239Y67327637D01*
X228544240Y67327634D01*
X228628550Y66903782D01*
X228628550Y66471618D01*
X228548272Y66068034D01*
X228544239Y66047763D01*
X228378859Y65648499D01*
X228138763Y65289170D01*
X227833180Y64983587D01*
X227473851Y64743491D01*
X227074587Y64578111D01*
X227074586Y64578111D01*
X227074584Y64578110D01*
X226650732Y64493800D01*
X226218568Y64493800D01*
X225794716Y64578110D01*
X225794714Y64578111D01*
X225794713Y64578111D01*
X225395449Y64743491D01*
X225036120Y64983587D01*
X224730537Y65289170D01*
X224490441Y65648499D01*
X224325061Y66047763D01*
X224321029Y66068034D01*
X224240750Y66471618D01*
X224240750Y66903782D01*
X224325060Y67327634D01*
X224325061Y67327637D01*
X224490441Y67726901D01*
X224730537Y68086230D01*
X225036120Y68391813D01*
X225395449Y68631909D01*
X225794713Y68797289D01*
X225794714Y68797289D01*
X225794716Y68797290D01*
X226218568Y68881600D01*
X226650732Y68881600D01*
X227074584Y68797290D01*
X227074584Y68797290D01*
G37*
G36*
X29430834Y68797290D02*
X29430836Y68797289D01*
X29430837Y68797289D01*
X29830101Y68631909D01*
X30189430Y68391813D01*
X30495013Y68086230D01*
X30735109Y67726901D01*
X30900489Y67327637D01*
X30900490Y67327634D01*
X30984800Y66903782D01*
X30984800Y66471618D01*
X30904522Y66068034D01*
X30900489Y66047763D01*
X30735109Y65648499D01*
X30495013Y65289170D01*
X30189430Y64983587D01*
X29830101Y64743491D01*
X29430837Y64578111D01*
X29430836Y64578111D01*
X29430834Y64578110D01*
X29006982Y64493800D01*
X28574818Y64493800D01*
X28150966Y64578110D01*
X28150964Y64578111D01*
X28150963Y64578111D01*
X27751699Y64743491D01*
X27392370Y64983587D01*
X27086787Y65289170D01*
X26846691Y65648499D01*
X26681311Y66047763D01*
X26677279Y66068034D01*
X26597000Y66471618D01*
X26597000Y66903782D01*
X26681310Y67327634D01*
X26681311Y67327637D01*
X26846691Y67726901D01*
X27086787Y68086230D01*
X27392370Y68391813D01*
X27751699Y68631909D01*
X28150963Y68797289D01*
X28150964Y68797289D01*
X28150966Y68797290D01*
X28574818Y68881600D01*
X29006982Y68881600D01*
X29430834Y68797290D01*
X29430834Y68797290D01*
G37*
G36*
X10380834Y68797290D02*
X10380836Y68797289D01*
X10380837Y68797289D01*
X10780101Y68631909D01*
X11139430Y68391813D01*
X11445013Y68086230D01*
X11685109Y67726901D01*
X11850489Y67327637D01*
X11850490Y67327634D01*
X11934800Y66903782D01*
X11934800Y66471618D01*
X11854522Y66068034D01*
X11850489Y66047763D01*
X11685109Y65648499D01*
X11445013Y65289170D01*
X11139430Y64983587D01*
X10780101Y64743491D01*
X10380837Y64578111D01*
X10380836Y64578111D01*
X10380834Y64578110D01*
X9956982Y64493800D01*
X9524818Y64493800D01*
X9100966Y64578110D01*
X9100964Y64578111D01*
X9100963Y64578111D01*
X8701699Y64743491D01*
X8342370Y64983587D01*
X8036787Y65289170D01*
X7796691Y65648499D01*
X7631311Y66047763D01*
X7627279Y66068034D01*
X7547000Y66471618D01*
X7547000Y66903782D01*
X7631310Y67327634D01*
X7631311Y67327637D01*
X7796691Y67726901D01*
X8036787Y68086230D01*
X8342370Y68391813D01*
X8701699Y68631909D01*
X9100963Y68797289D01*
X9100964Y68797289D01*
X9100966Y68797290D01*
X9524818Y68881600D01*
X9956982Y68881600D01*
X10380834Y68797290D01*
X10380834Y68797290D01*
G37*
G36*
X67530834Y68797290D02*
X67530836Y68797289D01*
X67530837Y68797289D01*
X67930101Y68631909D01*
X68289430Y68391813D01*
X68595013Y68086230D01*
X68835109Y67726901D01*
X69000489Y67327637D01*
X69000490Y67327634D01*
X69084800Y66903782D01*
X69084800Y66471618D01*
X69004522Y66068034D01*
X69000489Y66047763D01*
X68835109Y65648499D01*
X68595013Y65289170D01*
X68289430Y64983587D01*
X67930101Y64743491D01*
X67530837Y64578111D01*
X67530836Y64578111D01*
X67530834Y64578110D01*
X67106982Y64493800D01*
X66674818Y64493800D01*
X66250966Y64578110D01*
X66250964Y64578111D01*
X66250963Y64578111D01*
X65851699Y64743491D01*
X65492370Y64983587D01*
X65186787Y65289170D01*
X64946691Y65648499D01*
X64781311Y66047763D01*
X64777279Y66068034D01*
X64697000Y66471618D01*
X64697000Y66903782D01*
X64781310Y67327634D01*
X64781311Y67327637D01*
X64946691Y67726901D01*
X65186787Y68086230D01*
X65492370Y68391813D01*
X65851699Y68631909D01*
X66250963Y68797289D01*
X66250964Y68797289D01*
X66250966Y68797290D01*
X66674818Y68881600D01*
X67106982Y68881600D01*
X67530834Y68797290D01*
X67530834Y68797290D01*
G37*
G36*
X86580834Y68797290D02*
X86580836Y68797289D01*
X86580837Y68797289D01*
X86980101Y68631909D01*
X87339430Y68391813D01*
X87645013Y68086230D01*
X87885109Y67726901D01*
X88050489Y67327637D01*
X88050490Y67327634D01*
X88134800Y66903782D01*
X88134800Y66471618D01*
X88054522Y66068034D01*
X88050489Y66047763D01*
X87885109Y65648499D01*
X87645013Y65289170D01*
X87339430Y64983587D01*
X86980101Y64743491D01*
X86580837Y64578111D01*
X86580836Y64578111D01*
X86580834Y64578110D01*
X86156982Y64493800D01*
X85724818Y64493800D01*
X85300966Y64578110D01*
X85300964Y64578111D01*
X85300963Y64578111D01*
X84901699Y64743491D01*
X84542370Y64983587D01*
X84236787Y65289170D01*
X83996691Y65648499D01*
X83831311Y66047763D01*
X83827279Y66068034D01*
X83747000Y66471618D01*
X83747000Y66903782D01*
X83831310Y67327634D01*
X83831311Y67327637D01*
X83996691Y67726901D01*
X84236787Y68086230D01*
X84542370Y68391813D01*
X84901699Y68631909D01*
X85300963Y68797289D01*
X85300964Y68797289D01*
X85300966Y68797290D01*
X85724818Y68881600D01*
X86156982Y68881600D01*
X86580834Y68797290D01*
X86580834Y68797290D01*
G37*
G36*
X124680834Y68797290D02*
X124680836Y68797289D01*
X124680837Y68797289D01*
X125080101Y68631909D01*
X125439430Y68391813D01*
X125745013Y68086230D01*
X125985109Y67726901D01*
X126150489Y67327637D01*
X126150490Y67327634D01*
X126234800Y66903782D01*
X126234800Y66471618D01*
X126154522Y66068034D01*
X126150489Y66047763D01*
X125985109Y65648499D01*
X125745013Y65289170D01*
X125439430Y64983587D01*
X125080101Y64743491D01*
X124680837Y64578111D01*
X124680836Y64578111D01*
X124680834Y64578110D01*
X124256982Y64493800D01*
X123824818Y64493800D01*
X123400966Y64578110D01*
X123400964Y64578111D01*
X123400963Y64578111D01*
X123001699Y64743491D01*
X122642370Y64983587D01*
X122336787Y65289170D01*
X122096691Y65648499D01*
X121931311Y66047763D01*
X121927279Y66068034D01*
X121847000Y66471618D01*
X121847000Y66903782D01*
X121931310Y67327634D01*
X121931311Y67327637D01*
X122096691Y67726901D01*
X122336787Y68086230D01*
X122642370Y68391813D01*
X123001699Y68631909D01*
X123400963Y68797289D01*
X123400964Y68797289D01*
X123400966Y68797290D01*
X123824818Y68881600D01*
X124256982Y68881600D01*
X124680834Y68797290D01*
X124680834Y68797290D01*
G37*
G36*
X143730834Y68797290D02*
X143730836Y68797289D01*
X143730837Y68797289D01*
X144130101Y68631909D01*
X144489430Y68391813D01*
X144795013Y68086230D01*
X145035109Y67726901D01*
X145200489Y67327637D01*
X145200490Y67327634D01*
X145284800Y66903782D01*
X145284800Y66471618D01*
X145204522Y66068034D01*
X145200489Y66047763D01*
X145035109Y65648499D01*
X144795013Y65289170D01*
X144489430Y64983587D01*
X144130101Y64743491D01*
X143730837Y64578111D01*
X143730836Y64578111D01*
X143730834Y64578110D01*
X143306982Y64493800D01*
X142874818Y64493800D01*
X142450966Y64578110D01*
X142450964Y64578111D01*
X142450963Y64578111D01*
X142051699Y64743491D01*
X141692370Y64983587D01*
X141386787Y65289170D01*
X141146691Y65648499D01*
X140981311Y66047763D01*
X140977279Y66068034D01*
X140897000Y66471618D01*
X140897000Y66903782D01*
X140981310Y67327634D01*
X140981311Y67327637D01*
X141146691Y67726901D01*
X141386787Y68086230D01*
X141692370Y68391813D01*
X142051699Y68631909D01*
X142450963Y68797289D01*
X142450964Y68797289D01*
X142450966Y68797290D01*
X142874818Y68881600D01*
X143306982Y68881600D01*
X143730834Y68797290D01*
X143730834Y68797290D01*
G37*
G36*
X162780834Y68797290D02*
X162780836Y68797289D01*
X162780837Y68797289D01*
X163180101Y68631909D01*
X163539430Y68391813D01*
X163845013Y68086230D01*
X164085109Y67726901D01*
X164250489Y67327637D01*
X164250490Y67327634D01*
X164334800Y66903782D01*
X164334800Y66471618D01*
X164254522Y66068034D01*
X164250489Y66047763D01*
X164085109Y65648499D01*
X163845013Y65289170D01*
X163539430Y64983587D01*
X163180101Y64743491D01*
X162780837Y64578111D01*
X162780836Y64578111D01*
X162780834Y64578110D01*
X162356982Y64493800D01*
X161924818Y64493800D01*
X161500966Y64578110D01*
X161500964Y64578111D01*
X161500963Y64578111D01*
X161101699Y64743491D01*
X160742370Y64983587D01*
X160436787Y65289170D01*
X160196691Y65648499D01*
X160031311Y66047763D01*
X160027279Y66068034D01*
X159947000Y66471618D01*
X159947000Y66903782D01*
X160031310Y67327634D01*
X160031311Y67327637D01*
X160196691Y67726901D01*
X160436787Y68086230D01*
X160742370Y68391813D01*
X161101699Y68631909D01*
X161500963Y68797289D01*
X161500964Y68797289D01*
X161500966Y68797290D01*
X161924818Y68881600D01*
X162356982Y68881600D01*
X162780834Y68797290D01*
X162780834Y68797290D01*
G37*
G36*
X105630834Y68797290D02*
X105630836Y68797289D01*
X105630837Y68797289D01*
X106030101Y68631909D01*
X106389430Y68391813D01*
X106695013Y68086230D01*
X106935109Y67726901D01*
X107100489Y67327637D01*
X107100490Y67327634D01*
X107184800Y66903782D01*
X107184800Y66471618D01*
X107104522Y66068034D01*
X107100489Y66047763D01*
X106935109Y65648499D01*
X106695013Y65289170D01*
X106389430Y64983587D01*
X106030101Y64743491D01*
X105630837Y64578111D01*
X105630836Y64578111D01*
X105630834Y64578110D01*
X105206982Y64493800D01*
X104774818Y64493800D01*
X104350966Y64578110D01*
X104350964Y64578111D01*
X104350963Y64578111D01*
X103951699Y64743491D01*
X103592370Y64983587D01*
X103286787Y65289170D01*
X103046691Y65648499D01*
X102881311Y66047763D01*
X102877279Y66068034D01*
X102797000Y66471618D01*
X102797000Y66903782D01*
X102881310Y67327634D01*
X102881311Y67327637D01*
X103046691Y67726901D01*
X103286787Y68086230D01*
X103592370Y68391813D01*
X103951699Y68631909D01*
X104350963Y68797289D01*
X104350964Y68797289D01*
X104350966Y68797290D01*
X104774818Y68881600D01*
X105206982Y68881600D01*
X105630834Y68797290D01*
X105630834Y68797290D01*
G37*
G36*
X181830834Y68797290D02*
X181830836Y68797289D01*
X181830837Y68797289D01*
X182230101Y68631909D01*
X182589430Y68391813D01*
X182895013Y68086230D01*
X183135109Y67726901D01*
X183300489Y67327637D01*
X183300490Y67327634D01*
X183384800Y66903782D01*
X183384800Y66471618D01*
X183304522Y66068034D01*
X183300489Y66047763D01*
X183135109Y65648499D01*
X182895013Y65289170D01*
X182589430Y64983587D01*
X182230101Y64743491D01*
X181830837Y64578111D01*
X181830836Y64578111D01*
X181830834Y64578110D01*
X181406982Y64493800D01*
X180974818Y64493800D01*
X180550966Y64578110D01*
X180550964Y64578111D01*
X180550963Y64578111D01*
X180151699Y64743491D01*
X179792370Y64983587D01*
X179486787Y65289170D01*
X179246691Y65648499D01*
X179081311Y66047763D01*
X179077279Y66068034D01*
X178997000Y66471618D01*
X178997000Y66903782D01*
X179081310Y67327634D01*
X179081311Y67327637D01*
X179246691Y67726901D01*
X179486787Y68086230D01*
X179792370Y68391813D01*
X180151699Y68631909D01*
X180550963Y68797289D01*
X180550964Y68797289D01*
X180550966Y68797290D01*
X180974818Y68881600D01*
X181406982Y68881600D01*
X181830834Y68797290D01*
X181830834Y68797290D01*
G37*
G36*
X48480834Y68797290D02*
X48480836Y68797289D01*
X48480837Y68797289D01*
X48880101Y68631909D01*
X49239430Y68391813D01*
X49545013Y68086230D01*
X49785109Y67726901D01*
X49950489Y67327637D01*
X49950490Y67327634D01*
X50034800Y66903782D01*
X50034800Y66471618D01*
X49954522Y66068034D01*
X49950489Y66047763D01*
X49785109Y65648499D01*
X49545013Y65289170D01*
X49239430Y64983587D01*
X48880101Y64743491D01*
X48480837Y64578111D01*
X48480836Y64578111D01*
X48480834Y64578110D01*
X48056982Y64493800D01*
X47624818Y64493800D01*
X47200966Y64578110D01*
X47200964Y64578111D01*
X47200963Y64578111D01*
X46801699Y64743491D01*
X46442370Y64983587D01*
X46136787Y65289170D01*
X45896691Y65648499D01*
X45731311Y66047763D01*
X45727279Y66068034D01*
X45647000Y66471618D01*
X45647000Y66903782D01*
X45731310Y67327634D01*
X45731311Y67327637D01*
X45896691Y67726901D01*
X46136787Y68086230D01*
X46442370Y68391813D01*
X46801699Y68631909D01*
X47200963Y68797289D01*
X47200964Y68797289D01*
X47200966Y68797290D01*
X47624818Y68881600D01*
X48056982Y68881600D01*
X48480834Y68797290D01*
X48480834Y68797290D01*
G37*
G36*
X239803107Y66904603D02*
X239880236Y66897007D01*
X240012187Y66856980D01*
X240078163Y66836967D01*
X240260572Y66739467D01*
X240420454Y66608254D01*
X240551667Y66448372D01*
X240649167Y66265963D01*
X240649167Y66265962D01*
X240709207Y66068036D01*
X240729480Y65862200D01*
X240709207Y65656364D01*
X240669180Y65524413D01*
X240649167Y65458437D01*
X240551667Y65276028D01*
X240420454Y65116146D01*
X240260572Y64984933D01*
X240078163Y64887433D01*
X240012187Y64867420D01*
X239880236Y64827393D01*
X239803107Y64819796D01*
X239725980Y64812200D01*
X239622820Y64812200D01*
X239545693Y64819796D01*
X239468564Y64827393D01*
X239336613Y64867420D01*
X239270637Y64887433D01*
X239088228Y64984933D01*
X238928346Y65116146D01*
X238797133Y65276028D01*
X238699633Y65458437D01*
X238679620Y65524413D01*
X238639593Y65656364D01*
X238619320Y65862200D01*
X238639593Y66068036D01*
X238699633Y66265962D01*
X238699633Y66265963D01*
X238797133Y66448372D01*
X238928346Y66608254D01*
X239088228Y66739467D01*
X239270637Y66836967D01*
X239336613Y66856980D01*
X239468564Y66897007D01*
X239545693Y66904603D01*
X239622820Y66912200D01*
X239725980Y66912200D01*
X239803107Y66904603D01*
X239803107Y66904603D01*
G37*
G36*
X138324466Y67721388D02*
X138520103Y67640353D01*
X138696175Y67522705D01*
X138845905Y67372975D01*
X138963553Y67196903D01*
X139044588Y67001266D01*
X139085900Y66793578D01*
X139085900Y66581822D01*
X139044588Y66374134D01*
X138963553Y66178497D01*
X138845905Y66002425D01*
X138696175Y65852695D01*
X138520103Y65735047D01*
X138330149Y65656366D01*
X138324466Y65654012D01*
X138116778Y65612700D01*
X137905022Y65612700D01*
X137697334Y65654012D01*
X137691651Y65656366D01*
X137501697Y65735047D01*
X137325625Y65852695D01*
X137175895Y66002425D01*
X137058247Y66178497D01*
X136977212Y66374134D01*
X136935900Y66581822D01*
X136935900Y66793578D01*
X136977212Y67001266D01*
X137058247Y67196903D01*
X137175895Y67372975D01*
X137325625Y67522705D01*
X137501697Y67640353D01*
X137697334Y67721388D01*
X137905022Y67762700D01*
X138116778Y67762700D01*
X138324466Y67721388D01*
X138324466Y67721388D01*
G37*
G36*
X148484466Y67721388D02*
X148680103Y67640353D01*
X148856175Y67522705D01*
X149005905Y67372975D01*
X149123553Y67196903D01*
X149204588Y67001266D01*
X149245900Y66793578D01*
X149245900Y66581822D01*
X149204588Y66374134D01*
X149123553Y66178497D01*
X149005905Y66002425D01*
X148856175Y65852695D01*
X148680103Y65735047D01*
X148490149Y65656366D01*
X148484466Y65654012D01*
X148276778Y65612700D01*
X148065022Y65612700D01*
X147857334Y65654012D01*
X147851651Y65656366D01*
X147661697Y65735047D01*
X147485625Y65852695D01*
X147335895Y66002425D01*
X147218247Y66178497D01*
X147137212Y66374134D01*
X147095900Y66581822D01*
X147095900Y66793578D01*
X147137212Y67001266D01*
X147218247Y67196903D01*
X147335895Y67372975D01*
X147485625Y67522705D01*
X147661697Y67640353D01*
X147857334Y67721388D01*
X148065022Y67762700D01*
X148276778Y67762700D01*
X148484466Y67721388D01*
X148484466Y67721388D01*
G37*
G36*
X119274466Y67721388D02*
X119470103Y67640353D01*
X119646175Y67522705D01*
X119795905Y67372975D01*
X119913553Y67196903D01*
X119994588Y67001266D01*
X120035900Y66793578D01*
X120035900Y66581822D01*
X119994588Y66374134D01*
X119913553Y66178497D01*
X119795905Y66002425D01*
X119646175Y65852695D01*
X119470103Y65735047D01*
X119280149Y65656366D01*
X119274466Y65654012D01*
X119066778Y65612700D01*
X118855022Y65612700D01*
X118647334Y65654012D01*
X118641651Y65656366D01*
X118451697Y65735047D01*
X118275625Y65852695D01*
X118125895Y66002425D01*
X118008247Y66178497D01*
X117927212Y66374134D01*
X117885900Y66581822D01*
X117885900Y66793578D01*
X117927212Y67001266D01*
X118008247Y67196903D01*
X118125895Y67372975D01*
X118275625Y67522705D01*
X118451697Y67640353D01*
X118647334Y67721388D01*
X118855022Y67762700D01*
X119066778Y67762700D01*
X119274466Y67721388D01*
X119274466Y67721388D01*
G37*
G36*
X129434466Y67721388D02*
X129630103Y67640353D01*
X129806175Y67522705D01*
X129955905Y67372975D01*
X130073553Y67196903D01*
X130154588Y67001266D01*
X130195900Y66793578D01*
X130195900Y66581822D01*
X130154588Y66374134D01*
X130073553Y66178497D01*
X129955905Y66002425D01*
X129806175Y65852695D01*
X129630103Y65735047D01*
X129440149Y65656366D01*
X129434466Y65654012D01*
X129226778Y65612700D01*
X129015022Y65612700D01*
X128807334Y65654012D01*
X128801651Y65656366D01*
X128611697Y65735047D01*
X128435625Y65852695D01*
X128285895Y66002425D01*
X128168247Y66178497D01*
X128087212Y66374134D01*
X128045900Y66581822D01*
X128045900Y66793578D01*
X128087212Y67001266D01*
X128168247Y67196903D01*
X128285895Y67372975D01*
X128435625Y67522705D01*
X128611697Y67640353D01*
X128807334Y67721388D01*
X129015022Y67762700D01*
X129226778Y67762700D01*
X129434466Y67721388D01*
X129434466Y67721388D01*
G37*
G36*
X157374466Y67721388D02*
X157570103Y67640353D01*
X157746175Y67522705D01*
X157895905Y67372975D01*
X158013553Y67196903D01*
X158094588Y67001266D01*
X158135900Y66793578D01*
X158135900Y66581822D01*
X158094588Y66374134D01*
X158013553Y66178497D01*
X157895905Y66002425D01*
X157746175Y65852695D01*
X157570103Y65735047D01*
X157380149Y65656366D01*
X157374466Y65654012D01*
X157166778Y65612700D01*
X156955022Y65612700D01*
X156747334Y65654012D01*
X156741651Y65656366D01*
X156551697Y65735047D01*
X156375625Y65852695D01*
X156225895Y66002425D01*
X156108247Y66178497D01*
X156027212Y66374134D01*
X155985900Y66581822D01*
X155985900Y66793578D01*
X156027212Y67001266D01*
X156108247Y67196903D01*
X156225895Y67372975D01*
X156375625Y67522705D01*
X156551697Y67640353D01*
X156747334Y67721388D01*
X156955022Y67762700D01*
X157166778Y67762700D01*
X157374466Y67721388D01*
X157374466Y67721388D01*
G37*
G36*
X195474466Y67721388D02*
X195670103Y67640353D01*
X195846175Y67522705D01*
X195995905Y67372975D01*
X196113553Y67196903D01*
X196194588Y67001266D01*
X196235900Y66793578D01*
X196235900Y66581822D01*
X196194588Y66374134D01*
X196113553Y66178497D01*
X195995905Y66002425D01*
X195846175Y65852695D01*
X195670103Y65735047D01*
X195474466Y65654012D01*
X195266778Y65612700D01*
X195055022Y65612700D01*
X194847334Y65654012D01*
X194651697Y65735047D01*
X194475625Y65852695D01*
X194325895Y66002425D01*
X194208247Y66178497D01*
X194127212Y66374134D01*
X194085900Y66581822D01*
X194085900Y66793578D01*
X194127212Y67001266D01*
X194208247Y67196903D01*
X194325895Y67372975D01*
X194475625Y67522705D01*
X194651697Y67640353D01*
X194847334Y67721388D01*
X195055022Y67762700D01*
X195266778Y67762700D01*
X195474466Y67721388D01*
X195474466Y67721388D01*
G37*
G36*
X186584466Y67721388D02*
X186780103Y67640353D01*
X186956175Y67522705D01*
X187105905Y67372975D01*
X187223553Y67196903D01*
X187304588Y67001266D01*
X187345900Y66793578D01*
X187345900Y66581822D01*
X187304588Y66374134D01*
X187223553Y66178497D01*
X187105905Y66002425D01*
X186956175Y65852695D01*
X186780103Y65735047D01*
X186584466Y65654012D01*
X186376778Y65612700D01*
X186165022Y65612700D01*
X185957334Y65654012D01*
X185761697Y65735047D01*
X185585625Y65852695D01*
X185435895Y66002425D01*
X185318247Y66178497D01*
X185237212Y66374134D01*
X185195900Y66581822D01*
X185195900Y66793578D01*
X185237212Y67001266D01*
X185318247Y67196903D01*
X185435895Y67372975D01*
X185585625Y67522705D01*
X185761697Y67640353D01*
X185957334Y67721388D01*
X186165022Y67762700D01*
X186376778Y67762700D01*
X186584466Y67721388D01*
X186584466Y67721388D01*
G37*
G36*
X176424466Y67721388D02*
X176620103Y67640353D01*
X176796175Y67522705D01*
X176945905Y67372975D01*
X177063553Y67196903D01*
X177144588Y67001266D01*
X177185900Y66793578D01*
X177185900Y66581822D01*
X177144588Y66374134D01*
X177063553Y66178497D01*
X176945905Y66002425D01*
X176796175Y65852695D01*
X176620103Y65735047D01*
X176424466Y65654012D01*
X176216778Y65612700D01*
X176005022Y65612700D01*
X175797334Y65654012D01*
X175601697Y65735047D01*
X175425625Y65852695D01*
X175275895Y66002425D01*
X175158247Y66178497D01*
X175077212Y66374134D01*
X175035900Y66581822D01*
X175035900Y66793578D01*
X175077212Y67001266D01*
X175158247Y67196903D01*
X175275895Y67372975D01*
X175425625Y67522705D01*
X175601697Y67640353D01*
X175797334Y67721388D01*
X176005022Y67762700D01*
X176216778Y67762700D01*
X176424466Y67721388D01*
X176424466Y67721388D01*
G37*
G36*
X231828216Y67721388D02*
X232023853Y67640353D01*
X232199925Y67522705D01*
X232349655Y67372975D01*
X232467303Y67196903D01*
X232548338Y67001266D01*
X232589650Y66793578D01*
X232589650Y66581822D01*
X232548338Y66374134D01*
X232467303Y66178497D01*
X232349655Y66002425D01*
X232199925Y65852695D01*
X232023853Y65735047D01*
X231833899Y65656366D01*
X231828216Y65654012D01*
X231620528Y65612700D01*
X231408772Y65612700D01*
X231201084Y65654012D01*
X231195401Y65656366D01*
X231005447Y65735047D01*
X230829375Y65852695D01*
X230679645Y66002425D01*
X230561997Y66178497D01*
X230480962Y66374134D01*
X230439650Y66581822D01*
X230439650Y66793578D01*
X230480962Y67001266D01*
X230561997Y67196903D01*
X230679645Y67372975D01*
X230829375Y67522705D01*
X231005447Y67640353D01*
X231201084Y67721388D01*
X231408772Y67762700D01*
X231620528Y67762700D01*
X231828216Y67721388D01*
X231828216Y67721388D01*
G37*
G36*
X205634466Y67721388D02*
X205830103Y67640353D01*
X206006175Y67522705D01*
X206155905Y67372975D01*
X206273553Y67196903D01*
X206354588Y67001266D01*
X206395900Y66793578D01*
X206395900Y66581822D01*
X206354588Y66374134D01*
X206273553Y66178497D01*
X206155905Y66002425D01*
X206006175Y65852695D01*
X205830103Y65735047D01*
X205634466Y65654012D01*
X205426778Y65612700D01*
X205215022Y65612700D01*
X205007334Y65654012D01*
X204811697Y65735047D01*
X204635625Y65852695D01*
X204485895Y66002425D01*
X204368247Y66178497D01*
X204287212Y66374134D01*
X204245900Y66581822D01*
X204245900Y66793578D01*
X204287212Y67001266D01*
X204368247Y67196903D01*
X204485895Y67372975D01*
X204635625Y67522705D01*
X204811697Y67640353D01*
X205007334Y67721388D01*
X205215022Y67762700D01*
X205426778Y67762700D01*
X205634466Y67721388D01*
X205634466Y67721388D01*
G37*
G36*
X221668216Y67721388D02*
X221863853Y67640353D01*
X222039925Y67522705D01*
X222189655Y67372975D01*
X222307303Y67196903D01*
X222388338Y67001266D01*
X222429650Y66793578D01*
X222429650Y66581822D01*
X222388338Y66374134D01*
X222307303Y66178497D01*
X222189655Y66002425D01*
X222039925Y65852695D01*
X221863853Y65735047D01*
X221668216Y65654012D01*
X221460528Y65612700D01*
X221248772Y65612700D01*
X221041084Y65654012D01*
X220845447Y65735047D01*
X220669375Y65852695D01*
X220519645Y66002425D01*
X220401997Y66178497D01*
X220320962Y66374134D01*
X220279650Y66581822D01*
X220279650Y66793578D01*
X220320962Y67001266D01*
X220401997Y67196903D01*
X220519645Y67372975D01*
X220669375Y67522705D01*
X220845447Y67640353D01*
X221041084Y67721388D01*
X221248772Y67762700D01*
X221460528Y67762700D01*
X221668216Y67721388D01*
X221668216Y67721388D01*
G37*
G36*
X43074466Y67721388D02*
X43270103Y67640353D01*
X43446175Y67522705D01*
X43595905Y67372975D01*
X43713553Y67196903D01*
X43794588Y67001266D01*
X43835900Y66793578D01*
X43835900Y66581822D01*
X43794588Y66374134D01*
X43713553Y66178497D01*
X43595905Y66002425D01*
X43446175Y65852695D01*
X43270103Y65735047D01*
X43074466Y65654012D01*
X42866778Y65612700D01*
X42655022Y65612700D01*
X42447334Y65654012D01*
X42251697Y65735047D01*
X42075625Y65852695D01*
X41925895Y66002425D01*
X41808247Y66178497D01*
X41727212Y66374134D01*
X41685900Y66581822D01*
X41685900Y66793578D01*
X41727212Y67001266D01*
X41808247Y67196903D01*
X41925895Y67372975D01*
X42075625Y67522705D01*
X42251697Y67640353D01*
X42447334Y67721388D01*
X42655022Y67762700D01*
X42866778Y67762700D01*
X43074466Y67721388D01*
X43074466Y67721388D01*
G37*
G36*
X15134466Y67721388D02*
X15330103Y67640353D01*
X15506175Y67522705D01*
X15655905Y67372975D01*
X15773553Y67196903D01*
X15854588Y67001266D01*
X15895900Y66793578D01*
X15895900Y66581822D01*
X15854588Y66374134D01*
X15773553Y66178497D01*
X15655905Y66002425D01*
X15506175Y65852695D01*
X15330103Y65735047D01*
X15140149Y65656366D01*
X15134466Y65654012D01*
X14926778Y65612700D01*
X14715022Y65612700D01*
X14507334Y65654012D01*
X14501651Y65656366D01*
X14311697Y65735047D01*
X14135625Y65852695D01*
X13985895Y66002425D01*
X13868247Y66178497D01*
X13787212Y66374134D01*
X13745900Y66581822D01*
X13745900Y66793578D01*
X13787212Y67001266D01*
X13868247Y67196903D01*
X13985895Y67372975D01*
X14135625Y67522705D01*
X14311697Y67640353D01*
X14507334Y67721388D01*
X14715022Y67762700D01*
X14926778Y67762700D01*
X15134466Y67721388D01*
X15134466Y67721388D01*
G37*
G36*
X100224466Y67721388D02*
X100420103Y67640353D01*
X100596175Y67522705D01*
X100745905Y67372975D01*
X100863553Y67196903D01*
X100944588Y67001266D01*
X100985900Y66793578D01*
X100985900Y66581822D01*
X100944588Y66374134D01*
X100863553Y66178497D01*
X100745905Y66002425D01*
X100596175Y65852695D01*
X100420103Y65735047D01*
X100224466Y65654012D01*
X100016778Y65612700D01*
X99805022Y65612700D01*
X99597334Y65654012D01*
X99401697Y65735047D01*
X99225625Y65852695D01*
X99075895Y66002425D01*
X98958247Y66178497D01*
X98877212Y66374134D01*
X98835900Y66581822D01*
X98835900Y66793578D01*
X98877212Y67001266D01*
X98958247Y67196903D01*
X99075895Y67372975D01*
X99225625Y67522705D01*
X99401697Y67640353D01*
X99597334Y67721388D01*
X99805022Y67762700D01*
X100016778Y67762700D01*
X100224466Y67721388D01*
X100224466Y67721388D01*
G37*
G36*
X91334466Y67721388D02*
X91530103Y67640353D01*
X91706175Y67522705D01*
X91855905Y67372975D01*
X91973553Y67196903D01*
X92054588Y67001266D01*
X92095900Y66793578D01*
X92095900Y66581822D01*
X92054588Y66374134D01*
X91973553Y66178497D01*
X91855905Y66002425D01*
X91706175Y65852695D01*
X91530103Y65735047D01*
X91334466Y65654012D01*
X91126778Y65612700D01*
X90915022Y65612700D01*
X90707334Y65654012D01*
X90511697Y65735047D01*
X90335625Y65852695D01*
X90185895Y66002425D01*
X90068247Y66178497D01*
X89987212Y66374134D01*
X89945900Y66581822D01*
X89945900Y66793578D01*
X89987212Y67001266D01*
X90068247Y67196903D01*
X90185895Y67372975D01*
X90335625Y67522705D01*
X90511697Y67640353D01*
X90707334Y67721388D01*
X90915022Y67762700D01*
X91126778Y67762700D01*
X91334466Y67721388D01*
X91334466Y67721388D01*
G37*
G36*
X167534466Y67721388D02*
X167730103Y67640353D01*
X167906175Y67522705D01*
X168055905Y67372975D01*
X168173553Y67196903D01*
X168254588Y67001266D01*
X168295900Y66793578D01*
X168295900Y66581822D01*
X168254588Y66374134D01*
X168173553Y66178497D01*
X168055905Y66002425D01*
X167906175Y65852695D01*
X167730103Y65735047D01*
X167540149Y65656366D01*
X167534466Y65654012D01*
X167326778Y65612700D01*
X167115022Y65612700D01*
X166907334Y65654012D01*
X166901651Y65656366D01*
X166711697Y65735047D01*
X166535625Y65852695D01*
X166385895Y66002425D01*
X166268247Y66178497D01*
X166187212Y66374134D01*
X166145900Y66581822D01*
X166145900Y66793578D01*
X166187212Y67001266D01*
X166268247Y67196903D01*
X166385895Y67372975D01*
X166535625Y67522705D01*
X166711697Y67640353D01*
X166907334Y67721388D01*
X167115022Y67762700D01*
X167326778Y67762700D01*
X167534466Y67721388D01*
X167534466Y67721388D01*
G37*
G36*
X72284466Y67721388D02*
X72480103Y67640353D01*
X72656175Y67522705D01*
X72805905Y67372975D01*
X72923553Y67196903D01*
X73004588Y67001266D01*
X73045900Y66793578D01*
X73045900Y66581822D01*
X73004588Y66374134D01*
X72923553Y66178497D01*
X72805905Y66002425D01*
X72656175Y65852695D01*
X72480103Y65735047D01*
X72284466Y65654012D01*
X72076778Y65612700D01*
X71865022Y65612700D01*
X71657334Y65654012D01*
X71461697Y65735047D01*
X71285625Y65852695D01*
X71135895Y66002425D01*
X71018247Y66178497D01*
X70937212Y66374134D01*
X70895900Y66581822D01*
X70895900Y66793578D01*
X70937212Y67001266D01*
X71018247Y67196903D01*
X71135895Y67372975D01*
X71285625Y67522705D01*
X71461697Y67640353D01*
X71657334Y67721388D01*
X71865022Y67762700D01*
X72076778Y67762700D01*
X72284466Y67721388D01*
X72284466Y67721388D01*
G37*
G36*
X62124466Y67721388D02*
X62320103Y67640353D01*
X62496175Y67522705D01*
X62645905Y67372975D01*
X62763553Y67196903D01*
X62844588Y67001266D01*
X62885900Y66793578D01*
X62885900Y66581822D01*
X62844588Y66374134D01*
X62763553Y66178497D01*
X62645905Y66002425D01*
X62496175Y65852695D01*
X62320103Y65735047D01*
X62124466Y65654012D01*
X61916778Y65612700D01*
X61705022Y65612700D01*
X61497334Y65654012D01*
X61301697Y65735047D01*
X61125625Y65852695D01*
X60975895Y66002425D01*
X60858247Y66178497D01*
X60777212Y66374134D01*
X60735900Y66581822D01*
X60735900Y66793578D01*
X60777212Y67001266D01*
X60858247Y67196903D01*
X60975895Y67372975D01*
X61125625Y67522705D01*
X61301697Y67640353D01*
X61497334Y67721388D01*
X61705022Y67762700D01*
X61916778Y67762700D01*
X62124466Y67721388D01*
X62124466Y67721388D01*
G37*
G36*
X53234466Y67721388D02*
X53430103Y67640353D01*
X53606175Y67522705D01*
X53755905Y67372975D01*
X53873553Y67196903D01*
X53954588Y67001266D01*
X53995900Y66793578D01*
X53995900Y66581822D01*
X53954588Y66374134D01*
X53873553Y66178497D01*
X53755905Y66002425D01*
X53606175Y65852695D01*
X53430103Y65735047D01*
X53234466Y65654012D01*
X53026778Y65612700D01*
X52815022Y65612700D01*
X52607334Y65654012D01*
X52411697Y65735047D01*
X52235625Y65852695D01*
X52085895Y66002425D01*
X51968247Y66178497D01*
X51887212Y66374134D01*
X51845900Y66581822D01*
X51845900Y66793578D01*
X51887212Y67001266D01*
X51968247Y67196903D01*
X52085895Y67372975D01*
X52235625Y67522705D01*
X52411697Y67640353D01*
X52607334Y67721388D01*
X52815022Y67762700D01*
X53026778Y67762700D01*
X53234466Y67721388D01*
X53234466Y67721388D01*
G37*
G36*
X110384466Y67721388D02*
X110580103Y67640353D01*
X110756175Y67522705D01*
X110905905Y67372975D01*
X111023553Y67196903D01*
X111104588Y67001266D01*
X111145900Y66793578D01*
X111145900Y66581822D01*
X111104588Y66374134D01*
X111023553Y66178497D01*
X110905905Y66002425D01*
X110756175Y65852695D01*
X110580103Y65735047D01*
X110390149Y65656366D01*
X110384466Y65654012D01*
X110176778Y65612700D01*
X109965022Y65612700D01*
X109757334Y65654012D01*
X109751651Y65656366D01*
X109561697Y65735047D01*
X109385625Y65852695D01*
X109235895Y66002425D01*
X109118247Y66178497D01*
X109037212Y66374134D01*
X108995900Y66581822D01*
X108995900Y66793578D01*
X109037212Y67001266D01*
X109118247Y67196903D01*
X109235895Y67372975D01*
X109385625Y67522705D01*
X109561697Y67640353D01*
X109757334Y67721388D01*
X109965022Y67762700D01*
X110176778Y67762700D01*
X110384466Y67721388D01*
X110384466Y67721388D01*
G37*
G36*
X81174466Y67721388D02*
X81370103Y67640353D01*
X81546175Y67522705D01*
X81695905Y67372975D01*
X81813553Y67196903D01*
X81894588Y67001266D01*
X81935900Y66793578D01*
X81935900Y66581822D01*
X81894588Y66374134D01*
X81813553Y66178497D01*
X81695905Y66002425D01*
X81546175Y65852695D01*
X81370103Y65735047D01*
X81174466Y65654012D01*
X80966778Y65612700D01*
X80755022Y65612700D01*
X80547334Y65654012D01*
X80351697Y65735047D01*
X80175625Y65852695D01*
X80025895Y66002425D01*
X79908247Y66178497D01*
X79827212Y66374134D01*
X79785900Y66581822D01*
X79785900Y66793578D01*
X79827212Y67001266D01*
X79908247Y67196903D01*
X80025895Y67372975D01*
X80175625Y67522705D01*
X80351697Y67640353D01*
X80547334Y67721388D01*
X80755022Y67762700D01*
X80966778Y67762700D01*
X81174466Y67721388D01*
X81174466Y67721388D01*
G37*
G36*
X34184466Y67721388D02*
X34380103Y67640353D01*
X34556175Y67522705D01*
X34705905Y67372975D01*
X34823553Y67196903D01*
X34904588Y67001266D01*
X34945900Y66793578D01*
X34945900Y66581822D01*
X34904588Y66374134D01*
X34823553Y66178497D01*
X34705905Y66002425D01*
X34556175Y65852695D01*
X34380103Y65735047D01*
X34184466Y65654012D01*
X33976778Y65612700D01*
X33765022Y65612700D01*
X33557334Y65654012D01*
X33361697Y65735047D01*
X33185625Y65852695D01*
X33035895Y66002425D01*
X32918247Y66178497D01*
X32837212Y66374134D01*
X32795900Y66581822D01*
X32795900Y66793578D01*
X32837212Y67001266D01*
X32918247Y67196903D01*
X33035895Y67372975D01*
X33185625Y67522705D01*
X33361697Y67640353D01*
X33557334Y67721388D01*
X33765022Y67762700D01*
X33976778Y67762700D01*
X34184466Y67721388D01*
X34184466Y67721388D01*
G37*
G36*
X4974466Y67721388D02*
X5170103Y67640353D01*
X5346175Y67522705D01*
X5495905Y67372975D01*
X5613553Y67196903D01*
X5694588Y67001266D01*
X5735900Y66793578D01*
X5735900Y66581822D01*
X5694588Y66374134D01*
X5613553Y66178497D01*
X5495905Y66002425D01*
X5346175Y65852695D01*
X5170103Y65735047D01*
X4980149Y65656366D01*
X4974466Y65654012D01*
X4766778Y65612700D01*
X4555022Y65612700D01*
X4347334Y65654012D01*
X4341651Y65656366D01*
X4151697Y65735047D01*
X3975625Y65852695D01*
X3825895Y66002425D01*
X3708247Y66178497D01*
X3627212Y66374134D01*
X3585900Y66581822D01*
X3585900Y66793578D01*
X3627212Y67001266D01*
X3708247Y67196903D01*
X3825895Y67372975D01*
X3975625Y67522705D01*
X4151697Y67640353D01*
X4347334Y67721388D01*
X4555022Y67762700D01*
X4766778Y67762700D01*
X4974466Y67721388D01*
X4974466Y67721388D01*
G37*
G36*
X24024466Y67721388D02*
X24220103Y67640353D01*
X24396175Y67522705D01*
X24545905Y67372975D01*
X24663553Y67196903D01*
X24744588Y67001266D01*
X24785900Y66793578D01*
X24785900Y66581822D01*
X24744588Y66374134D01*
X24663553Y66178497D01*
X24545905Y66002425D01*
X24396175Y65852695D01*
X24220103Y65735047D01*
X24024466Y65654012D01*
X23816778Y65612700D01*
X23605022Y65612700D01*
X23397334Y65654012D01*
X23201697Y65735047D01*
X23025625Y65852695D01*
X22875895Y66002425D01*
X22758247Y66178497D01*
X22677212Y66374134D01*
X22635900Y66581822D01*
X22635900Y66793578D01*
X22677212Y67001266D01*
X22758247Y67196903D01*
X22875895Y67372975D01*
X23025625Y67522705D01*
X23201697Y67640353D01*
X23397334Y67721388D01*
X23605022Y67762700D01*
X23816778Y67762700D01*
X24024466Y67721388D01*
X24024466Y67721388D01*
G37*
G36*
X209179623Y72589072D02*
X209311574Y72549045D01*
X209433180Y72484045D01*
X209539769Y72396570D01*
X209627245Y72289981D01*
X209692245Y72168375D01*
X209731055Y72040434D01*
X209740427Y72017811D01*
X209754041Y71997437D01*
X209771368Y71980110D01*
X209791742Y71966496D01*
X209814381Y71957118D01*
X209838415Y71952338D01*
X209862919Y71952338D01*
X209886953Y71957118D01*
X209909592Y71966496D01*
X209929966Y71980110D01*
X209947293Y71997437D01*
X209966152Y72028900D01*
X209977232Y72055648D01*
X210007151Y72127881D01*
X210064606Y72213868D01*
X210064608Y72213871D01*
X210137729Y72286992D01*
X210142202Y72289981D01*
X210223719Y72344449D01*
X210319263Y72384024D01*
X210319264Y72384024D01*
X210319266Y72384025D01*
X210420691Y72404200D01*
X210524109Y72404200D01*
X210625534Y72384025D01*
X210625536Y72384024D01*
X210625537Y72384024D01*
X210721081Y72344449D01*
X210802598Y72289981D01*
X210807071Y72286992D01*
X210880192Y72213871D01*
X210880194Y72213868D01*
X210937649Y72127881D01*
X210975532Y72036422D01*
X210977225Y72032334D01*
X210997400Y71930909D01*
X210997400Y71827491D01*
X210985222Y71766268D01*
X210977224Y71726063D01*
X210937649Y71630519D01*
X210880452Y71544918D01*
X210880192Y71544529D01*
X210807071Y71471408D01*
X210807068Y71471406D01*
X210721081Y71413951D01*
X210625537Y71374376D01*
X210625536Y71374376D01*
X210625534Y71374375D01*
X210524109Y71354200D01*
X210420691Y71354200D01*
X210319266Y71374375D01*
X210319264Y71374376D01*
X210319263Y71374376D01*
X210223719Y71413951D01*
X210137732Y71471406D01*
X210137729Y71471408D01*
X210064608Y71544529D01*
X210064348Y71544918D01*
X210007151Y71630519D01*
X209982884Y71689107D01*
X209971333Y71710715D01*
X209955788Y71729657D01*
X209936846Y71745202D01*
X209915235Y71756753D01*
X209891786Y71763866D01*
X209867399Y71766268D01*
X209843013Y71763866D01*
X209819564Y71756753D01*
X209797953Y71745201D01*
X209779011Y71729656D01*
X209763466Y71710714D01*
X209751915Y71689103D01*
X209744802Y71665654D01*
X209742400Y71641268D01*
X209742400Y70764810D01*
X209732272Y70661976D01*
X209692245Y70530025D01*
X209627245Y70408419D01*
X209539770Y70301830D01*
X209433181Y70214355D01*
X209311575Y70149355D01*
X209179624Y70109328D01*
X209042400Y70095813D01*
X208905177Y70109328D01*
X208773226Y70149355D01*
X208651620Y70214355D01*
X208545031Y70301830D01*
X208457556Y70408419D01*
X208392556Y70530025D01*
X208352529Y70661976D01*
X208342401Y70764810D01*
X208342400Y71933589D01*
X208352528Y72036423D01*
X208392555Y72168374D01*
X208457555Y72289980D01*
X208545030Y72396569D01*
X208651619Y72484045D01*
X208773225Y72549045D01*
X208905176Y72589072D01*
X209042400Y72602587D01*
X209179623Y72589072D01*
X209179623Y72589072D01*
G37*
G36*
X217819623Y72589072D02*
X217951574Y72549045D01*
X218073180Y72484045D01*
X218179769Y72396570D01*
X218267245Y72289981D01*
X218332245Y72168375D01*
X218372272Y72036424D01*
X218382400Y71933590D01*
X218382400Y70764810D01*
X218372272Y70661976D01*
X218332245Y70530025D01*
X218267245Y70408419D01*
X218179770Y70301830D01*
X218073181Y70214355D01*
X217951575Y70149355D01*
X217819624Y70109328D01*
X217682400Y70095813D01*
X217545177Y70109328D01*
X217413226Y70149355D01*
X217291620Y70214355D01*
X217185031Y70301830D01*
X217097556Y70408419D01*
X217032556Y70530025D01*
X216992529Y70661976D01*
X216982401Y70764810D01*
X216982400Y71641268D01*
X216979998Y71665654D01*
X216972885Y71689104D01*
X216961334Y71710714D01*
X216945788Y71729656D01*
X216926846Y71745202D01*
X216905235Y71756753D01*
X216881786Y71763866D01*
X216857400Y71766268D01*
X216833014Y71763866D01*
X216809564Y71756753D01*
X216787954Y71745202D01*
X216769012Y71729656D01*
X216753466Y71710714D01*
X216741916Y71689107D01*
X216717649Y71630519D01*
X216660452Y71544918D01*
X216660192Y71544529D01*
X216587071Y71471408D01*
X216587068Y71471406D01*
X216501081Y71413951D01*
X216405537Y71374376D01*
X216405536Y71374376D01*
X216405534Y71374375D01*
X216304109Y71354200D01*
X216200691Y71354200D01*
X216099266Y71374375D01*
X216099264Y71374376D01*
X216099263Y71374376D01*
X216003719Y71413951D01*
X215917732Y71471406D01*
X215917729Y71471408D01*
X215844608Y71544529D01*
X215844348Y71544918D01*
X215787151Y71630519D01*
X215747576Y71726063D01*
X215739579Y71766268D01*
X215727400Y71827491D01*
X215727400Y71930909D01*
X215747575Y72032334D01*
X215749268Y72036422D01*
X215787151Y72127881D01*
X215844606Y72213868D01*
X215844608Y72213871D01*
X215917729Y72286992D01*
X215922202Y72289981D01*
X216003719Y72344449D01*
X216099263Y72384024D01*
X216099264Y72384024D01*
X216099266Y72384025D01*
X216200691Y72404200D01*
X216304109Y72404200D01*
X216405534Y72384025D01*
X216405536Y72384024D01*
X216405537Y72384024D01*
X216501081Y72344449D01*
X216582598Y72289981D01*
X216587071Y72286992D01*
X216660192Y72213871D01*
X216660194Y72213868D01*
X216717649Y72127881D01*
X216755532Y72036422D01*
X216758648Y72028899D01*
X216770200Y72007288D01*
X216785745Y71988346D01*
X216804687Y71972801D01*
X216826298Y71961250D01*
X216849747Y71954137D01*
X216874133Y71951735D01*
X216898520Y71954137D01*
X216921969Y71961250D01*
X216943580Y71972802D01*
X216962522Y71988347D01*
X216978067Y72007289D01*
X216993746Y72040439D01*
X217032555Y72168374D01*
X217097555Y72289980D01*
X217185030Y72396569D01*
X217291619Y72484045D01*
X217413225Y72549045D01*
X217545176Y72589072D01*
X217682400Y72602587D01*
X217819623Y72589072D01*
X217819623Y72589072D01*
G37*
G36*
X217819623Y76519072D02*
X217951574Y76479045D01*
X218073180Y76414045D01*
X218179769Y76326570D01*
X218267245Y76219981D01*
X218332245Y76098375D01*
X218372272Y75966424D01*
X218382400Y75863590D01*
X218382400Y75194810D01*
X218372272Y75091976D01*
X218332245Y74960025D01*
X218267245Y74838419D01*
X218179770Y74731830D01*
X218073181Y74644355D01*
X217951575Y74579355D01*
X217819624Y74539328D01*
X217682400Y74525813D01*
X217545177Y74539328D01*
X217413226Y74579355D01*
X217291620Y74644355D01*
X217185031Y74731830D01*
X217097556Y74838419D01*
X217032555Y74960025D01*
X216992528Y75091976D01*
X216982400Y75194810D01*
X216982400Y75863589D01*
X216992528Y75966423D01*
X217032555Y76098374D01*
X217097555Y76219980D01*
X217185030Y76326569D01*
X217291619Y76414045D01*
X217413225Y76479045D01*
X217545176Y76519072D01*
X217682400Y76532587D01*
X217819623Y76519072D01*
X217819623Y76519072D01*
G37*
G36*
X209179623Y76519072D02*
X209311574Y76479045D01*
X209433180Y76414045D01*
X209539769Y76326570D01*
X209627245Y76219981D01*
X209692245Y76098375D01*
X209732272Y75966424D01*
X209742400Y75863590D01*
X209742400Y75194810D01*
X209732272Y75091976D01*
X209692245Y74960025D01*
X209627245Y74838419D01*
X209539770Y74731830D01*
X209433181Y74644355D01*
X209311575Y74579355D01*
X209179624Y74539328D01*
X209042400Y74525813D01*
X208905177Y74539328D01*
X208773226Y74579355D01*
X208651620Y74644355D01*
X208545031Y74731830D01*
X208457556Y74838419D01*
X208392555Y74960025D01*
X208352528Y75091976D01*
X208342400Y75194810D01*
X208342400Y75863589D01*
X208352528Y75966423D01*
X208392555Y76098374D01*
X208457555Y76219980D01*
X208545030Y76326569D01*
X208651619Y76414045D01*
X208773225Y76479045D01*
X208905176Y76519072D01*
X209042400Y76532587D01*
X209179623Y76519072D01*
X209179623Y76519072D01*
G37*
M02*
